<svg width="20" height="20" viewBox="0 0 20 20" fill="none" xmlns="http://www.w3.org/2000/svg">
<g clip-path="url(#clip0_32443_10708)">
<path d="M20 0H0V20H20V0Z" fill="white" fill-opacity="0.01"/>
<path d="M10.0008 18.3307C12.302 18.3307 14.3853 17.398 15.8934 15.8899C17.4014 14.3819 18.3341 12.2986 18.3341 9.9974C18.3341 7.69623 17.4014 5.6129 15.8934 4.10484C14.3853 2.5968 12.302 1.66406 10.0008 1.66406C7.69965 1.66406 5.61631 2.5968 4.10826 4.10484C2.60022 5.6129 1.66748 7.69623 1.66748 9.9974C1.66748 12.2986 2.60022 14.3819 4.10826 15.8899C5.61631 17.398 7.69965 18.3307 10.0008 18.3307Z" stroke="#EC5151" stroke-width="1.11111" stroke-linejoin="round"/>
<path fill-rule="evenodd" clip-rule="evenodd" d="M9.99919 4.58594C10.5745 4.58594 11.0409 5.05231 11.0409 5.6276C11.0409 6.2029 10.5745 6.66927 9.99919 6.66927C9.42389 6.66927 8.95752 6.2029 8.95752 5.6276C8.95752 5.05231 9.42389 4.58594 9.99919 4.58594Z" fill="#EC5151"/>
<path d="M10.2083 14.1693V8.33594H9.79167H9.375" stroke="#EC5151" stroke-width="1.11111" stroke-linecap="round" stroke-linejoin="round"/>
<path d="M8.75 14.1641H11.6667" stroke="#EC5151" stroke-width="1.11111" stroke-linecap="round" stroke-linejoin="round"/>
</g>
<defs>
<clipPath id="clip0_32443_10708">
<rect width="20" height="20" fill="white"/>
</clipPath>
</defs>
</svg>
