<svg width="33" height="32" viewBox="0 0 33 32" fill="none" xmlns="http://www.w3.org/2000/svg">
<rect x="0.4375" width="32" height="32" rx="4" fill="#7525FA"/>
<path d="M26.404 18.3675C26.4062 19.0503 26.4153 19.7337 26.4314 20.418C26.433 20.4879 26.4306 20.5577 26.4241 20.6275C26.4182 20.6948 26.415 20.7638 26.4145 20.8347C26.4129 21.1401 26.3272 21.4074 26.1574 21.6367C26.0502 21.7821 25.8446 21.9408 25.5403 22.1128C22.9317 23.5877 20.3171 25.0526 17.6967 26.5077C17.25 26.7563 17.0242 26.8816 17.0194 26.8837C16.7639 26.9895 16.4987 27.0231 16.2239 26.9845C16.0375 26.958 15.7895 26.8569 15.4799 26.6812C14.7503 26.2685 14.0122 25.8669 13.2655 25.4766C13.1825 25.4052 13.0944 25.3406 13.0012 25.2827C12.8796 25.2072 12.8043 25.1337 12.7754 25.0623C12.7057 24.8887 12.7856 24.7467 13.0148 24.6362L21.3301 19.9849L22.1962 19.4901C22.291 19.4359 22.2974 19.3713 22.2155 19.2962C22.133 19.2207 22.0409 19.1547 21.9391 19.0985C21.1211 18.6451 20.3032 18.1924 19.4853 17.7406C19.2196 17.5754 18.9445 17.4263 18.6601 17.2934C18.4817 17.2106 18.3079 17.2166 18.1386 17.3114C15.1443 18.9838 12.1543 20.6627 9.16854 22.3481C8.96714 22.4617 8.77886 22.5579 8.6037 22.6366C8.50031 22.683 8.39774 22.6809 8.29596 22.6303C7.86476 22.4156 7.45231 22.1819 7.0586 21.9291C6.67775 21.6842 6.47233 21.3368 6.44233 20.8871L6.44795 19.573C6.44849 19.462 6.49589 19.3689 6.59017 19.2939C6.7048 19.2022 6.83389 19.1162 6.97745 19.0359C8.47728 18.2026 9.9747 17.3669 11.4697 16.5289L19.7633 11.894L20.2405 11.6017C20.2523 11.5945 20.262 11.5846 20.2688 11.5727C20.2757 11.5609 20.2795 11.5474 20.2799 11.5334C20.2804 11.5193 20.2775 11.5051 20.2715 11.4919C20.2655 11.4786 20.2566 11.4667 20.2454 11.4571C20.1473 11.3726 20.0437 11.2997 19.9344 11.2382C18.5299 10.4455 17.4535 9.84591 16.7052 9.43941C16.5375 9.34821 16.3627 9.3529 16.1805 9.45349C13.1669 11.1217 10.1555 12.793 7.14618 14.4675C6.97423 14.5634 6.84514 14.6158 6.7589 14.6246C6.54357 14.6476 6.43644 14.5136 6.43751 14.2228C6.44072 13.2759 6.44313 12.3289 6.44474 11.382C6.44527 11.0688 6.48197 10.8317 6.55482 10.6706C6.70266 10.3428 6.96593 10.0791 7.34464 9.87953C7.77423 9.65283 8.92857 9.00295 10.8076 7.9299C12.4028 7.05071 13.9953 6.16736 15.5852 5.27983C15.681 5.22668 15.7807 5.17795 15.8841 5.13365C15.9821 5.09196 16.0847 5.04792 16.1918 5.00154C16.5657 4.99007 16.8573 5.04271 17.0668 5.15945C19.9116 6.74792 22.7538 8.34083 25.5933 9.93816C25.9292 10.1268 26.1649 10.3681 26.3004 10.662C26.3749 10.8231 26.4121 11.0659 26.4121 11.3906C26.4115 11.696 26.4107 12.0017 26.4097 12.3076C26.4091 12.4488 26.3695 12.5702 26.2908 12.6719C26.2425 12.7344 26.1434 12.8084 25.9935 12.8939C24.8536 13.5448 23.6944 14.1931 22.516 14.8388C22.4715 14.8628 22.4713 14.887 22.5152 14.9115C23.5592 15.4942 24.59 16.0729 25.6078 16.6477C26.272 17.0225 26.5374 17.5957 26.404 18.3675Z" fill="white"/>
</svg>
