<svg width="33" height="32" viewBox="0 0 33 32" fill="none" xmlns="http://www.w3.org/2000/svg">
<rect x="0.4375" width="32" height="32" rx="4" fill="#3183FA"/>
<path d="M9.94147 11.7353C13.5291 8.08822 19.346 8.08822 22.9336 11.7353L23.3655 12.1743C23.4081 12.2171 23.4419 12.2685 23.465 12.3252C23.4882 12.3819 23.5001 12.4428 23.5001 12.5044C23.5001 12.566 23.4882 12.627 23.465 12.6837C23.4419 12.7404 23.4081 12.7917 23.3655 12.8346L21.8885 14.3362C21.845 14.38 21.7867 14.4045 21.7261 14.4045C21.6654 14.4045 21.6072 14.38 21.5637 14.3362L20.9694 13.7321C18.4666 11.1878 14.4085 11.1878 11.9057 13.7321L11.2694 14.379C11.2259 14.4228 11.1676 14.4474 11.107 14.4474C11.0464 14.4474 10.9881 14.4228 10.9446 14.379L9.46756 12.8774C9.42499 12.8346 9.39114 12.7832 9.36803 12.7265C9.34491 12.6698 9.333 12.6088 9.333 12.5473C9.333 12.4857 9.34491 12.4247 9.36803 12.368C9.39114 12.3113 9.42499 12.26 9.46756 12.2171L9.94147 11.7353ZM25.9884 14.8406L27.3029 16.177C27.3455 16.2199 27.3793 16.2712 27.4025 16.3279C27.4256 16.3846 27.4375 16.4456 27.4375 16.5072C27.4375 16.5688 27.4256 16.6297 27.4025 16.6865C27.3793 16.7432 27.3455 16.7945 27.3029 16.8374L21.3754 22.8632C21.2884 22.9509 21.1719 23 21.0506 23C20.9294 23 20.8129 22.9509 20.7258 22.8632L16.5188 18.5865C16.4971 18.5646 16.4679 18.5523 16.4376 18.5523C16.4073 18.5523 16.3782 18.5646 16.3564 18.5865L12.1494 22.8631C12.0624 22.9508 11.9459 22.9998 11.8246 22.9998C11.7033 22.9998 11.5868 22.9508 11.4998 22.8631L5.57206 16.8375C5.52949 16.7946 5.49564 16.7433 5.47252 16.6866C5.44941 16.6299 5.4375 16.5689 5.4375 16.5073C5.4375 16.4458 5.44941 16.3848 5.47252 16.3281C5.49564 16.2714 5.52949 16.22 5.57206 16.1772L6.8867 14.8407C6.97372 14.753 7.09023 14.704 7.21151 14.704C7.33279 14.704 7.4493 14.753 7.53631 14.8407L11.7435 19.1171C11.7652 19.1391 11.7944 19.1513 11.8247 19.1513C11.855 19.1513 11.8841 19.1391 11.9059 19.1171L16.1127 14.8406C16.1998 14.7529 16.3163 14.7038 16.4375 14.7038C16.5588 14.7038 16.6753 14.7529 16.7623 14.8406L20.9694 19.1173C20.9911 19.1392 21.0202 19.1515 21.0506 19.1515C21.0809 19.1515 21.11 19.1392 21.1318 19.1173L25.3388 14.8407C25.4258 14.753 25.5423 14.704 25.6636 14.704C25.7849 14.704 25.9014 14.753 25.9884 14.8407V14.8406Z" fill="white"/>
</svg>
