<svg width="1440" height="951" viewBox="0 0 1440 951" fill="none" xmlns="http://www.w3.org/2000/svg">
<g clip-path="url(#clip0_1735_3366)" filter="url(#filter0_b_1735_3366)">
<rect width="1649.38" height="1002" transform="translate(-104.523)" fill="white"/>
<mask id="mask0_1735_3366" style="mask-type:alpha" maskUnits="userSpaceOnUse" x="-183" y="-50" width="1807" height="1130">
<rect x="1623.17" y="1079.01" width="1805.64" height="1128.53" transform="rotate(-180 1623.17 1079.01)" fill="#C4C4C4"/>
</mask>
<g mask="url(#mask0_1735_3366)">
<mask id="mask1_1735_3366" style="mask-type:alpha" maskUnits="userSpaceOnUse" x="-302" y="-170" width="1984" height="1303">
<rect x="-301.047" y="-169" width="1982.66" height="1301.87" fill="#F5288F"/>
</mask>
<g mask="url(#mask1_1735_3366)">
<g filter="url(#filter1_f_1735_3366)">
<circle cx="152.869" cy="-31.8428" r="692.736" fill="#3757FD"/>
</g>
<g filter="url(#filter2_f_1735_3366)">
<circle cx="2007.04" cy="481.181" r="692.736" fill="#3757FD"/>
</g>
<g filter="url(#filter3_f_1735_3366)">
<circle cx="1609.82" cy="-118.978" r="504.623" fill="#512EDB"/>
</g>
<g filter="url(#filter4_f_1735_3366)">
<circle cx="-300.771" cy="840.173" r="692.736" fill="#36E2FF"/>
</g>
<g filter="url(#filter5_f_1735_3366)">
<circle cx="875.443" cy="-229.104" r="579.271" fill="#3757FD"/>
</g>
<path d="M-217.28 -210.896C475.297 -83.5457 686.887 399.854 1012 986.486L-461.865 507.928C-611.195 225.87 -771.341 -312.776 -217.28 -210.896Z" fill="#36E2FF"/>
<g filter="url(#filter6_f_1735_3366)">
<path d="M-168.614 -218.09C523.962 -90.7403 565.185 262.636 890.299 849.269L-393.136 550.89C-542.467 268.832 -722.676 -319.97 -168.614 -218.09Z" fill="#36E2FF"/>
</g>
<g filter="url(#filter7_f_1735_3366)">
<path d="M-269.278 -318.463C425.253 -199.381 434.449 149.539 739.319 813.174L-545.232 520.539C-684.757 201.177 -824.903 -413.73 -269.278 -318.463Z" fill="#36E2FF"/>
</g>
<g filter="url(#filter8_f_1735_3366)">
<circle cx="690.615" cy="1132.57" r="579.271" fill="#3757FD"/>
</g>
<path d="M-764.985 396.034C289.507 318.056 780.448 939.964 1475.51 1668.74L-847.352 1533.17C-1171.39 1180.12 -1608.58 458.417 -764.985 396.034Z" fill="#36E2FF"/>
<g filter="url(#filter9_f_1735_3366)">
<path d="M-881.149 258.073C173.343 180.094 319.22 612.559 1014.28 1341.33L-963.516 1395.21C-1287.56 1042.16 -1724.74 320.456 -881.149 258.073Z" fill="#9F27E8"/>
</g>
<g filter="url(#filter10_f_1735_3366)">
<path d="M-600.446 431.159C454.046 353.18 599.924 785.645 1294.99 1514.42L-682.813 1568.3C-1006.85 1215.24 -1444.04 493.542 -600.446 431.159Z" fill="#9F27E8"/>
</g>
<g filter="url(#filter11_f_1735_3366)">
<circle cx="-211.154" cy="1132.71" r="692.736" fill="#3757FD"/>
</g>
<g filter="url(#filter12_f_1735_3366)">
<path d="M-20.1539 517.649C-20.1028 755.117 -212.567 947.665 -450.036 947.716C-687.504 947.767 -880.052 755.302 -880.103 517.834C-880.154 280.365 -687.689 87.818 -450.221 87.7669C-212.752 87.7158 -20.205 280.18 -20.1539 517.649Z" fill="#36E2FF"/>
</g>
<g filter="url(#filter13_f_1735_3366)">
<ellipse cx="707.806" cy="891.6" rx="370.533" ry="269.592" fill="#2BD7F2"/>
</g>
</g>
<g filter="url(#filter14_f_1735_3366)">
<ellipse cx="688.783" cy="577.546" rx="345.315" ry="525.033" transform="rotate(145.811 688.783 577.546)" fill="#512EDB"/>
</g>
<mask id="mask2_1735_3366" style="mask-type:alpha" maskUnits="userSpaceOnUse" x="-575" y="-287" width="2559" height="2019">
<path d="M-373.256 -286.197L-574.693 1259.65L853.522 1731.94L1277.52 1730.88L1983.8 875.06L1930.97 180.347L693.821 -114.187L-373.256 -286.197Z" fill="url(#paint0_linear_1735_3366)"/>
</mask>
<g mask="url(#mask2_1735_3366)">
<mask id="mask3_1735_3366" style="mask-type:alpha" maskUnits="userSpaceOnUse" x="-637" y="-298" width="2672" height="2130">
<path d="M2034.84 236.25C1867.55 934.776 1576.68 1796.3 1570.65 1831.64L-636.253 1296.36L-387.026 -297.567L2034.84 236.25Z" fill="url(#paint1_linear_1735_3366)"/>
</mask>
<g mask="url(#mask3_1735_3366)">
<path d="M835.333 1418.18C593.354 1360.57 449.483 1061.88 502.897 837.527C556.31 613.172 724.359 342.067 983.982 403.877C1112.64 434.507 1304.56 321.722 1430.81 469.836C1559.33 620.612 1451.1 918.181 1424.16 1031.36C1370.75 1255.71 1077.31 1475.79 835.333 1418.18Z" fill="#512EDB"/>
<g filter="url(#filter15_f_1735_3366)">
<path d="M842.782 1399.67C583.265 1337.88 443.79 1099.38 485.259 925.196C526.727 751.015 679.061 545.744 938.578 607.528C1067.18 638.146 1252.13 554.355 1384.27 677.47C1518.79 802.796 1426.86 1031.94 1405.94 1119.8C1364.47 1293.99 1102.3 1461.45 842.782 1399.67Z" fill="#512EDB"/>
</g>
<g filter="url(#filter16_f_1735_3366)">
<path d="M823.318 1342.57C532.45 1273.32 381.398 983.859 432.602 768.782C483.807 553.705 660.746 297.582 951.614 366.831C1095.75 401.147 1311.1 273.41 1456.85 421.284C1605.22 571.815 1491.41 873.908 1465.58 982.404C1414.37 1197.48 1114.19 1411.82 823.318 1342.57Z" fill="#512EDB"/>
</g>
<g filter="url(#filter17_f_1735_3366)">
<path d="M1331.25 788.665C1123.72 702.213 989.04 474.271 1028.86 306.998C1068.69 139.725 1221.31 -15.0197 1431 34.9039C1534.92 59.6435 1711.9 -90.8622 1815.53 21.8286C1921.02 136.544 1835.84 439.088 1815.75 523.469C1775.93 690.741 1571.66 888.816 1331.25 788.665Z" fill="#512EDB"/>
</g>
<g filter="url(#filter18_f_1735_3366)">
<path d="M729.056 1171.38C353.448 1081.96 88.6178 640.072 153.389 368.011C218.16 95.9496 484.44 -151.439 860.048 -62.0159C1046.18 -17.7025 1296.9 -67.7264 1485.78 120.402C1678.06 311.911 1653.53 902.163 1620.86 1039.4C1556.09 1311.47 1104.66 1260.81 729.056 1171.38Z" fill="#512EDB"/>
</g>
<g filter="url(#filter19_f_1735_3366)">
<path d="M581.96 1021.6C193.804 929.185 -53.0559 482.937 13.1921 204.673C79.4401 -73.592 353.873 -326.126 742.029 -233.715C934.379 -187.922 1131.96 256.908 1327.5 449.885C1526.55 646.328 1383.29 1013.25 1349.88 1153.62C1283.63 1431.89 970.116 1114.01 581.96 1021.6Z" fill="#512EDB"/>
</g>
<g filter="url(#filter20_f_1735_3366)">
<path d="M1043.69 1195C705.876 1106.84 510.24 666.219 582.472 389.447C654.704 112.675 909.301 -140.465 1247.12 -52.302C1414.52 -8.61315 1636.99 -29.1892 1799.91 160.543C1965.76 353.684 1821.21 719.152 1784.77 858.77C1712.54 1135.54 1381.51 1283.17 1043.69 1195Z" fill="#512EDB"/>
</g>
</g>
</g>
<mask id="mask4_1735_3366" style="mask-type:alpha" maskUnits="userSpaceOnUse" x="-1818" y="-483" width="2879" height="2593">
<path d="M1061 820.805C710.106 260.862 262.369 -453.368 247.108 -482.638L-1817.1 806.289L-1003.21 2109.73L1061 820.805Z" fill="url(#paint2_linear_1735_3366)"/>
</mask>
<g mask="url(#mask4_1735_3366)">
<path d="M-571.248 346.275C-804.064 491.649 -874.463 814.616 -762.088 994.584C-649.713 1174.55 -407.997 1351.88 -158.205 1195.91C-34.4215 1118.61 190.995 1145.07 282.1 963.619C374.842 778.909 187.535 554.711 130.847 463.926C18.4723 283.958 -338.432 200.901 -571.248 346.275Z" fill="#512EDB"/>
<g filter="url(#filter21_f_1735_3366)">
<path d="M-558.796 359.86C-808.486 515.77 -879.439 799.901 -782.845 954.595C-686.251 1109.29 -465.283 1253.47 -215.594 1097.56C-91.8604 1020.3 125.457 1033.93 224.361 865.099C325.042 693.239 159.272 503.502 110.545 425.466C13.9514 270.772 -309.107 203.949 -558.796 359.86Z" fill="#512EDB"/>
</g>
<g filter="url(#filter22_f_1735_3366)">
<path d="M-566.389 364.592C-846.242 539.337 -913.692 877.13 -794.604 1067.85C-675.516 1258.57 -413.647 1442.92 -133.794 1268.18C4.88704 1181.58 267.07 1226.66 372.531 1028.8C479.887 827.394 269.254 574.958 209.18 478.75C90.0913 288.031 -286.536 189.847 -566.389 364.592Z" fill="#512EDB"/>
</g>
<g filter="url(#filter23_f_1735_3366)">
<path d="M-584.563 407.413C-900.869 669.942 -1032.61 1096.01 -893.235 1319.23C-753.858 1542.44 -427.815 1674.24 -92.1864 1464.67C74.1337 1360.81 439.847 1470.59 568.042 1236.05C698.54 997.291 462.708 721.418 392.399 608.818C253.021 385.606 -218.14 103.288 -584.563 407.413Z" fill="#512EDB"/>
</g>
<g filter="url(#filter24_f_1735_3366)">
<path d="M-644.57 570.39C-1005.95 796.044 -1137.49 1277.9 -1001.22 1496.13C-864.951 1714.37 -528.809 1832.39 -167.425 1606.73C11.6578 1494.91 281.104 1442.42 426.01 1200.89C573.52 955.021 338.415 688.126 269.673 578.036C133.403 359.8 -283.187 344.736 -644.57 570.39Z" fill="#512EDB"/>
</g>
<g filter="url(#filter25_f_1735_3366)">
<path d="M-730.849 745.337C-1104.31 978.53 -1242.14 1473.43 -1102.77 1696.64C-963.388 1919.85 -617.579 2039.31 -244.122 1806.12C-59.0559 1690.56 218.84 1635.44 369.307 1386.99C522.477 1134.08 281.489 861.424 211.18 748.824C71.8028 525.612 -357.393 512.144 -730.849 745.337Z" fill="#512EDB"/>
</g>
<g filter="url(#filter26_f_1735_3366)">
<path d="M-472.066 534.441C-798.841 738.485 -896.49 1208.29 -757.112 1431.5C-617.735 1654.71 -296.317 1789.4 30.4573 1585.36C192.39 1484.25 426.082 1420.85 549.064 1189.56C674.257 954.123 439.631 677.496 369.321 564.896C229.944 341.684 -145.292 330.397 -472.066 534.441Z" fill="#512EDB"/>
</g>
</g>
<mask id="mask5_1735_3366" style="mask-type:alpha" maskUnits="userSpaceOnUse" x="244" y="-431" width="1629" height="988">
<path d="M297.705 -430.809L244.386 112.903L1850.39 556.558L1872.53 -57.3212L297.705 -430.809Z" fill="url(#paint3_linear_1735_3366)"/>
</mask>
<g mask="url(#mask5_1735_3366)">
<mask id="mask6_1735_3366" style="mask-type:alpha" maskUnits="userSpaceOnUse" x="236" y="-501" width="1590" height="1086">
<path d="M236.811 250.723L346.461 -500.835L1825.89 -74.6543L1745.2 584.397L236.811 250.723Z" fill="url(#paint4_linear_1735_3366)"/>
</mask>
<g mask="url(#mask6_1735_3366)">
<path d="M1291.57 172.343C1062.08 -50.9259 802.564 -63.1619 615.826 -51.8574L462.852 -53.1978L364.887 -73.7846L525.389 -269.362L808.236 -242.765L1443.5 -73.4076C1443.5 -73.4076 1937.17 219.98 1794.93 222.732C1673.35 240.051 1529.74 342.353 1291.57 172.343Z" fill="#5118CB"/>
<g filter="url(#filter27_f_1735_3366)">
<path d="M1291.57 172.343C1045.02 -20.9369 1041.9 -37.4257 713.097 -56.3157L462.852 -53.1978L364.887 -73.7846L525.389 -269.362L808.236 -242.765L1443.5 -73.4076C1443.5 -73.4076 1937.17 219.98 1794.93 222.732C1673.35 240.051 1529.74 342.353 1291.57 172.343Z" fill="#5118CB"/>
</g>
<g filter="url(#filter28_f_1735_3366)">
<path d="M1291.57 172.343C964.11 -131.378 960.099 -25.9312 631.297 -44.8212L536.031 -42.1304L436.695 -52.9573L364.887 -73.7846L525.389 -269.362L808.236 -242.765L1443.5 -73.4076C1443.5 -73.4076 1937.17 219.98 1794.93 222.732C1673.35 240.051 1531.11 374.644 1291.57 172.343Z" fill="#5118CB"/>
</g>
<g filter="url(#filter29_f_1735_3366)">
<path d="M1351.11 208.311C1023.65 -95.4091 990.173 -189.207 583.966 -44.3996L488.7 -41.7088L337.054 -52.0581L217.861 -72.4715L525.796 -268.953L808.643 -242.356L1443.9 -72.9985C1443.9 -72.9985 1937.58 220.389 1795.33 223.141C1673.76 240.46 1590.64 410.612 1351.11 208.311Z" fill="#5118CB"/>
</g>
<g filter="url(#filter30_f_1735_3366)">
<path d="M1334.85 292.47C1116.37 -3.21954 925.771 -62.6285 625.077 31.2625L231.325 140.865L179.286 59.1461L193.197 -5.13557L501.131 -201.617L783.979 -175.02L1419.24 -5.6626C1419.24 -5.6626 1912.92 287.725 1770.67 290.477C1649.09 307.796 1620.48 616.653 1334.85 292.47Z" fill="#5118CB"/>
</g>
</g>
</g>
</g>
</g>
<defs>
<filter id="filter0_b_1735_3366" x="-137.511" y="-32.9877" width="1715.36" height="1067.98" filterUnits="userSpaceOnUse" color-interpolation-filters="sRGB">
<feFlood flood-opacity="0" result="BackgroundImageFix"/>
<feGaussianBlur in="BackgroundImageFix" stdDeviation="16.4938"/>
<feComposite in2="SourceAlpha" operator="in" result="effect1_backgroundBlur_1735_3366"/>
<feBlend mode="normal" in="SourceGraphic" in2="effect1_backgroundBlur_1735_3366" result="shape"/>
</filter>
<filter id="filter1_f_1735_3366" x="-1232.6" y="-1417.31" width="2770.94" height="2770.94" filterUnits="userSpaceOnUse" color-interpolation-filters="sRGB">
<feFlood flood-opacity="0" result="BackgroundImageFix"/>
<feBlend mode="normal" in="SourceGraphic" in2="BackgroundImageFix" result="shape"/>
<feGaussianBlur stdDeviation="346.368" result="effect1_foregroundBlur_1735_3366"/>
</filter>
<filter id="filter2_f_1735_3366" x="621.569" y="-904.291" width="2770.94" height="2770.94" filterUnits="userSpaceOnUse" color-interpolation-filters="sRGB">
<feFlood flood-opacity="0" result="BackgroundImageFix"/>
<feBlend mode="normal" in="SourceGraphic" in2="BackgroundImageFix" result="shape"/>
<feGaussianBlur stdDeviation="346.368" result="effect1_foregroundBlur_1735_3366"/>
</filter>
<filter id="filter3_f_1735_3366" x="412.459" y="-1316.34" width="2394.71" height="2394.72" filterUnits="userSpaceOnUse" color-interpolation-filters="sRGB">
<feFlood flood-opacity="0" result="BackgroundImageFix"/>
<feBlend mode="normal" in="SourceGraphic" in2="BackgroundImageFix" result="shape"/>
<feGaussianBlur stdDeviation="346.368" result="effect1_foregroundBlur_1735_3366"/>
</filter>
<filter id="filter4_f_1735_3366" x="-1686.24" y="-545.298" width="2770.94" height="2770.94" filterUnits="userSpaceOnUse" color-interpolation-filters="sRGB">
<feFlood flood-opacity="0" result="BackgroundImageFix"/>
<feBlend mode="normal" in="SourceGraphic" in2="BackgroundImageFix" result="shape"/>
<feGaussianBlur stdDeviation="346.368" result="effect1_foregroundBlur_1735_3366"/>
</filter>
<filter id="filter5_f_1735_3366" x="-396.564" y="-1501.11" width="2544.01" height="2544.01" filterUnits="userSpaceOnUse" color-interpolation-filters="sRGB">
<feFlood flood-opacity="0" result="BackgroundImageFix"/>
<feBlend mode="normal" in="SourceGraphic" in2="BackgroundImageFix" result="shape"/>
<feGaussianBlur stdDeviation="346.368" result="effect1_foregroundBlur_1735_3366"/>
</filter>
<filter id="filter6_f_1735_3366" x="-621.785" y="-306.667" width="1588.95" height="1232.8" filterUnits="userSpaceOnUse" color-interpolation-filters="sRGB">
<feFlood flood-opacity="0" result="BackgroundImageFix"/>
<feBlend mode="normal" in="SourceGraphic" in2="BackgroundImageFix" result="shape"/>
<feGaussianBlur stdDeviation="38.4353" result="effect1_foregroundBlur_1735_3366"/>
</filter>
<filter id="filter7_f_1735_3366" x="-829.374" y="-487.241" width="1727.56" height="1459.28" filterUnits="userSpaceOnUse" color-interpolation-filters="sRGB">
<feFlood flood-opacity="0" result="BackgroundImageFix"/>
<feBlend mode="normal" in="SourceGraphic" in2="BackgroundImageFix" result="shape"/>
<feGaussianBlur stdDeviation="79.433" result="effect1_foregroundBlur_1735_3366"/>
</filter>
<filter id="filter8_f_1735_3366" x="-581.392" y="-139.439" width="2544.01" height="2544.01" filterUnits="userSpaceOnUse" color-interpolation-filters="sRGB">
<feFlood flood-opacity="0" result="BackgroundImageFix"/>
<feBlend mode="normal" in="SourceGraphic" in2="BackgroundImageFix" result="shape"/>
<feGaussianBlur stdDeviation="346.368" result="effect1_foregroundBlur_1735_3366"/>
</filter>
<filter id="filter9_f_1735_3366" x="-1554.89" y="63.9114" width="2754.3" height="1516.43" filterUnits="userSpaceOnUse" color-interpolation-filters="sRGB">
<feFlood flood-opacity="0" result="BackgroundImageFix"/>
<feBlend mode="normal" in="SourceGraphic" in2="BackgroundImageFix" result="shape"/>
<feGaussianBlur stdDeviation="92.5638" result="effect1_foregroundBlur_1735_3366"/>
</filter>
<filter id="filter10_f_1735_3366" x="-1226.42" y="284.772" width="2658.75" height="1420.88" filterUnits="userSpaceOnUse" color-interpolation-filters="sRGB">
<feFlood flood-opacity="0" result="BackgroundImageFix"/>
<feBlend mode="normal" in="SourceGraphic" in2="BackgroundImageFix" result="shape"/>
<feGaussianBlur stdDeviation="68.6764" result="effect1_foregroundBlur_1735_3366"/>
</filter>
<filter id="filter11_f_1735_3366" x="-1596.63" y="-252.759" width="2770.94" height="2770.94" filterUnits="userSpaceOnUse" color-interpolation-filters="sRGB">
<feFlood flood-opacity="0" result="BackgroundImageFix"/>
<feBlend mode="normal" in="SourceGraphic" in2="BackgroundImageFix" result="shape"/>
<feGaussianBlur stdDeviation="346.368" result="effect1_foregroundBlur_1735_3366"/>
</filter>
<filter id="filter12_f_1735_3366" x="-1572.84" y="-604.97" width="2245.42" height="2245.42" filterUnits="userSpaceOnUse" color-interpolation-filters="sRGB">
<feFlood flood-opacity="0" result="BackgroundImageFix"/>
<feBlend mode="normal" in="SourceGraphic" in2="BackgroundImageFix" result="shape"/>
<feGaussianBlur stdDeviation="346.368" result="effect1_foregroundBlur_1735_3366"/>
</filter>
<filter id="filter13_f_1735_3366" x="-38.902" y="245.832" width="1493.41" height="1291.54" filterUnits="userSpaceOnUse" color-interpolation-filters="sRGB">
<feFlood flood-opacity="0" result="BackgroundImageFix"/>
<feBlend mode="normal" in="SourceGraphic" in2="BackgroundImageFix" result="shape"/>
<feGaussianBlur stdDeviation="188.088" result="effect1_foregroundBlur_1735_3366"/>
</filter>
<filter id="filter14_f_1735_3366" x="-33.5105" y="-209.893" width="1444.58" height="1574.88" filterUnits="userSpaceOnUse" color-interpolation-filters="sRGB">
<feFlood flood-opacity="0" result="BackgroundImageFix"/>
<feBlend mode="normal" in="SourceGraphic" in2="BackgroundImageFix" result="shape"/>
<feGaussianBlur stdDeviation="155.822" result="effect1_foregroundBlur_1735_3366"/>
</filter>
<filter id="filter15_f_1735_3366" x="465.573" y="583.831" width="1002.93" height="841.392" filterUnits="userSpaceOnUse" color-interpolation-filters="sRGB">
<feFlood flood-opacity="0" result="BackgroundImageFix"/>
<feBlend mode="normal" in="SourceGraphic" in2="BackgroundImageFix" result="shape"/>
<feGaussianBlur stdDeviation="6.23287" result="effect1_foregroundBlur_1735_3366"/>
</filter>
<filter id="filter16_f_1735_3366" x="379.12" y="304.44" width="1196.14" height="1095.01" filterUnits="userSpaceOnUse" color-interpolation-filters="sRGB">
<feFlood flood-opacity="0" result="BackgroundImageFix"/>
<feBlend mode="normal" in="SourceGraphic" in2="BackgroundImageFix" result="shape"/>
<feGaussianBlur stdDeviation="21.815" result="effect1_foregroundBlur_1735_3366"/>
</filter>
<filter id="filter17_f_1735_3366" x="972.183" y="-70.2618" width="944.797" height="935.688" filterUnits="userSpaceOnUse" color-interpolation-filters="sRGB">
<feFlood flood-opacity="0" result="BackgroundImageFix"/>
<feBlend mode="normal" in="SourceGraphic" in2="BackgroundImageFix" result="shape"/>
<feGaussianBlur stdDeviation="24.8536" result="effect1_foregroundBlur_1735_3366"/>
</filter>
<filter id="filter18_f_1735_3366" x="-24.6624" y="-248.92" width="1836.19" height="1659.93" filterUnits="userSpaceOnUse" color-interpolation-filters="sRGB">
<feFlood flood-opacity="0" result="BackgroundImageFix"/>
<feBlend mode="normal" in="SourceGraphic" in2="BackgroundImageFix" result="shape"/>
<feGaussianBlur stdDeviation="84.1437" result="effect1_foregroundBlur_1735_3366"/>
</filter>
<filter id="filter19_f_1735_3366" x="-415.133" y="-670.735" width="2263.75" height="2353.69" filterUnits="userSpaceOnUse" color-interpolation-filters="sRGB">
<feFlood flood-opacity="0" result="BackgroundImageFix"/>
<feBlend mode="normal" in="SourceGraphic" in2="BackgroundImageFix" result="shape"/>
<feGaussianBlur stdDeviation="208.801" result="effect1_foregroundBlur_1735_3366"/>
</filter>
<filter id="filter20_f_1735_3366" x="374.32" y="-263.36" width="1696.82" height="1677.06" filterUnits="userSpaceOnUse" color-interpolation-filters="sRGB">
<feFlood flood-opacity="0" result="BackgroundImageFix"/>
<feBlend mode="normal" in="SourceGraphic" in2="BackgroundImageFix" result="shape"/>
<feGaussianBlur stdDeviation="96.6095" result="effect1_foregroundBlur_1735_3366"/>
</filter>
<filter id="filter21_f_1735_3366" x="-836.809" y="258.581" width="1105.49" height="918.572" filterUnits="userSpaceOnUse" color-interpolation-filters="sRGB">
<feFlood flood-opacity="0" result="BackgroundImageFix"/>
<feBlend mode="normal" in="SourceGraphic" in2="BackgroundImageFix" result="shape"/>
<feGaussianBlur stdDeviation="6.23287" result="effect1_foregroundBlur_1735_3366"/>
</filter>
<filter id="filter22_f_1735_3366" x="-894.443" y="229.925" width="1340.61" height="1151.96" filterUnits="userSpaceOnUse" color-interpolation-filters="sRGB">
<feFlood flood-opacity="0" result="BackgroundImageFix"/>
<feBlend mode="normal" in="SourceGraphic" in2="BackgroundImageFix" result="shape"/>
<feGaussianBlur stdDeviation="21.815" result="effect1_foregroundBlur_1735_3366"/>
</filter>
<filter id="filter23_f_1735_3366" x="-1010.87" y="212.078" width="1679.92" height="1420.24" filterUnits="userSpaceOnUse" color-interpolation-filters="sRGB">
<feFlood flood-opacity="0" result="BackgroundImageFix"/>
<feBlend mode="normal" in="SourceGraphic" in2="BackgroundImageFix" result="shape"/>
<feGaussianBlur stdDeviation="31.1643" result="effect1_foregroundBlur_1735_3366"/>
</filter>
<filter id="filter24_f_1735_3366" x="-1222.15" y="239.361" width="1864.19" height="1657.39" filterUnits="userSpaceOnUse" color-interpolation-filters="sRGB">
<feFlood flood-opacity="0" result="BackgroundImageFix"/>
<feBlend mode="normal" in="SourceGraphic" in2="BackgroundImageFix" result="shape"/>
<feGaussianBlur stdDeviation="84.1437" result="effect1_foregroundBlur_1735_3366"/>
</filter>
<filter id="filter25_f_1735_3366" x="-1573.6" y="158.265" width="2410.52" height="2192.19" filterUnits="userSpaceOnUse" color-interpolation-filters="sRGB">
<feFlood flood-opacity="0" result="BackgroundImageFix"/>
<feBlend mode="normal" in="SourceGraphic" in2="BackgroundImageFix" result="shape"/>
<feGaussianBlur stdDeviation="208.801" result="effect1_foregroundBlur_1735_3366"/>
</filter>
<filter id="filter26_f_1735_3366" x="-1012" y="195.844" width="1790.43" height="1683.24" filterUnits="userSpaceOnUse" color-interpolation-filters="sRGB">
<feFlood flood-opacity="0" result="BackgroundImageFix"/>
<feBlend mode="normal" in="SourceGraphic" in2="BackgroundImageFix" result="shape"/>
<feGaussianBlur stdDeviation="96.6094" result="effect1_foregroundBlur_1735_3366"/>
</filter>
<filter id="filter27_f_1735_3366" x="349.918" y="-284.332" width="1485.72" height="568.336" filterUnits="userSpaceOnUse" color-interpolation-filters="sRGB">
<feFlood flood-opacity="0" result="BackgroundImageFix"/>
<feBlend mode="normal" in="SourceGraphic" in2="BackgroundImageFix" result="shape"/>
<feGaussianBlur stdDeviation="7.48623" result="effect1_foregroundBlur_1735_3366"/>
</filter>
<filter id="filter28_f_1735_3366" x="341.362" y="-292.888" width="1502.83" height="599.025" filterUnits="userSpaceOnUse" color-interpolation-filters="sRGB">
<feFlood flood-opacity="0" result="BackgroundImageFix"/>
<feBlend mode="normal" in="SourceGraphic" in2="BackgroundImageFix" result="shape"/>
<feGaussianBlur stdDeviation="11.7641" result="effect1_foregroundBlur_1735_3366"/>
</filter>
<filter id="filter29_f_1735_3366" x="177.22" y="-309.593" width="1684.49" height="656.748" filterUnits="userSpaceOnUse" color-interpolation-filters="sRGB">
<feFlood flood-opacity="0" result="BackgroundImageFix"/>
<feBlend mode="normal" in="SourceGraphic" in2="BackgroundImageFix" result="shape"/>
<feGaussianBlur stdDeviation="20.3198" result="effect1_foregroundBlur_1735_3366"/>
</filter>
<filter id="filter30_f_1735_3366" x="112.982" y="-267.924" width="1749.73" height="774.168" filterUnits="userSpaceOnUse" color-interpolation-filters="sRGB">
<feFlood flood-opacity="0" result="BackgroundImageFix"/>
<feBlend mode="normal" in="SourceGraphic" in2="BackgroundImageFix" result="shape"/>
<feGaussianBlur stdDeviation="33.1533" result="effect1_foregroundBlur_1735_3366"/>
</filter>
<linearGradient id="paint0_linear_1735_3366" x1="518.842" y1="909.721" x2="1327.36" y2="1033.37" gradientUnits="userSpaceOnUse">
<stop stop-color="#C4C4C4"/>
<stop offset="0.943414" stop-color="#C4C4C4" stop-opacity="0"/>
</linearGradient>
<linearGradient id="paint1_linear_1735_3366" x1="830.803" y1="1314.54" x2="1044.21" y2="386.4" gradientUnits="userSpaceOnUse">
<stop stop-color="#C4C4C4"/>
<stop offset="1" stop-color="#C4C4C4" stop-opacity="0"/>
</linearGradient>
<linearGradient id="paint2_linear_1735_3366" x1="-487.011" y1="262.753" x2="60.0677" y2="1204.34" gradientUnits="userSpaceOnUse">
<stop stop-color="#C4C4C4"/>
<stop offset="1" stop-color="#C4C4C4" stop-opacity="0"/>
</linearGradient>
<linearGradient id="paint3_linear_1735_3366" x1="1058.66" y1="27.6144" x2="1099.88" y2="-156.94" gradientUnits="userSpaceOnUse">
<stop stop-color="#C4C4C4"/>
<stop offset="1" stop-color="#C4C4C4" stop-opacity="0"/>
</linearGradient>
<linearGradient id="paint4_linear_1735_3366" x1="1800.26" y1="180.975" x2="349.557" y2="-110.549" gradientUnits="userSpaceOnUse">
<stop stop-color="#C4C4C4" stop-opacity="0"/>
<stop offset="0.364583" stop-color="#C4C4C4"/>
<stop offset="0.609375" stop-color="#C4C4C4"/>
<stop offset="1" stop-color="#C4C4C4" stop-opacity="0"/>
</linearGradient>
<clipPath id="clip0_1735_3366">
<rect width="1649.38" height="1002" fill="white" transform="translate(-104.523)"/>
</clipPath>
</defs>
</svg>
