<svg width="129" height="27" viewBox="0 0 129 27" fill="none" xmlns="http://www.w3.org/2000/svg">
<path d="M40.3585 13.7286H40.873C41.4107 13.7286 41.8233 13.6065 42.1107 13.3621C42.3981 13.1178 42.5418 12.7666 42.5418 12.3085C42.5418 11.8504 42.3981 11.4991 42.1107 11.2548C41.8233 11.0105 41.4107 10.8883 40.873 10.8883H40.3585V13.7286ZM46.3522 20.0965H42.959L40.3585 15.668V20.0965H37.6328V8.58244H41.8743C42.4584 8.58244 42.9683 8.67916 43.404 8.87259C43.8397 9.05583 44.1967 9.31034 44.4748 9.63612C44.7622 9.96189 44.9754 10.3386 45.1145 10.7661C45.2628 11.1937 45.337 11.6518 45.337 12.1405C45.337 13.016 45.1423 13.7286 44.7529 14.2784C44.3728 14.8179 43.8073 15.1844 43.0563 15.3779L46.3522 20.0965Z" fill="white"/>
<path d="M48.5948 16.1567C48.5948 16.4112 48.6365 16.6504 48.72 16.8744C48.8034 17.0882 48.9146 17.2765 49.0537 17.4394C49.202 17.6023 49.3736 17.7295 49.5682 17.8212C49.7722 17.9128 49.9901 17.9586 50.2218 17.9586C50.4444 17.9586 50.6529 17.9128 50.8476 17.8212C51.0516 17.7295 51.2231 17.6023 51.3622 17.4394C51.5105 17.2765 51.6264 17.0882 51.7098 16.8744C51.8025 16.6606 51.8489 16.4315 51.8489 16.1872C51.8489 15.9429 51.8025 15.7138 51.7098 15.5C51.6264 15.2761 51.5105 15.0826 51.3622 14.9198C51.2231 14.7569 51.0516 14.6296 50.8476 14.538C50.6529 14.4464 50.4444 14.4006 50.2218 14.4006C49.9901 14.4006 49.7722 14.4464 49.5682 14.538C49.3736 14.6296 49.202 14.7569 49.0537 14.9198C48.9146 15.0826 48.8034 15.271 48.72 15.4848C48.6365 15.6884 48.5948 15.9123 48.5948 16.1567ZM51.7655 12.2627H54.2964V20.0965H51.7655V19.2261C51.2277 19.9692 50.5 20.3408 49.5822 20.3408C49.063 20.3408 48.5855 20.239 48.1498 20.0354C47.7141 19.8216 47.3339 19.5264 47.0095 19.1497C46.685 18.773 46.43 18.3302 46.2446 17.8212C46.0685 17.3122 45.9804 16.7573 45.9804 16.1567C45.9804 15.5968 46.0685 15.0674 46.2446 14.5685C46.4208 14.0595 46.6664 13.6167 46.9816 13.24C47.2969 12.8633 47.6723 12.5681 48.1081 12.3543C48.5438 12.1303 49.0259 12.0183 49.5543 12.0183C50.4444 12.0183 51.1814 12.3594 51.7655 13.0415V12.2627Z" fill="white"/>
<path d="M60.8627 16.2025C60.8627 15.9582 60.821 15.7291 60.7375 15.5153C60.6541 15.2913 60.5382 15.0979 60.3899 14.935C60.2415 14.7721 60.07 14.6449 59.8753 14.5533C59.6806 14.4515 59.4674 14.4006 59.2356 14.4006C59.0131 14.4006 58.8045 14.4464 58.6098 14.538C58.4151 14.6296 58.2436 14.7569 58.0953 14.9198C57.9562 15.0826 57.8403 15.2761 57.7476 15.5C57.6642 15.7138 57.6225 15.9429 57.6225 16.1872C57.6225 16.4315 57.6642 16.6606 57.7476 16.8744C57.8311 17.0882 57.947 17.2765 58.0953 17.4394C58.2436 17.5921 58.4151 17.7194 58.6098 17.8212C58.8138 17.9128 59.027 17.9586 59.2495 17.9586C59.472 17.9586 59.6806 17.9128 59.8753 17.8212C60.07 17.7295 60.2369 17.6023 60.376 17.4394C60.5243 17.2765 60.6402 17.0882 60.7236 16.8744C60.8163 16.6606 60.8627 16.4366 60.8627 16.2025ZM57.692 7.42188V13.0415C58.2853 12.3594 59.027 12.0183 59.917 12.0183C60.4455 12.0183 60.9276 12.1303 61.3633 12.3543C61.8083 12.5681 62.1838 12.8633 62.4897 13.24C62.8049 13.6065 63.0506 14.0442 63.2268 14.5533C63.4029 15.0521 63.491 15.5866 63.491 16.1567C63.491 16.737 63.3983 17.2816 63.2129 17.7906C63.0367 18.2997 62.7864 18.7425 62.4619 19.1192C62.1374 19.4959 61.7527 19.7962 61.3077 20.0201C60.872 20.2339 60.3991 20.3408 59.8892 20.3408C58.9621 20.3408 58.2297 19.9692 57.692 19.2261V20.0965H55.1749V7.42188H57.692Z" fill="white"/>
<path d="M69.7791 16.2025C69.7791 15.9582 69.7374 15.7291 69.6539 15.5153C69.5705 15.2913 69.4546 15.0979 69.3063 14.935C69.1579 14.7721 68.9864 14.6449 68.7917 14.5533C68.5971 14.4515 68.3838 14.4006 68.152 14.4006C67.9295 14.4006 67.7209 14.4464 67.5263 14.538C67.3316 14.6296 67.1601 14.7569 67.0117 14.9198C66.8727 15.0826 66.7568 15.2761 66.6641 15.5C66.5806 15.7138 66.5389 15.9429 66.5389 16.1872C66.5389 16.4315 66.5806 16.6606 66.6641 16.8744C66.7475 17.0882 66.8634 17.2765 67.0117 17.4394C67.1601 17.5921 67.3316 17.7194 67.5263 17.8212C67.7302 17.9128 67.9435 17.9586 68.166 17.9586C68.3885 17.9586 68.5971 17.9128 68.7917 17.8212C68.9864 17.7295 69.1533 17.6023 69.2924 17.4394C69.4407 17.2765 69.5566 17.0882 69.64 16.8744C69.7327 16.6606 69.7791 16.4366 69.7791 16.2025ZM66.6084 7.42188V13.0415C67.2018 12.3594 67.9435 12.0183 68.8335 12.0183C69.3619 12.0183 69.844 12.1303 70.2797 12.3543C70.7247 12.5681 71.1002 12.8633 71.4062 13.24C71.7214 13.6065 71.9671 14.0442 72.1432 14.5533C72.3194 15.0521 72.4074 15.5866 72.4074 16.1567C72.4074 16.737 72.3147 17.2816 72.1293 17.7906C71.9531 18.2997 71.7028 18.7425 71.3783 19.1192C71.0539 19.4959 70.6691 19.7962 70.2241 20.0201C69.7884 20.2339 69.3156 20.3408 68.8057 20.3408C67.8786 20.3408 67.1462 19.9692 66.6084 19.2261V20.0965H64.0914V7.42188H66.6084Z" fill="white"/>
<path d="M75.2141 19.0276L71.7653 12.2627H74.6857L76.5909 16.2788L78.4404 12.2627H81.333L75.6035 24.0058H72.7805L75.2141 19.0276Z" fill="white"/>
<path d="M87.2477 8.58244L89.0555 16.0192L91.2805 8.58244H93.45L95.675 16.0192L97.4828 8.58244H100.334L97.2047 20.0965H94.4234L92.3652 13.4232L90.3071 20.0965H87.5258L84.3969 8.58244H87.2477Z" fill="white"/>
<path d="M102.229 16.1567C102.229 16.4112 102.271 16.6504 102.354 16.8744C102.438 17.0882 102.549 17.2765 102.688 17.4394C102.836 17.6023 103.008 17.7295 103.203 17.8212C103.407 17.9128 103.624 17.9586 103.856 17.9586C104.079 17.9586 104.287 17.9128 104.482 17.8212C104.686 17.7295 104.857 17.6023 104.997 17.4394C105.145 17.2765 105.261 17.0882 105.344 16.8744C105.437 16.6606 105.483 16.4315 105.483 16.1872C105.483 15.9429 105.437 15.7138 105.344 15.5C105.261 15.2761 105.145 15.0826 104.997 14.9198C104.857 14.7569 104.686 14.6296 104.482 14.538C104.287 14.4464 104.079 14.4006 103.856 14.4006C103.624 14.4006 103.407 14.4464 103.203 14.538C103.008 14.6296 102.836 14.7569 102.688 14.9198C102.549 15.0826 102.438 15.271 102.354 15.4848C102.271 15.6884 102.229 15.9123 102.229 16.1567ZM105.4 12.2627H107.931V20.0965H105.4V19.2261C104.862 19.9692 104.134 20.3408 103.217 20.3408C102.697 20.3408 102.22 20.239 101.784 20.0354C101.348 19.8216 100.968 19.5264 100.644 19.1497C100.319 18.773 100.064 18.3302 99.879 17.8212C99.7028 17.3122 99.6147 16.7573 99.6147 16.1567C99.6147 15.5968 99.7028 15.0674 99.879 14.5685C100.055 14.0595 100.301 13.6167 100.616 13.24C100.931 12.8633 101.307 12.5681 101.742 12.3543C102.178 12.1303 102.66 12.0183 103.189 12.0183C104.079 12.0183 104.816 12.3594 105.4 13.0415V12.2627Z" fill="white"/>
<path d="M111.326 7.42188V20.0965H108.809V7.42188H111.326Z" fill="white"/>
<path d="M114.729 7.42188V20.0965H112.212V7.42188H114.729Z" fill="white"/>
<path d="M120.83 15.0419C120.746 14.6551 120.575 14.3446 120.315 14.1104C120.056 13.8763 119.74 13.7592 119.37 13.7592C118.98 13.7592 118.66 13.8712 118.41 14.0951C118.169 14.3191 118.016 14.6347 117.951 15.0419H120.83ZM117.882 16.6453C117.882 17.8364 118.391 18.432 119.411 18.432C119.958 18.432 120.371 18.1877 120.649 17.699H123.083C122.591 19.4908 121.363 20.3866 119.397 20.3866C118.795 20.3866 118.243 20.2899 117.742 20.0965C117.242 19.8929 116.811 19.6078 116.449 19.2413C116.097 18.8748 115.823 18.4371 115.629 17.9281C115.434 17.419 115.337 16.8489 115.337 16.2178C115.337 15.5662 115.429 14.9808 115.615 14.4616C115.8 13.9323 116.064 13.4843 116.407 13.1178C116.75 12.7513 117.163 12.4714 117.645 12.2779C118.136 12.0743 118.688 11.9725 119.3 11.9725C119.903 11.9725 120.445 12.0743 120.927 12.2779C121.409 12.4714 121.817 12.7564 122.151 13.1331C122.485 13.5098 122.74 13.973 122.916 14.5227C123.092 15.0623 123.18 15.6731 123.18 16.3552V16.6453H117.882Z" fill="white"/>
<path d="M126.688 14.5685V20.0965H124.171V14.5685H123.337V12.2627H124.171V9.91099H126.688V12.2627H128.121V14.5685H126.688Z" fill="white"/>
<path d="M30.6354 15.279C31.8448 12.5701 25.8658 5.00185 20.1538 1.84876C16.5533 -0.593893 12.8016 -0.258313 12.0418 0.814197C10.3742 3.16793 17.5634 5.16235 22.3714 7.48971C21.3379 7.93977 20.3639 8.74743 19.7912 9.78033C17.9987 7.81831 14.0645 6.12872 9.44815 7.48971C6.33729 8.40685 3.75191 10.569 2.75268 13.8348C2.50989 13.7266 2.24107 13.6665 1.95824 13.6665C0.876736 13.6665 0 14.5455 0 15.6299C0 16.7142 0.876736 17.5933 1.95824 17.5933C2.15871 17.5933 2.78549 17.4585 2.78549 17.4585L12.8016 17.5312C8.79594 23.9025 5.63034 24.8338 5.63034 25.9376C5.63034 27.0414 8.65926 26.7423 9.79655 26.3309C15.2409 24.3613 21.0884 18.2229 22.0918 16.4559C26.3056 16.983 29.8468 17.0453 30.6354 15.279Z" fill="url(#paint0_linear_88613_48321)"/>
<path fill-rule="evenodd" clip-rule="evenodd" d="M22.3674 7.48326C22.3691 7.48399 22.3708 7.48473 22.3725 7.48547C22.5953 7.39745 22.5593 7.06744 22.4981 6.80829C22.3575 6.21263 19.9307 3.80997 17.6518 2.73381C14.5518 1.26991 12.2677 1.34275 11.9238 2.01541C12.5572 3.31492 15.489 4.53503 18.551 5.80931C19.8576 6.35308 21.188 6.90672 22.3735 7.4806C22.3715 7.48148 22.3695 7.48237 22.3674 7.48326Z" fill="url(#paint1_linear_88613_48321)"/>
<path fill-rule="evenodd" clip-rule="evenodd" d="M18.4286 20.5802C17.8005 20.3395 17.0909 20.1187 16.2842 19.9183C17.1441 18.3755 17.3245 16.0917 16.5124 14.6476C15.3726 12.6211 13.9419 11.5425 10.6172 11.5425C8.7886 11.5425 3.86524 12.16 3.77783 16.2807C3.76867 16.7125 3.77758 17.1083 3.8087 17.4723L12.8016 17.5376C11.5889 19.4664 10.4533 20.8967 9.4591 21.9841C10.6519 22.2905 11.6364 22.5478 12.5402 22.7841C13.398 23.0083 14.1832 23.2135 15.005 23.4238C16.2447 22.5184 17.4102 21.5311 18.4286 20.5802Z" fill="url(#paint2_linear_88613_48321)"/>
<path d="M2.63216 17.0443C2.99943 20.1745 4.77379 21.4013 8.39952 21.7644C12.0253 22.1274 14.105 21.8839 16.8739 22.1364C19.1865 22.3474 21.2513 23.5289 22.0173 23.1206C22.7067 22.7531 22.321 21.4255 21.3985 20.5738C20.2028 19.4697 18.5479 18.702 15.636 18.4296C16.2163 16.8366 16.0537 14.6029 15.1524 13.3876C13.8492 11.6305 11.4439 10.836 8.39953 11.1831C5.2189 11.5457 2.17124 13.1158 2.63216 17.0443Z" fill="url(#paint3_linear_88613_48321)"/>
<defs>
<linearGradient id="paint0_linear_88613_48321" x1="9.08593" y1="12.8801" x2="30.3833" y2="18.9038" gradientUnits="userSpaceOnUse">
<stop stop-color="white"/>
<stop offset="1" stop-color="white"/>
</linearGradient>
<linearGradient id="paint1_linear_88613_48321" x1="26.7902" y1="12.4694" x2="11.3888" y2="-2.92665" gradientUnits="userSpaceOnUse">
<stop stop-color="#8697FF"/>
<stop offset="1" stop-color="#8697FF" stop-opacity="0"/>
</linearGradient>
<linearGradient id="paint2_linear_88613_48321" x1="18.856" y1="21.1179" x2="4.08054" y2="12.645" gradientUnits="userSpaceOnUse">
<stop stop-color="#8697FF"/>
<stop offset="1" stop-color="#8697FF" stop-opacity="0"/>
</linearGradient>
<linearGradient id="paint3_linear_88613_48321" x1="10.3564" y1="12.7227" x2="20.3626" y2="25.4033" gradientUnits="userSpaceOnUse">
<stop stop-color="white"/>
<stop offset="0.983895" stop-color="#D1D8FF"/>
</linearGradient>
</defs>
</svg>
