<svg width="180" height="140" viewBox="0 0 180 140" fill="none" xmlns="http://www.w3.org/2000/svg">
<rect width="180" height="140" rx="8" fill="black" fill-opacity="0.1"/>
<g filter="url(#filter0_d_99304_5196)">
<path d="M88.6953 20.9835C89.5535 18.9417 92.4465 18.9417 93.3047 20.9835L102.062 41.8204C102.423 42.6784 103.231 43.2651 104.158 43.3429L126.681 45.2331C128.888 45.4183 129.782 48.1698 128.106 49.6169L110.995 64.385C110.29 64.9931 109.982 65.9424 110.195 66.8485L115.357 88.8536C115.863 91.0098 113.522 92.7104 111.628 91.5629L92.2952 79.8532C91.4991 79.371 90.5009 79.371 89.7048 79.8532L70.372 91.5629C68.4777 92.7104 66.1371 91.0098 66.643 88.8536L71.8054 66.8485C72.018 65.9424 71.7096 64.9931 71.0049 64.385L53.8942 49.6169C52.2175 48.1698 53.1115 45.4183 55.3186 45.2331L77.8419 43.3429C78.7694 43.2651 79.5769 42.6784 79.9375 41.8204L88.6953 20.9835Z" fill="url(#paint0_linear_99304_5196)"/>
</g>
<path fill-rule="evenodd" clip-rule="evenodd" d="M122.254 15.1483C122.254 13.669 121.054 12.4697 119.575 12.4697C118.096 12.4697 116.896 13.669 116.896 15.1483V19.5947H112.427C110.947 19.5947 109.748 20.794 109.748 22.2733C109.748 23.7526 110.947 24.9519 112.427 24.9519H116.896V29.434C116.896 30.9133 118.096 32.1126 119.575 32.1126C121.054 32.1126 122.254 30.9133 122.254 29.434V24.9519H126.712C128.192 24.9519 129.391 23.7526 129.391 22.2733C129.391 20.794 128.192 19.5947 126.712 19.5947H122.254V15.1483Z" fill="url(#paint1_linear_99304_5196)"/>
<path fill-rule="evenodd" clip-rule="evenodd" d="M51.3908 80.8673C51.3908 80.0604 50.7367 79.4062 49.9298 79.4062C49.1229 79.4062 48.4687 80.0604 48.4687 80.8673V83.3125H46.0235C45.2166 83.3125 44.5625 83.9666 44.5625 84.7735C44.5625 85.5804 45.2166 86.2346 46.0235 86.2346H48.4687V88.6595C48.4687 89.4664 49.1229 90.1205 49.9298 90.1205C50.7367 90.1205 51.3908 89.4664 51.3908 88.6595V86.2346H53.8157C54.6227 86.2346 55.2768 85.5804 55.2768 84.7735C55.2768 83.9666 54.6227 83.3125 53.8157 83.3125H51.3908V80.8673Z" fill="url(#paint2_linear_99304_5196)"/>
<path d="M43.3669 111.267H41.7314C41.5342 111.266 41.3435 111.338 41.1962 111.469C41.0488 111.6 40.9553 111.781 40.9336 111.977V114.554C40.935 114.651 40.9571 114.747 40.9984 114.835C41.0396 114.923 41.0991 115.001 41.1729 115.065L44.0929 117.657M51.7287 111.267H53.3642C53.5614 111.266 53.7521 111.338 53.8995 111.469C54.0468 111.6 54.1403 111.781 54.162 111.977V114.554C54.1606 114.651 54.1385 114.747 54.0972 114.835C54.056 114.923 53.9965 115.001 53.9227 115.065L51.1383 117.562M47.5716 119.457V121.922M43.4719 109.622H51.6734V115.525C51.6734 116.571 51.2581 117.573 50.519 118.312C49.7799 119.051 48.7775 119.467 47.7322 119.467H47.4131C46.3678 119.467 45.3654 119.051 44.6263 118.312C43.8872 117.573 43.4719 116.571 43.4719 115.525V109.622ZM50.1419 121.925H45.0041C44.8081 121.924 44.6184 121.995 44.4712 122.124C44.3241 122.254 44.2298 122.433 44.2063 122.627L44.0866 123.425C44.0666 123.541 44.0724 123.659 44.1035 123.772C44.1345 123.885 44.1901 123.99 44.2663 124.079C44.3425 124.168 44.4373 124.24 44.5442 124.288C44.651 124.336 44.7672 124.36 44.8844 124.359H50.2456C50.3628 124.36 50.479 124.336 50.5858 124.288C50.6927 124.24 50.7876 124.168 50.8637 124.079C50.9399 123.99 50.9955 123.885 51.0265 123.772C51.0577 123.659 51.0634 123.541 51.0435 123.425L50.9238 122.627C50.9006 122.435 50.8086 122.259 50.6647 122.129C50.521 122 50.3352 121.928 50.1419 121.925Z" stroke="white" stroke-linecap="round" stroke-linejoin="round"/>
<path d="M49.6538 113.614C49.619 113.507 49.5549 113.413 49.4688 113.341C49.3828 113.269 49.2782 113.222 49.1672 113.207L48.4332 113.103L48.1061 112.433C48.0509 112.34 47.9726 112.264 47.879 112.211C47.7852 112.157 47.6794 112.129 47.5716 112.129C47.4638 112.129 47.3579 112.157 47.2642 112.211C47.1705 112.264 47.0922 112.34 47.037 112.433L46.7099 113.103L45.9759 113.207C45.8648 113.222 45.7603 113.269 45.6743 113.341C45.5882 113.413 45.5241 113.507 45.4893 113.614C45.4555 113.72 45.4518 113.834 45.4786 113.942C45.5053 114.051 45.5615 114.15 45.6409 114.228L46.1754 114.747L46.0478 115.481C46.0288 115.591 46.0411 115.704 46.0833 115.808C46.1255 115.911 46.1958 116.001 46.2863 116.067C46.3769 116.132 46.4839 116.171 46.5955 116.179C46.7071 116.187 46.8185 116.163 46.9174 116.111L47.5716 115.76L48.2258 116.111C48.3132 116.152 48.4085 116.174 48.505 116.175C48.6307 116.174 48.7532 116.135 48.856 116.063C48.9461 115.998 49.0162 115.909 49.0585 115.806C49.1008 115.703 49.1136 115.59 49.0954 115.481L48.9677 114.747L49.5023 114.228C49.5816 114.15 49.6378 114.051 49.6645 113.942C49.6913 113.834 49.6876 113.72 49.6538 113.614Z" fill="white"/>
<path d="M65.2269 124.315C64.2255 124.315 63.353 124.162 62.6094 123.856C61.8659 123.544 61.2812 123.11 60.8555 122.552C60.4297 121.994 60.1899 121.341 60.1359 120.591L60.1269 120.474H62.3756L62.3846 120.564C62.4265 120.924 62.5734 121.239 62.8253 121.508C63.0771 121.778 63.4159 121.991 63.8417 122.147C64.2674 122.297 64.7532 122.372 65.2988 122.372C65.8265 122.372 66.2882 122.294 66.684 122.138C67.0858 121.976 67.4006 121.751 67.6284 121.464C67.8563 121.176 67.9702 120.849 67.9702 120.483V120.474C67.9702 120.006 67.7873 119.623 67.4216 119.323C67.0558 119.023 66.4561 118.786 65.6226 118.612L64.2195 118.315C62.8943 118.04 61.9288 117.593 61.3232 116.975C60.7176 116.358 60.4147 115.563 60.4147 114.592V114.583C60.4207 113.809 60.6276 113.131 61.0354 112.55C61.4431 111.968 62.0098 111.515 62.7354 111.192C63.4609 110.868 64.2884 110.706 65.2179 110.706C66.1773 110.706 67.0078 110.865 67.7094 111.183C68.411 111.5 68.9626 111.935 69.3644 112.487C69.7662 113.039 69.991 113.665 70.039 114.367L70.048 114.484H67.8353L67.8173 114.376C67.7634 114.034 67.6224 113.734 67.3946 113.476C67.1727 113.218 66.8759 113.018 66.5041 112.874C66.1323 112.724 65.7006 112.649 65.2089 112.649C64.7232 112.649 64.2944 112.721 63.9226 112.865C63.5569 113.009 63.269 113.215 63.0592 113.485C62.8493 113.749 62.7443 114.067 62.7443 114.439V114.448C62.7443 114.903 62.9212 115.281 63.275 115.581C63.6288 115.875 64.2105 116.106 65.02 116.274L66.4142 116.57C67.3256 116.762 68.0662 117.017 68.6358 117.335C69.2055 117.653 69.6223 118.049 69.8861 118.522C70.1559 118.99 70.2909 119.554 70.2909 120.213V120.222C70.2909 121.062 70.084 121.787 69.6702 122.399C69.2625 123.011 68.6778 123.484 67.9163 123.82C67.1607 124.15 66.2643 124.315 65.2269 124.315ZM76.812 124.198C75.8406 124.198 75.0041 123.991 74.3025 123.577C73.6069 123.163 73.0702 122.579 72.6924 121.823C72.3147 121.062 72.1258 120.159 72.1258 119.116V119.107C72.1258 118.076 72.3117 117.179 72.6834 116.418C73.0612 115.65 73.5949 115.056 74.2845 114.637C74.9741 114.211 75.7836 113.998 76.713 113.998C77.6425 113.998 78.443 114.202 79.1146 114.61C79.7922 115.017 80.3139 115.59 80.6797 116.328C81.0455 117.065 81.2284 117.929 81.2284 118.918V119.656H73.2501V118.153H80.131L79.0696 119.557V118.666C79.0696 118.013 78.9707 117.473 78.7728 117.047C78.5749 116.615 78.2991 116.292 77.9453 116.076C77.5975 115.86 77.1958 115.752 76.74 115.752C76.2783 115.752 75.8675 115.866 75.5078 116.094C75.154 116.316 74.8721 116.645 74.6623 117.083C74.4584 117.515 74.3564 118.043 74.3564 118.666V119.566C74.3564 120.171 74.4584 120.69 74.6623 121.122C74.8661 121.547 75.154 121.874 75.5257 122.102C75.9035 122.33 76.3503 122.444 76.866 122.444C77.2677 122.444 77.6125 122.387 77.9003 122.273C78.1882 122.153 78.422 122.009 78.6019 121.841C78.7878 121.673 78.9137 121.514 78.9797 121.365L79.0067 121.302H81.1294L81.1114 121.383C81.0335 121.706 80.8896 122.033 80.6797 122.363C80.4698 122.687 80.191 122.99 79.8432 123.271C79.4954 123.547 79.0696 123.772 78.5659 123.946C78.0622 124.114 77.4776 124.198 76.812 124.198ZM86.1125 124.162C85.4888 124.162 84.9342 124.042 84.4484 123.802C83.9627 123.562 83.579 123.223 83.2971 122.786C83.0213 122.342 82.8834 121.823 82.8834 121.23V121.212C82.8834 120.624 83.0273 120.12 83.3151 119.701C83.6029 119.281 84.0227 118.951 84.5744 118.711C85.132 118.471 85.8096 118.33 86.6072 118.288L90.241 118.064V119.539L86.922 119.755C86.3043 119.791 85.8456 119.922 85.5458 120.15C85.246 120.378 85.0961 120.693 85.0961 121.095V121.113C85.0961 121.532 85.255 121.859 85.5728 122.093C85.8906 122.327 86.2953 122.444 86.7871 122.444C87.2368 122.444 87.6385 122.354 87.9923 122.174C88.3461 121.994 88.625 121.751 88.8288 121.446C89.0327 121.134 89.1347 120.783 89.1347 120.393V117.308C89.1347 116.816 88.9788 116.438 88.6669 116.175C88.3551 115.911 87.8964 115.779 87.2908 115.779C86.7751 115.779 86.3553 115.869 86.0315 116.049C85.7077 116.229 85.4918 116.48 85.3839 116.804L85.3659 116.84H83.2612L83.2701 116.768C83.3421 116.211 83.555 115.725 83.9088 115.311C84.2686 114.897 84.7453 114.577 85.3389 114.349C85.9326 114.115 86.6192 113.998 87.3987 113.998C88.2382 113.998 88.9518 114.13 89.5394 114.394C90.1331 114.652 90.5828 115.029 90.8886 115.527C91.1944 116.019 91.3473 116.609 91.3473 117.299V124H89.1347V122.642H88.9818C88.8079 122.96 88.577 123.232 88.2892 123.46C88.0073 123.688 87.6805 123.862 87.3087 123.982C86.943 124.102 86.5442 124.162 86.1125 124.162ZM97.6886 124.198C96.8611 124.198 96.1445 124.078 95.5389 123.838C94.9392 123.598 94.4655 123.268 94.1177 122.849C93.7699 122.423 93.566 121.931 93.5061 121.374L93.4971 121.347H95.7187L95.7277 121.374C95.8417 121.721 96.0635 122.003 96.3933 122.219C96.7291 122.435 97.1729 122.543 97.7246 122.543C98.1023 122.543 98.4291 122.492 98.705 122.39C98.9868 122.282 99.2057 122.138 99.3616 121.958C99.5235 121.772 99.6044 121.556 99.6044 121.311V121.293C99.6044 121.005 99.4875 120.765 99.2536 120.573C99.0258 120.375 98.645 120.216 98.1113 120.096L96.5193 119.737C95.8956 119.599 95.3799 119.41 94.9722 119.17C94.5644 118.924 94.2586 118.621 94.0547 118.261C93.8569 117.902 93.7579 117.479 93.7579 116.993V116.984C93.7579 116.397 93.9228 115.878 94.2526 115.428C94.5884 114.978 95.0501 114.628 95.6378 114.376C96.2314 114.124 96.915 113.998 97.6886 113.998C98.4861 113.998 99.1727 114.121 99.7484 114.367C100.324 114.607 100.774 114.936 101.098 115.356C101.421 115.776 101.607 116.253 101.655 116.786V116.813H99.5415V116.786C99.4575 116.468 99.2566 116.199 98.9388 115.977C98.627 115.755 98.2073 115.644 97.6796 115.644C97.3498 115.644 97.056 115.695 96.7981 115.797C96.5403 115.899 96.3364 116.04 96.1865 116.22C96.0426 116.4 95.9706 116.612 95.9706 116.858V116.876C95.9706 117.062 96.0186 117.227 96.1145 117.371C96.2165 117.515 96.3754 117.641 96.5912 117.749C96.8071 117.857 97.0919 117.953 97.4457 118.037L99.0288 118.396C99.9942 118.612 100.708 118.933 101.17 119.359C101.631 119.779 101.862 120.348 101.862 121.068V121.077C101.862 121.7 101.682 122.249 101.322 122.723C100.963 123.19 100.468 123.553 99.8383 123.811C99.2147 124.069 98.4981 124.198 97.6886 124.198ZM108.311 124.198C107.34 124.198 106.5 123.994 105.793 123.586C105.085 123.172 104.54 122.585 104.156 121.823C103.778 121.062 103.589 120.153 103.589 119.098V119.08C103.589 118.031 103.781 117.125 104.165 116.364C104.548 115.602 105.094 115.017 105.802 114.61C106.509 114.202 107.346 113.998 108.311 113.998C109.289 113.998 110.128 114.202 110.83 114.61C111.537 115.017 112.083 115.602 112.467 116.364C112.851 117.125 113.042 118.031 113.042 119.08V119.098C113.042 120.159 112.851 121.071 112.467 121.832C112.089 122.588 111.546 123.172 110.839 123.586C110.137 123.994 109.295 124.198 108.311 124.198ZM108.311 122.381C108.833 122.381 109.274 122.252 109.633 121.994C109.993 121.736 110.269 121.362 110.461 120.87C110.653 120.378 110.749 119.791 110.749 119.107V119.089C110.749 118.399 110.653 117.812 110.461 117.326C110.269 116.834 109.99 116.459 109.624 116.202C109.265 115.938 108.827 115.806 108.311 115.806C107.802 115.806 107.364 115.938 106.998 116.202C106.638 116.459 106.362 116.834 106.171 117.326C105.979 117.812 105.883 118.399 105.883 119.089V119.107C105.883 119.796 105.976 120.387 106.162 120.879C106.353 121.365 106.629 121.736 106.989 121.994C107.355 122.252 107.796 122.381 108.311 122.381ZM115.246 124V114.196H117.477V115.698H117.63C117.864 115.164 118.217 114.747 118.691 114.448C119.165 114.148 119.758 113.998 120.472 113.998C121.563 113.998 122.4 114.316 122.982 114.951C123.563 115.587 123.854 116.486 123.854 117.65V124H121.614V118.171C121.614 117.41 121.452 116.837 121.129 116.453C120.811 116.07 120.313 115.878 119.636 115.878C119.192 115.878 118.808 115.977 118.484 116.175C118.166 116.373 117.918 116.651 117.738 117.011C117.564 117.365 117.477 117.788 117.477 118.279V124H115.246ZM131.293 124V122.435L135.565 118.073C136.153 117.479 136.608 116.99 136.932 116.606C137.262 116.223 137.49 115.884 137.616 115.59C137.748 115.29 137.814 114.975 137.814 114.646V114.628C137.814 114.226 137.724 113.872 137.544 113.566C137.37 113.254 137.121 113.012 136.797 112.838C136.48 112.658 136.096 112.568 135.646 112.568C135.19 112.568 134.789 112.664 134.441 112.856C134.093 113.042 133.82 113.302 133.622 113.638C133.43 113.974 133.334 114.364 133.334 114.807L133.325 114.843H131.167L131.158 114.807C131.164 114.004 131.362 113.293 131.751 112.676C132.141 112.058 132.681 111.575 133.37 111.228C134.06 110.88 134.854 110.706 135.754 110.706C136.599 110.706 137.349 110.865 138.003 111.183C138.656 111.5 139.169 111.938 139.541 112.496C139.918 113.054 140.107 113.695 140.107 114.421V114.448C140.107 114.939 140.014 115.419 139.829 115.887C139.643 116.349 139.328 116.855 138.884 117.407C138.44 117.953 137.823 118.603 137.031 119.359L133.793 122.507L134.414 121.446V122.507L133.793 122.084H140.305V124H131.293Z" fill="white"/>
<defs>
<filter id="filter0_d_99304_5196" x="48.0234" y="16.9521" width="85.9531" height="82.48" filterUnits="userSpaceOnUse" color-interpolation-filters="sRGB">
<feFlood flood-opacity="0" result="BackgroundImageFix"/>
<feColorMatrix in="SourceAlpha" type="matrix" values="0 0 0 0 0 0 0 0 0 0 0 0 0 0 0 0 0 0 127 0" result="hardAlpha"/>
<feOffset dy="2.5"/>
<feGaussianBlur stdDeviation="2.5"/>
<feComposite in2="hardAlpha" operator="out"/>
<feColorMatrix type="matrix" values="0 0 0 0 0.185943 0 0 0 0 0.235433 0 0 0 0 0.512124 0 0 0 0.17 0"/>
<feBlend mode="normal" in2="BackgroundImageFix" result="effect1_dropShadow_99304_5196"/>
<feBlend mode="normal" in="SourceGraphic" in2="effect1_dropShadow_99304_5196" result="shape"/>
</filter>
<linearGradient id="paint0_linear_99304_5196" x1="50.6154" y1="29.5" x2="130.768" y2="99.8685" gradientUnits="userSpaceOnUse">
<stop stop-color="white"/>
<stop offset="1" stop-color="white"/>
</linearGradient>
<linearGradient id="paint1_linear_99304_5196" x1="110.504" y1="15.6126" x2="128.497" y2="31.4096" gradientUnits="userSpaceOnUse">
<stop stop-color="white"/>
<stop offset="1" stop-color="white"/>
</linearGradient>
<linearGradient id="paint2_linear_99304_5196" x1="44.9746" y1="81.1205" x2="54.7892" y2="89.7371" gradientUnits="userSpaceOnUse">
<stop stop-color="white"/>
<stop offset="1" stop-color="white"/>
</linearGradient>
</defs>
</svg>
