<svg width="28" height="28" viewBox="0 0 28 28" fill="none" xmlns="http://www.w3.org/2000/svg">
<path d="M4.87 4.909L14 3L23.13 4.909C23.3767 4.96061 23.5974 5.08983 23.7556 5.27533C23.9137 5.46084 24 5.69154 24 5.92936V16.3703C23.9999 17.4029 23.7289 18.4196 23.211 19.33C22.6931 20.2404 21.9443 21.0165 21.0311 21.5892L14 26L6.96889 21.5892C6.05586 21.0166 5.30718 20.2407 4.78928 19.3305C4.27137 18.4202 4.00026 17.4038 4 16.3714V5.92936C4.00004 5.69154 4.08626 5.46084 4.24443 5.27533C4.4026 5.08983 4.62326 4.96061 4.87 4.909Z" fill="white"/>
<path d="M4.7165 4.17488L4.71645 4.17489C4.31305 4.25926 3.94358 4.47223 3.67372 4.78872C3.40303 5.1062 3.25008 5.50826 3.25 5.92923V5.92936V16.3714V16.3716C3.2503 17.5359 3.55619 18.6799 4.13741 19.7014C4.71844 20.7225 5.55552 21.5881 6.57038 22.2246L13.6014 26.6353L14 26.8854L14.3986 26.6353L21.4296 22.2246C22.4447 21.5879 23.2818 20.7223 23.8629 19.7009C24.4441 18.6791 24.7499 17.535 24.75 16.3704V16.3703V5.92936V5.92923C24.7499 5.50826 24.597 5.1062 24.3263 4.78872C24.0564 4.47223 23.687 4.25926 23.2835 4.17489L23.2835 4.17488L14.1535 2.26588L14 2.23378L13.8465 2.26588L4.7165 4.17488Z" stroke="white" stroke-opacity="0.4" stroke-width="1.5"/>
<path d="M10 14L13 17L19 11" stroke="#2ABB7F" stroke-width="2" stroke-linecap="round" stroke-linejoin="round"/>
</svg>
