<svg width="24" height="25" viewBox="0 0 24 25" fill="none" xmlns="http://www.w3.org/2000/svg">
<path d="M21.25 12.4998C21.25 14.8198 20.39 16.9598 18.97 18.5698C17.55 20.1998 15.57 21.3298 13.33 21.6398C12.9 21.7098 12.46 21.7398 12 21.7398C11.54 21.7398 11.11 21.7098 10.67 21.6398C8.43 21.3298 6.45 20.1998 5.03 18.5698C3.61 16.9598 2.75 14.8198 2.75 12.4998C2.75 10.1798 3.61 8.03977 5.03 6.42977C6.45 4.79977 8.43 3.66977 10.67 3.35977C11.1 3.28977 11.54 3.25977 12 3.25977C12.46 3.25977 12.89 3.28977 13.33 3.35977C15.57 3.66977 17.55 4.79977 18.97 6.42977C20.39 8.03977 21.25 10.1798 21.25 12.4998Z" stroke="#6A7587" stroke-width="1.5" stroke-linecap="round" stroke-linejoin="round"/>
<path d="M11.67 21.6496C11.03 20.9796 8 17.6696 8 12.4996C8 7.32961 11.03 4.01961 11.67 3.34961" stroke="#6A7587" stroke-width="1.5" stroke-linecap="round" stroke-linejoin="round"/>
<path d="M12.3301 21.6496C12.9701 20.9796 16.0001 17.6696 16.0001 12.4996C16.0001 7.32961 12.9701 4.01961 12.3301 3.34961" stroke="#6A7587" stroke-width="1.5" stroke-linecap="round" stroke-linejoin="round"/>
<path d="M2.75 12.5H21.25" stroke="#6A7587" stroke-width="1.5" stroke-linecap="round" stroke-linejoin="round"/>
</svg>
