<svg width="81" height="80" viewBox="0 0 81 80" fill="none" xmlns="http://www.w3.org/2000/svg">
<path d="M40.5 3C20.0608 3 3.5 19.5608 3.5 40C3.5 60.4392 20.0608 77 40.5 77C60.9392 77 77.5 60.4392 77.5 40C77.5 19.5608 60.9392 3 40.5 3ZM26.4598 56.1693C26.2328 56.5566 25.9078 56.8772 25.5175 57.0991C25.1272 57.3209 24.6854 57.436 24.2365 57.4329C23.779 57.4369 23.3294 57.3134 22.9382 57.0762C22.6469 56.9074 22.3918 56.6827 22.1876 56.4151C21.9834 56.1474 21.834 55.8421 21.748 55.5166C21.6621 55.1911 21.6413 54.8518 21.6868 54.5182C21.7323 54.1846 21.8432 53.8633 22.0132 53.5727L24.5388 49.3739C24.6664 49.1572 24.8485 48.9776 25.067 48.853C25.2855 48.7284 25.5327 48.6631 25.7842 48.6636H26.1575C27.9894 48.6636 29.2712 49.7654 29.6445 50.8324L26.4598 56.1693ZM47.8422 47.9104L31.3029 47.9286H20.3102C19.9644 47.93 19.6218 47.8612 19.3034 47.7263C18.9849 47.5914 18.6971 47.3932 18.4576 47.1438C18.218 46.8943 18.0316 46.5988 17.9097 46.2752C17.7878 45.9515 17.7329 45.6065 17.7483 45.2609C17.8012 43.8734 19.0119 42.8229 20.3912 42.8229H28.3594L37.8059 26.7428L34.7468 21.5314C34.058 20.3438 34.3636 18.7779 35.5446 18.0312C35.8358 17.8429 36.162 17.7155 36.5037 17.6565C36.8454 17.5975 37.1955 17.6082 37.533 17.688C37.8704 17.7677 38.1882 17.9149 38.4673 18.1207C38.7465 18.3264 38.9811 18.5865 39.1571 18.8852L40.7924 21.6784H40.8105L42.4475 18.8852C42.6237 18.588 42.8579 18.3294 43.1363 18.1246C43.4146 17.9199 43.7313 17.7733 44.0675 17.6937C44.4037 17.614 44.7525 17.6028 45.0931 17.6608C45.4337 17.7188 45.7591 17.8448 46.05 18.0312C47.2244 18.7779 47.5267 20.3438 46.8329 21.5363L43.7738 26.7477L40.8006 31.8171L34.3438 42.8279V42.846H43.8597C45.0523 42.846 46.5472 43.4869 47.1517 44.5176L47.2046 44.625C47.7381 45.5318 48.0404 46.1546 48.0404 47.0614C48.0317 47.3558 47.9661 47.6458 47.8471 47.9154L47.8422 47.9104ZM60.6848 47.9286H56.2068V47.9467L59.4807 53.5149C59.8328 54.1013 59.9405 54.8026 59.7808 55.4677C59.6211 56.1328 59.2067 56.7086 58.6267 57.0712C58.2247 57.3163 57.7629 57.446 57.2921 57.4462C56.8444 57.446 56.4044 57.33 56.0148 57.1094C55.6252 56.8888 55.2993 56.5713 55.0688 56.1875L50.2307 47.9517L47.2244 42.8312L43.346 36.2009C42.7843 35.2542 42.4789 34.1774 42.4601 33.0767C42.4413 31.9761 42.7096 30.8895 43.2387 29.9241C44.0051 28.5713 44.5915 28.2162 44.5915 28.2162L53.2188 42.808H60.6369C62.0244 42.808 63.2154 43.8751 63.2798 45.2444C63.2931 45.5926 63.236 45.9398 63.1118 46.2653C62.9875 46.5908 62.7988 46.8878 62.5569 47.1385C62.315 47.3892 62.0249 47.5885 61.704 47.7242C61.3832 47.86 61.0382 47.9295 60.6898 47.9286H60.6848Z" fill="url(#paint0_linear_127290_160555)"/>
<defs>
<linearGradient id="paint0_linear_127290_160555" x1="40.5" y1="3" x2="40.5" y2="77" gradientUnits="userSpaceOnUse">
<stop stop-color="#1AC3FB"/>
<stop offset="1" stop-color="#1D7AF3"/>
</linearGradient>
</defs>
</svg>
