<svg width="22" height="27" viewBox="0 0 22 27" fill="none" xmlns="http://www.w3.org/2000/svg">
<path d="M22 19.3354C21.3991 20.6725 21.1117 21.2689 20.3367 22.4509C19.2568 24.1003 17.7328 26.1562 15.8474 26.1736C14.171 26.1889 13.7399 25.0791 11.4648 25.0922C9.18969 25.1053 8.71508 26.1933 7.03868 26.178C5.15327 26.1605 3.70983 24.3057 2.62996 22.654C-0.391911 18.0399 -0.70542 12.624 1.15604 9.74667C2.47974 7.69958 4.56762 6.50235 6.5314 6.50235C8.53002 6.50235 9.78841 7.60345 11.4409 7.60345C13.0454 7.60345 14.023 6.50235 16.3329 6.50235C18.0811 6.50235 19.9317 7.45708 21.2511 9.10873C16.9294 11.4835 17.6327 17.6794 22 19.3354Z" fill="#13141A"/>
<path d="M14.5741 4.66283C15.4145 3.58139 16.0524 2.05208 15.8194 0.492188C14.4478 0.586131 12.8432 1.46221 11.9049 2.60482C11.0536 3.64257 10.3526 5.17843 10.6247 6.67278C12.1248 6.71866 13.6749 5.82074 14.5741 4.66283Z" fill="#13141A"/>
</svg>
