<svg width="32" height="32" viewBox="0 0 32 32" fill="none" xmlns="http://www.w3.org/2000/svg">
<path d="M21.8195 8.55576C23.7242 8.55579 25.7443 9.59845 27.1821 11.3983C22.4722 13.9863 23.2374 20.7358 28 22.5433C27.3499 24.0025 27.0347 24.6501 26.1871 25.9399C25.0093 27.7335 23.3521 29.9708 21.2892 29.9927H21.2517C19.4664 29.9927 18.9788 28.8127 16.5486 28.8126H16.511C14.0439 28.8263 13.5108 29.9998 11.7183 30H11.6808C9.61807 29.9781 8.045 27.959 6.86728 26.1586C3.57474 21.1291 3.22888 15.2247 5.26172 12.0899C6.70951 9.86696 8.98965 8.56206 11.1276 8.56201C13.3118 8.56201 14.6852 9.75567 16.485 9.75567C18.2401 9.75545 19.3054 8.55368 21.8257 8.55368L21.8195 8.55576Z" fill="#3E495E"/>
<path d="M21.2704 2C21.5255 3.7055 20.8278 5.36829 19.9076 6.54133C18.9524 7.77361 17.3169 8.73489 15.7192 8.73492H15.5994C15.2994 7.10956 16.0644 5.43387 16.9945 4.304C18.0197 3.05721 19.7701 2.10187 21.2704 2Z" fill="#3E495E"/>
</svg>
