<svg width="29" height="28" viewBox="0 0 29 28" fill="none" xmlns="http://www.w3.org/2000/svg">
<path d="M14.5008 1.04688C7.34706 1.04688 1.55078 6.84316 1.55078 13.9969C1.55078 21.1506 7.34706 26.9469 14.5008 26.9469C21.6545 26.9469 27.4508 21.1506 27.4508 13.9969C27.4508 6.84316 21.6545 1.04688 14.5008 1.04688ZM9.58672 19.6561C9.50725 19.7917 9.3935 19.9039 9.2569 19.9815C9.1203 20.0592 8.96568 20.0995 8.80856 20.0984C8.64843 20.0998 8.49108 20.0566 8.35416 19.9735C8.2522 19.9144 8.16292 19.8358 8.09144 19.7421C8.01995 19.6485 7.96767 19.5416 7.93759 19.4277C7.90751 19.3137 7.90022 19.195 7.91615 19.0782C7.93208 18.9615 7.97091 18.849 8.03041 18.7473L8.91436 17.2777C8.95903 17.2019 9.02276 17.139 9.09923 17.0954C9.17569 17.0518 9.26224 17.029 9.35027 17.0291H9.48092C10.1221 17.0291 10.5707 17.4147 10.7013 17.7882L9.58672 19.6561ZM17.0705 16.7655L11.2818 16.7719H7.43436C7.31331 16.7724 7.19342 16.7483 7.08195 16.7011C6.97049 16.6539 6.86978 16.5845 6.78593 16.4972C6.70209 16.4099 6.63685 16.3065 6.59417 16.1932C6.5515 16.0799 6.53228 15.9591 6.53769 15.8382C6.55619 15.3526 6.97995 14.9849 7.46269 14.9849H10.2516L13.5579 9.35684L12.4872 7.53286C12.2461 7.11719 12.353 6.56912 12.7664 6.30781C12.8683 6.24191 12.9825 6.19729 13.1021 6.17664C13.2217 6.15599 13.3442 6.15974 13.4623 6.18766C13.5804 6.21558 13.6917 6.26709 13.7894 6.33911C13.887 6.41112 13.9692 6.50214 14.0308 6.6067L14.6031 7.58431H14.6095L15.1824 6.6067C15.2441 6.50268 15.3261 6.41215 15.4235 6.3405C15.5209 6.26885 15.6317 6.21755 15.7494 6.18965C15.8671 6.16176 15.9891 6.15785 16.1084 6.17815C16.2276 6.19845 16.3415 6.24255 16.4433 6.30781C16.8543 6.56912 16.9601 7.11719 16.7173 7.53459L15.6466 9.35858L14.606 11.1328L12.3461 14.9866V14.993H15.6767C16.0941 14.993 16.6173 15.2173 16.8289 15.578L16.8474 15.6156C17.0341 15.933 17.1399 16.151 17.1399 16.4684C17.1369 16.5714 17.1139 16.6729 17.0723 16.7672L17.0705 16.7655ZM21.5655 16.7719H19.9982V16.7782L21.144 18.7271C21.2672 18.9323 21.305 19.1778 21.2491 19.4106C21.1932 19.6433 21.0481 19.8449 20.8451 19.9718C20.7044 20.0576 20.5428 20.103 20.378 20.103C20.2213 20.103 20.0673 20.0624 19.9309 19.9852C19.7946 19.908 19.6805 19.7968 19.5998 19.6625L17.9065 16.78L16.8543 14.9878L15.4969 12.6672C15.3003 12.3358 15.1934 11.959 15.1868 11.5737C15.1802 11.1885 15.2741 10.8082 15.4593 10.4703C15.7276 9.99683 15.9328 9.87253 15.9328 9.87253L18.9523 14.9797H21.5487C22.0343 14.9797 22.4512 15.3532 22.4737 15.8324C22.4784 15.9543 22.4584 16.0758 22.4149 16.1897C22.3714 16.3036 22.3054 16.4076 22.2207 16.4954C22.136 16.5831 22.0345 16.6528 21.9222 16.7004C21.8099 16.7479 21.6891 16.7722 21.5672 16.7719H21.5655Z" fill="#4C65FF"/>
</svg>
