<svg width="81" height="80" viewBox="0 0 81 80" fill="none" xmlns="http://www.w3.org/2000/svg">
<g clip-path="url(#clip0_127365_44417)">
<path d="M55.5487 21.3894C60.3106 21.3895 65.3608 23.9961 68.9553 28.4956C57.1804 34.9657 59.0934 51.8396 71 56.3582C69.3747 60.0062 68.5868 61.6251 66.4678 64.8497C63.5234 69.3338 59.3803 74.9271 54.2229 74.9818H54.1291C49.6661 74.9816 48.4469 72.0317 42.3714 72.0315H42.2776C36.1096 72.0658 34.7771 74.9995 30.2958 75H30.2021C25.0452 74.9453 21.1125 69.8975 18.1682 65.3965C9.93684 52.8227 9.0722 38.0617 14.1543 30.2247C17.7738 24.6674 23.4741 21.4052 28.819 21.405C34.2795 21.405 37.7131 24.3892 42.2125 24.3892C46.6002 24.3886 49.2636 21.3842 55.5644 21.3842L55.5487 21.3894Z" fill="black"/>
<path d="M54.176 5C54.8137 9.26374 53.0695 13.4207 50.769 16.3533C48.381 19.434 44.2923 21.8372 40.298 21.8373H39.9985C39.2485 17.7739 41.161 13.5847 43.4862 10.76C46.0493 7.64303 50.4252 5.25467 54.176 5Z" fill="black"/>
</g>
<defs>
<clipPath id="clip0_127365_44417">
<rect width="80" height="80" fill="white" transform="translate(0.5)"/>
</clipPath>
</defs>
</svg>
