<svg width="32" height="32" viewBox="0 0 32 32" fill="none" xmlns="http://www.w3.org/2000/svg">
<path fill-rule="evenodd" clip-rule="evenodd" d="M20.3881 1.42578L22.889 4.31646C22.889 4.31646 25.0849 3.69501 26.1218 4.75147C27.1588 5.80796 28.0128 6.74011 28.0128 6.74011L27.3418 8.41801L28.1957 10.9038C28.1957 10.9038 25.6841 20.5957 25.3899 21.7792C24.8104 24.1097 24.4139 25.0108 22.767 26.1915C21.1201 27.3723 18.1312 29.4231 17.6432 29.7338C17.5381 29.8007 17.4274 29.8778 17.3128 29.9575C16.8954 30.2479 16.427 30.5738 15.9963 30.5738C15.5656 30.5738 15.0973 30.248 14.6799 29.9576C14.5653 29.8778 14.4545 29.8007 14.3494 29.7338C13.8614 29.4231 10.8725 27.3723 9.22564 26.1915C7.57869 25.0108 7.18224 24.1097 6.60274 21.7792C6.30844 20.5957 3.79688 10.9038 3.79688 10.9038L4.65084 8.41801L3.97987 6.74011C3.97987 6.74011 4.83383 5.80796 5.87079 4.75147C6.90774 3.69501 9.10364 4.31646 9.10364 4.31646L11.6045 1.42578H15.9963H20.3881ZM9.80509 6.14976C9.80509 6.14976 6.58834 10.1115 6.58834 10.9582C6.58834 11.6583 6.86494 11.9323 7.19074 12.2551C7.25899 12.3227 7.32934 12.3924 7.39979 12.4686L9.81174 15.078C9.83564 15.1038 9.86224 15.1311 9.89039 15.1599C10.1311 15.4065 10.4857 15.7697 10.2355 16.3729C10.2188 16.4132 10.2017 16.4541 10.1842 16.4957C9.91004 17.1491 9.57144 17.956 10.0024 18.7735C10.4608 19.643 11.2461 20.2234 11.7494 20.1274C12.2526 20.0314 13.4344 19.4022 13.869 19.1148C14.3036 18.8273 15.681 17.6699 15.681 17.2271C15.681 16.8577 14.6902 16.2432 14.2089 15.9447C14.1133 15.8854 14.0377 15.8385 13.9941 15.8086C13.9444 15.7745 13.8613 15.7219 13.759 15.6571C13.3197 15.379 12.5265 14.8769 12.5067 14.6544C12.4821 14.3799 12.4915 14.2994 12.8456 13.6213C12.9209 13.477 13.009 13.3224 13.1001 13.1627C13.4373 12.5717 13.8147 11.91 13.7312 11.436C13.6368 10.9009 12.8138 10.594 12.1167 10.3341C12.0295 10.3016 11.9443 10.2698 11.8627 10.2385C11.6592 10.1602 11.4035 10.0626 11.1364 9.96066L11.1359 9.96045L11.1351 9.9601C10.4393 9.69461 9.66689 9.39981 9.53939 9.33996C9.36289 9.25701 9.40849 9.17801 9.94319 9.12636C10.014 9.11951 10.102 9.11001 10.203 9.09906C10.865 9.02741 12.0857 8.89521 12.6793 9.06376C12.796 9.09691 12.9268 9.13301 13.064 9.17086C13.7309 9.35486 14.5483 9.58036 14.6268 9.71035C14.6405 9.73311 14.654 9.75266 14.6668 9.7711C14.7418 9.87986 14.7908 9.95081 14.7077 10.413C14.6831 10.5501 14.6325 10.8192 14.5699 11.1521C14.3858 12.1321 14.0977 13.6648 14.0614 14.0088C14.0564 14.0567 14.0508 14.103 14.0454 14.1475C13.9994 14.5307 13.9686 14.7861 14.4055 14.8878L14.5191 14.9144C15.0119 15.0296 15.7351 15.1987 15.9963 15.1987C16.2574 15.1987 16.98 15.0297 17.4729 14.9145L17.5871 14.8878C18.0239 14.7861 17.9932 14.5311 17.9472 14.1479C17.9418 14.1033 17.9362 14.0569 17.9311 14.0088C17.8949 13.6653 17.6076 12.1364 17.4234 11.1562C17.3605 10.8217 17.3096 10.5506 17.2849 10.413C17.2017 9.95081 17.2507 9.87986 17.3258 9.7711C17.3385 9.75266 17.3521 9.73306 17.3658 9.71035C17.4443 9.58036 18.2616 9.35486 18.9284 9.17091C19.0656 9.13306 19.1966 9.09691 19.3133 9.06376C19.9068 8.89521 21.1277 9.02741 21.7897 9.09906C21.8907 9.11001 21.9786 9.11951 22.0494 9.12636C22.5841 9.17801 22.6297 9.25701 22.4532 9.33996C22.3256 9.39986 21.5525 9.69491 20.8565 9.9605C20.5894 10.0625 20.3334 10.1602 20.1299 10.2385C20.0487 10.2697 19.9638 10.3013 19.877 10.3337L19.8763 10.334C19.1791 10.5939 18.3558 10.9008 18.2614 11.436C18.1779 11.9101 18.5554 12.5719 18.8926 13.163C18.9836 13.3226 19.0718 13.4771 19.1471 13.6213C19.5011 14.2994 19.5105 14.3799 19.486 14.6544C19.466 14.877 18.6728 15.3791 18.2335 15.6571C18.1312 15.7218 18.0481 15.7745 17.9984 15.8086C17.9548 15.8386 17.8792 15.8854 17.7835 15.9448C17.3021 16.2434 16.3115 16.8578 16.3115 17.2271C16.3115 17.6699 17.689 18.8273 18.1236 19.1148C18.5582 19.4022 19.74 20.0314 20.2432 20.1274C20.7465 20.2234 21.5318 19.643 21.9903 18.7735C22.4212 17.956 22.0826 17.1493 21.8084 16.4958C21.7909 16.4542 21.7737 16.4132 21.757 16.3729C21.5068 15.7698 21.8614 15.4066 22.1021 15.16C22.1303 15.1311 22.1569 15.1039 22.1808 15.078L24.5928 12.4686C24.6632 12.3924 24.7336 12.3226 24.8019 12.255C25.1276 11.9323 25.4043 11.6583 25.4043 10.9582C25.4043 10.1115 22.1875 6.14976 22.1875 6.14976C22.1875 6.14976 19.4731 6.67796 19.1072 6.67796C18.8151 6.67796 18.2512 6.48011 17.6634 6.27386C17.5145 6.22166 17.3641 6.16891 17.2162 6.11866C16.4843 5.87011 15.9963 5.86826 15.9963 5.86826C15.9963 5.86826 16.0007 5.86831 16.0094 5.86856H15.9832C15.9912 5.86831 15.9956 5.86831 15.9963 5.86826C15.9888 5.86831 15.5026 5.87201 14.7764 6.11866C14.6285 6.16891 14.4781 6.22166 14.3293 6.27386C13.7414 6.48011 13.1775 6.67796 12.8854 6.67796C12.5195 6.67796 9.80509 6.14976 9.80509 6.14976ZM18.0944 20.4035C17.2347 19.9504 16.1635 19.5651 15.9963 19.5651C15.8291 19.5651 14.7578 19.9504 13.8983 20.4035C13.7038 20.5061 13.5214 20.6018 13.3533 20.6901L13.3523 20.6906C12.778 20.9921 12.3705 21.206 12.2165 21.3042C12.0174 21.4312 12.1388 21.6707 12.3202 21.8013C12.5016 21.9319 14.9391 23.855 15.1757 24.0675C15.2059 24.0946 15.2379 24.124 15.2712 24.1546C15.4992 24.364 15.7901 24.6311 15.9963 24.6311C16.2024 24.6311 16.4931 24.3642 16.7211 24.1549C16.7545 24.1242 16.7866 24.0947 16.8169 24.0675C17.0534 23.855 19.4909 21.9319 19.6723 21.8013C19.8537 21.6707 19.9751 21.4312 19.776 21.3042C19.6221 21.2061 19.2151 20.9924 18.6414 20.6912C18.4727 20.6026 18.2896 20.5065 18.0944 20.4035Z" fill="#3E495E"/>
</svg>
