<svg width="32" height="32" viewBox="0 0 32 32" fill="none" xmlns="http://www.w3.org/2000/svg">
<path d="M3.1228 10.523L8.6444 20.1162C9.51225 21.6946 10.862 22.9521 12.4952 23.7038C14.1284 24.4556 15.959 24.662 17.7178 24.2927L14.4334 30C7.439 29.2192 2 23.2689 2 16.0435C2 14.0831 2.4004 12.2181 3.1228 10.523ZM28.8352 10.4261C29.606 12.1978 30.0026 14.1105 30 16.0435C30 23.231 24.617 29.1574 17.673 29.9888L23.203 20.383C23.9632 19.1163 24.4 17.6305 24.4 16.0435C24.4028 13.9703 23.6409 11.9694 22.2608 10.4261H28.8352ZM16 10.4261C17.4852 10.4261 18.9096 11.018 19.9598 12.0714C21.01 13.1249 21.6 14.5537 21.6 16.0435C21.6 17.5334 21.01 18.9622 19.9598 20.0156C18.9096 21.0691 17.4852 21.6609 16 21.6609C14.5148 21.6609 13.0904 21.0691 12.0402 20.0156C10.99 18.9622 10.4 17.5334 10.4 16.0435C10.4 14.5537 10.99 13.1249 12.0402 12.0714C13.0904 11.018 14.5148 10.4261 16 10.4261ZM16 2C18.1737 1.99837 20.3179 2.50525 22.2621 3.48039C24.2063 4.45553 25.8971 5.87205 27.2 7.61742H16C14.2311 7.61762 12.5075 8.17766 11.0744 9.21779C9.64133 10.2579 8.57197 11.7251 8.0186 13.4104L4.7342 7.70449C6.03467 5.93421 7.73193 4.49552 9.68893 3.50459C11.6459 2.51366 13.8078 1.99826 16 2Z" fill="#3E495E"/>
</svg>
