<svg width="32" height="32" viewBox="0 0 32 32" fill="none" xmlns="http://www.w3.org/2000/svg">
<path d="M26.6817 22.3802C26.7828 22.3802 26.8731 22.4238 26.9525 22.5109C27.0247 22.6052 27.0608 22.696 27.0608 22.7831C27.0608 22.8702 27.0211 22.9899 26.9417 23.1424L26.595 23.6432L26.1292 24.2203L25.6525 24.7647C25.5008 24.9461 25.3636 25.0985 25.2408 25.2219L25.0025 25.4724C24.5836 25.8571 24.0997 26.2345 23.5508 26.6047C23.0019 26.9749 22.4242 27.3051 21.8175 27.5955C21.1964 27.8858 20.5681 28.1181 19.9325 28.2923C19.2969 28.4665 18.6939 28.5536 18.1233 28.5536C17.4733 28.5536 16.8631 28.452 16.2925 28.2487C15.7147 28.0455 15.1803 27.7624 14.6892 27.3995C14.1981 27.0366 13.7575 26.6119 13.3675 26.1256C12.9847 25.6466 12.6525 25.124 12.3708 24.5578C12.0964 23.9989 11.8869 23.4182 11.7425 22.8157C11.5981 22.2133 11.5258 21.6072 11.5258 20.9975C11.5258 20.2716 11.6414 19.5603 11.8725 18.8635C12.1108 18.1594 12.425 17.5061 12.815 16.9037C12.9161 17.5932 13.1147 18.2356 13.4108 18.8308C13.7069 19.426 14.0753 19.9704 14.5158 20.464C14.9492 20.9576 15.4475 21.3967 16.0108 21.7814C16.5742 22.1734 17.1664 22.5 17.7875 22.7613C18.4086 23.0226 19.0478 23.2259 19.705 23.371C20.3694 23.5162 21.0194 23.5888 21.655 23.5888C22.4639 23.5888 23.2511 23.5017 24.0167 23.3275C24.7822 23.1605 25.5261 22.8992 26.2483 22.5436L26.465 22.4347L26.6817 22.3802ZM9.89 20.9975C9.89 21.7959 9.9875 22.5762 10.1825 23.3384C10.3775 24.1078 10.6592 24.8445 11.0275 25.5486C11.3958 26.2454 11.8436 26.8878 12.3708 27.4757C12.9053 28.0709 13.5047 28.579 14.1692 29C13.1075 28.8548 12.0964 28.5863 11.1358 28.1943C10.1753 27.7951 9.27972 27.2979 8.44917 26.7027C7.61861 26.1002 6.8675 25.4107 6.19583 24.634C5.53139 23.8573 4.96083 23.0117 4.48417 22.0972C4.0075 21.1826 3.64278 20.2172 3.39 19.201C3.13 18.1848 3 17.1396 3 16.0653C3 15.4774 3.11556 14.9366 3.34667 14.443C3.57056 13.9495 3.87028 13.5031 4.24583 13.1039C4.62861 12.7046 5.06194 12.3562 5.54583 12.0586C6.0225 11.7683 6.51 11.5288 7.00833 11.34C7.54278 11.1441 8.08444 11.0025 8.63333 10.9154C9.19667 10.8283 9.75639 10.7848 10.3125 10.7848C10.8181 10.7848 11.3308 10.821 11.8508 10.8936C12.3708 10.9807 12.8764 11.1078 13.3675 11.2747C13.8586 11.4417 14.3353 11.6485 14.7975 11.8953C15.2525 12.1494 15.6714 12.4506 16.0542 12.799C15.8014 12.799 15.5486 12.8244 15.2958 12.8752C15.0575 12.926 14.8228 13.0095 14.5917 13.1256V13.1039C14.1367 13.3071 13.7033 13.5757 13.2917 13.9095C12.88 14.2434 12.5008 14.6209 12.1542 15.0419C11.8075 15.4629 11.4933 15.9202 11.2117 16.4137C10.9372 16.9001 10.7025 17.4045 10.5075 17.9271C10.3125 18.4425 10.1608 18.9651 10.0525 19.495C9.94417 20.0176 9.89 20.5184 9.89 20.9975ZM15.9567 3C17.1844 3 18.3869 3.14154 19.5642 3.42462C20.7414 3.70045 21.85 4.11781 22.89 4.67672C23.9228 5.23562 24.8689 5.93607 25.7283 6.77806C26.5806 7.62004 27.2956 8.59994 27.8733 9.71776C28.2272 10.4001 28.5017 11.1114 28.6967 11.8518C28.8989 12.5776 29 13.3325 29 14.1164C29 14.7624 28.9169 15.3794 28.7508 15.9673C28.5775 16.548 28.3283 17.0851 28.0033 17.5787C27.6783 18.0723 27.2811 18.5151 26.8117 18.907C26.3494 19.2917 25.8258 19.6111 25.2408 19.8652C24.8508 20.0394 24.45 20.17 24.0383 20.2571C23.6194 20.3515 23.2006 20.3987 22.7817 20.3987C22.4783 20.3987 22.1281 20.3878 21.7308 20.366C21.3408 20.3442 20.9436 20.3007 20.5392 20.2353C20.1419 20.1628 19.7628 20.0611 19.4017 19.9305C19.0406 19.7926 18.7372 19.6111 18.4917 19.3861C18.405 19.3208 18.3219 19.2337 18.2425 19.1248C18.1703 19.0087 18.1342 18.8889 18.1342 18.7655C18.1342 18.6566 18.1919 18.5296 18.3075 18.3844C18.4231 18.2393 18.5494 18.0578 18.6867 17.84C18.8311 17.6368 18.9611 17.39 19.0767 17.0997C19.1922 16.8093 19.25 16.4645 19.25 16.0653C19.25 15.2959 19.1056 14.5846 18.8167 13.9313C18.5278 13.2708 18.145 12.6756 17.6683 12.1457C17.1917 11.6086 16.6428 11.1441 16.0217 10.7521C15.4006 10.3529 14.7542 10.0299 14.0825 9.78308C13.4758 9.56533 12.8547 9.40564 12.2192 9.30402C11.5908 9.2024 10.9553 9.15159 10.3125 9.15159C9.19306 9.15159 8.08806 9.31491 6.9975 9.64154C5.90694 9.96817 4.91389 10.4726 4.01833 11.1549C4.53111 9.89196 5.18472 8.756 5.97917 7.74707C6.77361 6.74539 7.68361 5.89252 8.70917 5.18844C9.7275 4.48437 10.8469 3.94361 12.0675 3.56616C13.2953 3.18872 14.5881 3 15.9458 3H15.9567Z" fill="#3E495E"/>
</svg>
