<svg width="32" height="32" viewBox="0 0 32 32" fill="none" xmlns="http://www.w3.org/2000/svg">
<path d="M29.4663 12.1638V12.1594C29.4525 12.1119 29.4381 12.0644 29.4238 12.0169C29.4206 12.005 29.4169 11.9931 29.4131 11.9819C29.3863 11.8919 29.3588 11.8019 29.33 11.7125L29.3263 11.7C29.1509 11.1552 28.9422 10.6217 28.7013 10.1025C28.4679 9.58831 28.1985 9.09124 27.895 8.61502C26.7229 6.7321 25.1223 5.15292 23.2238 4.00627C21.0444 2.68999 18.546 1.99611 16 2.00002C15.5625 2.00002 15.125 2.02127 14.6988 2.06252C13.1913 2.22127 10.65 2.76314 8.58815 4.57377C16.0938 0.741266 26.1213 5.35627 25.2681 13.9375C24.9644 17 22.3644 19.1044 19.9438 19.4594C19.5132 19.5252 19.0755 19.5296 18.6438 19.4725C12.7319 18.6506 13.0938 13.805 14.89 11.7331C12.515 11.7181 10.6731 14.6575 11.5681 17.5456C9.50877 13.7219 11.59 7.73314 16.0013 5.92064C10.8169 5.17064 5.95689 7.68314 4.39502 12.05C4.58154 10.4538 4.95386 8.88484 5.5044 7.37502C5.5044 7.37502 2.67814 9.60877 2.10189 14.3063C2.09314 14.3788 2.08502 14.4513 2.07752 14.5244C2.07439 14.5494 2.07189 14.5744 2.06939 14.6C2.04731 14.8188 2.03064 15.039 2.01939 15.2606C2.01939 15.2775 2.01939 15.2944 2.01939 15.3113C2.01502 15.4038 2.01127 15.4988 2.00877 15.59V15.6681C2.00877 15.7781 2.00439 15.8881 2.00439 15.9988C2.00439 23.7306 8.27252 29.9988 16.0044 29.9988C23.7363 29.9988 30 23.7319 30 16C30.0007 14.7027 29.8211 13.4116 29.4663 12.1638Z" fill="white"/>
</svg>
