<svg width="32" height="32" viewBox="0 0 32 32" fill="none" xmlns="http://www.w3.org/2000/svg">
<path d="M23.6122 21.1246L7.57742 29.9597L7.56747 29.9654C7.29001 30.1154 7.02764 29.7419 7.25497 29.5244L19.8246 17.5032L23.6122 21.1246Z" fill="#3E495E"/>
<path d="M5.32244 3.45355C5.37465 3.46374 5.42305 3.48864 5.46094 3.52599L18.25 15.9996L5.46094 28.4725C5.42306 28.5099 5.37465 28.5348 5.32244 28.545C5.27022 28.5551 5.21603 28.5498 5.1669 28.5294C5.11771 28.5089 5.07509 28.4742 5.04545 28.4299C5.01598 28.3858 5.00023 28.3339 5 28.2808V3.71846C5.00016 3.66524 5.0159 3.61286 5.04545 3.56861C5.07509 3.52431 5.11771 3.48967 5.1669 3.46918C5.21602 3.44878 5.27023 3.44341 5.32244 3.45355Z" fill="#3E495E"/>
<path d="M30.0867 14.4371C31.3045 15.1102 31.3044 16.8889 30.0867 17.5621L25.608 20.0266L21.3977 15.9996L25.608 11.9712L30.0867 14.4371Z" fill="#3E495E"/>
<path d="M7.25355 2.47557C7.02755 2.25808 7.28988 1.88467 7.56605 2.03453L7.576 2.04021L23.6122 10.8747L19.8246 14.4954L7.25355 2.47557Z" fill="#3E495E"/>
</svg>
