<svg width="28" height="28" viewBox="0 0 28 28" fill="none" xmlns="http://www.w3.org/2000/svg">
<path d="M20.6607 18.484L6.63024 26.2148L6.62154 26.2198C6.37876 26.351 6.14919 26.0242 6.3481 25.8338L17.3465 15.3153L20.6607 18.484Z" fill="#4C65FF"/>
<path d="M4.65714 3.02186C4.70282 3.03078 4.74517 3.05256 4.77832 3.08524L15.9688 13.9997L4.77832 24.9135C4.74518 24.9462 4.70282 24.9679 4.65714 24.9769C4.61145 24.9857 4.56402 24.981 4.52104 24.9632C4.478 24.9453 4.4407 24.9149 4.41477 24.8762C4.38898 24.8376 4.3752 24.7921 4.375 24.7457V3.25366C4.37514 3.20709 4.38891 3.16125 4.41477 3.12253C4.4407 3.08377 4.478 3.05346 4.52104 3.03553C4.56402 3.01768 4.61145 3.01298 4.65714 3.02186Z" fill="#4C65FF"/>
<path d="M26.3258 12.6325C27.3915 13.2215 27.3913 14.7777 26.3258 15.3668L22.407 17.5233L18.723 13.9997L22.407 10.4748L26.3258 12.6325Z" fill="#4C65FF"/>
<path d="M6.34686 2.16613C6.14911 1.97582 6.37865 1.64909 6.6203 1.78021L6.629 1.78518L20.6607 9.51533L17.3465 12.6835L6.34686 2.16613Z" fill="#4C65FF"/>
</svg>
