<svg xmlns="http://www.w3.org/2000/svg" xmlns:xlink="http://www.w3.org/1999/xlink" t="1677837595396" class="icon" viewBox="0 0 1024 1024" version="1.1" p-id="3849" width="200" height="200"><path d="M759.3984 29.7984 246.272 29.7984c-48.2304 0-87.3472 39.1168-87.3472 87.3472l0 791.552c0 48.2304 39.1168 87.3472 87.3472 87.3472l215.6544 0 119.9104 0 177.5616 0c48.2304 0 87.3472-39.1168 87.3472-87.3472l0-791.552C846.7456 68.9152 807.6288 29.7984 759.3984 29.7984zM418.304 92.0576l169.0624 0c8.3968 0 15.2576 6.8608 15.2576 15.2576s-6.8608 15.2576-15.2576 15.2576L418.304 122.5728c-8.3968 0-15.2576-6.8608-15.2576-15.2576S409.9072 92.0576 418.304 92.0576zM502.8864 894.6688c-33.9968 0-61.5424-27.5456-61.5424-61.5424 0-33.9968 27.5456-61.5424 61.5424-61.5424 33.9968 0 61.5424 27.5456 61.5424 61.5424C564.3264 867.1232 536.7808 894.6688 502.8864 894.6688zM782.848 667.0336c0 12.0832-9.728 21.8112-21.8112 21.8112L244.6336 688.8448c-12.0832 0-21.8112-9.728-21.8112-21.8112l0-464.896c0-12.0832 9.728-21.8112 21.8112-21.8112l516.3008 0c12.0832 0 21.8112 9.728 21.8112 21.8112L782.7456 667.0336z" fill="#ffffff" p-id="3850"/></svg>
