<svg width="36" height="36" viewBox="0 0 36 36" fill="none" xmlns="http://www.w3.org/2000/svg">
<path d="M25.6607 0H10.3393C7.73566 0 5.625 2.22314 5.625 4.96552V31.0345C5.625 33.7769 7.73566 36 10.3393 36H25.6607C28.2643 36 30.375 33.7769 30.375 31.0345V4.96552C30.375 2.22314 28.2643 0 25.6607 0Z" fill="#192945"/>
<path d="M10.755 32.625H8.37C8.09625 32.625 7.875 32.4038 7.875 32.13V29.745C7.875 29.4712 8.09625 29.25 8.37 29.25H10.755C11.0288 29.25 11.25 29.4712 11.25 29.745V32.13C11.25 32.4 11.0288 32.625 10.755 32.625Z" fill="#0288D1"/>
<path d="M16.3762 32.625H13.995C13.7212 32.625 13.5 32.4038 13.5 32.13V29.745C13.5 29.4712 13.7212 29.25 13.995 29.25H16.38C16.6538 29.25 16.875 29.4712 16.875 29.745V32.13C16.875 32.4 16.6537 32.625 16.3762 32.625Z" fill="#00BFA5"/>
<path d="M22.005 32.625H19.62C19.3462 32.625 19.125 32.4038 19.125 32.13V29.745C19.125 29.4712 19.3462 29.25 19.62 29.25H22.005C22.2788 29.25 22.5 29.4712 22.5 29.745V32.13C22.5 32.4 22.2788 32.625 22.005 32.625Z" fill="#E8FF80"/>
<path d="M27.63 32.625H25.245C24.9712 32.625 24.75 32.4038 24.75 32.13V29.745C24.75 29.4712 24.9712 29.25 25.245 29.25H27.63C27.9038 29.25 28.125 29.4712 28.125 29.745V32.13C28.125 32.4 27.9038 32.625 27.63 32.625Z" fill="#FF80AB"/>
<path d="M10.755 9H8.37C8.09625 9 7.875 8.77875 7.875 8.505V6.12C7.875 5.84625 8.09625 5.625 8.37 5.625H10.755C11.0288 5.625 11.25 5.84625 11.25 6.12V8.505C11.25 8.775 11.0288 9 10.755 9Z" fill="#0288D1"/>
<path d="M16.3762 9H13.995C13.7212 9 13.5 8.77875 13.5 8.505V6.12C13.5 5.84625 13.7212 5.625 13.995 5.625H16.38C16.6538 5.625 16.875 5.84625 16.875 6.12V8.505C16.875 8.775 16.6537 9 16.3762 9Z" fill="#00BFA5"/>
<path d="M22.005 9H19.62C19.3462 9 19.125 8.77875 19.125 8.505V6.12C19.125 5.84625 19.3462 5.625 19.62 5.625H22.005C22.2788 5.625 22.5 5.84625 22.5 6.12V8.505C22.5 8.775 22.2788 9 22.005 9Z" fill="#FF80AB"/>
<path d="M27.63 9H25.245C24.9712 9 24.75 8.77875 24.75 8.505V6.12C24.75 5.84625 24.9712 5.625 25.245 5.625H27.63C27.9038 5.625 28.125 5.84625 28.125 6.12V8.505C28.125 8.775 27.9038 9 27.63 9Z" fill="#80A2FF"/>
<path d="M10.755 14.625H8.37C8.09625 14.625 7.875 14.4038 7.875 14.13V11.745C7.875 11.4712 8.09625 11.25 8.37 11.25H10.755C11.0288 11.25 11.25 11.4712 11.25 11.745V14.13C11.25 14.4 11.0288 14.625 10.755 14.625Z" fill="#0274D1"/>
<path d="M10.755 20.25H8.37C8.09625 20.25 7.875 20.0288 7.875 19.755V17.37C7.875 17.0962 8.09625 16.875 8.37 16.875H10.755C11.0288 16.875 11.25 17.0962 11.25 17.37V19.755C11.25 20.025 11.0288 20.25 10.755 20.25Z" fill="#02D163"/>
<path d="M16.3762 14.625H13.995C13.7212 14.625 13.5 14.4038 13.5 14.13V11.745C13.5 11.4712 13.7212 11.25 13.995 11.25H16.38C16.6538 11.25 16.875 11.4712 16.875 11.745V14.13C16.875 14.4 16.6537 14.625 16.3762 14.625Z" fill="#A9BF00"/>
<path d="M16.3762 20.25H13.995C13.7212 20.25 13.5 20.0288 13.5 19.755V17.37C13.5 17.0962 13.7212 16.875 13.995 16.875H16.38C16.6538 16.875 16.875 17.0962 16.875 17.37V19.755C16.875 20.025 16.6537 20.25 16.3762 20.25Z" fill="#9900BF"/>
<path d="M22.005 14.625H19.62C19.3462 14.625 19.125 14.4038 19.125 14.13V11.745C19.125 11.4712 19.3462 11.25 19.62 11.25H22.005C22.2788 11.25 22.5 11.4712 22.5 11.745V14.13C22.5 14.4 22.2788 14.625 22.005 14.625Z" fill="#FFB180"/>
<path d="M27.63 14.625H25.245C24.9712 14.625 24.75 14.4038 24.75 14.13V11.745C24.75 11.4712 24.9712 11.25 25.245 11.25H27.63C27.9038 11.25 28.125 11.4712 28.125 11.745V14.13C28.125 14.4 27.9038 14.625 27.63 14.625Z" fill="#FF80AB"/>
<rect x="13.5" y="2.25" width="9" height="1.125" rx="0.5625" fill="#8A9BFF"/>
</svg>
