<svg width="64" height="64" viewBox="0 0 64 64" fill="none" xmlns="http://www.w3.org/2000/svg">
<path d="M50.4846 15.3174C47.0847 13.7842 43.4403 12.651 39.6293 12.0066C39.5954 12 39.5603 12.0042 39.5288 12.0186C39.4974 12.0329 39.4711 12.0567 39.4538 12.0866C38.9871 12.9065 38.4672 13.9753 38.1027 14.8197C34.0608 14.2158 29.9516 14.2158 25.9097 14.8197C25.5038 13.8839 25.0461 12.9714 24.5387 12.0866C24.5215 12.0563 24.4955 12.032 24.4641 12.0169C24.4327 12.0018 24.3975 11.9967 24.3631 12.0021C20.5543 12.6465 16.91 13.7798 13.5079 15.3152C13.4786 15.3275 13.4538 15.3484 13.4368 15.3752C6.52142 25.5412 4.62591 35.4561 5.557 45.2466C5.55959 45.2706 5.56703 45.2938 5.57888 45.3148C5.59072 45.3358 5.60671 45.3542 5.62589 45.3688C9.6622 48.3073 14.1642 50.5458 18.9433 51.9906C18.9766 52.0009 19.0122 52.0008 19.0455 51.9905C19.0788 51.9802 19.1082 51.9601 19.1299 51.9328C20.1583 50.5575 21.0697 49.0984 21.8543 47.5709C21.8652 47.55 21.8715 47.527 21.8727 47.5035C21.8739 47.48 21.8701 47.4565 21.8615 47.4346C21.8528 47.4126 21.8396 47.3928 21.8226 47.3765C21.8057 47.3601 21.7854 47.3476 21.7632 47.3398C20.3277 46.7992 18.9368 46.1469 17.6033 45.3888C17.5794 45.3751 17.5592 45.3557 17.5446 45.3323C17.5299 45.3089 17.5214 45.2822 17.5196 45.2547C17.5179 45.2272 17.523 45.1996 17.5345 45.1746C17.546 45.1495 17.5635 45.1277 17.5855 45.111C17.8655 44.9044 18.1455 44.6889 18.4122 44.4733C18.4362 44.4539 18.4651 44.4416 18.4957 44.4377C18.5263 44.4337 18.5574 44.4384 18.5855 44.4511C27.3119 48.3708 36.7628 48.3708 45.387 44.4511C45.4152 44.4376 45.4466 44.4324 45.4776 44.4359C45.5086 44.4394 45.5381 44.4516 45.5625 44.4711C45.8292 44.6889 46.1069 44.9044 46.3892 45.111C46.4114 45.1273 46.4292 45.1488 46.4411 45.1737C46.453 45.1986 46.4585 45.226 46.4572 45.2535C46.4559 45.281 46.4477 45.3078 46.4335 45.3314C46.4193 45.355 46.3995 45.3747 46.3758 45.3888C45.047 46.1532 43.6648 46.7998 42.2137 47.3376C42.1914 47.3457 42.1711 47.3584 42.1542 47.375C42.1372 47.3915 42.124 47.4115 42.1153 47.4336C42.1067 47.4557 42.1029 47.4794 42.1042 47.503C42.1054 47.5267 42.1117 47.5498 42.1226 47.5709C42.9226 49.0975 43.8381 50.5507 44.8447 51.9306C44.8657 51.9589 44.8948 51.9801 44.9282 51.9912C44.9617 52.0024 44.9977 52.0029 45.0314 51.9928C49.8187 50.5521 54.328 48.3126 58.3688 45.3688C58.3885 45.355 58.4051 45.3372 58.4173 45.3165C58.4296 45.2958 58.4373 45.2727 58.4399 45.2488C59.551 33.9296 56.5777 24.0946 50.5535 15.3797C50.5387 15.3513 50.5143 15.3293 50.4846 15.3174ZM23.1587 39.2848C20.5321 39.2848 18.3655 36.9094 18.3655 33.9962C18.3655 31.0809 20.4899 28.7077 23.1587 28.7077C25.8475 28.7077 27.9941 31.1009 27.9519 33.9962C27.9519 36.9116 25.8275 39.2848 23.1587 39.2848ZM40.8804 39.2848C38.2516 39.2848 36.0872 36.9094 36.0872 33.9962C36.0872 31.0809 38.2094 28.7077 40.8804 28.7077C43.5692 28.7077 45.7158 31.1009 45.6736 33.9962C45.6736 36.9116 43.5715 39.2848 40.8804 39.2848Z" fill="#4649EF"/>
</svg>
