<svg xmlns="http://www.w3.org/2000/svg" width="28" height="28" viewBox="0 0 28 28" fill="none">
    <path d="M6.41406 18.6562C12.2474 21.5729 15.7474 21.5729 21.5807 18.6562" stroke="#3E495E" stroke-width="1.75"
        stroke-linecap="round" stroke-linejoin="round" />
    <path
        d="M18.0833 20.4063L19.25 22.7396C19.25 22.7396 24.1165 21.1899 25.6667 18.6563C25.6667 17.4896 26.2851 9.15187 22.1667 6.40625C20.4167 5.23958 17.5 4.65625 17.5 4.65625L16.3333 6.98958H14"
        stroke="#3E495E" stroke-width="1.75" stroke-linecap="round" stroke-linejoin="round" />
    <path
        d="M9.95226 20.4063L8.78559 22.7396C8.78559 22.7396 3.91904 21.1899 2.36893 18.6563C2.36893 17.4896 1.75049 9.15187 5.86893 6.40625C7.61893 5.23958 10.5356 4.65625 10.5356 4.65625L11.7022 6.98958H14.0356"
        stroke="#3E495E" stroke-width="1.75" stroke-linecap="round" stroke-linejoin="round" />
    <path
        d="M9.91406 16.3229C8.94756 16.3229 8.16406 15.2783 8.16406 13.9896C8.16406 12.7009 8.94756 11.6562 9.91406 11.6562C10.8806 11.6562 11.6641 12.7009 11.6641 13.9896C11.6641 15.2783 10.8806 16.3229 9.91406 16.3229Z"
        stroke="#3E495E" stroke-width="1.75" stroke-linecap="round" stroke-linejoin="round" />
    <path
        d="M18.0859 16.3229C17.1195 16.3229 16.3359 15.2783 16.3359 13.9896C16.3359 12.7009 17.1195 11.6562 18.0859 11.6562C19.0524 11.6562 19.8359 12.7009 19.8359 13.9896C19.8359 15.2783 19.0524 16.3229 18.0859 16.3229Z"
        stroke="#3E495E" stroke-width="1.75" stroke-linecap="round" stroke-linejoin="round" />
</svg>