<svg xmlns="http://www.w3.org/2000/svg" width="28" height="28" viewBox="0 0 28 28" fill="none">
    <path
        d="M17.1169 17.7826C18.5191 17.4912 19.7914 16.9859 20.7804 16.2441C22.4695 14.9774 23.3327 13.0209 23.3327 11.0879C23.3327 9.7318 22.8186 8.46585 21.9285 7.39356C21.4326 6.79605 22.8832 2.33787 21.5943 2.93829C20.3055 3.53871 18.4156 4.86772 17.425 4.57442C16.3645 4.26039 15.2088 4.08787 13.9993 4.08787C12.9489 4.08787 11.939 4.21802 10.9967 4.458C9.62703 4.80681 8.31716 3.50453 6.99935 2.93829C5.68152 2.37204 6.40062 6.98313 6.0092 7.468C5.15671 8.52424 4.66602 9.76306 4.66602 11.0879C4.66602 13.0209 5.71068 14.9774 7.39969 16.2441C8.52482 17.0879 9.93585 17.6257 11.5144 17.8907"
        stroke="#3E495E" stroke-width="1.75" stroke-linecap="round" />
    <path
        d="M11.5156 17.8828C10.8398 18.6266 10.502 19.3329 10.502 20.0018C10.502 20.6706 10.502 22.3654 10.502 25.0862"
        stroke="#3E495E" stroke-width="1.75" stroke-linecap="round" />
    <path
        d="M17.1172 17.7812C17.7575 18.6217 18.0777 19.3763 18.0777 20.0452C18.0777 20.714 18.0777 22.3965 18.0777 25.0928"
        stroke="#3E495E" stroke-width="1.75" stroke-linecap="round" />
    <path
        d="M3.5 18.2109C4.02434 18.275 4.41323 18.5161 4.66667 18.9342C5.04682 19.5612 6.45995 21.8874 8.06464 21.8874C9.13447 21.8874 9.94671 21.8874 10.5014 21.8874"
        stroke="#3E495E" stroke-width="1.75" stroke-linecap="round" />
</svg>