<svg xmlns="http://www.w3.org/2000/svg" width="64" height="64" viewBox="0 0 64 64" fill="none">
  <path d="M32 8C18.7464 8 8 19.025 8 32.6107C8 43.4857 14.8786 52.7 24.4143 55.9571C24.548 55.9862 24.6846 56.0005 24.8214 56C25.7107 56 26.0536 55.3464 26.0536 54.7786C26.0536 54.1893 26.0321 52.6464 26.0214 50.5893C25.2275 50.7754 24.4154 50.8724 23.6 50.8786C18.9821 50.8786 17.9321 47.2893 17.9321 47.2893C16.8393 44.45 15.2643 43.6893 15.2643 43.6893C13.175 42.2214 15.2536 42.1786 15.4143 42.1786H15.425C17.8357 42.3928 19.1 44.7286 19.1 44.7286C20.3 46.8286 21.9071 47.4178 23.3429 47.4178C24.2922 47.3989 25.2268 47.1798 26.0857 46.775C26.3 45.1893 26.9214 44.1071 27.6071 43.4857C22.2821 42.8643 16.6786 40.7536 16.6786 31.325C16.6786 28.6357 17.6107 26.4393 19.1429 24.725C18.8964 24.1036 18.0714 21.5964 19.3786 18.2107C19.5539 18.1688 19.7341 18.1507 19.9143 18.1571C20.7821 18.1571 22.7429 18.4893 25.9786 20.7393C29.9102 19.6393 34.0683 19.6393 38 20.7393C41.2357 18.4893 43.1964 18.1571 44.0643 18.1571C44.2445 18.1507 44.4247 18.1688 44.6 18.2107C45.9071 21.5964 45.0821 24.1036 44.8357 24.725C46.3679 26.45 47.3 28.6464 47.3 31.325C47.3 40.775 41.6857 42.8536 36.3393 43.4643C37.1964 44.225 37.9679 45.725 37.9679 48.0178C37.9679 51.3071 37.9357 53.9643 37.9357 54.7678C37.9357 55.3464 38.2679 56 39.1571 56C39.3011 56.0006 39.4447 55.9863 39.5857 55.9571C49.1321 52.7 56 43.475 56 32.6107C56 19.025 45.2536 8 32 8Z" fill="black"/>
</svg>