<svg xmlns="http://www.w3.org/2000/svg" width="64" height="64" viewBox="0 0 64 64" fill="none">
  <path d="M59.9974 21.6016L53.3307 25.2682L46.6641 31.6016V53.3349H55.9974C58.2067 53.3349 59.9974 51.5442 59.9974 49.3349V21.6016Z" fill="#4CAF50"/>
  <path d="M4 21.6016L8.81867 23.8816L17.3333 31.6016V53.3349H8C5.79067 53.3349 4 51.5442 4 49.3349V21.6016Z" fill="#1E88E5"/>
  <path d="M46.6667 14.9336L32 25.9336L17.3333 14.9336L16 22.6669L17.3333 31.6003L32 42.6003L46.6667 31.6003L48 22.6669L46.6667 14.9336Z" fill="#E53935"/>
  <path d="M4 16.3986V21.6013L17.3333 31.6013V14.9346L13.168 11.8133C12.176 11.0693 10.9707 10.668 9.73067 10.668C6.56533 10.668 4 13.2333 4 16.3986Z" fill="#C62828"/>
  <path d="M59.9974 16.3986V21.6013L46.6641 31.6013V14.9346L50.8294 11.8133C51.8214 11.0693 53.0267 10.668 54.2667 10.668C57.4321 10.668 59.9974 13.2333 59.9974 16.3986Z" fill="#FBC02D"/>
</svg>