<svg xmlns="http://www.w3.org/2000/svg" width="28" height="28" viewBox="0 0 28 28" fill="none">
    <path
        d="M5.10132 8.47206C5.11561 8.33004 5.09647 8.18664 5.04542 8.05334C4.99437 7.92004 4.91282 7.80054 4.80732 7.7044L2.62798 5.05956V4.66406H9.39232L14.6213 16.2199L19.218 4.66406H25.6673V5.05956L23.8042 6.8574C23.7252 6.91835 23.6643 6.9996 23.6279 7.09248C23.5915 7.18536 23.5811 7.28637 23.5977 7.38473V20.6077C23.5811 20.7061 23.5915 20.8071 23.6279 20.9C23.6643 20.9929 23.7252 21.0741 23.8042 21.1351L25.6242 22.9341V23.3307H16.4728V22.9352L18.3582 21.0919C18.5437 20.9052 18.5437 20.8504 18.5437 20.5657V9.87673L13.303 23.2864H12.596L6.49432 9.87673V18.8647C6.44415 19.2416 6.56898 19.6231 6.83265 19.8961L9.28382 22.8921V23.2864H2.33398V22.8921L4.78398 19.8961C4.91362 19.7608 5.00982 19.5971 5.06492 19.418C5.12002 19.2389 5.13248 19.0495 5.10132 18.8647V8.47206Z"
        fill="#3E495E" />
</svg>