<svg width="20" height="20" viewBox="0 0 20 20" fill="none" xmlns="http://www.w3.org/2000/svg">
<path d="M10 20C15.5228 20 20 15.5228 20 10C20 4.47715 15.5228 0 10 0C4.47715 0 0 4.47715 0 10C0 15.5228 4.47715 20 10 20Z" fill="#2C374B"/>
<path fill-rule="evenodd" clip-rule="evenodd" d="M15.4145 6.46316C15.3174 6.37025 11.0016 3.85759 10.5032 3.60422C10.2836 3.4902 9.87825 3.46064 9.64598 3.54087C9.37571 3.62955 4.80648 6.29424 4.62067 6.46738C4.52776 6.55606 4.41375 6.70386 4.36729 6.79677C4.28706 6.96146 4.28283 7.07548 4.27016 10.1202L4.26172 13.2706L4.84449 13.6126C5.16543 13.7984 5.45259 13.9547 5.47371 13.9631C5.52016 13.9758 9.6671 7.37109 9.6671 7.28241C9.6671 7.21906 8.7296 7.23173 8.39599 7.2993C8.04971 7.37531 7.74566 7.52734 7.57251 7.71315C7.50072 7.78916 6.92218 8.65909 6.28874 9.64726C5.65529 10.6354 5.1232 11.4589 5.10209 11.48C5.08097 11.5054 5.06408 10.589 5.06408 9.33476V7.14727L5.18232 7.0417C5.38502 6.85589 9.87402 4.28411 9.99227 4.28411C10.1063 4.28411 10.1696 4.3179 11.2085 4.91756C11.559 5.12026 12.4965 5.66079 13.2988 6.11687C14.1012 6.57717 14.798 6.99947 14.8529 7.05437L14.9458 7.15994V11.7036L12.7172 8.28169C12.6156 8.11603 12.5097 7.95166 12.4526 7.87542L12.4445 7.86301L12.4436 7.86362C12.4275 7.84301 12.4165 7.83139 12.412 7.83139C12.3951 7.83561 12.2811 8.02142 11.7701 8.88291C11.7068 8.98848 11.6139 9.14895 11.5674 9.23763L11.4787 9.39811L11.4795 9.39946L11.4772 9.40088L11.5413 9.50641L11.5885 9.58814C11.6035 9.6138 11.619 9.63783 11.6342 9.65922L11.782 9.90243C11.8002 9.94252 11.8254 9.98782 11.8546 10.0315C11.9222 10.1329 12.0108 10.2765 12.0531 10.3525C12.0637 10.3717 12.0752 10.389 12.0868 10.404L13.9134 13.41L13.6958 13.5366C13.5719 13.6067 13.5127 13.638 13.4753 13.6398L11.1905 10.0878L11.1325 9.99354L10.9255 10.3314L10.9099 10.3572L10.0178 11.8075L10.0154 11.8092L11.7999 14.6145C11.5731 14.7924 10.0653 15.8265 9.96777 15.8265C9.85797 15.8265 7.88501 14.4699 7.91035 14.4234C7.91935 14.4054 8.52794 13.3729 9.26707 12.1189L9.26819 12.117C9.91584 11.0183 10.6635 9.74981 11.1958 8.8449C11.8293 7.77227 12.0911 7.29508 12.0488 7.28241C12.0193 7.26974 11.597 7.26551 11.1156 7.27396L10.2372 7.28663L8.21018 10.627C7.46387 11.8595 6.78947 12.971 6.40994 13.5964L6.40907 13.5979C6.22221 13.9058 6.10698 14.0957 6.09026 14.1236L5.99735 14.2756L7.56829 15.1793C8.434 15.6776 9.25747 16.1464 9.40527 16.2266C9.71355 16.3913 10.0683 16.4462 10.3174 16.3618C10.4821 16.3111 15.1232 13.638 15.3554 13.4648C15.4272 13.4099 15.5497 13.2452 15.6215 13.0974L15.7481 12.8356L15.7397 9.90064L15.727 6.96569L15.6257 6.76721C15.5708 6.65741 15.4737 6.51805 15.4145 6.46316ZM14.9421 11.7619L14.9458 11.7672V11.7595L14.9421 11.7619Z" fill="white"/>
<path d="M15.0318 11.8234L12.4151 7.80997L11.4351 9.38283L13.9653 13.5585L15.0744 13.0252L15.0318 11.8234Z" fill="#24A2EE"/>
<path d="M13.7567 14.0132L11.14 9.99976L10.0142 11.7953L12.1144 15.1577L13.4573 14.6124L13.7567 14.0132Z" fill="#24A2EE"/>
<path fill-rule="evenodd" clip-rule="evenodd" d="M5.10883 7.1838L9.99997 4.36593L14.8911 7.1838V12.8162L9.99997 15.634L6.40941 13.5654L5.93104 14.3464L9.86556 16.6131C9.94875 16.6611 10.0512 16.6611 10.1344 16.6131L15.6717 13.423C15.7552 13.3749 15.8066 13.2859 15.8066 13.1897V6.81031C15.8066 6.71403 15.7552 6.62507 15.6717 6.57701L10.1344 3.38684C10.0512 3.33891 9.94875 3.33891 9.86556 3.38684L4.3282 6.57701C4.24477 6.62507 4.19336 6.71403 4.19336 6.81031V13.1897C4.19336 13.2859 4.24477 13.3749 4.3282 13.423L5.435 14.0606L5.92806 13.2881L5.10883 12.8162V7.1838Z" fill="#98BCDC"/>
<path d="M12.127 7.24622L10.2377 7.27309L5.93018 14.3497L7.44986 15.2295L12.127 7.24622Z" fill="white"/>
<path d="M7.43532 7.89139C7.86676 7.1856 9.10226 7.18852 9.66607 7.2782L5.43321 14.0596C5.28946 13.9769 4.93298 13.7719 4.657 13.6137C4.29232 13.4047 4.23208 13.3991 4.19336 13.2056V12.8302C5.09424 11.478 7.00388 8.59717 7.43532 7.89139Z" fill="white"/>
</svg>
