<svg width="20" height="20" viewBox="0 0 20 20" fill="none" xmlns="http://www.w3.org/2000/svg">
<path d="M10 20C15.5228 20 20 15.5228 20 10C20 4.47715 15.5228 0 10 0C4.47715 0 0 4.47715 0 10C0 15.5228 4.47715 20 10 20Z" fill="#13171F"/>
<path d="M10 5.04959C10.2064 5.04893 10.4089 5.10609 10.5845 5.21458C10.7602 5.32308 10.9019 5.47858 10.9937 5.66348L14.1186 11.9135C14.2033 12.0829 14.2434 12.2712 14.2349 12.4604C14.2264 12.6497 14.1697 12.8336 14.0702 12.9947C13.9706 13.1559 13.8315 13.2889 13.666 13.3812C13.5006 13.4734 13.3143 13.5218 13.1249 13.5218H6.87513C6.68571 13.5218 6.49942 13.4734 6.33397 13.3812C6.16852 13.2889 6.02941 13.1559 5.92984 12.9947C5.83027 12.8336 5.77355 12.6497 5.76508 12.4604C5.75661 12.2712 5.79666 12.0829 5.88143 11.9135L9.00629 5.66348C9.0981 5.47858 9.23983 5.32308 9.41546 5.21458C9.59108 5.10609 9.79357 5.04893 10 5.04959ZM10 4.28571C9.65184 4.28567 9.31054 4.38257 9.01435 4.56557C8.71815 4.74857 8.47876 5.01043 8.32299 5.32182L5.19812 11.5718C5.05511 11.8577 4.98756 12.1754 5.00188 12.4947C5.01621 12.8141 5.11193 13.1244 5.27997 13.3964C5.448 13.6683 5.68276 13.8927 5.96195 14.0484C6.24114 14.2041 6.55549 14.2857 6.87513 14.2857H13.1249C13.4445 14.2857 13.7589 14.2041 14.038 14.0484C14.3172 13.8927 14.552 13.6683 14.72 13.3964C14.8881 13.1244 14.9838 12.8141 14.9981 12.4947C15.0124 12.1754 14.9449 11.8577 14.8019 11.5718L11.677 5.32182C11.5212 5.01043 11.2818 4.74857 10.9857 4.56557C10.6895 4.38257 10.3482 4.28567 10 4.28571Z" fill="#70D44B"/>
</svg>
