<svg width="20" height="20" viewBox="0 0 20 20" fill="none" xmlns="http://www.w3.org/2000/svg">
<path d="M10 20C15.5228 20 20 15.5228 20 10C20 4.47715 15.5228 0 10 0C4.47715 0 0 4.47715 0 10C0 15.5228 4.47715 20 10 20Z" fill="#E84142"/>
<path d="M12.8451 10.1458C13.1245 9.63752 13.5754 9.63752 13.8548 10.1458L15.595 13.3628C15.8744 13.8711 15.6458 14.2857 15.0869 14.2857H11.5813C11.0288 14.2857 10.8001 13.8711 11.0732 13.3628L12.8451 10.1458ZM9.47917 3.95266C9.7586 3.44437 10.2032 3.44437 10.4826 3.95266L10.87 4.68835L11.7845 6.38043C12.0068 6.86197 12.0068 7.43046 11.7845 7.912L8.71708 13.5099C8.43764 13.9647 7.97404 14.2523 7.45962 14.2857H4.91297C4.3541 14.2857 4.12547 13.8778 4.40491 13.3628L9.47917 3.95266Z" fill="white"/>
</svg>
