<svg width="81" height="80" viewBox="0 0 81 80" fill="none" xmlns="http://www.w3.org/2000/svg">
<g clip-path="url(#clip0_128260_46921)">
<path d="M69.8447 20.5561L71.6003 27.5785L64.4199 56.2827C63.3841 60.4084 60.8911 64.0249 57.3799 66.4477L43.0015 76.4195C42.1061 77.0516 41.0527 77.35 39.9994 77.35C38.946 77.35 37.8927 77.0516 36.9973 76.4195L22.6189 66.4477C19.1076 64.0249 16.6147 60.4084 15.5789 56.2827L8.39844 27.5785L10.154 20.5561L8.39844 17.0449L14.1042 11.3391C15.9476 9.49575 18.6687 8.81106 21.1617 9.60109C21.2319 9.61864 21.2846 9.6362 21.3373 9.65375L22.4433 10.0224L29.4657 3H50.533L57.5555 10.0224L58.6966 9.6362C60.1538 9.14463 61.6811 9.16218 63.0856 9.6362C64.1039 9.96976 65.0695 10.5316 65.8595 11.304C65.877 11.3216 65.877 11.3216 65.8946 11.3391L71.6003 17.0449L69.8447 20.5561Z" fill="#F1552B"/>
<path d="M65.8595 11.304L55.7999 17.0449L39.9994 20.5561L24.1989 15.2893L20.5648 11.6551C19.5817 10.672 18.0894 10.356 16.7903 10.8827L13.0859 12.3574L14.1042 11.3391C15.9476 9.49575 18.6688 8.81106 21.1617 9.60109C21.232 9.61864 21.2846 9.6362 21.3373 9.65375L22.4433 10.0224L29.4658 3H50.5331L57.5555 10.0224L58.6966 9.6362C60.1538 9.14463 61.6812 9.16218 63.0857 9.6362C64.1039 9.96976 65.0695 10.5316 65.8595 11.304Z" fill="#F4592B"/>
<path d="M54.9397 38.9739C54.413 39.5006 54.2726 40.3258 54.6062 40.9929L55.2031 42.1867C55.5893 42.9767 55.8 43.837 55.8 44.7148C55.8 46.1193 55.2908 47.4711 54.3428 48.5069L53.1841 49.806C52.6223 50.1747 51.9201 50.2098 51.3583 49.8938L42.1765 44.8377C41.1406 44.1354 41.1231 42.608 42.1589 41.9234L49.0233 37.2534C49.866 36.7619 50.1294 35.691 49.6378 34.8483L46.3021 29.3005C45.7579 28.3876 46.0563 28.0014 47.0219 27.58L57.5556 22.3132H48.7775L43.5107 23.6299C42.5451 23.8757 41.9833 24.8588 42.2467 25.8069L44.8099 34.7429C45.0556 35.6383 44.5641 36.5863 43.6687 36.8848L41.088 37.745C40.7193 37.8679 40.3682 37.9381 39.9995 37.9381C39.6308 37.9381 39.2621 37.8679 38.8935 37.745L36.3303 36.8848C35.4349 36.5863 34.9433 35.6383 35.1891 34.7429L37.7523 25.8069C38.0157 24.8588 37.4539 23.8757 36.4883 23.6299L31.2215 22.3132H22.4434L32.9771 27.58C33.9427 28.0014 34.2411 28.3876 33.6969 29.3005L30.3612 34.8483C29.8696 35.691 30.133 36.7619 30.9757 37.2534L37.8401 41.9234C38.8759 42.608 38.8584 44.1354 37.8225 44.8377L28.6407 49.8938C28.0789 50.2098 27.3767 50.1747 26.8149 49.806L25.6562 48.5069C24.7082 47.4711 24.199 46.1193 24.199 44.7148C24.199 43.837 24.4097 42.9767 24.7959 42.1867L25.3928 40.9929C25.7264 40.3258 25.586 39.5006 25.0593 38.9739L17.8788 30.4944C16.4217 28.7563 16.2286 26.2633 17.4224 24.3322L23.3914 14.6061C23.8655 13.9741 24.7082 13.7459 25.4455 14.0267L30.0452 15.8701C30.8879 16.2037 31.7833 16.3793 32.6611 16.3793C33.732 16.3793 34.8205 16.1335 35.8036 15.6419C37.1203 14.9748 38.5599 14.6412 39.9995 14.6412C41.4391 14.6412 42.8787 14.9748 44.1954 15.6419C46.0037 16.5373 48.0929 16.625 49.9538 15.8701L54.5535 14.0267C55.2908 13.7459 56.1335 13.9741 56.6076 14.6061L62.5766 24.3322C63.7704 26.2633 63.5773 28.7563 62.1202 30.4944L54.9397 38.9739Z" fill="white"/>
<path d="M49.673 54.7719L41.2461 61.4432C40.9125 61.7767 40.4561 61.9523 39.9996 61.9523C39.5432 61.9523 39.0867 61.7767 38.7532 61.4432L30.3262 54.7719C29.9049 54.3505 30.0278 53.6307 30.5545 53.3674L39.2096 49.031C39.4554 48.9081 39.7187 48.8555 39.9996 48.8555C40.2805 48.8555 40.5439 48.9081 40.7897 49.031L49.4448 53.3674C49.9715 53.6307 50.0944 54.3505 49.673 54.7719Z" fill="white"/>
<path d="M69.8448 20.5546L71.6005 27.5771L64.42 56.2813C63.3842 60.4069 60.8913 64.0235 57.38 66.4462L43.0016 76.4181C42.1062 77.0501 41.0529 77.3486 39.9995 77.3486V15.9198L41.7551 18.799H54.0444V15.2878L63.0858 9.63477C64.1216 9.96833 65.1047 10.5477 65.8947 11.3377L71.6005 17.0434L69.8448 20.5546Z" fill="#E03C26"/>
<path d="M54.9397 38.9739C54.4131 39.5006 54.2726 40.3258 54.6062 40.9929L55.2031 42.1867C55.5893 42.9767 55.8 43.837 55.8 44.7148C55.8 46.1193 55.2909 47.4711 54.3428 48.5069L53.1841 49.806C52.6223 50.1747 51.9201 50.2098 51.3583 49.8938L42.1765 44.8377C41.1407 44.1354 41.1231 42.608 42.1589 41.9234L49.0233 37.2534C49.866 36.7619 50.1294 35.691 49.6378 34.8483L46.3021 29.3005C45.7579 28.3876 46.0564 28.0014 47.0219 27.58L57.5556 22.3132H48.7776L43.5107 23.6299C42.5451 23.8757 41.9834 24.8588 42.2467 25.8069L44.8099 34.7429C45.0557 35.6383 44.5641 36.5863 43.6687 36.8848L41.088 37.745C40.7193 37.8679 40.3682 37.9381 39.9995 37.9381V14.6412C41.4391 14.6412 42.8787 14.9748 44.1954 15.6419C46.0037 16.5373 48.0929 16.625 49.9538 15.8701L54.5535 14.0267C55.2909 13.7459 56.1335 13.9741 56.6076 14.6061L62.5766 24.3322C63.7704 26.2633 63.5773 28.7563 62.1202 30.4944L54.9397 38.9739Z" fill="#F5F5F5"/>
<path d="M49.6729 54.7719L41.246 61.4432C40.9124 61.7767 40.456 61.9523 39.9995 61.9523V48.8555C40.2804 48.8555 40.5438 48.9081 40.7895 49.031L49.4447 53.3674C49.9714 53.6307 50.0943 54.3505 49.6729 54.7719Z" fill="#F5F5F5"/>
</g>
<defs>
<clipPath id="clip0_128260_46921">
<rect x="0.5" width="80" height="80" rx="40" fill="white"/>
</clipPath>
</defs>
</svg>
