<svg width="20" height="20" viewBox="0 0 20 20" fill="none" xmlns="http://www.w3.org/2000/svg">
<path d="M10 20C15.5228 20 20 15.5228 20 10C20 4.47715 15.5228 0 10 0C4.47715 0 0 4.47715 0 10C0 15.5228 4.47715 20 10 20Z" fill="black"/>
<path d="M16.9912 8.54244C16.8969 8.08461 16.7576 7.63724 16.5752 7.20686C16.3954 6.78295 16.1755 6.37723 15.9184 5.99525C15.6635 5.61787 15.3727 5.266 15.0501 4.94455C14.7285 4.62191 14.3764 4.33111 13.9988 4.07621C13.6162 3.82041 13.2108 3.60055 12.7878 3.41945C11.9129 3.04838 10.9722 2.85715 10.0219 2.85715C9.07152 2.85715 8.13088 3.04838 7.25596 3.41945C6.40995 3.7763 5.64154 4.29451 4.99365 4.94514C4.67107 5.26641 4.38028 5.61807 4.12532 5.99525C3.86948 6.37799 3.64962 6.78359 3.46856 7.20686C3.09748 8.08178 2.90625 9.02241 2.90625 9.97277C2.90625 10.9231 3.09748 11.8638 3.46856 12.7387C3.64377 13.1618 3.87024 13.5629 4.12532 13.9497C4.38027 14.3272 4.67106 14.6793 4.99365 15.001C5.31529 15.3236 5.66736 15.6144 6.04495 15.8693C6.42399 16.1244 6.83282 16.3437 7.25596 16.5261C8.13088 16.8972 9.07152 17.0884 10.0219 17.0884C10.9722 17.0884 11.9129 16.8972 12.7878 16.5261C13.2109 16.3509 13.612 16.1244 13.9988 15.8693C14.3764 15.6144 14.7285 15.3236 15.0501 15.001C15.3727 14.6794 15.6635 14.3273 15.9184 13.9497C16.1735 13.5707 16.3928 13.1618 16.5752 12.7387C17.1366 11.4146 17.2817 9.95098 16.9912 8.54244ZM10.0284 16.1977C6.59145 16.1977 3.81124 13.4097 3.81124 9.97992C3.81124 6.5501 6.5992 3.76214 10.0284 3.76214C13.4583 3.76214 16.2462 6.5501 16.2462 9.97992C16.2462 13.4097 13.4588 16.1977 10.0284 16.1977Z" fill="white"/>
<path d="M10.1386 15.6577H10.3067C10.3359 15.6577 10.3645 15.6577 10.3937 15.65H10.4014C10.4306 15.65 10.4521 15.65 10.4813 15.6428H10.5033C10.5254 15.6428 10.5474 15.6428 10.5689 15.6357H10.5909C10.613 15.6357 10.6351 15.6285 10.6643 15.6285H10.6786C10.7078 15.6285 10.737 15.6208 10.7662 15.6208C10.7954 15.6208 10.8174 15.6136 10.8466 15.6065H10.8609C10.883 15.6065 10.905 15.5993 10.9265 15.5993H10.9414C10.9706 15.5916 10.9926 15.5916 11.0218 15.5844C11.0796 15.5773 11.1381 15.5624 11.1893 15.5481H11.2042C11.2257 15.5409 11.2549 15.5409 11.2769 15.5332H11.2841C11.3425 15.5189 11.3937 15.504 11.4521 15.4897C10.9055 15.507 10.3589 15.4556 9.82512 15.3365C9.02175 15.1613 8.25593 14.8478 7.60632 14.3073C7.09419 13.8811 6.68319 13.3464 6.40304 12.7419C6.1229 12.1374 5.98061 11.4781 5.98646 10.8119C5.99172 9.81794 6.34539 8.8573 6.98591 8.09723C7.81789 7.11209 9.0003 6.59359 10.2113 6.56439H10.3794V5.59415H10.1899C9.82144 5.6009 9.45465 5.64482 9.09506 5.72526C8.7332 5.80709 8.38101 5.92695 8.04436 6.08284C7.70108 6.24376 7.37985 6.44043 7.08067 6.6669C6.77151 6.90191 6.49 7.17122 6.24154 7.46967C6.0076 7.74589 5.80456 8.04686 5.63603 8.36721C5.46931 8.67604 5.33471 9.00115 5.23435 9.33745C5.1359 9.66855 5.07003 10.0085 5.03768 10.3524L5.01562 10.673V10.8625C5.02278 11.235 5.06688 11.5998 5.14674 11.9573C5.2272 12.3227 5.35116 12.6725 5.50432 13.0086C5.68729 13.4097 6.01567 14.0009 6.50436 14.4461C7.5022 15.2328 8.73629 15.6597 10.0069 15.6577H10.1386Z" fill="white"/>
<path d="M11.7291 14.7233C11.3692 14.7104 11.0107 14.6714 10.6564 14.6065C9.15335 14.3365 7.86128 13.4169 7.38749 12.0307C6.81058 10.3447 7.69382 8.52038 9.37207 7.96613C9.6919 7.85895 10.0271 7.8046 10.3644 7.80522C10.7953 7.80522 11.2256 7.89283 11.6201 8.05314L12.0283 7.18481C11.9056 7.13559 11.7815 7.08948 11.6564 7.04654C11.2383 6.91531 10.8026 6.84879 10.3644 6.84928C9.92532 6.8501 9.48926 6.92153 9.0729 7.06085C8.54151 7.23612 8.0521 7.51937 7.63541 7.89283C7.43445 8.07184 7.25123 8.26982 7.08831 8.48403C6.92724 8.69579 6.78788 8.9232 6.67232 9.16284C6.437 9.64463 6.29812 10.1678 6.26348 10.7028C6.22713 11.2571 6.29983 11.8113 6.4822 12.337C6.66802 12.8777 6.96664 13.3728 7.35828 13.7894C7.71587 14.1762 8.13186 14.4682 8.63486 14.7382C9.1605 15.0153 9.81012 15.1613 10.4883 15.2567C10.9264 15.3145 11.5104 15.3294 11.8531 15.3294C12.1523 15.2197 12.2763 15.1685 12.4372 15.1029C12.576 15.0374 12.7143 14.9718 12.8532 14.8913C12.992 14.8109 13.0141 14.796 13.2471 14.6434C13.2678 14.6305 13.2874 14.6157 13.3055 14.5993C12.5027 14.7382 12.2983 14.7304 11.7291 14.7233Z" fill="white"/>
<path d="M13.5251 13.6362C13.2986 13.6505 12.9774 13.672 12.6127 13.672C11.9631 13.672 11.1674 13.6142 10.4892 13.3877C9.43792 13.0379 8.44562 12.1403 8.44562 11.0306C8.44539 10.768 8.49694 10.5079 8.59735 10.2652C8.69775 10.0225 8.84502 9.80196 9.03073 9.61624C9.21645 9.43053 9.43697 9.28325 9.67966 9.18285C9.92236 9.08245 10.1825 9.03089 10.4451 9.03113C11.1966 9.03113 11.8462 9.44712 12.1895 10.0526L13.0579 9.62233C12.9217 9.366 12.7468 9.13221 12.5394 8.92922C12.2645 8.65386 11.938 8.4354 11.5786 8.28635C11.2192 8.1373 10.8339 8.06058 10.4448 8.06058C10.0557 8.06058 9.67046 8.1373 9.31105 8.28635C8.95165 8.4354 8.62516 8.65386 8.35027 8.92922C8.075 9.2041 7.85662 9.53055 7.70762 9.8899C7.55862 10.2493 7.48193 10.6345 7.48193 11.0235C7.48388 11.4312 7.57118 11.834 7.7382 12.2059C7.89077 12.5414 8.10294 12.8555 8.37291 13.1475C8.84731 13.6577 9.49632 14.0665 10.19 14.3001C10.8539 14.5188 11.8319 14.5993 12.7807 14.5337C13.043 14.5117 13.2402 14.4896 13.5758 14.4169C13.8996 14.1614 14.1934 13.8701 14.4518 13.5486C14.2254 13.5707 13.8094 13.6142 13.5251 13.6362Z" fill="white"/>
</svg>
