<svg width="20" height="20" viewBox="0 0 20 20" fill="none" xmlns="http://www.w3.org/2000/svg">
<path d="M10 20C15.5228 20 20 15.5228 20 10C20 4.47715 15.5228 0 10 0C4.47715 0 0 4.47715 0 10C0 15.5228 4.47715 20 10 20Z" fill="#282C31"/>
<path d="M11.0528 11.8421C12.6516 11.8421 13.9476 10.5461 13.9476 8.94737C13.9476 7.34863 12.6516 6.05263 11.0528 6.05263C9.4541 6.05263 8.1581 7.34863 8.1581 8.94737C8.1581 10.5461 9.4541 11.8421 11.0528 11.8421ZM11.0528 12.8947C8.87284 12.8947 7.10547 11.1274 7.10547 8.94737C7.10547 6.76737 8.87284 5 11.0528 5C13.2328 5 15.0002 6.76737 15.0002 8.94737C15.0002 11.1274 13.2328 12.8947 11.0528 12.8947Z" fill="#35D07F"/>
<path d="M8.94737 13.9474C10.5461 13.9474 11.8421 12.6514 11.8421 11.0526C11.8421 9.45389 10.5461 8.15789 8.94737 8.15789C7.34863 8.15789 6.05263 9.45389 6.05263 11.0526C6.05263 12.6514 7.34863 13.9474 8.94737 13.9474ZM8.94737 15C6.76737 15 5 13.2326 5 11.0526C5 8.87262 6.76737 7.10526 8.94737 7.10526C11.1274 7.10526 12.8947 8.87262 12.8947 11.0526C12.8947 13.2326 11.1274 15 8.94737 15Z" fill="#FBCC5C"/>
<path d="M11.1823 12.8926C11.4558 12.5611 11.6519 12.1727 11.7562 11.7558C12.1731 11.6515 12.5615 11.4555 12.893 11.182C12.8779 11.6648 12.7739 12.1406 12.5863 12.5857C12.1411 12.7734 11.6652 12.8775 11.1824 12.8926H11.1823ZM8.24426 8.24399C7.82732 8.34822 7.43892 8.54426 7.10742 8.81778C7.12254 8.33501 7.22652 7.85917 7.41416 7.4141C7.85929 7.22643 8.33521 7.12245 8.81805 7.10736C8.54456 7.4388 8.34853 7.82712 8.24426 8.24399Z" fill="#ECFF8F"/>
</svg>
