<svg width="20" height="20" viewBox="0 0 20 20" fill="none" xmlns="http://www.w3.org/2000/svg">
<path d="M10 20C15.5228 20 20 15.5228 20 10C20 4.47715 15.5228 0 10 0C4.47715 0 0 4.47715 0 10C0 15.5228 4.47715 20 10 20Z" fill="#627EEA"/>
<path d="M10.311 2.5V8.04375L14.9967 10.1375L10.311 2.5Z" fill="white" fill-opacity="0.602"/>
<path d="M10.3113 2.5L5.625 10.1375L10.3113 8.04375V2.5Z" fill="white"/>
<path d="M10.311 13.7302V17.4971L14.9998 11.0102L10.311 13.7302Z" fill="white" fill-opacity="0.602"/>
<path d="M10.3113 17.4971V13.7296L5.625 11.0102L10.3113 17.4971Z" fill="white"/>
<path d="M10.311 12.8582L14.9967 10.1376L10.311 8.04507V12.8582Z" fill="white" fill-opacity="0.2"/>
<path d="M5.625 10.1376L10.3113 12.8582V8.04507L5.625 10.1376Z" fill="white" fill-opacity="0.602"/>
</svg>
