<svg width="20" height="20" viewBox="0 0 20 20" fill="none" xmlns="http://www.w3.org/2000/svg">
<path d="M10 20C15.5228 20 20 15.5228 20 10C20 4.47715 15.5228 0 10 0C4.47715 0 0 4.47715 0 10C0 15.5228 4.47715 20 10 20Z" fill="#0062F9"/>
<path d="M9.434 4.40155C9.74138 4.24709 10.2091 4.24709 10.5165 4.40155L13.653 5.97761C13.8406 6.07184 13.9424 6.21283 13.9587 6.35788L13.961 6.35787V14.315L13.9606 14.315C13.9528 14.4692 13.8503 14.6215 13.653 14.7215L10.5165 16.3117C10.2091 16.4675 9.7414 16.4675 9.43402 16.3117L6.29747 14.7215C6.09702 14.6198 6.00082 14.4623 5.99606 14.3054L5.99649 14.315H5.99567V6.35787L5.99693 6.3579C6.00889 6.21114 6.106 6.07381 6.29744 5.97761L9.434 4.40155ZM6.47186 10.7915V14.2807L9.43402 15.7746C9.60502 15.8623 9.78271 15.9477 9.95602 15.9543L9.97526 15.9547C10.1322 15.9552 10.2851 15.8869 10.4393 15.8145L10.4949 15.7884L13.4848 14.268V10.8223L10.5516 12.2927C10.2492 12.4443 9.79202 12.4471 9.48388 12.3012L9.4666 12.2927L6.47186 10.7915ZM5.49466 14.1492C5.49466 14.452 5.53181 14.651 5.60558 14.7912C5.66672 14.9074 5.75845 14.9962 5.92596 15.1043L5.93552 15.1104C5.97228 15.1339 6.01278 15.1585 6.06207 15.1874L6.1202 15.2211L6.2987 15.3231L6.04268 15.724L5.84289 15.6097L5.80931 15.5902C5.75155 15.5564 5.70367 15.5274 5.65901 15.4989C5.18161 15.194 5.00357 14.8617 5.00005 14.1702L5 14.1492H5.49466ZM10.2382 8.68096V11.909C10.268 11.9003 10.2958 11.8898 10.3205 11.8774L13.4645 10.3013C13.4678 10.2997 13.4709 10.2981 13.4739 10.2964L13.4766 10.295L13.4717 10.2923L13.4645 10.2886L10.3205 8.71253C10.2958 8.70013 10.268 8.68961 10.2382 8.68096ZM9.76189 8.68654C9.73889 8.69402 9.71735 8.70268 9.69771 8.71253L6.55374 10.2886C6.55045 10.2902 6.5473 10.2919 6.5443 10.2935L6.54164 10.295L6.54658 10.2977L6.55374 10.3013L9.69771 11.8774C9.71735 11.8873 9.73889 11.8959 9.76189 11.9034V8.68654ZM6.47186 6.90865V9.7984L9.35078 8.35522L6.47186 6.90865ZM13.4848 6.9055L10.6335 8.33823L13.4848 9.7676V6.9055ZM10.2859 4.81687C10.1228 4.7349 9.82769 4.7349 9.66457 4.81687L6.52801 6.39293C6.52472 6.39459 6.52158 6.39623 6.5186 6.39784L6.51594 6.39931L6.52086 6.40199L6.52801 6.40568L9.66457 7.98175C9.82769 8.06371 10.1228 8.06371 10.2859 7.98175L13.4225 6.40568C13.4258 6.40403 13.4289 6.40239 13.4319 6.40077L13.4345 6.39931L13.4296 6.39663L13.4225 6.39293L10.2859 4.81687ZM13.9573 4.99024L14.1571 5.10453L14.1907 5.12406C14.2485 5.15783 14.2963 5.18685 14.341 5.21537C14.8184 5.52023 14.9964 5.8526 14.9999 6.54402L15 6.56508H14.5053C14.5053 6.26229 14.4682 6.06328 14.3944 5.92308C14.3333 5.80687 14.2415 5.71807 14.074 5.61001L14.0645 5.60387C14.0277 5.58039 13.9872 5.5558 13.9379 5.5269L13.8798 5.49318L13.7013 5.39114L13.9573 4.99024Z" fill="white"/>
</svg>
