<svg width="20" height="20" viewBox="0 0 20 20" fill="none" xmlns="http://www.w3.org/2000/svg">
<path d="M20 10C20 4.47715 15.5228 0 10 0C4.47715 0 0 4.47715 0 10C0 15.5228 4.47715 20 10 20C15.5228 20 20 15.5228 20 10Z" fill="#04795B"/>
<path d="M7.28308 10.9057C7.67691 10.9057 8.04048 10.7745 8.33335 10.5474L5.92981 8.14471C5.70258 8.43241 5.57131 8.79585 5.57131 9.19461C5.56625 10.1385 6.33378 10.9057 7.28308 10.9057Z" fill="#EFEFEF"/>
<path d="M14.4329 9.18958C14.4329 8.79588 14.3017 8.43245 14.0744 8.13968L11.6709 10.5423C11.9587 10.7695 12.3223 10.9007 12.7212 10.9007C13.6654 10.9058 14.4329 10.1385 14.4329 9.18958Z" fill="#EFEFEF"/>
<path d="M15.6448 6.58002L14.5793 7.64505C14.9328 8.06905 15.1449 8.60412 15.1449 9.19972C15.1449 10.5373 14.0592 11.6226 12.7211 11.6226C12.1304 11.6226 11.5901 11.4106 11.1659 11.0572L9.9995 12.2232L8.83307 11.0572C8.40893 11.4106 7.87367 11.6226 7.27783 11.6226C5.93974 11.6226 4.85414 10.5373 4.85414 9.19972C4.85414 8.60915 5.0662 8.06905 5.41967 7.64505L4.8743 7.09992L4.35424 6.58002C3.7483 7.57945 3.3999 8.74545 3.3999 9.99725C3.3999 13.6416 6.3538 16.5894 9.99443 16.5894C13.6351 16.5894 16.589 13.6366 16.589 9.99725C16.5991 8.74038 16.2507 7.57438 15.6448 6.58002Z" fill="#EFEFEF"/>
<path d="M14.7712 5.44426C13.5745 4.18743 11.8778 3.39999 9.99945 3.39999C8.12105 3.39999 6.42948 4.18743 5.22772 5.44426C5.06615 5.6159 4.90962 5.7976 4.76318 5.98436L9.99438 11.2137L15.2256 5.97933C15.0943 5.7976 14.9378 5.61083 14.7712 5.44426ZM9.99945 4.25809C11.5446 4.25809 12.9786 4.8537 14.0541 5.93893L9.99945 9.99213L5.94475 5.93893C7.02532 4.8537 8.45432 4.25809 9.99945 4.25809Z" fill="#EFEFEF"/>
</svg>
