<svg width="20" height="20" viewBox="0 0 20 20" fill="none" xmlns="http://www.w3.org/2000/svg">
<path d="M10 20C15.5228 20 20 15.5228 20 10C20 4.47715 15.5228 0 10 0C4.47715 0 0 4.47715 0 10C0 15.5228 4.47715 20 10 20Z" fill="#00943E"/>
<path fill-rule="evenodd" clip-rule="evenodd" d="M7.75627 5C8.04476 5 8.27861 5.22976 8.27861 5.51319V6.93879C7.1964 7.36181 6.25928 8.25419 5.71436 9.25464V5H7.75627ZM8.93119 11.4799C8.93119 10.8357 9.4627 10.3135 10.1183 10.3135H10.6198C11.6164 10.3135 12.4243 9.51978 12.4243 8.54066V5H14.4662C14.7547 5 14.9886 5.22976 14.9886 5.51319V8.54066C14.9886 10.9112 13.0326 12.8328 10.6198 12.8328H8.93119V11.4799ZM11.7832 8.52014C11.7832 9.16429 11.2517 9.68649 10.5961 9.68649H10.0946C9.09801 9.68649 8.29012 10.4802 8.29012 11.4593V15H6.24823C5.95974 15 5.72587 14.7702 5.72587 14.4868V11.4593C5.72587 9.08884 7.68183 7.16717 10.0946 7.16717H11.7832V8.52014ZM12.9582 15C12.6697 15 12.4358 14.7702 12.4358 14.4868V13.0612C13.518 12.6382 14.4551 11.7458 15.0001 10.7454V15H12.9582Z" fill="white"/>
</svg>
