<svg xmlns="http://www.w3.org/2000/svg" width="64" height="64" viewBox="0 0 64 64" fill="none">
  <rect width="64" height="64" rx="32" fill="#DBE0FF" />
  <path
    d="M32 32.5L25.5907 26.9809C24.6384 26.1608 24.1623 25.7508 23.82 25.2482C23.5167 24.8029 23.2914 24.306 23.1545 23.7801C23 23.1867 23 22.5462 23 21.2653V17M32 32.5L38.4093 26.9809C39.3615 26.1608 39.8378 25.7508 40.1801 25.2482C40.4834 24.8029 40.7085 24.306 40.8455 23.7801C41 23.1867 41 22.5462 41 21.2653V17M32 32.5L25.5907 38.0191C24.6384 38.8392 24.1623 39.2492 23.82 39.7518C23.5167 40.1971 23.2914 40.6941 23.1545 41.2198C23 41.8133 23 42.4538 23 43.7347V48M32 32.5L38.4093 38.0191C39.3615 38.8392 39.8378 39.2492 40.1801 39.7518C40.4834 40.1971 40.7085 40.6941 40.8455 41.2198C41 41.8133 41 42.4538 41 43.7347V48M20 17H44M20 48H44"
    stroke="#4C65FF" stroke-width="3" stroke-linecap="round" stroke-linejoin="round" />
</svg>