<svg width="16" height="16" viewBox="0 0 16 16" fill="none" xmlns="http://www.w3.org/2000/svg">
<g id="verify.2 1">
<path id="Vector" d="M7.16594 1.63484C7.62594 1.24151 8.37927 1.24151 8.84594 1.63484L9.89927 2.54151C10.0993 2.71484 10.4726 2.85484 10.7393 2.85484H11.8726C12.5793 2.85484 13.1593 3.43484 13.1593 4.14151V5.27484C13.1593 5.53484 13.2993 5.91484 13.4726 6.11484L14.3793 7.16814C14.7726 7.62814 14.7726 8.38148 14.3793 8.84814L13.4726 9.90148C13.2993 10.1015 13.1593 10.4748 13.1593 10.7415V11.8748C13.1593 12.5815 12.5793 13.1615 11.8726 13.1615H10.7393C10.4793 13.1615 10.0993 13.3015 9.89927 13.4748L8.84594 14.3815C8.38594 14.7748 7.6326 14.7748 7.16594 14.3815L6.1126 13.4748C5.9126 13.3015 5.53927 13.1615 5.2726 13.1615H4.11927C3.4126 13.1615 2.8326 12.5815 2.8326 11.8748V10.7348C2.8326 10.4748 2.6926 10.1015 2.52594 9.90148L1.62594 8.84148C1.23927 8.38148 1.23927 7.63481 1.62594 7.17481L2.52594 6.11484C2.6926 5.91484 2.8326 5.54151 2.8326 5.28151V4.13484C2.8326 3.42818 3.4126 2.84818 4.11927 2.84818H5.2726C5.5326 2.84818 5.9126 2.70818 6.1126 2.53484L7.16594 1.63484Z" fill="#1E86EB"/>
<path id="Vector_2" d="M5 8.00002L6.99172 10L10.9834 6" stroke="white" stroke-width="1.23966" stroke-linecap="round" stroke-linejoin="round"/>
</g>
</svg>
