<svg width="36" height="36" viewBox="0 0 36 36" fill="none" xmlns="http://www.w3.org/2000/svg">
<path d="M17.9922 32.9922C22.1343 32.9922 25.8843 31.3132 28.5988 28.5988C31.3132 25.8843 32.9922 22.1343 32.9922 17.9922C32.9922 13.8501 31.3132 10.1001 28.5988 7.38558C25.8843 4.67112 22.1343 2.99219 17.9922 2.99219C13.8501 2.99219 10.1001 4.67112 7.38558 7.38558C4.67112 10.1001 2.99219 13.8501 2.99219 17.9922C2.99219 22.1343 4.67112 25.8843 7.38558 28.5988C10.1001 31.3132 13.8501 32.9922 17.9922 32.9922Z" fill="white" stroke="white" stroke-width="2.25" stroke-linejoin="round"/>
<path d="M18.6328 25.8828C18.6328 26.228 18.353 26.5078 18.0078 26.5078C17.6626 26.5078 17.3828 26.228 17.3828 25.8828C17.3828 25.5376 17.6626 25.2578 18.0078 25.2578C18.353 25.2578 18.6328 25.5376 18.6328 25.8828Z" fill="#8697FF" stroke="#8697FF" stroke-width="2.5"/>
<path d="M18 9V21Z" fill="#8697FF"/>
<path d="M18 9V21" stroke="#8697FF" stroke-width="2.5" stroke-linecap="round" stroke-linejoin="round"/>
</svg>
