<svg width="170" height="32" viewBox="0 0 170 32" fill="none" xmlns="http://www.w3.org/2000/svg">
<path d="M12.8848 3.44918C13.6141 2.41998 17.212 2.09818 20.665 4.44234C26.144 7.46904 31.8798 14.7346 30.7197 17.3349C29.9631 19.0301 26.5661 18.9698 22.5244 18.4638C22.2009 19.034 21.3495 20.076 20.167 21.2832C20.8413 21.5992 21.3885 21.979 21.8604 22.415C22.7452 23.2326 23.1154 24.5076 22.4541 24.8603C21.7191 25.2519 19.7385 24.1175 17.5205 23.915C17.4554 23.9091 17.3906 23.9038 17.3262 23.8984C15.3278 25.5531 12.993 27.1242 10.7305 27.9433C9.63933 28.3382 6.73438 28.6248 6.73438 27.5654C6.73502 26.8267 8.21009 26.1668 10.4062 23.7627H10.4043C10.4368 23.7271 10.4681 23.6896 10.501 23.6533C10.1478 23.6275 9.77859 23.5973 9.3916 23.5586C6.07944 23.2266 4.37958 22.1418 3.9209 19.4433C3.74828 19.4788 3.35951 19.5556 3.21191 19.5556C2.17472 19.5554 1.33398 18.7116 1.33398 17.6709C1.33423 16.6303 2.17487 15.7873 3.21191 15.7871C3.4832 15.7871 3.74172 15.8444 3.97461 15.9482C4.93306 12.8134 7.41262 10.7378 10.3965 9.85738C14.8245 8.55094 18.598 10.1732 20.3174 12.0566C20.8668 11.0651 21.8016 10.2894 22.793 9.85738C21.5556 9.25796 20.1539 8.68046 18.7959 8.11422C18.3566 7.93091 17.9221 7.74799 17.499 7.56637C17.2558 7.46203 17.0164 7.35786 16.7822 7.25387C16.7263 7.22901 16.6705 7.20448 16.6152 7.17965C16.4375 7.09988 16.2635 7.01909 16.0928 6.93941C16.0134 6.90235 15.935 6.86514 15.8574 6.82808C13.5594 5.73176 12.0419 4.63982 12.8848 3.44918Z" fill="#192945"/>
<path d="M41.8676 14.6128H42.5978C43.3608 14.6128 43.9462 14.4537 44.354 14.1355C44.7618 13.8172 44.9657 13.3598 44.9657 12.7631C44.9657 12.1664 44.7618 11.7089 44.354 11.3907C43.9462 11.0725 43.3608 10.9134 42.5978 10.9134H41.8676V14.6128ZM50.3725 22.9067H45.5577L41.8676 17.1388V22.9067H38V7.91004H44.0185C44.8473 7.91004 45.5708 8.03601 46.1891 8.28794C46.8074 8.52662 47.3139 8.85811 47.7086 9.28241C48.1164 9.70672 48.419 10.1973 48.6163 10.7542C48.8268 11.3111 48.932 11.9078 48.932 12.5443C48.932 13.6846 48.6558 14.6128 48.1032 15.3288C47.5639 16.0316 46.7614 16.5089 45.6958 16.7609L50.3725 22.9067Z" fill="#192945"/>
<path d="M53.5548 17.7752C53.5548 18.1067 53.6139 18.4183 53.7323 18.71C53.8507 18.9885 54.0086 19.2338 54.2059 19.446C54.4164 19.6581 54.6598 19.8239 54.9361 19.9432C55.2255 20.0625 55.5346 20.1222 55.8635 20.1222C56.1792 20.1222 56.4752 20.0625 56.7515 19.9432C57.0409 19.8239 57.2843 19.6581 57.4816 19.446C57.6921 19.2338 57.8565 18.9885 57.9749 18.71C58.1065 18.4316 58.1722 18.1332 58.1722 17.815C58.1722 17.4968 58.1065 17.1984 57.9749 16.92C57.8565 16.6283 57.6921 16.3763 57.4816 16.1642C57.2843 15.952 57.0409 15.7863 56.7515 15.6669C56.4752 15.5476 56.1792 15.4879 55.8635 15.4879C55.5346 15.4879 55.2255 15.5476 54.9361 15.6669C54.6598 15.7863 54.4164 15.952 54.2059 16.1642C54.0086 16.3763 53.8507 16.6216 53.7323 16.9001C53.6139 17.1653 53.5548 17.457 53.5548 17.7752ZM58.0538 12.7034H61.6452V22.9067H58.0538V21.773C57.2908 22.741 56.2582 23.225 54.9558 23.225C54.2191 23.225 53.5416 23.0924 52.9233 22.8272C52.305 22.5487 51.7656 22.1642 51.3052 21.6736C50.8448 21.183 50.483 20.6062 50.2199 19.9432C49.9699 19.2802 49.845 18.5576 49.845 17.7752C49.845 17.046 49.9699 16.3564 50.2199 15.7067C50.4698 15.0437 50.8185 14.4669 51.2657 13.9763C51.713 13.4857 52.2458 13.1012 52.8641 12.8227C53.4824 12.531 54.1665 12.3852 54.9163 12.3852C56.1792 12.3852 57.2251 12.8294 58.0538 13.7178V12.7034Z" fill="#192945"/>
<path d="M70.9625 17.8349C70.9625 17.5167 70.9033 17.2183 70.7849 16.9399C70.6665 16.6482 70.5021 16.3962 70.2916 16.1841C70.0811 15.9719 69.8378 15.8062 69.5615 15.6868C69.2852 15.5542 68.9827 15.4879 68.6538 15.4879C68.3381 15.4879 68.0421 15.5476 67.7658 15.6669C67.4896 15.7863 67.2462 15.952 67.0357 16.1642C66.8384 16.3763 66.6739 16.6283 66.5424 16.92C66.424 17.1984 66.3648 17.4968 66.3648 17.815C66.3648 18.1332 66.424 18.4316 66.5424 18.71C66.6608 18.9885 66.8252 19.2338 67.0357 19.446C67.2462 19.6448 67.4896 19.8106 67.7658 19.9432C68.0552 20.0625 68.3578 20.1222 68.6735 20.1222C68.9893 20.1222 69.2852 20.0625 69.5615 19.9432C69.8378 19.8239 70.0746 19.6581 70.2719 19.446C70.4824 19.2338 70.6468 18.9885 70.7652 18.71C70.8968 18.4316 70.9625 18.1399 70.9625 17.8349ZM66.4634 6.39844V13.7178C67.3054 12.8294 68.3578 12.3852 69.6207 12.3852C70.3706 12.3852 71.0546 12.531 71.6729 12.8227C72.3044 13.1012 72.8372 13.4857 73.2713 13.9763C73.7186 14.4537 74.0672 15.0239 74.3171 15.6868C74.5671 16.3366 74.6921 17.0327 74.6921 17.7752C74.6921 18.531 74.5605 19.2404 74.2974 19.9034C74.0475 20.5664 73.6923 21.1432 73.2318 21.6338C72.7714 22.1244 72.2254 22.5156 71.594 22.8073C70.9757 23.0857 70.3048 23.225 69.5812 23.225C68.2657 23.225 67.2265 22.741 66.4634 21.773V22.9067H62.8918V6.39844H66.4634Z" fill="#192945"/>
<path d="M83.6147 17.8349C83.6147 17.5167 83.5555 17.2183 83.4371 16.9399C83.3187 16.6482 83.1543 16.3962 82.9438 16.1841C82.7333 15.9719 82.4899 15.8062 82.2137 15.6868C81.9374 15.5542 81.6348 15.4879 81.306 15.4879C80.9902 15.4879 80.6942 15.5476 80.418 15.6669C80.1417 15.7863 79.8984 15.952 79.6879 16.1642C79.4905 16.3763 79.3261 16.6283 79.1945 16.92C79.0761 17.1984 79.0169 17.4968 79.0169 17.815C79.0169 18.1332 79.0761 18.4316 79.1945 18.71C79.3129 18.9885 79.4774 19.2338 79.6879 19.446C79.8984 19.6448 80.1417 19.8106 80.418 19.9432C80.7074 20.0625 81.01 20.1222 81.3257 20.1222C81.6414 20.1222 81.9374 20.0625 82.2137 19.9432C82.4899 19.8239 82.7267 19.6581 82.9241 19.446C83.1345 19.2338 83.299 18.9885 83.4174 18.71C83.5489 18.4316 83.6147 18.1399 83.6147 17.8349ZM79.1156 6.39844V13.7178C79.9576 12.8294 81.01 12.3852 82.2729 12.3852C83.0227 12.3852 83.7068 12.531 84.3251 12.8227C84.9565 13.1012 85.4893 13.4857 85.9235 13.9763C86.3707 14.4537 86.7193 15.0239 86.9693 15.6868C87.2192 16.3366 87.3442 17.0327 87.3442 17.7752C87.3442 18.531 87.2127 19.2404 86.9496 19.9034C86.6996 20.5664 86.3444 21.1432 85.884 21.6338C85.4236 22.1244 84.8776 22.5156 84.2462 22.8073C83.6279 23.0857 82.9569 23.225 82.2334 23.225C80.9179 23.225 79.8786 22.741 79.1156 21.773V22.9067H75.544V6.39844H79.1156Z" fill="#192945"/>
<path d="M91.3269 21.5145L86.4331 12.7034H90.577L93.2804 17.9344L95.9049 12.7034H100.009L91.8794 27.9984H87.8736L91.3269 21.5145Z" fill="#192945"/>
<path d="M108.402 7.91004L110.967 17.5962L114.125 7.91004H117.203L120.36 17.5962L122.926 7.91004H126.971L122.531 22.9067H118.584L115.664 14.215L112.743 22.9067H108.797L104.357 7.91004H108.402Z" fill="#192945"/>
<path d="M129.66 17.7752C129.66 18.1067 129.72 18.4183 129.838 18.71C129.956 18.9885 130.114 19.2338 130.312 19.446C130.522 19.6581 130.765 19.8239 131.042 19.9432C131.331 20.0625 131.64 20.1222 131.969 20.1222C132.285 20.1222 132.581 20.0625 132.857 19.9432C133.147 19.8239 133.39 19.6581 133.587 19.446C133.798 19.2338 133.962 18.9885 134.081 18.71C134.212 18.4316 134.278 18.1332 134.278 17.815C134.278 17.4968 134.212 17.1984 134.081 16.92C133.962 16.6283 133.798 16.3763 133.587 16.1642C133.39 15.952 133.147 15.7863 132.857 15.6669C132.581 15.5476 132.285 15.4879 131.969 15.4879C131.64 15.4879 131.331 15.5476 131.042 15.6669C130.765 15.7863 130.522 15.952 130.312 16.1642C130.114 16.3763 129.956 16.6216 129.838 16.9001C129.72 17.1653 129.66 17.457 129.66 17.7752ZM134.16 12.7034H137.751V22.9067H134.16V21.773C133.397 22.741 132.364 23.225 131.061 23.225C130.325 23.225 129.647 23.0924 129.029 22.8272C128.411 22.5487 127.871 22.1642 127.411 21.6736C126.95 21.183 126.589 20.6062 126.326 19.9432C126.076 19.2802 125.951 18.5576 125.951 17.7752C125.951 17.046 126.076 16.3564 126.326 15.7067C126.576 15.0437 126.924 14.4669 127.371 13.9763C127.819 13.4857 128.352 13.1012 128.97 12.8227C129.588 12.531 130.272 12.3852 131.022 12.3852C132.285 12.3852 133.331 12.8294 134.16 13.7178V12.7034Z" fill="#192945"/>
<path d="M142.569 6.39844V22.9067H138.998V6.39844H142.569Z" fill="#192945"/>
<path d="M147.398 6.39844V22.9067H143.826V6.39844H147.398Z" fill="#192945"/>
<path d="M156.054 16.3233C155.936 15.8194 155.692 15.415 155.324 15.11C154.956 14.8051 154.508 14.6526 153.982 14.6526C153.43 14.6526 152.976 14.7984 152.621 15.0902C152.279 15.3819 152.061 15.7929 151.969 16.3233H156.054ZM151.871 18.4117C151.871 19.9631 152.594 20.7388 154.041 20.7388C154.818 20.7388 155.403 20.4205 155.798 19.7841H159.251C158.554 22.1178 156.811 23.2846 154.022 23.2846C153.167 23.2846 152.384 23.1587 151.673 22.9067C150.963 22.6415 150.351 22.2703 149.838 21.7929C149.338 21.3156 148.95 20.7454 148.674 20.0824C148.398 19.4194 148.26 18.6769 148.26 17.8548C148.26 17.0062 148.391 16.2437 148.654 15.5675C148.917 14.878 149.292 14.2946 149.779 13.8172C150.266 13.3399 150.851 12.9752 151.535 12.7233C152.233 12.4581 153.015 12.3255 153.883 12.3255C154.739 12.3255 155.508 12.4581 156.192 12.7233C156.876 12.9752 157.455 13.3465 157.929 13.8371C158.402 14.3277 158.764 14.931 159.014 15.6471C159.264 16.3498 159.389 17.1454 159.389 18.0338V18.4117H151.871Z" fill="#192945"/>
<path d="M164.368 15.7067V22.9067H160.796V15.7067H159.612V12.7034H160.796V9.64043H164.368V12.7034H166.4V15.7067H164.368Z" fill="#192945"/>
</svg>
