<svg width="152" height="32" viewBox="0 0 152 32" fill="none" xmlns="http://www.w3.org/2000/svg">
<g clip-path="url(#clip0_65971_56919)">
<path d="M46.2614 15.2238H46.8512C47.4675 15.2238 47.9404 15.0838 48.2698 14.8037C48.5992 14.5236 48.7639 14.1211 48.7639 13.596C48.7639 13.0709 48.5992 12.6683 48.2698 12.3882C47.9404 12.1082 47.4675 11.9681 46.8512 11.9681H46.2614V15.2238ZM53.1314 22.5227H49.2421L46.2614 17.4467V22.5227H43.1372V9.32513H47.9988C48.6683 9.32513 49.2528 9.43599 49.7522 9.6577C50.2517 9.86774 50.6608 10.1595 50.9796 10.5329C51.309 10.9063 51.5534 11.338 51.7128 11.8281C51.8828 12.3182 51.9678 12.8433 51.9678 13.4034C51.9678 14.407 51.7447 15.2238 51.2984 15.8539C50.8627 16.4724 50.2145 16.8924 49.3537 17.1141L53.1314 22.5227Z" fill="white"/>
<path d="M55.702 18.0068C55.702 18.2985 55.7498 18.5728 55.8454 18.8295C55.9411 19.0745 56.0686 19.2904 56.228 19.4771C56.398 19.6638 56.5946 19.8097 56.8178 19.9147C57.0515 20.0197 57.3013 20.0722 57.5669 20.0722C57.822 20.0722 58.0611 20.0197 58.2842 19.9147C58.518 19.8097 58.7146 19.6638 58.874 19.4771C59.044 19.2904 59.1768 19.0745 59.2725 18.8295C59.3788 18.5844 59.4319 18.3219 59.4319 18.0418C59.4319 17.7618 59.3788 17.4992 59.2725 17.2542C59.1768 16.9975 59.044 16.7757 58.874 16.589C58.7146 16.4023 58.518 16.2565 58.2842 16.1515C58.0611 16.0464 57.822 15.9939 57.5669 15.9939C57.3013 15.9939 57.0515 16.0464 56.8178 16.1515C56.5946 16.2565 56.398 16.4023 56.228 16.589C56.0686 16.7757 55.9411 16.9916 55.8454 17.2367C55.7498 17.47 55.702 17.7268 55.702 18.0068ZM59.3362 13.5435H62.2373V22.5227H59.3362V21.525C58.7199 22.3768 57.8857 22.8028 56.8337 22.8028C56.2386 22.8028 55.6914 22.6861 55.1919 22.4527C54.6925 22.2076 54.2568 21.8692 53.8848 21.4375C53.5129 21.0057 53.2207 20.4981 53.0082 19.9147C52.8063 19.3312 52.7053 18.6953 52.7053 18.0068C52.7053 17.365 52.8063 16.7582 53.0082 16.1865C53.2101 15.603 53.4917 15.0954 53.853 14.6637C54.2143 14.2319 54.6446 13.8935 55.1441 13.6485C55.6435 13.3918 56.1961 13.2634 56.8018 13.2634C57.822 13.2634 58.6668 13.6543 59.3362 14.4361V13.5435Z" fill="white"/>
<path d="M69.7636 18.0593C69.7636 17.7793 69.7158 17.5167 69.6201 17.2717C69.5245 17.015 69.3917 16.7933 69.2216 16.6065C69.0516 16.4198 68.855 16.274 68.6319 16.169C68.4087 16.0523 68.1643 15.9939 67.8986 15.9939C67.6436 15.9939 67.4045 16.0464 67.1814 16.1515C66.9582 16.2565 66.7616 16.4023 66.5916 16.589C66.4322 16.7757 66.2994 16.9975 66.1931 17.2542C66.0975 17.4992 66.0496 17.7618 66.0496 18.0418C66.0496 18.3219 66.0975 18.5844 66.1931 18.8295C66.2887 19.0745 66.4216 19.2904 66.5916 19.4771C66.7616 19.6521 66.9582 19.798 67.1814 19.9147C67.4151 20.0197 67.6596 20.0722 67.9146 20.0722C68.1696 20.0722 68.4087 20.0197 68.6319 19.9147C68.855 19.8097 69.0463 19.6638 69.2057 19.4771C69.3757 19.2904 69.5086 19.0745 69.6042 18.8295C69.7105 18.5844 69.7636 18.3277 69.7636 18.0593ZM66.1293 7.99487V14.4361C66.8094 13.6543 67.6595 13.2634 68.6797 13.2634C69.2854 13.2634 69.838 13.3918 70.3374 13.6485C70.8475 13.8935 71.2779 14.2319 71.6286 14.6637C71.9899 15.0838 72.2715 15.5855 72.4734 16.169C72.6753 16.7407 72.7762 17.3534 72.7762 18.0068C72.7762 18.6719 72.67 19.2962 72.4574 19.8797C72.2555 20.4631 71.9686 20.9707 71.5967 21.4025C71.2247 21.8342 70.7837 22.1785 70.2737 22.4352C69.7742 22.6802 69.2323 22.8028 68.6478 22.8028C67.5852 22.8028 66.7457 22.3768 66.1293 21.525V22.5227H63.2442V7.99487H66.1293Z" fill="white"/>
<path d="M79.9837 18.0593C79.9837 17.7793 79.9359 17.5167 79.8403 17.2717C79.7446 17.015 79.6118 16.7933 79.4418 16.6065C79.2718 16.4198 79.0752 16.274 78.852 16.169C78.6288 16.0523 78.3844 15.9939 78.1188 15.9939C77.8637 15.9939 77.6246 16.0464 77.4015 16.1515C77.1783 16.2565 76.9817 16.4023 76.8117 16.589C76.6523 16.7757 76.5195 16.9975 76.4132 17.2542C76.3176 17.4992 76.2698 17.7618 76.2698 18.0418C76.2698 18.3219 76.3176 18.5844 76.4132 18.8295C76.5089 19.0745 76.6417 19.2904 76.8117 19.4771C76.9817 19.6521 77.1783 19.798 77.4015 19.9147C77.6353 20.0197 77.8797 20.0722 78.1347 20.0722C78.3898 20.0722 78.6288 20.0197 78.852 19.9147C79.0752 19.8097 79.2664 19.6638 79.4258 19.4771C79.5959 19.2904 79.7287 19.0745 79.8243 18.8295C79.9306 18.5844 79.9837 18.3277 79.9837 18.0593ZM76.3495 7.99487V14.4361C77.0296 13.6543 77.8797 13.2634 78.8998 13.2634C79.5055 13.2634 80.0581 13.3918 80.5576 13.6485C81.0676 13.8935 81.498 14.2319 81.8487 14.6637C82.21 15.0838 82.4916 15.5855 82.6935 16.169C82.8954 16.7407 82.9963 17.3534 82.9963 18.0068C82.9963 18.6719 82.8901 19.2962 82.6776 19.8797C82.4756 20.4631 82.1887 20.9707 81.8168 21.4025C81.4449 21.8342 81.0039 22.1785 80.4938 22.4352C79.9944 22.6802 79.4524 22.8028 78.8679 22.8028C77.8053 22.8028 76.9658 22.3768 76.3495 21.525V22.5227H73.4644V7.99487H76.3495Z" fill="white"/>
<path d="M86.2134 21.2975L82.2604 13.5435H85.6077L87.7915 18.1468L89.9115 13.5435H93.2269L86.6598 27.0036H83.424L86.2134 21.2975Z" fill="white"/>
<path d="M100.006 9.32513L102.079 17.8493L104.629 9.32513H107.116L109.666 17.8493L111.738 9.32513H115.006L111.419 22.5227H108.231L105.872 14.8737L103.513 22.5227H100.325L96.7388 9.32513H100.006Z" fill="white"/>
<path d="M117.178 18.0068C117.178 18.2985 117.226 18.5728 117.322 18.8295C117.418 19.0745 117.545 19.2904 117.704 19.4771C117.874 19.6638 118.071 19.8097 118.294 19.9147C118.528 20.0197 118.778 20.0722 119.043 20.0722C119.298 20.0722 119.538 20.0197 119.761 19.9147C119.994 19.8097 120.191 19.6638 120.35 19.4771C120.52 19.2904 120.653 19.0745 120.749 18.8295C120.855 18.5844 120.908 18.3219 120.908 18.0418C120.908 17.7618 120.855 17.4992 120.749 17.2542C120.653 16.9975 120.52 16.7757 120.35 16.589C120.191 16.4023 119.994 16.2565 119.761 16.1515C119.538 16.0464 119.298 15.9939 119.043 15.9939C118.778 15.9939 118.528 16.0464 118.294 16.1515C118.071 16.2565 117.874 16.4023 117.704 16.589C117.545 16.7757 117.418 16.9916 117.322 17.2367C117.226 17.47 117.178 17.7268 117.178 18.0068ZM120.813 13.5435H123.714V22.5227H120.813V21.525C120.196 22.3768 119.362 22.8028 118.31 22.8028C117.715 22.8028 117.168 22.6861 116.668 22.4527C116.169 22.2076 115.733 21.8692 115.361 21.4375C114.989 21.0057 114.697 20.4981 114.485 19.9147C114.283 19.3312 114.182 18.6953 114.182 18.0068C114.182 17.365 114.283 16.7582 114.485 16.1865C114.687 15.603 114.968 15.0954 115.329 14.6637C115.691 14.2319 116.121 13.8935 116.621 13.6485C117.12 13.3918 117.673 13.2634 118.278 13.2634C119.298 13.2634 120.143 13.6543 120.813 14.4361V13.5435Z" fill="white"/>
<path d="M127.606 7.99487V22.5227H124.721V7.99487H127.606Z" fill="white"/>
<path d="M131.506 7.99487V22.5227H128.621V7.99487H131.506Z" fill="white"/>
<path d="M138.499 16.7291C138.403 16.2857 138.206 15.9297 137.909 15.6614C137.611 15.393 137.25 15.2588 136.825 15.2588C136.379 15.2588 136.012 15.3871 135.725 15.6439C135.449 15.9006 135.273 16.2623 135.199 16.7291H138.499ZM135.119 18.5669C135.119 19.9322 135.704 20.6148 136.873 20.6148C137.5 20.6148 137.973 20.3348 138.291 19.7747H141.081C140.518 21.8284 139.11 22.8553 136.857 22.8553C136.166 22.8553 135.534 22.7444 134.96 22.5227C134.386 22.2893 133.892 21.9626 133.478 21.5425C133.074 21.1224 132.76 20.6207 132.537 20.0372C132.314 19.4538 132.202 18.8003 132.202 18.0768C132.202 17.33 132.309 16.6591 132.521 16.0639C132.734 15.4572 133.037 14.9437 133.43 14.5236C133.823 14.1036 134.296 13.7827 134.848 13.561C135.412 13.3276 136.044 13.2109 136.745 13.2109C137.436 13.2109 138.058 13.3276 138.61 13.561C139.163 13.7827 139.63 14.1094 140.013 14.5411C140.395 14.9729 140.688 15.5038 140.89 16.134C141.092 16.7524 141.192 17.4525 141.192 18.2344V18.5669H135.119Z" fill="white"/>
<path d="M145.214 16.1865V22.5227H142.329V16.1865H141.373V13.5435H142.329V10.8479H145.214V13.5435H146.856V16.1865H145.214Z" fill="white"/>
<path d="M35.1147 18.5508C36.501 15.2618 29.6477 6.07293 23.1005 2.24465C18.9736 -0.721068 14.6734 -0.313628 13.8024 0.988547C11.8911 3.8463 20.1314 6.2678 25.6424 9.09354C24.4578 9.63997 23.3414 10.6206 22.6849 11.8747C20.6304 9.4925 16.121 7.4411 10.8296 9.09354C7.26389 10.2071 4.30049 12.8323 3.15516 16.7973C2.87686 16.666 2.56874 16.593 2.24457 16.593C1.00493 16.593 0 17.6603 0 18.9768C0 20.2934 1.00493 21.3606 2.24457 21.3606C2.47434 21.3606 3.19277 21.197 3.19277 21.197L14.6734 21.2853C10.082 29.0209 6.45357 30.1517 6.45357 31.4918C6.45357 32.832 9.92536 32.4688 11.2289 31.9693C17.4693 29.5779 24.1718 22.1251 25.3219 19.9797C30.1518 20.6196 34.2108 20.6953 35.1147 18.5508Z" fill="url(#paint0_linear_65971_56919)"/>
<path fill-rule="evenodd" clip-rule="evenodd" d="M25.6415 9.09393C25.6418 9.09407 25.6421 9.0942 25.6424 9.09433C25.8978 8.98747 25.8565 8.58679 25.7864 8.27215C25.6251 7.54894 22.8435 4.63178 20.2315 3.32518C16.6724 1.5449 14.0516 1.63652 13.6641 2.45694C14.3889 4.03516 17.7502 5.51689 21.2608 7.06444C22.7585 7.72465 24.2833 8.39684 25.6422 9.09361C25.642 9.09372 25.6417 9.09383 25.6415 9.09393Z" fill="url(#paint1_linear_65971_56919)"/>
<path fill-rule="evenodd" clip-rule="evenodd" d="M21.1248 24.9772C20.405 24.685 19.5919 24.417 18.6675 24.1738C19.6531 22.3007 19.8599 19.5277 18.9291 17.7745C17.6226 15.314 15.9827 14.0044 12.1719 14.0044C10.0759 14.0044 4.43272 14.7542 4.33253 19.7573C4.32202 20.2822 4.33227 20.7633 4.36805 21.2057L14.673 21.285C13.2837 23.6257 11.9826 25.3617 10.8435 26.6817C12.2112 27.0539 13.3398 27.3663 14.376 27.6532C15.3591 27.9254 16.2591 28.1746 17.2009 28.4298C18.6218 27.3304 19.9575 26.1316 21.1248 24.9772Z" fill="url(#paint2_linear_65971_56919)"/>
<path d="M3.01766 20.6919C3.43863 24.4925 5.47242 25.982 9.62829 26.4228C13.7842 26.8636 16.168 26.5679 19.3417 26.8745C21.9924 27.1307 24.3592 28.5652 25.2372 28.0695C26.0274 27.6233 25.5853 26.0114 24.5279 24.9773C23.1574 23.6367 21.2605 22.7047 17.9228 22.374C18.588 20.4398 18.4016 17.7278 17.3685 16.2523C15.8748 14.1188 13.1177 13.1543 9.62829 13.5757C5.98261 14.016 2.48934 15.9222 3.01766 20.6919Z" fill="url(#paint3_linear_65971_56919)"/>
</g>
<defs>
<linearGradient id="paint0_linear_65971_56919" x1="10.4144" y1="15.6383" x2="35.024" y2="22.2094" gradientUnits="userSpaceOnUse">
<stop stop-color="white"/>
<stop offset="1" stop-color="white"/>
</linearGradient>
<linearGradient id="paint1_linear_65971_56919" x1="30.7068" y1="15.1456" x2="12.0385" y2="-2.47501" gradientUnits="userSpaceOnUse">
<stop stop-color="#8697FF"/>
<stop offset="1" stop-color="#8697FF" stop-opacity="0"/>
</linearGradient>
<linearGradient id="paint2_linear_65971_56919" x1="21.6146" y1="25.6301" x2="4.21082" y2="16.2087" gradientUnits="userSpaceOnUse">
<stop stop-color="#8697FF"/>
<stop offset="1" stop-color="#8697FF" stop-opacity="0"/>
</linearGradient>
<linearGradient id="paint3_linear_65971_56919" x1="11.8712" y1="15.4449" x2="24.1645" y2="30.1523" gradientUnits="userSpaceOnUse">
<stop stop-color="white"/>
<stop offset="0.983895" stop-color="#D1D8FF"/>
</linearGradient>
<clipPath id="clip0_65971_56919">
<rect width="152" height="32" fill="white"/>
</clipPath>
</defs>
</svg>
