<svg xmlns="http://www.w3.org/2000/svg" width="32" height="32" viewBox="0 0 32 32" fill="none">
  <rect width="32" height="32" rx="8" fill="white"/>
  <path d="M8.77011 11.4923H22.2299C22.6559 11.4923 23 11.1581 23 10.7462C23 10.3344 22.6561 10 22.2299 10H8.77011C8.34492 10 8 10.3342 8 10.7462C8 11.1581 8.34492 11.4923 8.77011 11.4923ZM22.2297 15.2231H8.77011C8.34394 15.2231 8 15.5573 8 15.9692C8 16.3811 8.34394 16.7154 8.77011 16.7154H22.2299C22.6559 16.7154 23 16.3811 23 15.9692C22.9998 15.5573 22.6537 15.2231 22.2297 15.2231ZM22.2297 20.5077H8.77011C8.34511 20.5077 8 20.8419 8 21.2538C8 21.6658 8.34492 22 8.77011 22H22.2299C22.6559 22 23 21.6658 23 21.2538C22.9998 20.8421 22.6559 20.5077 22.2297 20.5077Z" fill="#192945"/>
</svg>