<svg width="92" height="92" viewBox="0 0 92 92" fill="none" xmlns="http://www.w3.org/2000/svg">
<path d="M13.99 11.5L41.7393 32.5814L37.2231 20.4358L13.99 11.5Z" fill="#E27625"/>
<path d="M10.3064 59.7587L15.6679 75.8432L31.8631 70.4817L24.1194 59.6426L10.3064 59.7587Z" fill="#E27625"/>
<path d="M30.5303 38.9849L26.2858 47.2505L42.5936 47.6973L41.0299 29.3789L30.5303 38.9849Z" fill="#E27625"/>
<path d="M31.8689 70.4691L40.8601 66.8947L32.7625 59.7461L31.8689 70.4691Z" fill="#E27625"/>
<path d="M31.8689 70.4767L40.4687 75.6148L40.8601 66.9023L31.8689 70.4767Z" fill="#D7CCC8"/>
<path d="M31.8713 70.4691L32.7649 59.7461H24.0525L31.8713 70.4691Z" fill="#CC6228"/>
<path d="M41.9274 47.2441L40.5388 55.919L42.3903 65.4517L42.8049 52.888L41.9274 47.2441Z" fill="#FB8C00"/>
<path d="M10.4283 22.223L15.7898 45.4561L30.6769 40.461L40.8101 31.1588L14.0027 11.5L10.4283 22.223Z" fill="#763E1A"/>
<path d="M40.8007 54.8387L26.5034 47.2432L30.6657 40.4609L15.7787 45.4561L10.3064 59.7534H32.7585L40.8561 66.902L42.3788 65.4508L40.8007 54.8387Z" fill="#FB8C00"/>
<path d="M32.7654 53.4992L40.8077 56.18L41.9246 47.2441H26.5104L32.7654 53.4992Z" fill="#CC6228"/>
<path d="M40.7967 56.1818L32.7545 53.5011L38.3394 50.8203L40.7967 56.1818Z" fill="#212121"/>
<path d="M55.0422 20.4358L50.5243 32.5814L78.2753 11.5L55.0422 20.4358Z" fill="#E27625"/>
<path d="M68.1368 59.6426L60.452 70.4817L76.5883 75.8432L81.9498 59.7587L68.1368 59.6426Z" fill="#E27625"/>
<path d="M51.0783 29.8281L50.274 47.8552L65.985 47.253L62.2462 40.1043L51.0783 29.8281Z" fill="#E27625"/>
<path d="M59.5063 59.7461L51.4677 66.8947L60.4589 70.4691L59.5063 59.7461Z" fill="#E27625"/>
<path d="M51.4677 66.9023L51.8001 75.6148L60.4607 70.4767L51.4677 66.9023Z" fill="#D7CCC8"/>
<path d="M68.2211 59.7461H59.5087L60.4612 70.4691L68.2211 59.7461Z" fill="#CC6228"/>
<path d="M52.1371 74.8419V72.2559H40.1345V74.8419L31.8689 70.4688L40.8047 77.6174H51.4669L60.4635 70.4688L52.1371 74.8419Z" fill="#BCAAA4"/>
<path d="M78.2592 11.5L51.5126 31.1588L61.5868 40.461L76.5311 45.4561L81.8336 22.223L78.2592 11.5Z" fill="#763E1A"/>
<path d="M76.5392 45.4561L61.5931 40.4609L65.7554 47.2432L51.6512 55.4213L50.3412 47.2432L49.4655 52.8871L49.8801 65.4508L49.8819 65.4383L49.8801 65.4508L51.4617 66.902L59.5004 59.7534H81.9525L76.5392 45.4561Z" fill="#FB8C00"/>
<path d="M37.2146 20.4395L40.7889 31.1624L41.9792 47.8492L42.3384 52.9175L42.367 65.4545H46.1182V65.3741L46.1218 65.4545H49.8731L49.9017 52.9175L50.2609 47.8492L51.5119 31.1624L55.0862 20.4395H37.2146Z" fill="#FB8C00"/>
<path d="M51.5277 66.8926L49.8477 65.1055H42.4239L40.8047 66.8926L40.1345 72.2541H52.1371L51.5277 66.8926Z" fill="#212121"/>
<path d="M65.7461 47.2441H50.3318L51.4488 56.18L59.491 53.4992L65.7461 47.2441Z" fill="#CC6228"/>
<path d="M53.984 50.8203L59.5099 53.5011L51.4677 56.1818L53.984 50.8203Z" fill="#212121"/>
</svg>
