<svg width="20" height="20" viewBox="0 0 20 20" fill="none" xmlns="http://www.w3.org/2000/svg">
<circle cx="10" cy="10" r="10" fill="#313042"/>
<path d="M7.93742 14.7C8.04092 14.469 8.15542 14.2465 8.23492 14.0125C8.25842 13.9435 8.20342 13.8265 8.15092 13.7555C7.73092 13.189 7.57692 12.563 7.70842 11.8685C7.71962 11.8113 7.73534 11.7552 7.75542 11.7005C7.77373 11.6631 7.79497 11.6271 7.81892 11.593C8.33942 12.096 8.47642 12.719 8.52742 13.4005C8.69192 13.1005 8.86492 12.8005 9.01242 12.489C9.03742 12.4365 8.96692 12.325 8.92042 12.254C8.49592 11.604 8.40292 10.9185 8.67742 10.13C9.19242 10.6465 9.30742 11.2555 9.34892 11.9255C9.53042 11.654 9.71842 11.3865 9.88792 11.1075C9.91492 11.063 9.86842 10.967 9.84342 10.899C9.60142 10.236 9.63192 9.592 9.97192 8.9685C10.0099 8.8985 10.0624 8.8365 10.1274 8.7425C10.4529 9.305 10.4464 9.8665 10.3224 10.4425L10.3964 10.477C10.5129 10.277 10.6679 10.094 10.7384 9.881C10.9954 9.1005 11.4789 8.531 12.2239 8.187C12.3384 8.1432 12.4553 8.1058 12.5739 8.075C12.56 8.19106 12.5388 8.30612 12.5104 8.4195C12.2679 9.1645 11.7969 9.7225 11.0799 10.0325C10.7699 10.167 10.6034 10.399 10.4299 10.667C11.0049 10.417 11.5844 10.2575 12.2574 10.4855C12.1304 10.603 12.0394 10.708 11.9294 10.7855C11.4299 11.15 10.8684 11.3 10.2554 11.195C10.0749 11.164 9.97942 11.214 9.89042 11.3595C9.74042 11.607 9.57542 11.846 9.43042 12.1215C10.0744 11.8545 10.7149 11.7215 11.4514 12.0305C11.2489 12.1695 11.1014 12.2975 10.9324 12.3805C10.4526 12.627 9.89887 12.688 9.37692 12.552C9.23142 12.515 9.14792 12.529 9.07692 12.67C8.92692 12.974 8.75892 13.27 8.61242 13.6035C9.25142 13.292 9.89492 13.1145 10.5804 13.363L10.6639 13.47C10.5764 13.5128 10.4915 13.5606 10.4094 13.613C9.87242 13.9925 9.28242 14.1445 8.63442 14.013C8.45792 13.9765 8.37542 14.0255 8.31342 14.1845C8.09592 14.7435 7.87592 15.3015 7.64392 15.8545C7.54792 16.084 7.41792 16.299 7.30742 16.523C7.22542 16.6885 7.12642 16.723 6.95042 16.6335C5.01342 15.66 3.69642 14.154 3.13292 12.056C2.12592 8.306 4.21892 4.506 7.93592 3.385C12.2554 2.081 16.4259 4.962 17.0499 9.127C17.5499 12.4735 15.6499 15.695 12.5119 16.8585C12.3329 16.9245 12.1619 17.012 11.9874 16.823C11.8129 16.634 11.8629 16.455 11.9374 16.2465C12.1874 15.5335 12.4374 14.8185 12.6644 14.0965C12.8034 13.6565 12.9294 13.538 13.3989 13.4965C13.8224 13.46 14.2459 13.4225 14.6659 13.3625C15.0479 13.308 15.1629 13.1595 15.1659 12.7755C15.1738 12.6749 15.1662 12.5738 15.1434 12.4755C15.0894 12.3015 15.1394 12.1665 15.2564 12.0435C15.3734 11.9205 15.3974 11.816 15.2634 11.678C15.2204 11.6335 15.2209 11.4725 15.2634 11.4315C15.4219 11.2815 15.4004 11.1365 15.2939 10.9865C15.1809 10.8275 15.2144 10.7185 15.3719 10.6175C15.4831 10.5431 15.5878 10.4595 15.6849 10.3675C15.8724 10.1945 15.8559 10.0835 15.6554 9.9285C15.3344 9.6785 15.0164 9.4285 14.7084 9.1625C14.5084 8.992 14.4479 8.7625 14.5134 8.5045C14.6199 8.0865 14.4959 7.7245 14.2779 7.366C14.0951 7.06082 13.9354 6.74244 13.7999 6.4135C13.5874 5.9035 13.2499 5.5325 12.7069 5.403C12.1979 5.282 11.6799 5.1975 11.1639 5.1095C10.8139 5.049 10.4549 5.018 10.1024 4.9595C9.14542 4.804 8.31342 5.066 7.56892 5.674C7.34816 5.84988 7.10951 6.00205 6.85692 6.128C6.65351 6.22221 6.48926 6.38433 6.39242 6.5865C6.29964 6.76883 6.16198 6.92455 5.99242 7.039C5.61492 7.289 5.24242 7.5245 4.98742 7.92C4.90392 8.0505 4.73442 8.13 4.59642 8.22C4.19992 8.481 4.06342 8.796 4.21142 9.25C4.30783 9.53311 4.32358 9.83745 4.25692 10.129C4.21257 10.3653 4.20666 10.6073 4.23942 10.8455C4.27442 11.1585 4.46542 11.3835 4.76042 11.4955C4.98242 11.579 5.09242 11.7235 5.12442 11.9535C5.16842 12.2695 5.32692 12.511 5.56042 12.741C5.77738 12.9673 5.95153 13.2311 6.07442 13.5195C6.22842 13.861 6.43392 14.0965 6.79692 14.223C7.14092 14.3425 7.46542 14.519 7.79692 14.6685C7.84286 14.6826 7.88983 14.6932 7.93742 14.7Z" fill="#00DACC"/>
</svg>
