<svg width="20" height="20" viewBox="0 0 20 20" fill="none" xmlns="http://www.w3.org/2000/svg">
<path d="M0 10C0 4.47715 4.47715 0 10 0C15.5228 0 20 4.47715 20 10C20 15.5228 15.5228 20 10 20C4.47715 20 0 15.5228 0 10Z" fill="url(#paint0_linear_1802_2456)"/>
<path d="M3.27044 10.7605C3.28723 10.7353 3.30261 10.7094 3.3208 10.6853C3.3409 10.6569 3.36669 10.633 3.39652 10.6152C3.42634 10.5973 3.45956 10.5858 3.49406 10.5815C3.52856 10.5771 3.56358 10.58 3.59691 10.59C3.63023 10.5999 3.66113 10.6166 3.68763 10.6391C3.7144 10.6615 3.73632 10.6891 3.75208 10.7203C3.76783 10.7514 3.77709 10.7855 3.77928 10.8203C3.78147 10.8551 3.77656 10.8901 3.76483 10.9229C3.7531 10.9558 3.73481 10.986 3.71106 11.0115C3.68636 11.0378 3.65638 11.0585 3.6231 11.0723C3.58981 11.0861 3.55398 11.0927 3.51796 11.0916C3.48194 11.0906 3.44656 11.0819 3.41414 11.0662C3.38172 11.0504 3.35301 11.028 3.32989 11.0004C3.30786 10.9745 3.28933 10.9451 3.26904 10.9175L3.27044 10.7605Z" fill="#E0157B"/>
<path d="M11.2389 8.68781H7.36778C7.11075 8.68781 7.05305 8.62976 7.059 8.37063C7.09397 6.38714 8.5627 4.66977 10.5172 4.35084C11.9904 4.1106 13.2616 4.53618 14.2939 5.61151C14.9849 6.33084 15.3553 7.20613 15.4157 8.20662C15.421 8.28915 15.4332 8.37203 15.4304 8.45421C15.4252 8.59968 15.3462 8.67627 15.201 8.68711C15.1661 8.68956 15.1311 8.68711 15.0961 8.68711L11.2389 8.68781Z" fill="#53CAC7"/>
<path d="M11.2412 9.93414H6.53045C6.48674 9.93414 6.44302 9.93414 6.39966 9.93414C6.25244 9.92469 6.15242 9.82258 6.15138 9.6834C6.15033 9.54422 6.25174 9.43861 6.39616 9.42812C6.43953 9.42427 6.48324 9.42637 6.52695 9.42637H15.959C16.0113 9.4242 16.0636 9.42572 16.1157 9.43092C16.1761 9.44057 16.2309 9.47173 16.2701 9.51866C16.3093 9.56559 16.3301 9.6251 16.3289 9.68622C16.3276 9.74734 16.3042 9.80593 16.2631 9.85118C16.222 9.89643 16.1659 9.92527 16.1052 9.93239C16.0617 9.93559 16.018 9.93653 15.9744 9.93518L11.2412 9.93414Z" fill="#E0147B"/>
<path d="M10.6734 11.7326H14.8433C14.8868 11.7308 14.9303 11.732 14.9737 11.7361C15.0325 11.7446 15.0866 11.773 15.127 11.8166C15.1674 11.8602 15.1915 11.9164 15.1954 11.9757C15.1968 12.0349 15.1782 12.0929 15.1427 12.1403C15.1072 12.1878 15.0568 12.2219 14.9996 12.2373C14.9483 12.247 14.8961 12.2507 14.844 12.2484C12.0634 12.2484 9.28292 12.2484 6.50259 12.2484C6.46341 12.2501 6.42416 12.2493 6.38509 12.246C6.31946 12.238 6.25914 12.2059 6.2158 12.1559C6.17246 12.106 6.14917 12.0418 6.15044 11.9757C6.15466 11.912 6.18216 11.8521 6.22769 11.8075C6.27322 11.7628 6.3336 11.7364 6.39733 11.7333C6.43614 11.7302 6.47566 11.7333 6.51483 11.7333L10.6734 11.7326Z" fill="#E0147B"/>
<path d="M7.98079 10.5783C9.14086 10.5783 10.3008 10.5783 11.4606 10.5783C11.69 10.5783 11.8222 10.7419 11.7463 10.928C11.7302 10.9712 11.7023 11.0091 11.6659 11.0375C11.6295 11.0659 11.5859 11.0837 11.54 11.0888C11.4967 11.0934 11.4531 11.0948 11.4096 11.093C9.12022 11.093 6.83075 11.093 4.54115 11.093C4.48473 11.0951 4.42826 11.0904 4.37295 11.079C4.31582 11.0638 4.26579 11.0291 4.23144 10.981C4.19709 10.9329 4.18057 10.8743 4.18471 10.8153C4.18884 10.7563 4.21338 10.7006 4.25411 10.6577C4.29484 10.6149 4.34922 10.5875 4.40792 10.5804C4.45142 10.5768 4.49509 10.5759 4.53871 10.5776L7.98079 10.5783Z" fill="#E0147B"/>
<path d="M12.8875 12.8873H16.3145C16.3449 12.8873 16.3757 12.8856 16.4061 12.8873C16.5533 12.8989 16.6583 13.0003 16.6631 13.1345C16.668 13.2688 16.5551 13.386 16.4082 13.4C16.3694 13.4038 16.3299 13.4017 16.2907 13.4017H9.38557C9.19743 13.3989 9.07504 13.2933 9.07818 13.137C9.08133 12.9807 9.19603 12.887 9.38312 12.887C10.5518 12.8867 11.7199 12.8868 12.8875 12.8873Z" fill="#E0147B"/>
<path d="M12.9261 14.5543C12.2152 14.5543 11.5042 14.5543 10.7929 14.5543C10.6796 14.5543 10.5852 14.5225 10.5233 14.426C10.5023 14.3926 10.4896 14.3548 10.4863 14.3155C10.4829 14.2762 10.4889 14.2368 10.5039 14.2003C10.5189 14.1639 10.5424 14.1315 10.5724 14.106C10.6024 14.0805 10.6381 14.0625 10.6765 14.0536C10.7322 14.0433 10.7888 14.0392 10.8454 14.0413H15.0068C15.0327 14.0413 15.0589 14.0413 15.0851 14.0413C15.2488 14.0515 15.3579 14.1578 15.3537 14.3019C15.3495 14.4459 15.2306 14.5519 15.0718 14.5522C14.4742 14.5543 13.8769 14.5522 13.2793 14.5522L12.9261 14.5543Z" fill="#E0147B"/>
<path d="M10.2591 15.1992H12.3765C12.5748 15.1992 12.6881 15.2919 12.6877 15.452C12.6877 15.6052 12.5601 15.7136 12.3748 15.7136C10.9634 15.7136 9.55188 15.7136 8.14026 15.7136C8.0927 15.7167 8.04502 15.7097 8.00038 15.693C7.87169 15.637 7.8049 15.5276 7.82763 15.4041C7.85036 15.2807 7.94618 15.1999 8.0906 15.1995C8.63508 15.1978 9.17991 15.1995 9.7244 15.1995L10.2591 15.1992Z" fill="#E0147B"/>
<path d="M6.63308 12.8873C7.16532 12.8873 7.69733 12.8873 8.2291 12.8873C8.277 12.8866 8.32486 12.8901 8.37213 12.8978C8.49103 12.9192 8.55258 12.9992 8.56761 13.1132C8.57578 13.1633 8.56748 13.2146 8.54396 13.2595C8.52043 13.3044 8.48296 13.3405 8.43718 13.3622C8.37869 13.3919 8.31348 13.4057 8.24799 13.4024H5.01677C4.95116 13.4071 4.8855 13.3942 4.82654 13.365C4.72582 13.3084 4.67162 13.222 4.69085 13.1055C4.69626 13.0528 4.71924 13.0035 4.75609 12.9654C4.79295 12.9274 4.84153 12.9028 4.89403 12.8957C4.93707 12.8892 4.9806 12.8865 5.02412 12.8877L6.63308 12.8873Z" fill="#E0147B"/>
<path d="M5.48954 12.2481C5.43853 12.2474 5.38888 12.2316 5.34687 12.2026C5.30485 12.1737 5.27238 12.1329 5.25355 12.0855C5.23472 12.0381 5.23039 11.9862 5.24109 11.9363C5.2518 11.8864 5.27708 11.8408 5.31371 11.8053C5.35034 11.7698 5.39669 11.746 5.44688 11.7368C5.49707 11.7277 5.54884 11.7337 5.59564 11.754C5.64245 11.7743 5.68217 11.808 5.70979 11.8509C5.7374 11.8938 5.75166 11.9439 5.75077 11.9949C5.74799 12.0626 5.71933 12.1266 5.67072 12.1737C5.6221 12.2208 5.55724 12.2474 5.48954 12.2481Z" fill="#E0167C"/>
<path d="M5.75075 9.68548C5.74733 9.75278 5.71765 9.81605 5.66808 9.86171C5.61852 9.90737 5.55302 9.93176 5.48566 9.92966C5.4183 9.92755 5.35446 9.89911 5.30784 9.85045C5.26123 9.80178 5.23556 9.73677 5.23635 9.66939C5.23977 9.60209 5.26945 9.53881 5.31902 9.49315C5.36858 9.44749 5.43408 9.4231 5.50144 9.42521C5.56879 9.42731 5.63264 9.45575 5.67926 9.50442C5.72587 9.55308 5.75154 9.61809 5.75075 9.68548Z" fill="#E0157C"/>
<path d="M10.0839 14.2994C10.0835 14.3329 10.0765 14.3659 10.0634 14.3966C10.0502 14.4274 10.0311 14.4552 10.0072 14.4786C9.9833 14.5019 9.95502 14.5204 9.92398 14.5328C9.89295 14.5452 9.85976 14.5514 9.82633 14.551C9.7929 14.5507 9.75987 14.5437 9.72914 14.5305C9.6984 14.5174 9.67055 14.4983 9.64719 14.4744C9.62382 14.4505 9.6054 14.4222 9.59297 14.3911C9.58053 14.3601 9.57433 14.3269 9.57472 14.2935C9.57668 14.2275 9.6039 14.1648 9.65076 14.1184C9.69762 14.0719 9.76053 14.0452 9.82651 14.0438C9.86034 14.0432 9.89396 14.0493 9.92537 14.0619C9.95678 14.0745 9.98534 14.0933 10.0093 14.1171C10.0334 14.141 10.0523 14.1694 10.0651 14.2007C10.0779 14.232 10.0843 14.2656 10.0839 14.2994Z" fill="#E0157B"/>
<path d="M7.42233 15.452C7.42233 15.4857 7.4157 15.519 7.40281 15.5501C7.38993 15.5812 7.37105 15.6095 7.34725 15.6333C7.32345 15.6571 7.29519 15.676 7.26409 15.6889C7.23299 15.7017 7.19966 15.7084 7.166 15.7084C7.13234 15.7084 7.099 15.7017 7.0679 15.6889C7.03681 15.676 7.00855 15.6571 6.98475 15.6333C6.96094 15.6095 6.94206 15.5812 6.92918 15.5501C6.9163 15.519 6.90967 15.4857 6.90967 15.452C6.90967 15.3841 6.93667 15.3189 6.98475 15.2708C7.03282 15.2227 7.09801 15.1957 7.166 15.1957C7.23398 15.1957 7.29918 15.2227 7.34725 15.2708C7.39532 15.3189 7.42233 15.3841 7.42233 15.452Z" fill="#E0157B"/>
<path d="M4.28666 13.1447C4.28513 13.2129 4.25717 13.2778 4.2087 13.3257C4.16022 13.3737 4.09502 13.4009 4.02684 13.4017C3.95885 13.4017 3.89366 13.3747 3.84558 13.3266C3.79751 13.2786 3.77051 13.2134 3.77051 13.1454C3.77051 13.0774 3.79751 13.0122 3.84558 12.9641C3.89366 12.9161 3.95885 12.8891 4.02684 12.8891C4.09497 12.8892 4.16033 12.9161 4.2089 12.9639C4.25747 13.0117 4.28538 13.0766 4.28666 13.1447Z" fill="#E0167C"/>
<defs>
<linearGradient id="paint0_linear_1802_2456" x1="10" y1="0" x2="10" y2="20" gradientUnits="userSpaceOnUse">
<stop stop-color="#1D2549"/>
<stop offset="1" stop-color="#0F1126"/>
</linearGradient>
</defs>
</svg>
