<svg width="20" height="20" viewBox="0 0 20 20" fill="none" xmlns="http://www.w3.org/2000/svg">
<path d="M10 20C15.5228 20 20 15.5228 20 10C20 4.47715 15.5228 0 10 0C4.47715 0 0 4.47715 0 10C0 15.5228 4.47715 20 10 20Z" fill="#0E122F"/>
<path d="M5.23541 9.89109C5.11436 8.98895 5.15725 8.11739 5.50936 7.27641C6.12311 5.81106 7.18793 4.83969 8.71911 4.44213C11.0386 3.83943 13.395 5.02275 14.3125 7.25007C14.6599 8.09318 14.7151 8.96177 14.5979 9.85074C14.5788 9.93794 14.5289 10.0153 14.4573 10.0686C13.618 10.6892 12.687 10.8132 11.6851 10.5881C11.0904 10.4551 10.6279 10.0962 10.1526 9.7573C9.71214 9.44342 9.2581 9.1563 8.72293 9.04799C7.66788 8.83562 6.65998 8.93076 5.74976 9.56532C5.59941 9.67009 5.44806 9.77373 5.29572 9.87623C5.2763 9.88365 5.25605 9.88864 5.23541 9.89109Z" fill="#F2B705"/>
<path d="M12.4246 11.9145C11.7571 11.8887 11.1114 11.6701 10.5655 11.2851C10.1811 11.0103 9.801 10.7108 9.37626 10.5129C8.25453 9.98919 7.1362 10.0266 6.06331 10.6802C5.85094 10.8077 5.65598 10.9606 5.44914 11.0952C5.27924 11.2039 5.12973 11.1802 5.04521 11.0366C4.95432 10.8799 5.00699 10.7537 5.14503 10.6514C5.78595 10.1778 6.45067 9.76196 7.26872 9.66384C8.21588 9.55002 9.11208 9.67361 9.928 10.1965C10.255 10.4059 10.5723 10.6301 10.8917 10.851C11.8657 11.5242 13.2626 11.5386 14.2506 10.8837C14.3563 10.8136 14.4595 10.7389 14.5666 10.6713C14.7114 10.5783 14.855 10.5762 14.9539 10.7308C15.0474 10.8777 15.0049 11.0098 14.8664 11.1186C14.1928 11.6461 13.4308 11.9184 12.4246 11.9145Z" fill="#57C8C4"/>
<path d="M7.87443 13.9032C7.87443 13.0189 7.87443 12.1344 7.87443 11.2498C7.87443 11.1721 7.85362 11.0753 7.89099 11.0213C7.95258 10.9313 8.0507 10.8157 8.13947 10.809C8.22824 10.8022 8.34844 10.9028 8.4079 10.9886C8.4576 11.0604 8.45037 11.1793 8.45037 11.2774C8.45037 13.0251 8.44882 14.7729 8.4457 16.5208C8.4457 16.6325 8.45547 16.7638 8.40323 16.8504C8.35099 16.9371 8.22059 17.0275 8.13267 17.0203C8.04475 17.0131 7.95428 16.895 7.89269 16.8079C7.85871 16.7595 7.8791 16.6708 7.8791 16.6003C7.8791 15.7015 7.8791 14.8028 7.8791 13.904L7.87443 13.9032Z" fill="#57C8C4"/>
<path d="M11.9449 14.144C11.9449 14.5963 11.9449 15.0487 11.9449 15.5031C11.9449 15.7461 11.8447 15.868 11.6582 15.8663C11.4883 15.8663 11.3741 15.7363 11.3736 15.5159C11.3702 14.6041 11.3702 13.692 11.3736 12.7797C11.3736 12.4964 11.592 12.3337 11.7924 12.4705C11.8731 12.5257 11.9356 12.6642 11.939 12.7678C11.9538 13.2244 11.9449 13.6844 11.9449 14.144Z" fill="#57C8C4"/>
<path d="M6.69709 12.5508C6.69709 12.1476 6.69709 11.7446 6.69709 11.342C6.69483 11.271 6.69838 11.2 6.70771 11.1296C6.73489 10.9657 6.82918 10.845 6.99908 10.8476C7.1626 10.8501 7.23608 10.9814 7.26794 11.13C7.27513 11.1721 7.27784 11.2148 7.27601 11.2574C7.27601 12.1337 7.27856 13.0103 7.27601 13.887C7.27601 14.124 7.16643 14.2693 7.0012 14.2727C6.82494 14.2756 6.70049 14.1253 6.69837 13.8861C6.69369 13.441 6.69837 12.9942 6.69837 12.5503L6.69709 12.5508Z" fill="#57C8C4"/>
<path d="M12.5421 14.0165C12.5421 13.6343 12.5421 13.252 12.5421 12.8723C12.5421 12.6599 12.6619 12.5287 12.8348 12.5325C13 12.5372 13.1104 12.6599 13.1113 12.8672C13.1147 13.658 13.1147 14.4492 13.1113 15.2406C13.1113 15.4296 13 15.5379 12.8275 15.5409C12.6551 15.5439 12.5447 15.4335 12.5421 15.2436C12.5374 14.8341 12.5421 14.4243 12.5421 14.0144V14.0165Z" fill="#57C8C4"/>
<path d="M9.6107 12.5941C9.6107 12.8982 9.61367 13.2023 9.6107 13.5064C9.6073 13.7409 9.49729 13.8802 9.32442 13.8828C9.15878 13.8853 9.03603 13.7413 9.03433 13.5077C9.0298 12.8848 9.03121 12.2618 9.03857 11.6389C9.04155 11.3934 9.15623 11.266 9.33164 11.2744C9.50706 11.2829 9.6073 11.4201 9.61027 11.6567C9.61324 11.9714 9.6107 12.2828 9.6107 12.5941Z" fill="#57C8C4"/>
<path d="M6.10226 12.764C6.10226 13.0825 6.10608 13.4011 6.10226 13.7196C6.09843 13.9392 5.98758 14.0713 5.81938 14.0764C5.65118 14.0815 5.53608 13.9583 5.53353 13.7286C5.52758 13.0847 5.52872 12.4406 5.53693 11.7964C5.53948 11.579 5.64779 11.4685 5.8198 11.4732C5.9812 11.4774 6.08527 11.6006 6.10098 11.8087C6.10098 11.83 6.10098 11.8512 6.10098 11.8724C6.10226 12.1698 6.10183 12.4667 6.10226 12.764Z" fill="#57C8C4"/>
<path d="M14.2992 13.0673C14.2992 13.2295 14.3039 13.3918 14.2992 13.5536C14.292 13.7371 14.1599 13.8806 14.0074 13.8832C13.8549 13.8857 13.7275 13.7519 13.7245 13.5566C13.7203 13.2253 13.7245 12.894 13.7245 12.5631C13.7245 12.3783 13.8167 12.2658 14.0049 12.2658C14.193 12.2658 14.2856 12.3813 14.2933 12.5631C14.3005 12.733 14.2933 12.9029 14.2933 13.0702L14.2992 13.0673Z" fill="#57C8C4"/>
<path d="M10.765 12.53C10.765 12.6213 10.7718 12.713 10.765 12.8039C10.764 12.8377 10.7563 12.871 10.7425 12.9019C10.7286 12.9327 10.7088 12.9605 10.6842 12.9837C10.6596 13.0069 10.6307 13.025 10.599 13.037C10.5674 13.049 10.5337 13.0547 10.4999 13.0537C10.3436 13.0583 10.2281 12.9649 10.2171 12.7988C10.2028 12.6027 10.2038 12.4057 10.22 12.2097C10.2336 12.0611 10.3343 11.971 10.4927 11.974C10.6511 11.977 10.7476 12.0589 10.7637 12.2127C10.7701 12.3183 10.7706 12.4243 10.765 12.53Z" fill="#57C8C4"/>
</svg>
