<svg width="20" height="20" viewBox="0 0 20 20" fill="none" xmlns="http://www.w3.org/2000/svg">
<path d="M10 20C15.5228 20 20 15.5228 20 10C20 4.47715 15.5228 0 10 0C4.47715 0 0 4.47715 0 10C0 15.5228 4.47715 20 10 20Z" fill="#0058E3"/>
<path opacity="0.2" d="M9.50811 9.509C9.92389 9.60855 10.3572 9.60855 10.7672 9.509C11.0014 8.54862 11.751 7.79905 12.7113 7.56481C13.0568 6.1418 12.1902 4.70708 10.7672 4.36158C9.34414 4.01608 7.91528 4.88276 7.56392 6.30577C7.46437 6.72155 7.46437 7.15489 7.56392 7.56481C8.52431 7.80491 9.27387 8.55447 9.50811 9.509Z" fill="white"/>
<path opacity="0.6" d="M10.7728 10.7739C10.357 10.6743 9.92364 10.6743 9.51372 10.7739C9.27948 11.7343 8.52991 12.4838 7.56953 12.7181C7.22402 14.1411 8.09071 15.5758 9.51372 15.9213C10.9367 16.2668 12.3714 15.4001 12.7169 13.9771C12.8165 13.5613 12.8165 13.1338 12.7169 12.7181C11.7566 12.478 11.007 11.7284 10.7728 10.7739Z" fill="white"/>
<path opacity="0.4" d="M13.3437 7.48862C13.1329 7.48862 12.9221 7.51204 12.7112 7.56474C12.477 8.52513 11.7274 9.2747 10.767 9.50894C10.6675 9.92471 10.6675 10.3581 10.767 10.768C11.7274 11.0022 12.477 11.7518 12.7112 12.7122C14.1342 13.0577 15.569 12.191 15.9145 10.768C16.26 9.34497 15.3933 7.91025 13.9703 7.56474C13.7712 7.5179 13.5604 7.48862 13.3437 7.48862Z" fill="white"/>
<path opacity="0.8" d="M9.50797 10.7741C9.60752 10.3583 9.60752 9.92498 9.50797 9.51506C8.55344 9.27496 7.80387 8.52539 7.56377 7.56501C6.14077 7.21951 4.70605 8.08619 4.36054 9.5092C4.01504 10.9322 4.88173 12.3669 6.30473 12.7183C6.72051 12.8178 7.148 12.8178 7.56377 12.7183C7.80387 11.7579 8.54758 11.0083 9.50797 10.7741Z" fill="white"/>
<path opacity="0.6" d="M10.7729 9.50892C11.7333 9.27468 12.4829 8.52511 12.7171 7.56473C11.7568 7.80482 11.0072 8.55439 10.7729 9.50892Z" fill="white"/>
<path opacity="0.8" d="M10.7729 10.7738C11.0072 11.7342 11.7568 12.4837 12.7171 12.718C12.477 11.7576 11.7333 11.008 10.7729 10.7738Z" fill="white"/>
<path opacity="0.9" d="M9.50767 9.50892C9.27343 8.55439 8.52386 7.80482 7.56348 7.56473C7.80357 8.52511 8.55314 9.27468 9.50767 9.50892Z" fill="white"/>
<path opacity="0.9" d="M9.50767 10.7738C8.54728 11.008 7.79772 11.7576 7.56348 12.718C8.52386 12.4779 9.27343 11.7283 9.50767 10.7738Z" fill="white"/>
</svg>
