<svg width="20" height="20" viewBox="0 0 20 20" fill="none" xmlns="http://www.w3.org/2000/svg">
<circle cx="10" cy="10" r="10" fill="#FC252E"/>
<path fill-rule="evenodd" clip-rule="evenodd" d="M8.96665 7.4034C8.64011 7.14048 8.25663 6.98725 7.78943 6.93198C7.65295 6.91607 7.3532 6.90938 7.2184 6.91942C6.20444 6.99478 5.37301 7.5156 4.82459 8.41992C4.57926 8.82435 4.40594 9.31083 4.31468 9.85175C4.26863 10.1272 4.26109 10.2235 4.26025 10.5283C4.26025 10.8373 4.26946 10.9486 4.31468 11.1731C4.50642 12.1293 5.11764 12.7573 6.02777 12.9348C6.22788 12.9733 6.35934 12.985 6.60466 12.9842C6.91362 12.9842 7.10536 12.9607 7.38334 12.8896C8.35795 12.6409 9.14332 11.8839 9.51341 10.8381C9.76124 10.1364 9.83576 9.35019 9.71435 8.73056C9.60634 8.18044 9.33674 7.70065 8.96665 7.4034ZM7.22342 7.92422C7.04926 7.94097 6.86339 7.99288 6.71351 8.06573C6.18351 8.32446 5.80673 8.95497 5.65853 9.82914C5.59155 10.226 5.56643 10.7226 5.59992 10.9872C5.66774 11.5289 5.9139 11.8538 6.3359 11.9568C6.51842 12.0012 6.78468 12.0028 6.98396 11.9601C7.66132 11.817 8.14193 11.1957 8.33701 10.2101C8.36716 10.0561 8.40567 9.77304 8.4266 9.54863C8.44753 9.31335 8.44586 8.996 8.42158 8.84612C8.37888 8.5765 8.28678 8.36549 8.14527 8.21142C8.01298 8.06657 7.83799 7.97446 7.62364 7.93678C7.53405 7.92087 7.32641 7.91417 7.22342 7.92422Z" fill="white"/>
<path fill-rule="evenodd" clip-rule="evenodd" d="M15.2924 7.52397C14.9508 7.18067 14.5036 6.98725 13.9226 6.93198C13.8238 6.92277 13.5341 6.91859 12.577 6.9144L11.3571 6.90854L11.3521 6.92863C11.3496 6.93952 11.1009 8.29599 10.7995 9.94218C10.5982 11.0415 10.42 12.0132 10.3232 12.5416L10.246 12.9624L10.241 12.9901H11.5313L11.5396 12.9457C11.5572 12.8594 11.9256 10.8616 11.9256 10.8549C11.9256 10.8498 12.2229 10.8473 12.6608 10.849C13.4621 10.8507 13.5006 10.849 13.7928 10.7996C14.3471 10.7067 14.816 10.4823 15.171 10.1406C15.4942 9.82998 15.6759 9.46406 15.7412 8.996C15.7613 8.84695 15.7613 8.54803 15.7412 8.42243C15.6809 8.05652 15.5385 7.77099 15.2924 7.52397ZM12.3114 8.73552L12.3116 8.73467L12.3119 8.73302L12.312 8.73226C12.3927 8.29575 12.4559 7.95439 12.4582 7.94683C12.4623 7.93343 12.4992 7.93259 13.0836 7.93259C13.4855 7.93259 13.7317 7.93594 13.7802 7.9418C13.9795 7.96609 14.1578 8.05066 14.27 8.1729C14.3538 8.26417 14.4082 8.36382 14.4425 8.48941C14.4643 8.56729 14.4676 8.78583 14.4501 8.90054C14.3764 9.37196 14.0381 9.70438 13.5282 9.80737C13.3691 9.83919 13.2737 9.84254 12.6767 9.83667L12.109 9.83081L12.1132 9.80904C12.1157 9.79732 12.1936 9.37614 12.2857 8.87458L12.3114 8.73552Z" fill="white"/>
</svg>
