<svg width="1178" height="232" viewBox="0 0 1178 232" fill="none" xmlns="http://www.w3.org/2000/svg">
<path d="M30.3672 87V55.418L0.953125 2.44922H20.0547L39.0391 38.543H39.4492L58.375 2.44922H77.5352L48.0625 55.418V87H30.3672ZM100.621 88.2891C94.2539 88.2891 88.7461 86.9805 84.0977 84.3633C79.4492 81.7461 75.8555 77.9961 73.3164 73.1133C70.7773 68.2305 69.5078 62.3906 69.5078 55.5938V55.4766C69.5078 48.7188 70.7969 42.918 73.375 38.0742C75.9531 33.1914 79.5664 29.4414 84.2148 26.8242C88.8633 24.207 94.3125 22.8984 100.562 22.8984C106.852 22.8984 112.32 24.207 116.969 26.8242C121.656 29.4023 125.289 33.1328 127.867 38.0156C130.445 42.8594 131.734 48.6797 131.734 55.4766V55.5938C131.734 62.4297 130.445 68.2891 127.867 73.1719C125.328 78.0547 121.734 81.8047 117.086 84.4219C112.438 87 106.949 88.2891 100.621 88.2891ZM100.68 74.8711C103.453 74.8711 105.855 74.1289 107.887 72.6445C109.957 71.1211 111.539 68.9336 112.633 66.082C113.766 63.1914 114.332 59.6953 114.332 55.5938V55.4766C114.332 51.4141 113.766 47.957 112.633 45.1055C111.5 42.2539 109.898 40.0859 107.828 38.6016C105.758 37.0781 103.336 36.3164 100.562 36.3164C97.8281 36.3164 95.4258 37.0781 93.3555 38.6016C91.3242 40.0859 89.7422 42.2539 88.6094 45.1055C87.4766 47.957 86.9102 51.4141 86.9102 55.4766V55.5938C86.9102 59.6953 87.457 63.1914 88.5508 66.082C89.6836 68.9336 91.2852 71.1211 93.3555 72.6445C95.4258 74.1289 97.8672 74.8711 100.68 74.8711ZM161.969 88.2891C157.359 88.2891 153.434 87.3516 150.191 85.4766C146.988 83.5625 144.527 80.8477 142.809 77.332C141.129 73.8164 140.289 69.6172 140.289 64.7344V24.1875H157.398V61.1602C157.398 65.2617 158.355 68.4453 160.27 70.7109C162.223 72.9766 165.113 74.1094 168.941 74.1094C170.855 74.1094 172.574 73.7773 174.098 73.1133C175.66 72.4492 176.988 71.5117 178.082 70.3008C179.176 69.0508 180.016 67.5859 180.602 65.9062C181.188 64.1875 181.48 62.3125 181.48 60.2812V24.1875H198.59V87H181.48V76.6289H181.129C180.035 79.0117 178.59 81.082 176.793 82.8398C175.035 84.5977 172.906 85.9453 170.406 86.8828C167.945 87.8203 165.133 88.2891 161.969 88.2891ZM209.723 87V24.1875H226.832V35.1445H227.184C228.121 31.2773 229.82 28.2695 232.281 26.1211C234.742 23.9727 237.809 22.8984 241.48 22.8984C242.418 22.8984 243.316 22.957 244.176 23.0742C245.035 23.1914 245.777 23.3477 246.402 23.543V38.6016C245.699 38.3281 244.801 38.1133 243.707 37.957C242.613 37.7617 241.441 37.6641 240.191 37.6641C237.379 37.6641 234.977 38.2109 232.984 39.3047C230.992 40.3984 229.469 42 228.414 44.1094C227.359 46.2188 226.832 48.7969 226.832 51.8438V87H209.723ZM316.773 88.4648C310.445 88.4648 304.762 87.4688 299.723 85.4766C294.723 83.4844 290.465 80.5938 286.949 76.8047C283.434 72.9766 280.738 68.3477 278.863 62.918C276.988 57.4883 276.051 51.3359 276.051 44.4609V44.4023C276.051 35.3398 277.691 27.5859 280.973 21.1406C284.254 14.6562 288.902 9.67578 294.918 6.19922C300.973 2.72266 308.121 0.984375 316.363 0.984375C323.16 0.984375 329.156 2.19531 334.352 4.61719C339.547 7 343.766 10.2813 347.008 14.4609C350.289 18.6406 352.398 23.3867 353.336 28.6992L353.512 29.5195H335.758L335.523 28.9336C334.117 24.832 331.773 21.6484 328.492 19.3828C325.211 17.1172 321.188 15.9844 316.422 15.9844C311.773 15.9844 307.77 17.0977 304.41 19.3242C301.09 21.5117 298.531 24.7148 296.734 28.9336C294.977 33.1523 294.098 38.25 294.098 44.2266V44.2852C294.098 48.8555 294.625 52.957 295.68 56.5898C296.734 60.1836 298.258 63.2305 300.25 65.7305C302.281 68.2305 304.703 70.1445 307.516 71.4727C310.367 72.8008 313.551 73.4648 317.066 73.4648C320.895 73.4648 324.273 72.7617 327.203 71.3555C330.172 69.9102 332.496 67.8984 334.176 65.3203C335.895 62.7031 336.832 59.6562 336.988 56.1797L337.047 54.9492H317.711V41.7656H354.273V51.4922C354.273 57.2344 353.414 62.3906 351.695 66.9609C350.016 71.5312 347.555 75.418 344.312 78.6211C341.109 81.8242 337.184 84.2656 332.535 85.9453C327.887 87.625 322.633 88.4648 316.773 88.4648ZM393.355 88.2891C386.988 88.2891 381.48 86.9805 376.832 84.3633C372.184 81.7461 368.59 77.9961 366.051 73.1133C363.512 68.2305 362.242 62.3906 362.242 55.5938V55.4766C362.242 48.7188 363.531 42.918 366.109 38.0742C368.688 33.1914 372.301 29.4414 376.949 26.8242C381.598 24.207 387.047 22.8984 393.297 22.8984C399.586 22.8984 405.055 24.207 409.703 26.8242C414.391 29.4023 418.023 33.1328 420.602 38.0156C423.18 42.8594 424.469 48.6797 424.469 55.4766V55.5938C424.469 62.4297 423.18 68.2891 420.602 73.1719C418.062 78.0547 414.469 81.8047 409.82 84.4219C405.172 87 399.684 88.2891 393.355 88.2891ZM393.414 74.8711C396.188 74.8711 398.59 74.1289 400.621 72.6445C402.691 71.1211 404.273 68.9336 405.367 66.082C406.5 63.1914 407.066 59.6953 407.066 55.5938V55.4766C407.066 51.4141 406.5 47.957 405.367 45.1055C404.234 42.2539 402.633 40.0859 400.562 38.6016C398.492 37.0781 396.07 36.3164 393.297 36.3164C390.562 36.3164 388.16 37.0781 386.09 38.6016C384.059 40.0859 382.477 42.2539 381.344 45.1055C380.211 47.957 379.645 51.4141 379.645 55.4766V55.5938C379.645 59.6953 380.191 63.1914 381.285 66.082C382.418 68.9336 384.02 71.1211 386.09 72.6445C388.16 74.1289 390.602 74.8711 393.414 74.8711ZM435.25 60.1055V45.1641H473.219V60.1055H435.25ZM511.246 88.2891C504.293 88.2891 499.137 86.8242 495.777 83.8945C492.418 80.9648 490.738 76.1406 490.738 69.4219V37.0781H482.008V24.1875H490.738V8.83594H508.023V24.1875H519.508V37.0781H508.023V67.5469C508.023 70.4766 508.668 72.5273 509.957 73.6992C511.285 74.832 513.238 75.3984 515.816 75.3984C516.598 75.3984 517.281 75.3789 517.867 75.3398C518.453 75.2617 519 75.1836 519.508 75.1055V87.6445C518.57 87.8008 517.398 87.9375 515.992 88.0547C514.625 88.2109 513.043 88.2891 511.246 88.2891ZM556.949 88.2891C550.582 88.2891 545.074 86.9805 540.426 84.3633C535.777 81.7461 532.184 77.9961 529.645 73.1133C527.105 68.2305 525.836 62.3906 525.836 55.5938V55.4766C525.836 48.7188 527.125 42.918 529.703 38.0742C532.281 33.1914 535.895 29.4414 540.543 26.8242C545.191 24.207 550.641 22.8984 556.891 22.8984C563.18 22.8984 568.648 24.207 573.297 26.8242C577.984 29.4023 581.617 33.1328 584.195 38.0156C586.773 42.8594 588.062 48.6797 588.062 55.4766V55.5938C588.062 62.4297 586.773 68.2891 584.195 73.1719C581.656 78.0547 578.062 81.8047 573.414 84.4219C568.766 87 563.277 88.2891 556.949 88.2891ZM557.008 74.8711C559.781 74.8711 562.184 74.1289 564.215 72.6445C566.285 71.1211 567.867 68.9336 568.961 66.082C570.094 63.1914 570.66 59.6953 570.66 55.5938V55.4766C570.66 51.4141 570.094 47.957 568.961 45.1055C567.828 42.2539 566.227 40.0859 564.156 38.6016C562.086 37.0781 559.664 36.3164 556.891 36.3164C554.156 36.3164 551.754 37.0781 549.684 38.6016C547.652 40.0859 546.07 42.2539 544.938 45.1055C543.805 47.957 543.238 51.4141 543.238 55.4766V55.5938C543.238 59.6953 543.785 63.1914 544.879 66.082C546.012 68.9336 547.613 71.1211 549.684 72.6445C551.754 74.1289 554.195 74.8711 557.008 74.8711ZM1037.89 87V37.0781H1029.33V24.1875H1037.89V19.1484C1037.89 15.0469 1038.57 11.668 1039.94 9.01172C1041.34 6.35547 1043.55 4.38281 1046.56 3.09375C1049.61 1.80469 1053.61 1.16016 1058.57 1.16016C1060.13 1.16016 1061.71 1.23828 1063.32 1.39453C1064.92 1.51172 1066.21 1.66797 1067.18 1.86328V13.1719C1066.6 13.0547 1065.91 12.9766 1065.13 12.9375C1064.35 12.8984 1063.57 12.8789 1062.79 12.8789C1059.98 12.8789 1057.91 13.4648 1056.58 14.6367C1055.25 15.8086 1054.59 17.5273 1054.59 19.793V24.1875H1067.07V37.0781H1055V87H1037.89ZM1100.58 88.2891C1094.21 88.2891 1088.71 86.9805 1084.06 84.3633C1079.41 81.7461 1075.82 77.9961 1073.28 73.1133C1070.74 68.2305 1069.47 62.3906 1069.47 55.5938V55.4766C1069.47 48.7188 1070.76 42.918 1073.34 38.0742C1075.91 33.1914 1079.53 29.4414 1084.18 26.8242C1088.82 24.207 1094.27 22.8984 1100.52 22.8984C1106.81 22.8984 1112.28 24.207 1116.93 26.8242C1121.62 29.4023 1125.25 33.1328 1127.83 38.0156C1130.41 42.8594 1131.7 48.6797 1131.7 55.4766V55.5938C1131.7 62.4297 1130.41 68.2891 1127.83 73.1719C1125.29 78.0547 1121.7 81.8047 1117.05 84.4219C1112.4 87 1106.91 88.2891 1100.58 88.2891ZM1100.64 74.8711C1103.41 74.8711 1105.82 74.1289 1107.85 72.6445C1109.92 71.1211 1111.5 68.9336 1112.59 66.082C1113.73 63.1914 1114.29 59.6953 1114.29 55.5938V55.4766C1114.29 51.4141 1113.73 47.957 1112.59 45.1055C1111.46 42.2539 1109.86 40.0859 1107.79 38.6016C1105.72 37.0781 1103.3 36.3164 1100.52 36.3164C1097.79 36.3164 1095.39 37.0781 1093.32 38.6016C1091.29 40.0859 1089.7 42.2539 1088.57 45.1055C1087.44 47.957 1086.87 51.4141 1086.87 55.4766V55.5938C1086.87 59.6953 1087.42 63.1914 1088.51 66.082C1089.64 68.9336 1091.25 71.1211 1093.32 72.6445C1095.39 74.1289 1097.83 74.8711 1100.64 74.8711ZM1140.54 87V24.1875H1157.65V35.1445H1158C1158.94 31.2773 1160.64 28.2695 1163.1 26.1211C1165.56 23.9727 1168.63 22.8984 1172.3 22.8984C1173.24 22.8984 1174.14 22.957 1175 23.0742C1175.86 23.1914 1176.6 23.3477 1177.22 23.543V38.6016C1176.52 38.3281 1175.62 38.1133 1174.53 37.957C1173.43 37.7617 1172.26 37.6641 1171.01 37.6641C1168.2 37.6641 1165.8 38.2109 1163.8 39.3047C1161.81 40.3984 1160.29 42 1159.23 44.1094C1158.18 46.2188 1157.65 48.7969 1157.65 51.8438V87H1140.54ZM659.898 230.996C655.719 230.996 652.047 230.195 648.883 228.594C645.719 226.953 643.238 224.707 641.441 221.855C639.684 218.965 638.805 215.684 638.805 212.012V211.895C638.805 208.066 639.762 204.805 641.676 202.109C643.59 199.375 646.363 197.227 649.996 195.664C653.629 194.102 658.043 193.145 663.238 192.793L687.73 191.27V201.934L665.816 203.34C662.535 203.535 660.035 204.316 658.316 205.684C656.598 207.012 655.738 208.789 655.738 211.016V211.133C655.738 213.438 656.617 215.254 658.375 216.582C660.133 217.871 662.496 218.516 665.465 218.516C668.004 218.516 670.27 218.027 672.262 217.051C674.293 216.035 675.875 214.668 677.008 212.949C678.18 211.191 678.766 209.219 678.766 207.031V187.988C678.766 185.215 677.887 183.027 676.129 181.426C674.371 179.785 671.812 178.965 668.453 178.965C665.25 178.965 662.711 179.629 660.836 180.957C658.961 182.285 657.809 183.965 657.379 185.996L657.262 186.523H641.617L641.676 185.82C641.988 181.953 643.258 178.516 645.484 175.508C647.75 172.5 650.875 170.156 654.859 168.477C658.883 166.758 663.648 165.898 669.156 165.898C674.586 165.898 679.293 166.777 683.277 168.535C687.262 170.254 690.348 172.695 692.535 175.859C694.762 179.023 695.875 182.715 695.875 186.934V230H678.766V220.625H678.414C677.242 222.773 675.719 224.629 673.844 226.191C672.008 227.715 669.918 228.906 667.574 229.766C665.23 230.586 662.672 230.996 659.898 230.996ZM706.949 230V167.188H724.059V177.5H724.41C726.051 173.906 728.473 171.074 731.676 169.004C734.879 166.934 738.844 165.898 743.57 165.898C750.484 165.898 755.816 167.988 759.566 172.168C763.355 176.309 765.25 182.07 765.25 189.453V230H748.141V192.969C748.141 188.867 747.164 185.703 745.211 183.477C743.297 181.211 740.426 180.078 736.598 180.078C734.059 180.078 731.852 180.664 729.977 181.836C728.102 182.969 726.637 184.57 725.582 186.641C724.566 188.711 724.059 191.133 724.059 193.906V230H706.949ZM799.352 231.289C794.078 231.289 789.527 229.98 785.699 227.363C781.871 224.746 778.922 220.996 776.852 216.113C774.82 211.23 773.805 205.391 773.805 198.594V198.535C773.805 191.699 774.84 185.859 776.91 181.016C778.98 176.133 781.91 172.402 785.699 169.824C789.527 167.207 794.078 165.898 799.352 165.898C802.32 165.898 805.055 166.387 807.555 167.363C810.055 168.34 812.242 169.746 814.117 171.582C816.031 173.379 817.555 175.547 818.688 178.086H819.039V145.449H836.148V230H819.039V219.277H818.688C817.594 221.777 816.109 223.926 814.234 225.723C812.359 227.48 810.172 228.848 807.672 229.824C805.172 230.801 802.398 231.289 799.352 231.289ZM805.094 217.109C807.867 217.109 810.309 216.367 812.418 214.883C814.527 213.359 816.168 211.211 817.34 208.438C818.512 205.664 819.098 202.383 819.098 198.594V198.535C819.098 194.746 818.492 191.484 817.281 188.75C816.109 185.977 814.469 183.848 812.359 182.363C810.289 180.84 807.867 180.078 805.094 180.078C802.242 180.078 799.781 180.82 797.711 182.305C795.641 183.789 794.039 185.918 792.906 188.691C791.773 191.426 791.207 194.707 791.207 198.535V198.594C791.207 202.383 791.754 205.664 792.848 208.438C793.98 211.211 795.582 213.359 797.652 214.883C799.762 216.367 802.242 217.109 805.094 217.109ZM872.828 230V145.449H928.844V160.039H890.523V180.312H926.676V194.141H890.523V215.41H928.844V230H872.828ZM964.527 230L936.227 145.449H955.797L975.133 211.895H975.484L994.762 145.449H1014.39L986.09 230H964.527ZM1023.06 230V145.449H1043.51L1067.54 206.211H1067.89L1091.91 145.449H1112.36V230H1096.6V172.812H1088.39L1106.09 147.793L1073.28 230H1062.14L1029.33 147.793L1047.03 172.812H1038.82V230H1023.06Z" fill="#192945"/>
<path d="M663.824 87L641.441 2.44922H659.781L673.141 63.0352H673.492L689.078 2.44922H704.605L720.191 63.0352H720.543L733.961 2.44922H752.301L729.859 87H712.574L697.047 30.3398H696.695L681.109 87H663.824ZM771.227 87.9961C767.047 87.9961 763.375 87.1953 760.211 85.5938C757.047 83.9531 754.566 81.707 752.77 78.8555C751.012 75.9648 750.133 72.6836 750.133 69.0117V68.8945C750.133 65.0664 751.09 61.8047 753.004 59.1094C754.918 56.375 757.691 54.2266 761.324 52.6641C764.957 51.1016 769.371 50.1445 774.566 49.793L799.059 48.2695V58.9336L777.145 60.3398C773.863 60.5352 771.363 61.3164 769.645 62.6836C767.926 64.0117 767.066 65.7891 767.066 68.0156V68.1328C767.066 70.4375 767.945 72.2539 769.703 73.582C771.461 74.8711 773.824 75.5156 776.793 75.5156C779.332 75.5156 781.598 75.0273 783.59 74.0508C785.621 73.0352 787.203 71.668 788.336 69.9492C789.508 68.1914 790.094 66.2188 790.094 64.0312V44.9883C790.094 42.2148 789.215 40.0273 787.457 38.4258C785.699 36.7852 783.141 35.9648 779.781 35.9648C776.578 35.9648 774.039 36.6289 772.164 37.957C770.289 39.2852 769.137 40.9648 768.707 42.9961L768.59 43.5234H752.945L753.004 42.8203C753.316 38.9531 754.586 35.5156 756.812 32.5078C759.078 29.5 762.203 27.1562 766.188 25.4766C770.211 23.7578 774.977 22.8984 780.484 22.8984C785.914 22.8984 790.621 23.7773 794.605 25.5352C798.59 27.2539 801.676 29.6953 803.863 32.8594C806.09 36.0234 807.203 39.7148 807.203 43.9336V87H790.094V77.625H789.742C788.57 79.7734 787.047 81.6289 785.172 83.1914C783.336 84.7148 781.246 85.9062 778.902 86.7656C776.559 87.5859 774 87.9961 771.227 87.9961ZM818.688 87V2.44922H835.797V87H818.688ZM847.75 87V2.44922H864.859V87H847.75ZM904.996 88.2891C898.59 88.2891 893.082 86.9805 888.473 84.3633C883.863 81.707 880.309 77.9375 877.809 73.0547C875.348 68.1719 874.117 62.3906 874.117 55.7109V55.6523C874.117 48.9727 875.348 43.1914 877.809 38.3086C880.309 33.3867 883.805 29.5977 888.297 26.9414C892.828 24.2461 898.16 22.8984 904.293 22.8984C910.426 22.8984 915.719 24.207 920.172 26.8242C924.664 29.4023 928.121 33.0547 930.543 37.7812C933.004 42.5078 934.234 48.0352 934.234 54.3633V59.6367H882.496V48.8555H926.148L918.004 58.9336V52.3711C918.004 48.6992 917.438 45.6328 916.305 43.1719C915.172 40.6719 913.59 38.7969 911.559 37.5469C909.566 36.2969 907.242 35.6719 904.586 35.6719C901.93 35.6719 899.566 36.3164 897.496 37.6055C895.465 38.8945 893.863 40.7891 892.691 43.2891C891.559 45.75 890.992 48.7773 890.992 52.3711V58.9922C890.992 62.4688 891.559 65.4375 892.691 67.8984C893.863 70.3594 895.523 72.2539 897.672 73.582C899.82 74.8711 902.379 75.5156 905.348 75.5156C907.691 75.5156 909.723 75.1445 911.441 74.4023C913.16 73.6602 914.566 72.7227 915.66 71.5898C916.754 70.457 917.496 69.3047 917.887 68.1328L918.004 67.7812H933.707L933.531 68.4258C933.062 70.7305 932.145 73.0547 930.777 75.3984C929.41 77.7422 927.555 79.8906 925.211 81.8438C922.906 83.7969 920.074 85.3594 916.715 86.5312C913.395 87.7031 909.488 88.2891 904.996 88.2891ZM968.043 88.2891C961.09 88.2891 955.934 86.8242 952.574 83.8945C949.215 80.9648 947.535 76.1406 947.535 69.4219V37.0781H938.805V24.1875H947.535V8.83594H964.82V24.1875H976.305V37.0781H964.82V67.5469C964.82 70.4766 965.465 72.5273 966.754 73.6992C968.082 74.832 970.035 75.3984 972.613 75.3984C973.395 75.3984 974.078 75.3789 974.664 75.3398C975.25 75.2617 975.797 75.1836 976.305 75.1055V87.6445C975.367 87.8008 974.195 87.9375 972.789 88.0547C971.422 88.2109 969.84 88.2891 968.043 88.2891ZM65.6406 230V145.449H121.656V160.039H83.3359V180.312H119.488V194.141H83.3359V215.41H121.656V230H65.6406ZM157.926 231.289C150.973 231.289 145.816 229.824 142.457 226.895C139.098 223.965 137.418 219.141 137.418 212.422V180.078H128.688V167.188H137.418V151.836H154.703V167.188H166.188V180.078H154.703V210.547C154.703 213.477 155.348 215.527 156.637 216.699C157.965 217.832 159.918 218.398 162.496 218.398C163.277 218.398 163.961 218.379 164.547 218.34C165.133 218.262 165.68 218.184 166.188 218.105V230.645C165.25 230.801 164.078 230.938 162.672 231.055C161.305 231.211 159.723 231.289 157.926 231.289ZM176.031 230V145.449H193.141V178.027H193.492C195.133 174.121 197.574 171.133 200.816 169.062C204.098 166.953 208.082 165.898 212.77 165.898C217.34 165.898 221.266 166.914 224.547 168.945C227.828 170.938 230.348 173.77 232.105 177.441C233.902 181.113 234.801 185.488 234.801 190.566V230H217.691V194.082C217.691 189.707 216.637 186.289 214.527 183.828C212.457 181.328 209.469 180.078 205.562 180.078C203.062 180.078 200.875 180.684 199 181.895C197.164 183.066 195.719 184.707 194.664 186.816C193.648 188.887 193.141 191.289 193.141 194.023V230H176.031ZM274.41 231.289C268.004 231.289 262.496 229.98 257.887 227.363C253.277 224.707 249.723 220.938 247.223 216.055C244.762 211.172 243.531 205.391 243.531 198.711V198.652C243.531 191.973 244.762 186.191 247.223 181.309C249.723 176.387 253.219 172.598 257.711 169.941C262.242 167.246 267.574 165.898 273.707 165.898C279.84 165.898 285.133 167.207 289.586 169.824C294.078 172.402 297.535 176.055 299.957 180.781C302.418 185.508 303.648 191.035 303.648 197.363V202.637H251.91V191.855H295.562L287.418 201.934V195.371C287.418 191.699 286.852 188.633 285.719 186.172C284.586 183.672 283.004 181.797 280.973 180.547C278.98 179.297 276.656 178.672 274 178.672C271.344 178.672 268.98 179.316 266.91 180.605C264.879 181.895 263.277 183.789 262.105 186.289C260.973 188.75 260.406 191.777 260.406 195.371V201.992C260.406 205.469 260.973 208.438 262.105 210.898C263.277 213.359 264.938 215.254 267.086 216.582C269.234 217.871 271.793 218.516 274.762 218.516C277.105 218.516 279.137 218.145 280.855 217.402C282.574 216.66 283.98 215.723 285.074 214.59C286.168 213.457 286.91 212.305 287.301 211.133L287.418 210.781H303.121L302.945 211.426C302.477 213.73 301.559 216.055 300.191 218.398C298.824 220.742 296.969 222.891 294.625 224.844C292.32 226.797 289.488 228.359 286.129 229.531C282.809 230.703 278.902 231.289 274.41 231.289ZM312.496 230V167.188H329.605V178.145H329.957C330.895 174.277 332.594 171.27 335.055 169.121C337.516 166.973 340.582 165.898 344.254 165.898C345.191 165.898 346.09 165.957 346.949 166.074C347.809 166.191 348.551 166.348 349.176 166.543V181.602C348.473 181.328 347.574 181.113 346.48 180.957C345.387 180.762 344.215 180.664 342.965 180.664C340.152 180.664 337.75 181.211 335.758 182.305C333.766 183.398 332.242 185 331.188 187.109C330.133 189.219 329.605 191.797 329.605 194.844V230H312.496ZM382.809 231.289C376.402 231.289 370.895 229.98 366.285 227.363C361.676 224.707 358.121 220.938 355.621 216.055C353.16 211.172 351.93 205.391 351.93 198.711V198.652C351.93 191.973 353.16 186.191 355.621 181.309C358.121 176.387 361.617 172.598 366.109 169.941C370.641 167.246 375.973 165.898 382.105 165.898C388.238 165.898 393.531 167.207 397.984 169.824C402.477 172.402 405.934 176.055 408.355 180.781C410.816 185.508 412.047 191.035 412.047 197.363V202.637H360.309V191.855H403.961L395.816 201.934V195.371C395.816 191.699 395.25 188.633 394.117 186.172C392.984 183.672 391.402 181.797 389.371 180.547C387.379 179.297 385.055 178.672 382.398 178.672C379.742 178.672 377.379 179.316 375.309 180.605C373.277 181.895 371.676 183.789 370.504 186.289C369.371 188.75 368.805 191.777 368.805 195.371V201.992C368.805 205.469 369.371 208.438 370.504 210.898C371.676 213.359 373.336 215.254 375.484 216.582C377.633 217.871 380.191 218.516 383.16 218.516C385.504 218.516 387.535 218.145 389.254 217.402C390.973 216.66 392.379 215.723 393.473 214.59C394.566 213.457 395.309 212.305 395.699 211.133L395.816 210.781H411.52L411.344 211.426C410.875 213.73 409.957 216.055 408.59 218.398C407.223 220.742 405.367 222.891 403.023 224.844C400.719 226.797 397.887 228.359 394.527 229.531C391.207 230.703 387.301 231.289 382.809 231.289ZM442.281 231.289C437.672 231.289 433.746 230.352 430.504 228.477C427.301 226.562 424.84 223.848 423.121 220.332C421.441 216.816 420.602 212.617 420.602 207.734V167.188H437.711V204.16C437.711 208.262 438.668 211.445 440.582 213.711C442.535 215.977 445.426 217.109 449.254 217.109C451.168 217.109 452.887 216.777 454.41 216.113C455.973 215.449 457.301 214.512 458.395 213.301C459.488 212.051 460.328 210.586 460.914 208.906C461.5 207.188 461.793 205.312 461.793 203.281V167.188H478.902V230H461.793V219.629H461.441C460.348 222.012 458.902 224.082 457.105 225.84C455.348 227.598 453.219 228.945 450.719 229.883C448.258 230.82 445.445 231.289 442.281 231.289ZM490.035 230V167.188H507.145V177.734H507.496C508.785 174.141 510.973 171.27 514.059 169.121C517.184 166.973 520.855 165.898 525.074 165.898C528.004 165.898 530.641 166.406 532.984 167.422C535.328 168.438 537.301 169.902 538.902 171.816C540.543 173.73 541.695 176.074 542.359 178.848H542.711C543.648 176.191 545.055 173.906 546.93 171.992C548.844 170.039 551.09 168.535 553.668 167.48C556.285 166.426 559.137 165.898 562.223 165.898C566.324 165.898 569.918 166.777 573.004 168.535C576.09 170.293 578.492 172.754 580.211 175.918C581.93 179.082 582.789 182.793 582.789 187.051V230H565.68V191.328C565.68 188.906 565.27 186.855 564.449 185.176C563.668 183.496 562.516 182.227 560.992 181.367C559.508 180.508 557.652 180.078 555.426 180.078C553.277 180.078 551.383 180.566 549.742 181.543C548.141 182.52 546.891 183.887 545.992 185.645C545.094 187.402 544.645 189.453 544.645 191.797V230H528.18V190.801C528.18 188.535 527.77 186.602 526.949 185C526.129 183.398 524.957 182.188 523.434 181.367C521.949 180.508 520.152 180.078 518.043 180.078C515.895 180.078 514 180.586 512.359 181.602C510.719 182.617 509.43 184.023 508.492 185.82C507.594 187.617 507.145 189.707 507.145 192.09V230H490.035Z" fill="#4C65FF"/>
</svg>
