<svg width="1280" height="286" viewBox="0 0 1280 286" fill="none" xmlns="http://www.w3.org/2000/svg">
<path d="M650 224C464.444 228.215 91.5879 236.77 84.6174 237.276L73 279L650 268.885V224Z" fill="#CFD6FF"/>
<path d="M1038 83C918.048 86.7548 677.016 94.377 672.51 94.8276L665 132L1038 122.989V83Z" fill="#CFD6FF"/>
<path d="M63.2617 114V82.418L33.8477 29.4492H52.9492L71.9336 65.543H72.3438L91.2695 29.4492H110.43L80.957 82.418V114H63.2617ZM133.516 115.289C127.148 115.289 121.641 113.98 116.992 111.363C112.344 108.746 108.75 104.996 106.211 100.113C103.672 95.2305 102.402 89.3906 102.402 82.5938V82.4766C102.402 75.7188 103.691 69.918 106.27 65.0742C108.848 60.1914 112.461 56.4414 117.109 53.8242C121.758 51.207 127.207 49.8984 133.457 49.8984C139.746 49.8984 145.215 51.207 149.863 53.8242C154.551 56.4023 158.184 60.1328 160.762 65.0156C163.34 69.8594 164.629 75.6797 164.629 82.4766V82.5938C164.629 89.4297 163.34 95.2891 160.762 100.172C158.223 105.055 154.629 108.805 149.98 111.422C145.332 114 139.844 115.289 133.516 115.289ZM133.574 101.871C136.348 101.871 138.75 101.129 140.781 99.6445C142.852 98.1211 144.434 95.9336 145.527 93.082C146.66 90.1914 147.227 86.6953 147.227 82.5938V82.4766C147.227 78.4141 146.66 74.957 145.527 72.1055C144.395 69.2539 142.793 67.0859 140.723 65.6016C138.652 64.0781 136.23 63.3164 133.457 63.3164C130.723 63.3164 128.32 64.0781 126.25 65.6016C124.219 67.0859 122.637 69.2539 121.504 72.1055C120.371 74.957 119.805 78.4141 119.805 82.4766V82.5938C119.805 86.6953 120.352 90.1914 121.445 93.082C122.578 95.9336 124.18 98.1211 126.25 99.6445C128.32 101.129 130.762 101.871 133.574 101.871ZM194.863 115.289C190.254 115.289 186.328 114.352 183.086 112.477C179.883 110.562 177.422 107.848 175.703 104.332C174.023 100.816 173.184 96.6172 173.184 91.7344V51.1875H190.293V88.1602C190.293 92.2617 191.25 95.4453 193.164 97.7109C195.117 99.9766 198.008 101.109 201.836 101.109C203.75 101.109 205.469 100.777 206.992 100.113C208.555 99.4492 209.883 98.5117 210.977 97.3008C212.07 96.0508 212.91 94.5859 213.496 92.9062C214.082 91.1875 214.375 89.3125 214.375 87.2812V51.1875H231.484V114H214.375V103.629H214.023C212.93 106.012 211.484 108.082 209.688 109.84C207.93 111.598 205.801 112.945 203.301 113.883C200.84 114.82 198.027 115.289 194.863 115.289ZM242.617 114V51.1875H259.727V62.1445H260.078C261.016 58.2773 262.715 55.2695 265.176 53.1211C267.637 50.9727 270.703 49.8984 274.375 49.8984C275.312 49.8984 276.211 49.957 277.07 50.0742C277.93 50.1914 278.672 50.3477 279.297 50.543V65.6016C278.594 65.3281 277.695 65.1133 276.602 64.957C275.508 64.7617 274.336 64.6641 273.086 64.6641C270.273 64.6641 267.871 65.2109 265.879 66.3047C263.887 67.3984 262.363 69 261.309 71.1094C260.254 73.2188 259.727 75.7969 259.727 78.8438V114H242.617ZM349.668 115.465C343.34 115.465 337.656 114.469 332.617 112.477C327.617 110.484 323.359 107.594 319.844 103.805C316.328 99.9766 313.633 95.3477 311.758 89.918C309.883 84.4883 308.945 78.3359 308.945 71.4609V71.4023C308.945 62.3398 310.586 54.5859 313.867 48.1406C317.148 41.6562 321.797 36.6758 327.812 33.1992C333.867 29.7227 341.016 27.9844 349.258 27.9844C356.055 27.9844 362.051 29.1953 367.246 31.6172C372.441 34 376.66 37.2813 379.902 41.4609C383.184 45.6406 385.293 50.3867 386.23 55.6992L386.406 56.5195H368.652L368.418 55.9336C367.012 51.832 364.668 48.6484 361.387 46.3828C358.105 44.1172 354.082 42.9844 349.316 42.9844C344.668 42.9844 340.664 44.0977 337.305 46.3242C333.984 48.5117 331.426 51.7148 329.629 55.9336C327.871 60.1523 326.992 65.25 326.992 71.2266V71.2852C326.992 75.8555 327.52 79.957 328.574 83.5898C329.629 87.1836 331.152 90.2305 333.145 92.7305C335.176 95.2305 337.598 97.1445 340.41 98.4727C343.262 99.8008 346.445 100.465 349.961 100.465C353.789 100.465 357.168 99.7617 360.098 98.3555C363.066 96.9102 365.391 94.8984 367.07 92.3203C368.789 89.7031 369.727 86.6562 369.883 83.1797L369.941 81.9492H350.605V68.7656H387.168V78.4922C387.168 84.2344 386.309 89.3906 384.59 93.9609C382.91 98.5312 380.449 102.418 377.207 105.621C374.004 108.824 370.078 111.266 365.43 112.945C360.781 114.625 355.527 115.465 349.668 115.465ZM426.25 115.289C419.883 115.289 414.375 113.98 409.727 111.363C405.078 108.746 401.484 104.996 398.945 100.113C396.406 95.2305 395.137 89.3906 395.137 82.5938V82.4766C395.137 75.7188 396.426 69.918 399.004 65.0742C401.582 60.1914 405.195 56.4414 409.844 53.8242C414.492 51.207 419.941 49.8984 426.191 49.8984C432.48 49.8984 437.949 51.207 442.598 53.8242C447.285 56.4023 450.918 60.1328 453.496 65.0156C456.074 69.8594 457.363 75.6797 457.363 82.4766V82.5938C457.363 89.4297 456.074 95.2891 453.496 100.172C450.957 105.055 447.363 108.805 442.715 111.422C438.066 114 432.578 115.289 426.25 115.289ZM426.309 101.871C429.082 101.871 431.484 101.129 433.516 99.6445C435.586 98.1211 437.168 95.9336 438.262 93.082C439.395 90.1914 439.961 86.6953 439.961 82.5938V82.4766C439.961 78.4141 439.395 74.957 438.262 72.1055C437.129 69.2539 435.527 67.0859 433.457 65.6016C431.387 64.0781 428.965 63.3164 426.191 63.3164C423.457 63.3164 421.055 64.0781 418.984 65.6016C416.953 67.0859 415.371 69.2539 414.238 72.1055C413.105 74.957 412.539 78.4141 412.539 82.4766V82.5938C412.539 86.6953 413.086 90.1914 414.18 93.082C415.312 95.9336 416.914 98.1211 418.984 99.6445C421.055 101.129 423.496 101.871 426.309 101.871ZM468.145 87.1055V72.1641H506.113V87.1055H468.145ZM534.766 114V44.0391H510.332V29.4492H576.953V44.0391H552.461V114H534.766ZM600.391 115.289C594.023 115.289 588.516 113.98 583.867 111.363C579.219 108.746 575.625 104.996 573.086 100.113C570.547 95.2305 569.277 89.3906 569.277 82.5938V82.4766C569.277 75.7188 570.566 69.918 573.145 65.0742C575.723 60.1914 579.336 56.4414 583.984 53.8242C588.633 51.207 594.082 49.8984 600.332 49.8984C606.621 49.8984 612.09 51.207 616.738 53.8242C621.426 56.4023 625.059 60.1328 627.637 65.0156C630.215 69.8594 631.504 75.6797 631.504 82.4766V82.5938C631.504 89.4297 630.215 95.2891 627.637 100.172C625.098 105.055 621.504 108.805 616.855 111.422C612.207 114 606.719 115.289 600.391 115.289ZM600.449 101.871C603.223 101.871 605.625 101.129 607.656 99.6445C609.727 98.1211 611.309 95.9336 612.402 93.082C613.535 90.1914 614.102 86.6953 614.102 82.5938V82.4766C614.102 78.4141 613.535 74.957 612.402 72.1055C611.27 69.2539 609.668 67.0859 607.598 65.6016C605.527 64.0781 603.105 63.3164 600.332 63.3164C597.598 63.3164 595.195 64.0781 593.125 65.6016C591.094 67.0859 589.512 69.2539 588.379 72.1055C587.246 74.957 586.68 78.4141 586.68 82.4766V82.5938C586.68 86.6953 587.227 90.1914 588.32 93.082C589.453 95.9336 591.055 98.1211 593.125 99.6445C595.195 101.129 597.637 101.871 600.449 101.871ZM1078.22 114V29.4492H1133.59V44.0391H1095.92V66.7148H1130.31V80.7188H1095.92V114H1078.22ZM1169.69 115.289C1163.32 115.289 1157.81 113.98 1153.16 111.363C1148.52 108.746 1144.92 104.996 1142.38 100.113C1139.84 95.2305 1138.57 89.3906 1138.57 82.5938V82.4766C1138.57 75.7188 1139.86 69.918 1142.44 65.0742C1145.02 60.1914 1148.63 56.4414 1153.28 53.8242C1157.93 51.207 1163.38 49.8984 1169.63 49.8984C1175.92 49.8984 1181.39 51.207 1186.04 53.8242C1190.72 56.4023 1194.36 60.1328 1196.93 65.0156C1199.51 69.8594 1200.8 75.6797 1200.8 82.4766V82.5938C1200.8 89.4297 1199.51 95.2891 1196.93 100.172C1194.39 105.055 1190.8 108.805 1186.15 111.422C1181.5 114 1176.02 115.289 1169.69 115.289ZM1169.75 101.871C1172.52 101.871 1174.92 101.129 1176.95 99.6445C1179.02 98.1211 1180.61 95.9336 1181.7 93.082C1182.83 90.1914 1183.4 86.6953 1183.4 82.5938V82.4766C1183.4 78.4141 1182.83 74.957 1181.7 72.1055C1180.57 69.2539 1178.96 67.0859 1176.89 65.6016C1174.82 64.0781 1172.4 63.3164 1169.63 63.3164C1166.89 63.3164 1164.49 64.0781 1162.42 65.6016C1160.39 67.0859 1158.81 69.2539 1157.68 72.1055C1156.54 74.957 1155.98 78.4141 1155.98 82.4766V82.5938C1155.98 86.6953 1156.52 90.1914 1157.62 93.082C1158.75 95.9336 1160.35 98.1211 1162.42 99.6445C1164.49 101.129 1166.93 101.871 1169.75 101.871ZM1209.65 114V51.1875H1226.76V62.1445H1227.11C1228.05 58.2773 1229.75 55.2695 1232.21 53.1211C1234.67 50.9727 1237.73 49.8984 1241.41 49.8984C1242.34 49.8984 1243.24 49.957 1244.1 50.0742C1244.96 50.1914 1245.7 50.3477 1246.33 50.543V65.6016C1245.62 65.3281 1244.73 65.1133 1243.63 64.957C1242.54 64.7617 1241.37 64.6641 1240.12 64.6641C1237.3 64.6641 1234.9 65.2109 1232.91 66.3047C1230.92 67.3984 1229.39 69 1228.34 71.1094C1227.29 73.2188 1226.76 75.7969 1226.76 78.8438V114H1209.65ZM679.609 257L709.141 172.449H724.727V188.855H719.336L698.184 257H679.609ZM695.488 236.492L699.824 223.25H739.258L743.594 236.492H695.488ZM740.84 257L719.688 188.855V172.449H729.941L759.414 257H740.84ZM766.621 257V194.188H783.73V204.5H784.082C785.723 200.906 788.145 198.074 791.348 196.004C794.551 193.934 798.516 192.898 803.242 192.898C810.156 192.898 815.488 194.988 819.238 199.168C823.027 203.309 824.922 209.07 824.922 216.453V257H807.812V219.969C807.812 215.867 806.836 212.703 804.883 210.477C802.969 208.211 800.098 207.078 796.27 207.078C793.73 207.078 791.523 207.664 789.648 208.836C787.773 209.969 786.309 211.57 785.254 213.641C784.238 215.711 783.73 218.133 783.73 220.906V257H766.621ZM859.023 258.289C853.75 258.289 849.199 256.98 845.371 254.363C841.543 251.746 838.594 247.996 836.523 243.113C834.492 238.23 833.477 232.391 833.477 225.594V225.535C833.477 218.699 834.512 212.859 836.582 208.016C838.652 203.133 841.582 199.402 845.371 196.824C849.199 194.207 853.75 192.898 859.023 192.898C861.992 192.898 864.727 193.387 867.227 194.363C869.727 195.34 871.914 196.746 873.789 198.582C875.703 200.379 877.227 202.547 878.359 205.086H878.711V172.449H895.82V257H878.711V246.277H878.359C877.266 248.777 875.781 250.926 873.906 252.723C872.031 254.48 869.844 255.848 867.344 256.824C864.844 257.801 862.07 258.289 859.023 258.289ZM864.766 244.109C867.539 244.109 869.98 243.367 872.09 241.883C874.199 240.359 875.84 238.211 877.012 235.438C878.184 232.664 878.77 229.383 878.77 225.594V225.535C878.77 221.746 878.164 218.484 876.953 215.75C875.781 212.977 874.141 210.848 872.031 209.363C869.961 207.84 867.539 207.078 864.766 207.078C861.914 207.078 859.453 207.82 857.383 209.305C855.312 210.789 853.711 212.918 852.578 215.691C851.445 218.426 850.879 221.707 850.879 225.535V225.594C850.879 229.383 851.426 232.664 852.52 235.438C853.652 238.211 855.254 240.359 857.324 241.883C859.434 243.367 861.914 244.109 864.766 244.109ZM932.5 257V172.449H988.516V187.039H950.195V207.312H986.348V221.141H950.195V242.41H988.516V257H932.5ZM1024.2 257L995.898 172.449H1015.47L1034.8 238.895H1035.16L1054.43 172.449H1074.06L1045.76 257H1024.2ZM1082.73 257V172.449H1103.18L1127.21 233.211H1127.56L1151.58 172.449H1172.03V257H1156.27V199.812H1148.07L1165.76 174.793L1132.95 257H1121.82L1089 174.793L1106.7 199.812H1098.5V257H1082.73Z" fill="#192945"/>
<path d="M707.266 114L684.883 29.4492H703.223L716.582 90.0352H716.934L732.52 29.4492H748.047L763.633 90.0352H763.984L777.402 29.4492H795.742L773.301 114H756.016L740.488 57.3398H740.137L724.551 114H707.266ZM814.668 114.996C810.488 114.996 806.816 114.195 803.652 112.594C800.488 110.953 798.008 108.707 796.211 105.855C794.453 102.965 793.574 99.6836 793.574 96.0117V95.8945C793.574 92.0664 794.531 88.8047 796.445 86.1094C798.359 83.375 801.133 81.2266 804.766 79.6641C808.398 78.1016 812.812 77.1445 818.008 76.793L842.5 75.2695V85.9336L820.586 87.3398C817.305 87.5352 814.805 88.3164 813.086 89.6836C811.367 91.0117 810.508 92.7891 810.508 95.0156V95.1328C810.508 97.4375 811.387 99.2539 813.145 100.582C814.902 101.871 817.266 102.516 820.234 102.516C822.773 102.516 825.039 102.027 827.031 101.051C829.062 100.035 830.645 98.668 831.777 96.9492C832.949 95.1914 833.535 93.2188 833.535 91.0312V71.9883C833.535 69.2148 832.656 67.0273 830.898 65.4258C829.141 63.7852 826.582 62.9648 823.223 62.9648C820.02 62.9648 817.48 63.6289 815.605 64.957C813.73 66.2852 812.578 67.9648 812.148 69.9961L812.031 70.5234H796.387L796.445 69.8203C796.758 65.9531 798.027 62.5156 800.254 59.5078C802.52 56.5 805.645 54.1562 809.629 52.4766C813.652 50.7578 818.418 49.8984 823.926 49.8984C829.355 49.8984 834.062 50.7773 838.047 52.5352C842.031 54.2539 845.117 56.6953 847.305 59.8594C849.531 63.0234 850.645 66.7148 850.645 70.9336V114H833.535V104.625H833.184C832.012 106.773 830.488 108.629 828.613 110.191C826.777 111.715 824.688 112.906 822.344 113.766C820 114.586 817.441 114.996 814.668 114.996ZM862.129 114V29.4492H879.238V114H862.129ZM891.191 114V29.4492H908.301V114H891.191ZM948.438 115.289C942.031 115.289 936.523 113.98 931.914 111.363C927.305 108.707 923.75 104.938 921.25 100.055C918.789 95.1719 917.559 89.3906 917.559 82.7109V82.6523C917.559 75.9727 918.789 70.1914 921.25 65.3086C923.75 60.3867 927.246 56.5977 931.738 53.9414C936.27 51.2461 941.602 49.8984 947.734 49.8984C953.867 49.8984 959.16 51.207 963.613 53.8242C968.105 56.4023 971.562 60.0547 973.984 64.7812C976.445 69.5078 977.676 75.0352 977.676 81.3633V86.6367H925.938V75.8555H969.59L961.445 85.9336V79.3711C961.445 75.6992 960.879 72.6328 959.746 70.1719C958.613 67.6719 957.031 65.7969 955 64.5469C953.008 63.2969 950.684 62.6719 948.027 62.6719C945.371 62.6719 943.008 63.3164 940.938 64.6055C938.906 65.8945 937.305 67.7891 936.133 70.2891C935 72.75 934.434 75.7773 934.434 79.3711V85.9922C934.434 89.4688 935 92.4375 936.133 94.8984C937.305 97.3594 938.965 99.2539 941.113 100.582C943.262 101.871 945.82 102.516 948.789 102.516C951.133 102.516 953.164 102.145 954.883 101.402C956.602 100.66 958.008 99.7227 959.102 98.5898C960.195 97.457 960.938 96.3047 961.328 95.1328L961.445 94.7812H977.148L976.973 95.4258C976.504 97.7305 975.586 100.055 974.219 102.398C972.852 104.742 970.996 106.891 968.652 108.844C966.348 110.797 963.516 112.359 960.156 113.531C956.836 114.703 952.93 115.289 948.438 115.289ZM1011.48 115.289C1004.53 115.289 999.375 113.824 996.016 110.895C992.656 107.965 990.977 103.141 990.977 96.4219V64.0781H982.246V51.1875H990.977V35.8359H1008.26V51.1875H1019.75V64.0781H1008.26V94.5469C1008.26 97.4766 1008.91 99.5273 1010.2 100.699C1011.52 101.832 1013.48 102.398 1016.05 102.398C1016.84 102.398 1017.52 102.379 1018.11 102.34C1018.69 102.262 1019.24 102.184 1019.75 102.105V114.645C1018.81 114.801 1017.64 114.938 1016.23 115.055C1014.86 115.211 1013.28 115.289 1011.48 115.289ZM107.969 257V172.449H163.984V187.039H125.664V207.312H161.816V221.141H125.664V242.41H163.984V257H107.969ZM200.254 258.289C193.301 258.289 188.145 256.824 184.785 253.895C181.426 250.965 179.746 246.141 179.746 239.422V207.078H171.016V194.188H179.746V178.836H197.031V194.188H208.516V207.078H197.031V237.547C197.031 240.477 197.676 242.527 198.965 243.699C200.293 244.832 202.246 245.398 204.824 245.398C205.605 245.398 206.289 245.379 206.875 245.34C207.461 245.262 208.008 245.184 208.516 245.105V257.645C207.578 257.801 206.406 257.938 205 258.055C203.633 258.211 202.051 258.289 200.254 258.289ZM218.359 257V172.449H235.469V205.027H235.82C237.461 201.121 239.902 198.133 243.145 196.062C246.426 193.953 250.41 192.898 255.098 192.898C259.668 192.898 263.594 193.914 266.875 195.945C270.156 197.938 272.676 200.77 274.434 204.441C276.23 208.113 277.129 212.488 277.129 217.566V257H260.02V221.082C260.02 216.707 258.965 213.289 256.855 210.828C254.785 208.328 251.797 207.078 247.891 207.078C245.391 207.078 243.203 207.684 241.328 208.895C239.492 210.066 238.047 211.707 236.992 213.816C235.977 215.887 235.469 218.289 235.469 221.023V257H218.359ZM316.738 258.289C310.332 258.289 304.824 256.98 300.215 254.363C295.605 251.707 292.051 247.938 289.551 243.055C287.09 238.172 285.859 232.391 285.859 225.711V225.652C285.859 218.973 287.09 213.191 289.551 208.309C292.051 203.387 295.547 199.598 300.039 196.941C304.57 194.246 309.902 192.898 316.035 192.898C322.168 192.898 327.461 194.207 331.914 196.824C336.406 199.402 339.863 203.055 342.285 207.781C344.746 212.508 345.977 218.035 345.977 224.363V229.637H294.238V218.855H337.891L329.746 228.934V222.371C329.746 218.699 329.18 215.633 328.047 213.172C326.914 210.672 325.332 208.797 323.301 207.547C321.309 206.297 318.984 205.672 316.328 205.672C313.672 205.672 311.309 206.316 309.238 207.605C307.207 208.895 305.605 210.789 304.434 213.289C303.301 215.75 302.734 218.777 302.734 222.371V228.992C302.734 232.469 303.301 235.438 304.434 237.898C305.605 240.359 307.266 242.254 309.414 243.582C311.562 244.871 314.121 245.516 317.09 245.516C319.434 245.516 321.465 245.145 323.184 244.402C324.902 243.66 326.309 242.723 327.402 241.59C328.496 240.457 329.238 239.305 329.629 238.133L329.746 237.781H345.449L345.273 238.426C344.805 240.73 343.887 243.055 342.52 245.398C341.152 247.742 339.297 249.891 336.953 251.844C334.648 253.797 331.816 255.359 328.457 256.531C325.137 257.703 321.23 258.289 316.738 258.289ZM354.824 257V194.188H371.934V205.145H372.285C373.223 201.277 374.922 198.27 377.383 196.121C379.844 193.973 382.91 192.898 386.582 192.898C387.52 192.898 388.418 192.957 389.277 193.074C390.137 193.191 390.879 193.348 391.504 193.543V208.602C390.801 208.328 389.902 208.113 388.809 207.957C387.715 207.762 386.543 207.664 385.293 207.664C382.48 207.664 380.078 208.211 378.086 209.305C376.094 210.398 374.57 212 373.516 214.109C372.461 216.219 371.934 218.797 371.934 221.844V257H354.824ZM425.137 258.289C418.73 258.289 413.223 256.98 408.613 254.363C404.004 251.707 400.449 247.938 397.949 243.055C395.488 238.172 394.258 232.391 394.258 225.711V225.652C394.258 218.973 395.488 213.191 397.949 208.309C400.449 203.387 403.945 199.598 408.438 196.941C412.969 194.246 418.301 192.898 424.434 192.898C430.566 192.898 435.859 194.207 440.312 196.824C444.805 199.402 448.262 203.055 450.684 207.781C453.145 212.508 454.375 218.035 454.375 224.363V229.637H402.637V218.855H446.289L438.145 228.934V222.371C438.145 218.699 437.578 215.633 436.445 213.172C435.312 210.672 433.73 208.797 431.699 207.547C429.707 206.297 427.383 205.672 424.727 205.672C422.07 205.672 419.707 206.316 417.637 207.605C415.605 208.895 414.004 210.789 412.832 213.289C411.699 215.75 411.133 218.777 411.133 222.371V228.992C411.133 232.469 411.699 235.438 412.832 237.898C414.004 240.359 415.664 242.254 417.812 243.582C419.961 244.871 422.52 245.516 425.488 245.516C427.832 245.516 429.863 245.145 431.582 244.402C433.301 243.66 434.707 242.723 435.801 241.59C436.895 240.457 437.637 239.305 438.027 238.133L438.145 237.781H453.848L453.672 238.426C453.203 240.73 452.285 243.055 450.918 245.398C449.551 247.742 447.695 249.891 445.352 251.844C443.047 253.797 440.215 255.359 436.855 256.531C433.535 257.703 429.629 258.289 425.137 258.289ZM484.609 258.289C480 258.289 476.074 257.352 472.832 255.477C469.629 253.562 467.168 250.848 465.449 247.332C463.77 243.816 462.93 239.617 462.93 234.734V194.188H480.039V231.16C480.039 235.262 480.996 238.445 482.91 240.711C484.863 242.977 487.754 244.109 491.582 244.109C493.496 244.109 495.215 243.777 496.738 243.113C498.301 242.449 499.629 241.512 500.723 240.301C501.816 239.051 502.656 237.586 503.242 235.906C503.828 234.188 504.121 232.312 504.121 230.281V194.188H521.23V257H504.121V246.629H503.77C502.676 249.012 501.23 251.082 499.434 252.84C497.676 254.598 495.547 255.945 493.047 256.883C490.586 257.82 487.773 258.289 484.609 258.289ZM532.363 257V194.188H549.473V204.734H549.824C551.113 201.141 553.301 198.27 556.387 196.121C559.512 193.973 563.184 192.898 567.402 192.898C570.332 192.898 572.969 193.406 575.312 194.422C577.656 195.438 579.629 196.902 581.23 198.816C582.871 200.73 584.023 203.074 584.688 205.848H585.039C585.977 203.191 587.383 200.906 589.258 198.992C591.172 197.039 593.418 195.535 595.996 194.48C598.613 193.426 601.465 192.898 604.551 192.898C608.652 192.898 612.246 193.777 615.332 195.535C618.418 197.293 620.82 199.754 622.539 202.918C624.258 206.082 625.117 209.793 625.117 214.051V257H608.008V218.328C608.008 215.906 607.598 213.855 606.777 212.176C605.996 210.496 604.844 209.227 603.32 208.367C601.836 207.508 599.98 207.078 597.754 207.078C595.605 207.078 593.711 207.566 592.07 208.543C590.469 209.52 589.219 210.887 588.32 212.645C587.422 214.402 586.973 216.453 586.973 218.797V257H570.508V217.801C570.508 215.535 570.098 213.602 569.277 212C568.457 210.398 567.285 209.188 565.762 208.367C564.277 207.508 562.48 207.078 560.371 207.078C558.223 207.078 556.328 207.586 554.688 208.602C553.047 209.617 551.758 211.023 550.82 212.82C549.922 214.617 549.473 216.707 549.473 219.09V257H532.363Z" fill="#4C65FF"/>
</svg>
