<svg width="1280" height="286" viewBox="0 0 1280 286" fill="none" xmlns="http://www.w3.org/2000/svg">
<path d="M656 224C470.444 228.215 97.5879 236.77 90.6174 237.276L79 279L656 268.885V224Z" fill="#CFD6FF"/>
<path d="M1049 83C929.048 86.7548 688.016 94.377 683.51 94.8276L676 132L1049 122.989V83Z" fill="#CFD6FF"/>
<path d="M81.3672 114V82.418L51.9531 29.4492H71.0547L90.0391 65.543H90.4492L109.375 29.4492H128.535L99.0625 82.418V114H81.3672ZM151.621 115.289C145.254 115.289 139.746 113.98 135.098 111.363C130.449 108.746 126.855 104.996 124.316 100.113C121.777 95.2305 120.508 89.3906 120.508 82.5938V82.4766C120.508 75.7188 121.797 69.918 124.375 65.0742C126.953 60.1914 130.566 56.4414 135.215 53.8242C139.863 51.207 145.312 49.8984 151.562 49.8984C157.852 49.8984 163.32 51.207 167.969 53.8242C172.656 56.4023 176.289 60.1328 178.867 65.0156C181.445 69.8594 182.734 75.6797 182.734 82.4766V82.5938C182.734 89.4297 181.445 95.2891 178.867 100.172C176.328 105.055 172.734 108.805 168.086 111.422C163.438 114 157.949 115.289 151.621 115.289ZM151.68 101.871C154.453 101.871 156.855 101.129 158.887 99.6445C160.957 98.1211 162.539 95.9336 163.633 93.082C164.766 90.1914 165.332 86.6953 165.332 82.5938V82.4766C165.332 78.4141 164.766 74.957 163.633 72.1055C162.5 69.2539 160.898 67.0859 158.828 65.6016C156.758 64.0781 154.336 63.3164 151.562 63.3164C148.828 63.3164 146.426 64.0781 144.355 65.6016C142.324 67.0859 140.742 69.2539 139.609 72.1055C138.477 74.957 137.91 78.4141 137.91 82.4766V82.5938C137.91 86.6953 138.457 90.1914 139.551 93.082C140.684 95.9336 142.285 98.1211 144.355 99.6445C146.426 101.129 148.867 101.871 151.68 101.871ZM212.969 115.289C208.359 115.289 204.434 114.352 201.191 112.477C197.988 110.562 195.527 107.848 193.809 104.332C192.129 100.816 191.289 96.6172 191.289 91.7344V51.1875H208.398V88.1602C208.398 92.2617 209.355 95.4453 211.27 97.7109C213.223 99.9766 216.113 101.109 219.941 101.109C221.855 101.109 223.574 100.777 225.098 100.113C226.66 99.4492 227.988 98.5117 229.082 97.3008C230.176 96.0508 231.016 94.5859 231.602 92.9062C232.188 91.1875 232.48 89.3125 232.48 87.2812V51.1875H249.59V114H232.48V103.629H232.129C231.035 106.012 229.59 108.082 227.793 109.84C226.035 111.598 223.906 112.945 221.406 113.883C218.945 114.82 216.133 115.289 212.969 115.289ZM260.723 114V51.1875H277.832V62.1445H278.184C279.121 58.2773 280.82 55.2695 283.281 53.1211C285.742 50.9727 288.809 49.8984 292.48 49.8984C293.418 49.8984 294.316 49.957 295.176 50.0742C296.035 50.1914 296.777 50.3477 297.402 50.543V65.6016C296.699 65.3281 295.801 65.1133 294.707 64.957C293.613 64.7617 292.441 64.6641 291.191 64.6641C288.379 64.6641 285.977 65.2109 283.984 66.3047C281.992 67.3984 280.469 69 279.414 71.1094C278.359 73.2188 277.832 75.7969 277.832 78.8438V114H260.723ZM367.773 115.465C361.445 115.465 355.762 114.469 350.723 112.477C345.723 110.484 341.465 107.594 337.949 103.805C334.434 99.9766 331.738 95.3477 329.863 89.918C327.988 84.4883 327.051 78.3359 327.051 71.4609V71.4023C327.051 62.3398 328.691 54.5859 331.973 48.1406C335.254 41.6562 339.902 36.6758 345.918 33.1992C351.973 29.7227 359.121 27.9844 367.363 27.9844C374.16 27.9844 380.156 29.1953 385.352 31.6172C390.547 34 394.766 37.2813 398.008 41.4609C401.289 45.6406 403.398 50.3867 404.336 55.6992L404.512 56.5195H386.758L386.523 55.9336C385.117 51.832 382.773 48.6484 379.492 46.3828C376.211 44.1172 372.188 42.9844 367.422 42.9844C362.773 42.9844 358.77 44.0977 355.41 46.3242C352.09 48.5117 349.531 51.7148 347.734 55.9336C345.977 60.1523 345.098 65.25 345.098 71.2266V71.2852C345.098 75.8555 345.625 79.957 346.68 83.5898C347.734 87.1836 349.258 90.2305 351.25 92.7305C353.281 95.2305 355.703 97.1445 358.516 98.4727C361.367 99.8008 364.551 100.465 368.066 100.465C371.895 100.465 375.273 99.7617 378.203 98.3555C381.172 96.9102 383.496 94.8984 385.176 92.3203C386.895 89.7031 387.832 86.6562 387.988 83.1797L388.047 81.9492H368.711V68.7656H405.273V78.4922C405.273 84.2344 404.414 89.3906 402.695 93.9609C401.016 98.5312 398.555 102.418 395.312 105.621C392.109 108.824 388.184 111.266 383.535 112.945C378.887 114.625 373.633 115.465 367.773 115.465ZM444.355 115.289C437.988 115.289 432.48 113.98 427.832 111.363C423.184 108.746 419.59 104.996 417.051 100.113C414.512 95.2305 413.242 89.3906 413.242 82.5938V82.4766C413.242 75.7188 414.531 69.918 417.109 65.0742C419.688 60.1914 423.301 56.4414 427.949 53.8242C432.598 51.207 438.047 49.8984 444.297 49.8984C450.586 49.8984 456.055 51.207 460.703 53.8242C465.391 56.4023 469.023 60.1328 471.602 65.0156C474.18 69.8594 475.469 75.6797 475.469 82.4766V82.5938C475.469 89.4297 474.18 95.2891 471.602 100.172C469.062 105.055 465.469 108.805 460.82 111.422C456.172 114 450.684 115.289 444.355 115.289ZM444.414 101.871C447.188 101.871 449.59 101.129 451.621 99.6445C453.691 98.1211 455.273 95.9336 456.367 93.082C457.5 90.1914 458.066 86.6953 458.066 82.5938V82.4766C458.066 78.4141 457.5 74.957 456.367 72.1055C455.234 69.2539 453.633 67.0859 451.562 65.6016C449.492 64.0781 447.07 63.3164 444.297 63.3164C441.562 63.3164 439.16 64.0781 437.09 65.6016C435.059 67.0859 433.477 69.2539 432.344 72.1055C431.211 74.957 430.645 78.4141 430.645 82.4766V82.5938C430.645 86.6953 431.191 90.1914 432.285 93.082C433.418 95.9336 435.02 98.1211 437.09 99.6445C439.16 101.129 441.602 101.871 444.414 101.871ZM486.25 87.1055V72.1641H524.219V87.1055H486.25ZM562.246 115.289C555.293 115.289 550.137 113.824 546.777 110.895C543.418 107.965 541.738 103.141 541.738 96.4219V64.0781H533.008V51.1875H541.738V35.8359H559.023V51.1875H570.508V64.0781H559.023V94.5469C559.023 97.4766 559.668 99.5273 560.957 100.699C562.285 101.832 564.238 102.398 566.816 102.398C567.598 102.398 568.281 102.379 568.867 102.34C569.453 102.262 570 102.184 570.508 102.105V114.645C569.57 114.801 568.398 114.938 566.992 115.055C565.625 115.211 564.043 115.289 562.246 115.289ZM607.949 115.289C601.582 115.289 596.074 113.98 591.426 111.363C586.777 108.746 583.184 104.996 580.645 100.113C578.105 95.2305 576.836 89.3906 576.836 82.5938V82.4766C576.836 75.7188 578.125 69.918 580.703 65.0742C583.281 60.1914 586.895 56.4414 591.543 53.8242C596.191 51.207 601.641 49.8984 607.891 49.8984C614.18 49.8984 619.648 51.207 624.297 53.8242C628.984 56.4023 632.617 60.1328 635.195 65.0156C637.773 69.8594 639.062 75.6797 639.062 82.4766V82.5938C639.062 89.4297 637.773 95.2891 635.195 100.172C632.656 105.055 629.062 108.805 624.414 111.422C619.766 114 614.277 115.289 607.949 115.289ZM608.008 101.871C610.781 101.871 613.184 101.129 615.215 99.6445C617.285 98.1211 618.867 95.9336 619.961 93.082C621.094 90.1914 621.66 86.6953 621.66 82.5938V82.4766C621.66 78.4141 621.094 74.957 619.961 72.1055C618.828 69.2539 617.227 67.0859 615.156 65.6016C613.086 64.0781 610.664 63.3164 607.891 63.3164C605.156 63.3164 602.754 64.0781 600.684 65.6016C598.652 67.0859 597.07 69.2539 595.938 72.1055C594.805 74.957 594.238 78.4141 594.238 82.4766V82.5938C594.238 86.6953 594.785 90.1914 595.879 93.082C597.012 95.9336 598.613 98.1211 600.684 99.6445C602.754 101.129 605.195 101.871 608.008 101.871ZM1088.89 114V64.0781H1080.33V51.1875H1088.89V46.1484C1088.89 42.0469 1089.57 38.668 1090.94 36.0117C1092.34 33.3555 1094.55 31.3828 1097.56 30.0938C1100.61 28.8047 1104.61 28.1602 1109.57 28.1602C1111.13 28.1602 1112.71 28.2383 1114.32 28.3945C1115.92 28.5117 1117.21 28.668 1118.18 28.8633V40.1719C1117.6 40.0547 1116.91 39.9766 1116.13 39.9375C1115.35 39.8984 1114.57 39.8789 1113.79 39.8789C1110.98 39.8789 1108.91 40.4648 1107.58 41.6367C1106.25 42.8086 1105.59 44.5273 1105.59 46.793V51.1875H1118.07V64.0781H1106V114H1088.89ZM1151.58 115.289C1145.21 115.289 1139.71 113.98 1135.06 111.363C1130.41 108.746 1126.82 104.996 1124.28 100.113C1121.74 95.2305 1120.47 89.3906 1120.47 82.5938V82.4766C1120.47 75.7188 1121.76 69.918 1124.34 65.0742C1126.91 60.1914 1130.53 56.4414 1135.18 53.8242C1139.82 51.207 1145.27 49.8984 1151.52 49.8984C1157.81 49.8984 1163.28 51.207 1167.93 53.8242C1172.62 56.4023 1176.25 60.1328 1178.83 65.0156C1181.41 69.8594 1182.7 75.6797 1182.7 82.4766V82.5938C1182.7 89.4297 1181.41 95.2891 1178.83 100.172C1176.29 105.055 1172.7 108.805 1168.05 111.422C1163.4 114 1157.91 115.289 1151.58 115.289ZM1151.64 101.871C1154.41 101.871 1156.82 101.129 1158.85 99.6445C1160.92 98.1211 1162.5 95.9336 1163.59 93.082C1164.73 90.1914 1165.29 86.6953 1165.29 82.5938V82.4766C1165.29 78.4141 1164.73 74.957 1163.59 72.1055C1162.46 69.2539 1160.86 67.0859 1158.79 65.6016C1156.72 64.0781 1154.3 63.3164 1151.52 63.3164C1148.79 63.3164 1146.39 64.0781 1144.32 65.6016C1142.29 67.0859 1140.7 69.2539 1139.57 72.1055C1138.44 74.957 1137.87 78.4141 1137.87 82.4766V82.5938C1137.87 86.6953 1138.42 90.1914 1139.51 93.082C1140.64 95.9336 1142.25 98.1211 1144.32 99.6445C1146.39 101.129 1148.83 101.871 1151.64 101.871ZM1191.54 114V51.1875H1208.65V62.1445H1209C1209.94 58.2773 1211.64 55.2695 1214.1 53.1211C1216.56 50.9727 1219.63 49.8984 1223.3 49.8984C1224.24 49.8984 1225.14 49.957 1226 50.0742C1226.86 50.1914 1227.6 50.3477 1228.22 50.543V65.6016C1227.52 65.3281 1226.62 65.1133 1225.53 64.957C1224.43 64.7617 1223.26 64.6641 1222.01 64.6641C1219.2 64.6641 1216.8 65.2109 1214.8 66.3047C1212.81 67.3984 1211.29 69 1210.23 71.1094C1209.18 73.2188 1208.65 75.7969 1208.65 78.8438V114H1191.54ZM710.898 257.996C706.719 257.996 703.047 257.195 699.883 255.594C696.719 253.953 694.238 251.707 692.441 248.855C690.684 245.965 689.805 242.684 689.805 239.012V238.895C689.805 235.066 690.762 231.805 692.676 229.109C694.59 226.375 697.363 224.227 700.996 222.664C704.629 221.102 709.043 220.145 714.238 219.793L738.73 218.27V228.934L716.816 230.34C713.535 230.535 711.035 231.316 709.316 232.684C707.598 234.012 706.738 235.789 706.738 238.016V238.133C706.738 240.438 707.617 242.254 709.375 243.582C711.133 244.871 713.496 245.516 716.465 245.516C719.004 245.516 721.27 245.027 723.262 244.051C725.293 243.035 726.875 241.668 728.008 239.949C729.18 238.191 729.766 236.219 729.766 234.031V214.988C729.766 212.215 728.887 210.027 727.129 208.426C725.371 206.785 722.812 205.965 719.453 205.965C716.25 205.965 713.711 206.629 711.836 207.957C709.961 209.285 708.809 210.965 708.379 212.996L708.262 213.523H692.617L692.676 212.82C692.988 208.953 694.258 205.516 696.484 202.508C698.75 199.5 701.875 197.156 705.859 195.477C709.883 193.758 714.648 192.898 720.156 192.898C725.586 192.898 730.293 193.777 734.277 195.535C738.262 197.254 741.348 199.695 743.535 202.859C745.762 206.023 746.875 209.715 746.875 213.934V257H729.766V247.625H729.414C728.242 249.773 726.719 251.629 724.844 253.191C723.008 254.715 720.918 255.906 718.574 256.766C716.23 257.586 713.672 257.996 710.898 257.996ZM757.949 257V194.188H775.059V204.5H775.41C777.051 200.906 779.473 198.074 782.676 196.004C785.879 193.934 789.844 192.898 794.57 192.898C801.484 192.898 806.816 194.988 810.566 199.168C814.355 203.309 816.25 209.07 816.25 216.453V257H799.141V219.969C799.141 215.867 798.164 212.703 796.211 210.477C794.297 208.211 791.426 207.078 787.598 207.078C785.059 207.078 782.852 207.664 780.977 208.836C779.102 209.969 777.637 211.57 776.582 213.641C775.566 215.711 775.059 218.133 775.059 220.906V257H757.949ZM850.352 258.289C845.078 258.289 840.527 256.98 836.699 254.363C832.871 251.746 829.922 247.996 827.852 243.113C825.82 238.23 824.805 232.391 824.805 225.594V225.535C824.805 218.699 825.84 212.859 827.91 208.016C829.98 203.133 832.91 199.402 836.699 196.824C840.527 194.207 845.078 192.898 850.352 192.898C853.32 192.898 856.055 193.387 858.555 194.363C861.055 195.34 863.242 196.746 865.117 198.582C867.031 200.379 868.555 202.547 869.688 205.086H870.039V172.449H887.148V257H870.039V246.277H869.688C868.594 248.777 867.109 250.926 865.234 252.723C863.359 254.48 861.172 255.848 858.672 256.824C856.172 257.801 853.398 258.289 850.352 258.289ZM856.094 244.109C858.867 244.109 861.309 243.367 863.418 241.883C865.527 240.359 867.168 238.211 868.34 235.438C869.512 232.664 870.098 229.383 870.098 225.594V225.535C870.098 221.746 869.492 218.484 868.281 215.75C867.109 212.977 865.469 210.848 863.359 209.363C861.289 207.84 858.867 207.078 856.094 207.078C853.242 207.078 850.781 207.82 848.711 209.305C846.641 210.789 845.039 212.918 843.906 215.691C842.773 218.426 842.207 221.707 842.207 225.535V225.594C842.207 229.383 842.754 232.664 843.848 235.438C844.98 238.211 846.582 240.359 848.652 241.883C850.762 243.367 853.242 244.109 856.094 244.109ZM923.828 257V172.449H979.844V187.039H941.523V207.312H977.676V221.141H941.523V242.41H979.844V257H923.828ZM1015.53 257L987.227 172.449H1006.8L1026.13 238.895H1026.48L1045.76 172.449H1065.39L1037.09 257H1015.53ZM1074.06 257V172.449H1094.51L1118.54 233.211H1118.89L1142.91 172.449H1163.36V257H1147.6V199.812H1139.39L1157.09 174.793L1124.28 257H1113.14L1080.33 174.793L1098.03 199.812H1089.82V257H1074.06Z" fill="#192945"/>
<path d="M714.824 114L692.441 29.4492H710.781L724.141 90.0352H724.492L740.078 29.4492H755.605L771.191 90.0352H771.543L784.961 29.4492H803.301L780.859 114H763.574L748.047 57.3398H747.695L732.109 114H714.824ZM822.227 114.996C818.047 114.996 814.375 114.195 811.211 112.594C808.047 110.953 805.566 108.707 803.77 105.855C802.012 102.965 801.133 99.6836 801.133 96.0117V95.8945C801.133 92.0664 802.09 88.8047 804.004 86.1094C805.918 83.375 808.691 81.2266 812.324 79.6641C815.957 78.1016 820.371 77.1445 825.566 76.793L850.059 75.2695V85.9336L828.145 87.3398C824.863 87.5352 822.363 88.3164 820.645 89.6836C818.926 91.0117 818.066 92.7891 818.066 95.0156V95.1328C818.066 97.4375 818.945 99.2539 820.703 100.582C822.461 101.871 824.824 102.516 827.793 102.516C830.332 102.516 832.598 102.027 834.59 101.051C836.621 100.035 838.203 98.668 839.336 96.9492C840.508 95.1914 841.094 93.2188 841.094 91.0312V71.9883C841.094 69.2148 840.215 67.0273 838.457 65.4258C836.699 63.7852 834.141 62.9648 830.781 62.9648C827.578 62.9648 825.039 63.6289 823.164 64.957C821.289 66.2852 820.137 67.9648 819.707 69.9961L819.59 70.5234H803.945L804.004 69.8203C804.316 65.9531 805.586 62.5156 807.812 59.5078C810.078 56.5 813.203 54.1562 817.188 52.4766C821.211 50.7578 825.977 49.8984 831.484 49.8984C836.914 49.8984 841.621 50.7773 845.605 52.5352C849.59 54.2539 852.676 56.6953 854.863 59.8594C857.09 63.0234 858.203 66.7148 858.203 70.9336V114H841.094V104.625H840.742C839.57 106.773 838.047 108.629 836.172 110.191C834.336 111.715 832.246 112.906 829.902 113.766C827.559 114.586 825 114.996 822.227 114.996ZM869.688 114V29.4492H886.797V114H869.688ZM898.75 114V29.4492H915.859V114H898.75ZM955.996 115.289C949.59 115.289 944.082 113.98 939.473 111.363C934.863 108.707 931.309 104.938 928.809 100.055C926.348 95.1719 925.117 89.3906 925.117 82.7109V82.6523C925.117 75.9727 926.348 70.1914 928.809 65.3086C931.309 60.3867 934.805 56.5977 939.297 53.9414C943.828 51.2461 949.16 49.8984 955.293 49.8984C961.426 49.8984 966.719 51.207 971.172 53.8242C975.664 56.4023 979.121 60.0547 981.543 64.7812C984.004 69.5078 985.234 75.0352 985.234 81.3633V86.6367H933.496V75.8555H977.148L969.004 85.9336V79.3711C969.004 75.6992 968.438 72.6328 967.305 70.1719C966.172 67.6719 964.59 65.7969 962.559 64.5469C960.566 63.2969 958.242 62.6719 955.586 62.6719C952.93 62.6719 950.566 63.3164 948.496 64.6055C946.465 65.8945 944.863 67.7891 943.691 70.2891C942.559 72.75 941.992 75.7773 941.992 79.3711V85.9922C941.992 89.4688 942.559 92.4375 943.691 94.8984C944.863 97.3594 946.523 99.2539 948.672 100.582C950.82 101.871 953.379 102.516 956.348 102.516C958.691 102.516 960.723 102.145 962.441 101.402C964.16 100.66 965.566 99.7227 966.66 98.5898C967.754 97.457 968.496 96.3047 968.887 95.1328L969.004 94.7812H984.707L984.531 95.4258C984.062 97.7305 983.145 100.055 981.777 102.398C980.41 104.742 978.555 106.891 976.211 108.844C973.906 110.797 971.074 112.359 967.715 113.531C964.395 114.703 960.488 115.289 955.996 115.289ZM1019.04 115.289C1012.09 115.289 1006.93 113.824 1003.57 110.895C1000.21 107.965 998.535 103.141 998.535 96.4219V64.0781H989.805V51.1875H998.535V35.8359H1015.82V51.1875H1027.3V64.0781H1015.82V94.5469C1015.82 97.4766 1016.46 99.5273 1017.75 100.699C1019.08 101.832 1021.04 102.398 1023.61 102.398C1024.39 102.398 1025.08 102.379 1025.66 102.34C1026.25 102.262 1026.8 102.184 1027.3 102.105V114.645C1026.37 114.801 1025.2 114.938 1023.79 115.055C1022.42 115.211 1020.84 115.289 1019.04 115.289ZM116.641 257V172.449H172.656V187.039H134.336V207.312H170.488V221.141H134.336V242.41H172.656V257H116.641ZM208.926 258.289C201.973 258.289 196.816 256.824 193.457 253.895C190.098 250.965 188.418 246.141 188.418 239.422V207.078H179.688V194.188H188.418V178.836H205.703V194.188H217.188V207.078H205.703V237.547C205.703 240.477 206.348 242.527 207.637 243.699C208.965 244.832 210.918 245.398 213.496 245.398C214.277 245.398 214.961 245.379 215.547 245.34C216.133 245.262 216.68 245.184 217.188 245.105V257.645C216.25 257.801 215.078 257.938 213.672 258.055C212.305 258.211 210.723 258.289 208.926 258.289ZM227.031 257V172.449H244.141V205.027H244.492C246.133 201.121 248.574 198.133 251.816 196.062C255.098 193.953 259.082 192.898 263.77 192.898C268.34 192.898 272.266 193.914 275.547 195.945C278.828 197.938 281.348 200.77 283.105 204.441C284.902 208.113 285.801 212.488 285.801 217.566V257H268.691V221.082C268.691 216.707 267.637 213.289 265.527 210.828C263.457 208.328 260.469 207.078 256.562 207.078C254.062 207.078 251.875 207.684 250 208.895C248.164 210.066 246.719 211.707 245.664 213.816C244.648 215.887 244.141 218.289 244.141 221.023V257H227.031ZM325.41 258.289C319.004 258.289 313.496 256.98 308.887 254.363C304.277 251.707 300.723 247.938 298.223 243.055C295.762 238.172 294.531 232.391 294.531 225.711V225.652C294.531 218.973 295.762 213.191 298.223 208.309C300.723 203.387 304.219 199.598 308.711 196.941C313.242 194.246 318.574 192.898 324.707 192.898C330.84 192.898 336.133 194.207 340.586 196.824C345.078 199.402 348.535 203.055 350.957 207.781C353.418 212.508 354.648 218.035 354.648 224.363V229.637H302.91V218.855H346.562L338.418 228.934V222.371C338.418 218.699 337.852 215.633 336.719 213.172C335.586 210.672 334.004 208.797 331.973 207.547C329.98 206.297 327.656 205.672 325 205.672C322.344 205.672 319.98 206.316 317.91 207.605C315.879 208.895 314.277 210.789 313.105 213.289C311.973 215.75 311.406 218.777 311.406 222.371V228.992C311.406 232.469 311.973 235.438 313.105 237.898C314.277 240.359 315.938 242.254 318.086 243.582C320.234 244.871 322.793 245.516 325.762 245.516C328.105 245.516 330.137 245.145 331.855 244.402C333.574 243.66 334.98 242.723 336.074 241.59C337.168 240.457 337.91 239.305 338.301 238.133L338.418 237.781H354.121L353.945 238.426C353.477 240.73 352.559 243.055 351.191 245.398C349.824 247.742 347.969 249.891 345.625 251.844C343.32 253.797 340.488 255.359 337.129 256.531C333.809 257.703 329.902 258.289 325.41 258.289ZM363.496 257V194.188H380.605V205.145H380.957C381.895 201.277 383.594 198.27 386.055 196.121C388.516 193.973 391.582 192.898 395.254 192.898C396.191 192.898 397.09 192.957 397.949 193.074C398.809 193.191 399.551 193.348 400.176 193.543V208.602C399.473 208.328 398.574 208.113 397.48 207.957C396.387 207.762 395.215 207.664 393.965 207.664C391.152 207.664 388.75 208.211 386.758 209.305C384.766 210.398 383.242 212 382.188 214.109C381.133 216.219 380.605 218.797 380.605 221.844V257H363.496ZM433.809 258.289C427.402 258.289 421.895 256.98 417.285 254.363C412.676 251.707 409.121 247.938 406.621 243.055C404.16 238.172 402.93 232.391 402.93 225.711V225.652C402.93 218.973 404.16 213.191 406.621 208.309C409.121 203.387 412.617 199.598 417.109 196.941C421.641 194.246 426.973 192.898 433.105 192.898C439.238 192.898 444.531 194.207 448.984 196.824C453.477 199.402 456.934 203.055 459.355 207.781C461.816 212.508 463.047 218.035 463.047 224.363V229.637H411.309V218.855H454.961L446.816 228.934V222.371C446.816 218.699 446.25 215.633 445.117 213.172C443.984 210.672 442.402 208.797 440.371 207.547C438.379 206.297 436.055 205.672 433.398 205.672C430.742 205.672 428.379 206.316 426.309 207.605C424.277 208.895 422.676 210.789 421.504 213.289C420.371 215.75 419.805 218.777 419.805 222.371V228.992C419.805 232.469 420.371 235.438 421.504 237.898C422.676 240.359 424.336 242.254 426.484 243.582C428.633 244.871 431.191 245.516 434.16 245.516C436.504 245.516 438.535 245.145 440.254 244.402C441.973 243.66 443.379 242.723 444.473 241.59C445.566 240.457 446.309 239.305 446.699 238.133L446.816 237.781H462.52L462.344 238.426C461.875 240.73 460.957 243.055 459.59 245.398C458.223 247.742 456.367 249.891 454.023 251.844C451.719 253.797 448.887 255.359 445.527 256.531C442.207 257.703 438.301 258.289 433.809 258.289ZM493.281 258.289C488.672 258.289 484.746 257.352 481.504 255.477C478.301 253.562 475.84 250.848 474.121 247.332C472.441 243.816 471.602 239.617 471.602 234.734V194.188H488.711V231.16C488.711 235.262 489.668 238.445 491.582 240.711C493.535 242.977 496.426 244.109 500.254 244.109C502.168 244.109 503.887 243.777 505.41 243.113C506.973 242.449 508.301 241.512 509.395 240.301C510.488 239.051 511.328 237.586 511.914 235.906C512.5 234.188 512.793 232.312 512.793 230.281V194.188H529.902V257H512.793V246.629H512.441C511.348 249.012 509.902 251.082 508.105 252.84C506.348 254.598 504.219 255.945 501.719 256.883C499.258 257.82 496.445 258.289 493.281 258.289ZM541.035 257V194.188H558.145V204.734H558.496C559.785 201.141 561.973 198.27 565.059 196.121C568.184 193.973 571.855 192.898 576.074 192.898C579.004 192.898 581.641 193.406 583.984 194.422C586.328 195.438 588.301 196.902 589.902 198.816C591.543 200.73 592.695 203.074 593.359 205.848H593.711C594.648 203.191 596.055 200.906 597.93 198.992C599.844 197.039 602.09 195.535 604.668 194.48C607.285 193.426 610.137 192.898 613.223 192.898C617.324 192.898 620.918 193.777 624.004 195.535C627.09 197.293 629.492 199.754 631.211 202.918C632.93 206.082 633.789 209.793 633.789 214.051V257H616.68V218.328C616.68 215.906 616.27 213.855 615.449 212.176C614.668 210.496 613.516 209.227 611.992 208.367C610.508 207.508 608.652 207.078 606.426 207.078C604.277 207.078 602.383 207.566 600.742 208.543C599.141 209.52 597.891 210.887 596.992 212.645C596.094 214.402 595.645 216.453 595.645 218.797V257H579.18V217.801C579.18 215.535 578.77 213.602 577.949 212C577.129 210.398 575.957 209.188 574.434 208.367C572.949 207.508 571.152 207.078 569.043 207.078C566.895 207.078 565 207.586 563.359 208.602C561.719 209.617 560.43 211.023 559.492 212.82C558.594 214.617 558.145 216.707 558.145 219.09V257H541.035Z" fill="#4C65FF"/>
</svg>
