<svg width="360" height="320" viewBox="0 0 360 320" fill="none" xmlns="http://www.w3.org/2000/svg">
<path d="M0.25 16C0.25 12.2217 0.250531 9.41312 0.540664 7.25514C0.82983 5.10435 1.40254 3.6373 2.51992 2.51992C3.6373 1.40254 5.10435 0.82983 7.25514 0.540664C9.41312 0.250531 12.2217 0.25 16 0.25H344C347.778 0.25 350.587 0.250531 352.745 0.540664C354.896 0.82983 356.363 1.40254 357.48 2.51992C358.597 3.6373 359.17 5.10435 359.459 7.25514C359.749 9.41312 359.75 12.2217 359.75 16V304C359.75 307.778 359.749 310.587 359.459 312.745C359.17 314.896 358.597 316.363 357.48 317.48C356.363 318.597 354.896 319.17 352.745 319.459C350.587 319.749 347.778 319.75 344 319.75H16C12.2217 319.75 9.41312 319.749 7.25514 319.459C5.10435 319.17 3.6373 318.597 2.51992 317.48C1.40254 316.363 0.82983 314.896 0.540664 312.745C0.250531 310.587 0.25 307.778 0.25 304V16Z" fill="white"/>
<path d="M0.25 16C0.25 12.2217 0.250531 9.41312 0.540664 7.25514C0.82983 5.10435 1.40254 3.6373 2.51992 2.51992C3.6373 1.40254 5.10435 0.82983 7.25514 0.540664C9.41312 0.250531 12.2217 0.25 16 0.25H344C347.778 0.25 350.587 0.250531 352.745 0.540664C354.896 0.82983 356.363 1.40254 357.48 2.51992C358.597 3.6373 359.17 5.10435 359.459 7.25514C359.749 9.41312 359.75 12.2217 359.75 16V304C359.75 307.778 359.749 310.587 359.459 312.745C359.17 314.896 358.597 316.363 357.48 317.48C356.363 318.597 354.896 319.17 352.745 319.459C350.587 319.749 347.778 319.75 344 319.75H16C12.2217 319.75 9.41312 319.749 7.25514 319.459C5.10435 319.17 3.6373 318.597 2.51992 317.48C1.40254 316.363 0.82983 314.896 0.540664 312.745C0.250531 310.587 0.25 307.778 0.25 304V16Z" stroke="#EAEAEC" stroke-width="0.5"/>
<circle cx="36" cy="36" r="16" fill="#F2F4F7"/>
<rect x="60" y="20" width="104" height="20" rx="4" fill="#F2F4F7"/>
<rect x="60" y="44" width="76" height="16" rx="4" fill="#F2F4F7"/>
<rect x="20" y="80" width="266" height="20" rx="4" fill="#F2F4F7"/>
<rect x="20" y="112" width="221" height="20" rx="4" fill="#F2F4F7"/>
<rect x="20" y="144" width="186" height="20" rx="4" fill="#F2F4F7"/>
<rect x="20" y="176" width="247" height="20" rx="4" fill="#F2F4F7"/>
<rect x="20" y="208" width="212" height="20" rx="4" fill="#F2F4F7"/>
<rect x="20" y="240" width="108" height="20" rx="4" fill="#F2F4F7"/>
</svg>
