<svg width="12" height="12" viewBox="0 0 12 12" fill="none" xmlns="http://www.w3.org/2000/svg">
    <g clip-path="url(#clip0_1804_9175)">
        <path
            d="M6.0001 11.3996C7.49125 11.3996 8.84125 10.7952 9.81847 9.81798C10.7957 8.84077 11.4001 7.49077 11.4001 5.99961C11.4001 4.50845 10.7957 3.15845 9.81847 2.18123C8.84125 1.20403 7.49125 0.599609 6.0001 0.599609C4.50894 0.599609 3.15894 1.20403 2.18172 2.18123C1.20451 3.15845 0.600098 4.50845 0.600098 5.99961C0.600098 7.49077 1.20451 8.84077 2.18172 9.81798C3.15894 10.7952 4.50894 11.3996 6.0001 11.3996Z"
            stroke="#BABEC5" stroke-width="0.75" stroke-linejoin="round" />
        <path d="M3.50049 5.99935L5.33382 7.83268L9.00049 4.16602" stroke="#BABEC5" stroke-width="0.75"
            stroke-linecap="round" stroke-linejoin="round" />
    </g>
    <defs>
        <clipPath id="clip0_1804_9175">
            <rect width="12" height="12" fill="white" />
        </clipPath>
    </defs>
</svg>