<svg width="33" height="32" viewBox="0 0 33 32" fill="none" xmlns="http://www.w3.org/2000/svg">
<path d="M27.1666 17.9993V3.99935C27.1666 3.26297 26.5697 2.66602 25.8333 2.66602H7.16659C6.43021 2.66602 5.83325 3.26297 5.83325 3.99935V27.9993C5.83325 28.7357 6.43021 29.3327 7.16659 29.3327H14.4999" stroke="#BABEC5" stroke-width="1.5" stroke-linecap="round" stroke-linejoin="round"/>
<path d="M11.8333 8H21.1666" stroke="#BABEC5" stroke-width="1.5" stroke-linecap="round" stroke-linejoin="round"/>
<path d="M11.8333 13.334H21.1666" stroke="#BABEC5" stroke-width="1.5" stroke-linecap="round" stroke-linejoin="round"/>
<path d="M11.8333 18.666H15.8333" stroke="#BABEC5" stroke-width="1.5" stroke-linecap="round" stroke-linejoin="round"/>
<path d="M26.5 29.334L24.1903 27.0243M24.1903 27.0243C24.7936 26.4211 25.1667 25.5878 25.1667 24.6673C25.1667 22.8264 23.6743 21.334 21.8333 21.334C19.9924 21.334 18.5 22.8264 18.5 24.6673C18.5 26.5083 19.9924 28.0007 21.8333 28.0007C22.7538 28.0007 23.5871 27.6276 24.1903 27.0243Z" stroke="#BABEC5" stroke-width="1.5" stroke-linecap="round" stroke-linejoin="round"/>
</svg>
