<svg width="1360" height="390" viewBox="0 0 1360 390" fill="none" xmlns="http://www.w3.org/2000/svg">
<path d="M449.581 198.066H454.472C459.583 198.066 463.504 196.905 466.236 194.582C468.968 192.26 470.334 188.921 470.334 184.567C470.334 180.212 468.968 176.874 466.236 174.552C463.504 172.229 459.583 171.068 454.472 171.068H449.581V198.066ZM506.552 258.594H474.299L449.581 216.5V258.594H423.673V149.15H463.989C469.541 149.15 474.388 150.07 478.529 151.908C482.671 153.65 486.064 156.069 488.707 159.166C491.439 162.262 493.466 165.843 494.788 169.907C496.198 173.971 496.903 178.325 496.903 182.97C496.903 191.292 495.052 198.066 491.351 203.291C487.738 208.42 482.363 211.904 475.225 213.742L506.552 258.594Z" fill="white"/>
<path d="M527.869 221.145C527.869 223.564 528.265 225.838 529.058 227.967C529.852 229.999 530.909 231.789 532.231 233.337C533.641 234.886 535.271 236.095 537.122 236.966C539.06 237.837 541.131 238.273 543.334 238.273C545.449 238.273 547.432 237.837 549.283 236.966C551.221 236.095 552.852 234.886 554.173 233.337C555.583 231.789 556.685 229.999 557.478 227.967C558.359 225.935 558.8 223.758 558.8 221.435C558.8 219.113 558.359 216.935 557.478 214.903C556.685 212.774 555.583 210.936 554.173 209.388C552.852 207.839 551.221 206.63 549.283 205.759C547.432 204.888 545.449 204.453 543.334 204.453C541.131 204.453 539.06 204.888 537.122 205.759C535.271 206.63 533.641 207.839 532.231 209.388C530.909 210.936 529.852 212.726 529.058 214.758C528.265 216.694 527.869 218.822 527.869 221.145ZM558.007 184.132H582.064V258.594H558.007V250.32C552.896 257.384 545.978 260.916 537.254 260.916C532.319 260.916 527.781 259.948 523.639 258.013C519.497 255.981 515.884 253.175 512.8 249.594C509.716 246.014 507.292 241.805 505.53 236.966C503.856 232.128 503.018 226.854 503.018 221.145C503.018 215.823 503.856 210.791 505.53 206.049C507.204 201.211 509.539 197.001 512.536 193.421C515.532 189.841 519.101 187.035 523.242 185.002C527.384 182.874 531.967 181.809 536.99 181.809C545.449 181.809 552.455 185.051 558.007 191.534V184.132Z" fill="white"/>
<path d="M644.477 221.58C644.477 219.258 644.081 217.081 643.288 215.048C642.495 212.92 641.393 211.081 639.983 209.533C638.573 207.985 636.943 206.775 635.092 205.904C633.242 204.936 631.215 204.453 629.012 204.453C626.897 204.453 624.914 204.888 623.064 205.759C621.213 206.63 619.583 207.839 618.173 209.388C616.851 210.936 615.75 212.774 614.868 214.903C614.075 216.935 613.679 219.113 613.679 221.435C613.679 223.758 614.075 225.935 614.868 227.967C615.661 229.999 616.763 231.789 618.173 233.337C619.583 234.789 621.213 235.999 623.064 236.966C625.002 237.837 627.029 238.273 629.144 238.273C631.259 238.273 633.242 237.837 635.092 236.966C636.943 236.095 638.529 234.886 639.851 233.337C641.261 231.789 642.362 229.999 643.156 227.967C644.037 225.935 644.477 223.806 644.477 221.58ZM614.34 138.119V191.534C619.979 185.051 627.029 181.809 635.489 181.809C640.512 181.809 645.094 182.874 649.236 185.002C653.466 187.035 657.035 189.841 659.943 193.421C662.939 196.905 665.274 201.066 666.949 205.904C668.623 210.646 669.46 215.726 669.46 221.145C669.46 226.661 668.579 231.838 666.816 236.676C665.142 241.514 662.763 245.724 659.678 249.304C656.594 252.884 652.937 255.739 648.707 257.868C644.566 259.9 640.071 260.916 635.225 260.916C626.412 260.916 619.451 257.384 614.34 250.32V258.594H590.414V138.119H614.34Z" fill="white"/>
<path d="M729.23 221.58C729.23 219.258 728.833 217.081 728.04 215.048C727.247 212.92 726.145 211.081 724.735 209.533C723.325 207.985 721.695 206.775 719.845 205.904C717.994 204.936 715.967 204.453 713.764 204.453C711.649 204.453 709.667 204.888 707.816 205.759C705.965 206.63 704.335 207.839 702.925 209.388C701.603 210.936 700.502 212.774 699.621 214.903C698.828 216.935 698.431 219.113 698.431 221.435C698.431 223.758 698.828 225.935 699.621 227.967C700.414 229.999 701.515 231.789 702.925 233.337C704.335 234.789 705.965 235.999 707.816 236.966C709.755 237.837 711.781 238.273 713.896 238.273C716.011 238.273 717.994 237.837 719.845 236.966C721.695 236.095 723.281 234.886 724.603 233.337C726.013 231.789 727.115 229.999 727.908 227.967C728.789 225.935 729.23 223.806 729.23 221.58ZM699.092 138.119V191.534C704.732 185.051 711.781 181.809 720.241 181.809C725.264 181.809 729.847 182.874 733.988 185.002C738.218 187.035 741.787 189.841 744.695 193.421C747.691 196.905 750.027 201.066 751.701 205.904C753.375 210.646 754.212 215.726 754.212 221.145C754.212 226.661 753.331 231.838 751.569 236.676C749.894 241.514 747.515 245.724 744.431 249.304C741.347 252.884 737.689 255.739 733.46 257.868C729.318 259.9 724.824 260.916 719.977 260.916C711.165 260.916 704.203 257.384 699.092 250.32V258.594H675.167V138.119H699.092Z" fill="white"/>
<path d="M780.891 248.433L748.109 184.132H775.868L793.977 222.306L811.557 184.132H839.051L784.592 295.752H757.759L780.891 248.433Z" fill="white"/>
<path d="M895.272 149.15L912.456 219.838L933.605 149.15H954.226L975.375 219.838L992.559 149.15H1019.66L989.915 258.594H963.478L943.915 195.163L924.352 258.594H897.915L868.174 149.15H895.272Z" fill="white"/>
<path d="M1037.67 221.145C1037.67 223.564 1038.07 225.838 1038.86 227.967C1039.66 229.999 1040.71 231.789 1042.04 233.337C1043.45 234.886 1045.08 236.095 1046.93 236.966C1048.87 237.837 1050.94 238.273 1053.14 238.273C1055.25 238.273 1057.24 237.837 1059.09 236.966C1061.03 236.095 1062.66 234.886 1063.98 233.337C1065.39 231.789 1066.49 229.999 1067.28 227.967C1068.16 225.935 1068.6 223.758 1068.6 221.435C1068.6 219.113 1068.16 216.935 1067.28 214.903C1066.49 212.774 1065.39 210.936 1063.98 209.388C1062.66 207.839 1061.03 206.63 1059.09 205.759C1057.24 204.888 1055.25 204.453 1053.14 204.453C1050.94 204.453 1048.87 204.888 1046.93 205.759C1045.08 206.63 1043.45 207.839 1042.04 209.388C1040.71 210.936 1039.66 212.726 1038.86 214.758C1038.07 216.694 1037.67 218.822 1037.67 221.145ZM1067.81 184.132H1091.87V258.594H1067.81V250.32C1062.7 257.384 1055.78 260.916 1047.06 260.916C1042.12 260.916 1037.59 259.948 1033.44 258.013C1029.3 255.981 1025.69 253.175 1022.6 249.594C1019.52 246.014 1017.1 241.805 1015.33 236.966C1013.66 232.128 1012.82 226.854 1012.82 221.145C1012.82 215.823 1013.66 210.791 1015.33 206.049C1017.01 201.211 1019.34 197.001 1022.34 193.421C1025.34 189.841 1028.91 187.035 1033.05 185.002C1037.19 182.874 1041.77 181.809 1046.79 181.809C1055.25 181.809 1062.26 185.051 1067.81 191.534V184.132Z" fill="white"/>
<path d="M1124.14 138.119V258.594H1100.22V138.119H1124.14Z" fill="white"/>
<path d="M1156.49 138.119V258.594H1132.56V138.119H1156.49Z" fill="white"/>
<path d="M1214.48 210.549C1213.68 206.872 1212.05 203.92 1209.58 201.695C1207.12 199.469 1204.12 198.356 1200.6 198.356C1196.89 198.356 1193.85 199.421 1191.48 201.55C1189.18 203.678 1187.73 206.678 1187.11 210.549H1214.48ZM1186.45 225.79C1186.45 237.111 1191.3 242.772 1200.99 242.772C1206.19 242.772 1210.11 240.45 1212.76 235.805H1235.89C1231.22 252.836 1219.54 261.351 1200.86 261.351C1195.13 261.351 1189.89 260.432 1185.13 258.594C1180.37 256.658 1176.27 253.949 1172.84 250.465C1169.49 246.982 1166.89 242.821 1165.04 237.982C1163.19 233.144 1162.26 227.725 1162.26 221.725C1162.26 215.532 1163.14 209.968 1164.91 205.033C1166.67 200.001 1169.18 195.744 1172.44 192.26C1175.7 188.776 1179.62 186.115 1184.21 184.277C1188.88 182.341 1194.12 181.374 1199.94 181.374C1205.66 181.374 1210.82 182.341 1215.4 184.277C1219.98 186.115 1223.86 188.825 1227.03 192.405C1230.21 195.985 1232.63 200.388 1234.3 205.614C1235.98 210.742 1236.81 216.548 1236.81 223.032V225.79H1186.45Z" fill="white"/>
<path d="M1270.16 206.049V258.594H1246.24V206.049H1238.31V184.132H1246.24V161.778H1270.16V184.132H1283.78V206.049H1270.16Z" fill="white"/>
<path d="M357.147 213.349C368.643 187.562 311.811 115.517 257.517 85.5024C223.294 62.2501 187.633 65.4446 180.411 75.6541C164.561 98.0599 232.895 117.045 278.596 139.2C268.772 143.484 259.514 151.173 254.07 161.005C237.033 142.328 199.637 126.244 155.758 139.2C126.189 147.931 101.614 168.513 92.1163 199.601C89.8085 198.571 87.2533 197.999 84.565 197.999C74.2851 197.999 65.9515 206.366 65.9515 216.689C65.9515 227.011 74.2851 235.379 84.565 235.379C86.4705 235.379 92.4282 234.095 92.4282 234.095L187.633 234.788C149.559 295.437 119.469 304.303 119.469 314.811C119.469 325.318 148.259 322.471 159.07 318.554C210.819 299.805 266.4 241.372 275.938 224.551C315.991 229.569 349.651 230.162 357.147 213.349Z" fill="url(#paint0_linear_1757_603)"/>
<path fill-rule="evenodd" clip-rule="evenodd" d="M278.591 139.203C278.594 139.204 278.596 139.205 278.599 139.207C280.717 138.369 280.375 135.227 279.793 132.76C278.456 127.09 255.389 104.219 233.728 93.9743C204.213 80.016 182.479 80.7347 179.266 87.1674C185.278 99.541 213.152 111.158 242.263 123.291C254.683 128.468 267.328 133.738 278.597 139.201C278.595 139.202 278.593 139.202 278.591 139.203Z" fill="url(#paint1_linear_1757_603)"/>
<path fill-rule="evenodd" clip-rule="evenodd" d="M241.136 263.735C235.167 261.445 228.424 259.343 220.758 257.436C228.932 242.75 230.647 221.009 222.927 207.263C212.094 187.972 198.494 177.705 166.892 177.705C149.511 177.705 102.714 183.583 101.883 222.809C101.796 226.925 101.881 230.697 102.177 234.166L187.633 234.787C176.112 253.139 165.323 266.75 155.876 277.099C167.218 280.017 176.578 282.467 185.17 284.716C193.323 286.85 200.786 288.804 208.597 290.805C220.379 282.185 231.456 272.786 241.136 263.735Z" fill="url(#paint2_linear_1757_603)"/>
<path d="M90.9757 230.135C94.4667 259.933 111.332 271.611 145.796 275.067C180.259 278.523 200.028 276.205 226.346 278.609C248.327 280.617 267.954 291.865 275.235 287.978C281.788 284.48 278.122 271.842 269.354 263.734C257.988 253.224 242.258 245.916 214.579 243.323C220.095 228.158 218.55 206.895 209.983 195.327C197.596 178.6 174.733 171.037 145.796 174.342C115.563 177.794 86.5946 192.739 90.9757 230.135Z" fill="url(#paint3_linear_1757_603)"/>
<defs>
<linearGradient id="paint0_linear_1757_603" x1="152.315" y1="190.513" x2="354.794" y2="247.697" gradientUnits="userSpaceOnUse">
<stop stop-color="white"/>
<stop offset="1" stop-color="white"/>
</linearGradient>
<linearGradient id="paint1_linear_1757_603" x1="320.596" y1="186.65" x2="173.987" y2="40.2846" gradientUnits="userSpaceOnUse">
<stop stop-color="#8697FF"/>
<stop offset="1" stop-color="#8697FF" stop-opacity="0"/>
</linearGradient>
<linearGradient id="paint2_linear_1757_603" x1="245.198" y1="268.855" x2="104.655" y2="188.383" gradientUnits="userSpaceOnUse">
<stop stop-color="#8697FF"/>
<stop offset="1" stop-color="#8697FF" stop-opacity="0"/>
</linearGradient>
<linearGradient id="paint3_linear_1757_603" x1="164.396" y1="188.997" x2="259.68" y2="309.57" gradientUnits="userSpaceOnUse">
<stop stop-color="white"/>
<stop offset="0.983895" stop-color="#D1D8FF"/>
</linearGradient>
</defs>
</svg>
