<svg width="423" height="120" viewBox="0 0 423 120" fill="none" xmlns="http://www.w3.org/2000/svg">
<g opacity="0.1">
<mask id="mask0_41242_13919" style="mask-type:alpha" maskUnits="userSpaceOnUse" x="0" y="0" width="423" height="120">
<rect width="423" height="120" fill="#D9D9D9"/>
</mask>
<g mask="url(#mask0_41242_13919)">
<path d="M290.81 86.9719C297.12 71.5521 265.926 28.4717 236.124 10.5236C217.339 -3.38059 197.765 -1.47038 193.8 4.63461C185.1 18.0326 222.609 29.3854 247.694 42.6332C242.302 45.1951 237.22 49.7925 234.232 55.672C224.88 44.5037 204.354 34.8861 180.268 42.6332C164.038 47.8538 150.549 60.1616 145.335 78.751C144.069 78.1352 142.666 77.793 141.191 77.793C135.548 77.793 130.974 82.7967 130.974 88.9691C130.974 95.1415 135.548 100.145 141.191 100.145C142.236 100.145 145.507 99.3778 145.507 99.3778L197.765 99.792C176.865 136.059 160.349 141.36 160.349 147.643C160.349 153.926 176.152 152.224 182.086 149.882C210.491 138.67 241 103.729 246.235 93.6707C268.22 96.6711 286.696 97.026 290.81 86.9719Z" fill="url(#paint0_linear_41242_13919)"/>
<path fill-rule="evenodd" clip-rule="evenodd" d="M247.693 42.6416C248.854 42.1396 248.666 40.2621 248.347 38.7876C247.613 35.397 234.952 21.7205 223.062 15.5947C206.864 7.24928 194.935 7.67766 193.169 11.5227C196.464 18.9234 211.767 25.8716 227.75 33.1284C234.567 36.2236 241.508 39.375 247.693 42.6416Z" fill="url(#paint1_linear_41242_13919)"/>
<path fill-rule="evenodd" clip-rule="evenodd" d="M227.123 117.108C223.847 115.738 220.146 114.481 215.938 113.341C220.425 104.56 221.366 91.559 217.129 83.3394C211.182 71.8039 203.718 65.664 186.371 65.6641C176.831 65.6641 151.144 69.1793 150.688 92.6353C150.64 95.0951 150.687 97.3496 150.849 99.423L197.758 99.7948C191.434 110.77 185.51 118.91 180.325 125.099C186.55 126.844 191.688 128.309 196.404 129.654C200.879 130.93 204.975 132.098 209.262 133.294C215.729 128.14 221.81 122.52 227.123 117.108Z" fill="url(#paint2_linear_41242_13919)"/>
<path d="M144.706 97.0045C146.622 114.823 155.88 121.806 174.797 123.872C193.714 125.939 204.565 124.553 219.011 125.99C231.077 127.191 241.85 133.917 245.846 131.593C249.443 129.501 247.431 121.944 242.618 117.095C236.379 110.811 227.745 106.441 212.552 104.89C215.58 95.8222 214.731 83.1075 210.029 76.1899C203.23 66.1878 190.68 61.6657 174.797 63.6414C158.202 65.7057 142.301 74.6426 144.706 97.0045Z" fill="url(#paint3_linear_41242_13919)"/>
</g>
</g>
<defs>
<linearGradient id="paint0_linear_41242_13919" x1="178.378" y1="73.3169" x2="290.827" y2="102.468" gradientUnits="userSpaceOnUse">
<stop stop-color="white"/>
<stop offset="1" stop-color="white"/>
</linearGradient>
<linearGradient id="paint1_linear_41242_13919" x1="270.744" y1="71.0111" x2="183.41" y2="-9.02288" gradientUnits="userSpaceOnUse">
<stop stop-color="#8697FF"/>
<stop offset="1" stop-color="#8697FF" stop-opacity="0"/>
</linearGradient>
<linearGradient id="paint2_linear_41242_13919" x1="229.353" y1="120.169" x2="149.09" y2="77.984" gradientUnits="userSpaceOnUse">
<stop stop-color="#8697FF"/>
<stop offset="1" stop-color="#8697FF" stop-opacity="0"/>
</linearGradient>
<linearGradient id="paint3_linear_41242_13919" x1="185.006" y1="72.4049" x2="242.919" y2="139.674" gradientUnits="userSpaceOnUse">
<stop stop-color="white"/>
<stop offset="0.983895" stop-color="#D1D8FF"/>
</linearGradient>
</defs>
</svg>
