<svg width="512" height="512" viewBox="0 0 512 512" fill="none" xmlns="http://www.w3.org/2000/svg">
<path d="M400.96 222.806C412.465 197.018 355.59 124.972 301.254 94.9561C267.005 71.7031 231.317 74.8977 224.089 85.1075C208.227 107.514 276.614 126.5 322.35 148.655C312.518 152.94 303.253 160.628 297.805 170.461C280.755 151.783 243.331 135.699 199.418 148.655C169.826 157.386 145.233 177.969 135.728 209.057C133.418 208.028 130.861 207.455 128.171 207.455C117.883 207.455 109.543 215.823 109.543 226.146C109.543 236.468 117.883 244.836 128.171 244.836C130.077 244.836 136.04 243.553 136.04 243.553L231.317 244.246C193.214 304.897 163.101 313.763 163.101 324.271C163.101 334.778 191.914 331.931 202.732 328.014C254.521 309.265 310.145 250.83 319.69 234.009C359.773 239.027 393.459 239.62 400.96 222.806Z" fill="url(#paint0_linear_1758_623)"/>
<path fill-rule="evenodd" clip-rule="evenodd" d="M322.345 148.658C322.348 148.659 322.35 148.66 322.353 148.661C324.473 147.824 324.13 144.682 323.548 142.215C322.21 136.545 299.125 113.672 277.448 103.428C247.909 89.4683 226.157 90.188 222.944 96.622C228.961 108.996 256.855 120.613 285.989 132.746C298.418 137.923 311.073 143.193 322.35 148.656C322.349 148.657 322.347 148.657 322.345 148.658Z" fill="url(#paint1_linear_1758_623)"/>
<path fill-rule="evenodd" clip-rule="evenodd" d="M284.861 273.194C278.887 270.903 272.139 268.802 264.467 266.895C272.647 252.208 274.364 230.467 266.638 216.72C255.796 197.429 242.186 187.161 210.56 187.161C193.166 187.161 146.333 193.039 145.502 232.267C145.414 236.382 145.499 240.155 145.796 243.623L231.317 244.245C219.788 262.597 208.99 276.208 199.536 286.558C210.887 289.476 220.253 291.926 228.852 294.175C237.012 296.31 244.48 298.263 252.297 300.264C264.089 291.644 275.174 282.245 284.861 273.194Z" fill="url(#paint2_linear_1758_623)"/>
<path d="M134.586 239.593C138.08 269.392 154.959 281.07 189.448 284.526C223.938 287.982 243.721 285.664 270.06 288.068C292.058 290.076 311.7 301.324 318.986 297.437C325.544 293.939 321.875 281.301 313.101 273.192C301.726 262.682 285.984 255.374 258.284 252.781C263.805 237.616 262.258 216.352 253.684 204.783C241.288 188.056 218.407 180.493 189.448 183.797C159.193 187.25 130.202 202.195 134.586 239.593Z" fill="url(#paint3_linear_1758_623)"/>
<path d="M85.3599 393.398H87.4249C89.5829 393.398 91.2387 392.907 92.3921 391.927C93.5455 390.946 94.1223 389.537 94.1223 387.698C94.1223 385.86 93.5455 384.45 92.3921 383.469C91.2387 382.489 89.5829 381.999 87.4249 381.999H85.3599V393.398ZM109.415 418.954H95.7966L85.3599 401.181V418.954H74.4209V372.744H91.4433C93.7874 372.744 95.8338 373.132 97.5825 373.909C99.3313 374.644 100.764 375.666 101.88 376.973C103.033 378.281 103.889 379.792 104.447 381.508C105.043 383.224 105.34 385.063 105.34 387.024C105.34 390.538 104.559 393.398 102.996 395.604C101.471 397.769 99.2011 399.24 96.1873 400.017L109.415 418.954Z" fill="#8697FF"/>
<path d="M118.415 403.142C118.415 404.164 118.582 405.124 118.917 406.023C119.252 406.881 119.699 407.637 120.257 408.29C120.852 408.944 121.54 409.455 122.322 409.822C123.14 410.19 124.015 410.374 124.945 410.374C125.838 410.374 126.675 410.19 127.456 409.822C128.275 409.455 128.963 408.944 129.521 408.29C130.117 407.637 130.582 406.881 130.917 406.023C131.289 405.165 131.475 404.245 131.475 403.265C131.475 402.284 131.289 401.365 130.917 400.507C130.582 399.608 130.117 398.832 129.521 398.178C128.963 397.524 128.275 397.014 127.456 396.646C126.675 396.278 125.838 396.094 124.945 396.094C124.015 396.094 123.14 396.278 122.322 396.646C121.54 397.014 120.852 397.524 120.257 398.178C119.699 398.832 119.252 399.588 118.917 400.446C118.582 401.263 118.415 402.162 118.415 403.142ZM131.14 387.514H141.298V418.954H131.14V415.461C128.982 418.443 126.061 419.935 122.378 419.935C120.294 419.935 118.378 419.526 116.629 418.709C114.88 417.851 113.355 416.666 112.052 415.154C110.75 413.643 109.727 411.865 108.983 409.822C108.276 407.78 107.922 405.553 107.922 403.142C107.922 400.895 108.276 398.771 108.983 396.768C109.69 394.726 110.676 392.948 111.941 391.437C113.206 389.925 114.713 388.74 116.462 387.882C118.21 386.983 120.145 386.534 122.266 386.534C125.838 386.534 128.796 387.902 131.14 390.64V387.514Z" fill="#8697FF"/>
<path d="M167.65 403.326C167.65 402.346 167.483 401.426 167.148 400.568C166.813 399.669 166.348 398.893 165.752 398.239C165.157 397.586 164.469 397.075 163.687 396.707C162.906 396.299 162.05 396.094 161.12 396.094C160.227 396.094 159.39 396.278 158.609 396.646C157.827 397.014 157.139 397.524 156.544 398.178C155.985 398.832 155.52 399.608 155.148 400.507C154.813 401.365 154.646 402.284 154.646 403.265C154.646 404.245 154.813 405.165 155.148 406.023C155.483 406.881 155.948 407.637 156.544 408.29C157.139 408.903 157.827 409.414 158.609 409.822C159.427 410.19 160.283 410.374 161.176 410.374C162.069 410.374 162.906 410.19 163.687 409.822C164.469 409.455 165.139 408.944 165.697 408.29C166.292 407.637 166.757 406.881 167.092 406.023C167.464 405.165 167.65 404.266 167.65 403.326ZM154.925 368.087V390.64C157.306 387.902 160.283 386.534 163.855 386.534C165.976 386.534 167.91 386.983 169.659 387.882C171.445 388.74 172.952 389.925 174.18 391.437C175.445 392.907 176.431 394.664 177.138 396.707C177.845 398.709 178.198 400.854 178.198 403.142C178.198 405.471 177.826 407.657 177.082 409.7C176.375 411.743 175.371 413.52 174.068 415.032C172.766 416.543 171.222 417.749 169.436 418.648C167.687 419.506 165.79 419.935 163.743 419.935C160.022 419.935 157.083 418.443 154.925 415.461V418.954H144.823V368.087H154.925Z" fill="#8697FF"/>
<path d="M203.435 403.326C203.435 402.346 203.267 401.426 202.932 400.568C202.597 399.669 202.132 398.893 201.537 398.239C200.942 397.586 200.253 397.075 199.472 396.707C198.691 396.299 197.835 396.094 196.905 396.094C196.012 396.094 195.175 396.278 194.393 396.646C193.612 397.014 192.923 397.524 192.328 398.178C191.77 398.832 191.305 399.608 190.933 400.507C190.598 401.365 190.431 402.284 190.431 403.265C190.431 404.245 190.598 405.165 190.933 406.023C191.268 406.881 191.733 407.637 192.328 408.29C192.923 408.903 193.612 409.414 194.393 409.822C195.212 410.19 196.068 410.374 196.96 410.374C197.853 410.374 198.691 410.19 199.472 409.822C200.253 409.455 200.923 408.944 201.481 408.29C202.077 407.637 202.542 406.881 202.876 406.023C203.249 405.165 203.435 404.266 203.435 403.326ZM190.71 368.087V390.64C193.091 387.902 196.068 386.534 199.639 386.534C201.76 386.534 203.695 386.983 205.444 387.882C207.23 388.74 208.737 389.925 209.964 391.437C211.23 392.907 212.216 394.664 212.922 396.707C213.629 398.709 213.983 400.854 213.983 403.142C213.983 405.471 213.611 407.657 212.867 409.7C212.16 411.743 211.155 413.52 209.853 415.032C208.551 416.543 207.007 417.749 205.221 418.648C203.472 419.506 201.574 419.935 199.528 419.935C195.807 419.935 192.868 418.443 190.71 415.461V418.954H180.608V368.087H190.71Z" fill="#8697FF"/>
<path d="M225.247 414.664L211.406 387.514H223.126L230.772 403.633L238.195 387.514H249.804L226.81 434.643H215.48L225.247 414.664Z" fill="#8697FF"/>
<path d="M273.542 372.744L280.797 402.591L289.727 372.744H298.434L307.363 402.591L314.619 372.744H326.06L313.503 418.954H302.34L294.08 392.172L285.82 418.954H274.658L262.1 372.744H273.542Z" fill="#8697FF"/>
<path d="M333.667 403.142C333.667 404.164 333.835 405.124 334.17 406.023C334.505 406.881 334.951 407.637 335.509 408.29C336.104 408.944 336.793 409.455 337.574 409.822C338.393 410.19 339.267 410.374 340.197 410.374C341.09 410.374 341.927 410.19 342.709 409.822C343.527 409.455 344.216 408.944 344.774 408.29C345.369 407.637 345.834 406.881 346.169 406.023C346.541 405.165 346.727 404.245 346.727 403.265C346.727 402.284 346.541 401.365 346.169 400.507C345.834 399.608 345.369 398.832 344.774 398.178C344.216 397.524 343.527 397.014 342.709 396.646C341.927 396.278 341.09 396.094 340.197 396.094C339.267 396.094 338.393 396.278 337.574 396.646C336.793 397.014 336.104 397.524 335.509 398.178C334.951 398.832 334.505 399.588 334.17 400.446C333.835 401.263 333.667 402.162 333.667 403.142ZM346.392 387.514H356.55V418.954H346.392V415.461C344.234 418.443 341.314 419.935 337.63 419.935C335.546 419.935 333.63 419.526 331.881 418.709C330.133 417.851 328.607 416.666 327.305 415.154C326.003 413.643 324.979 411.865 324.235 409.822C323.528 407.78 323.175 405.553 323.175 403.142C323.175 400.895 323.528 398.771 324.235 396.768C324.942 394.726 325.928 392.948 327.193 391.437C328.458 389.925 329.965 388.74 331.714 387.882C333.463 386.983 335.398 386.534 337.518 386.534C341.09 386.534 344.048 387.902 346.392 390.64V387.514Z" fill="#8697FF"/>
<path d="M370.178 368.087V418.954H360.076V368.087H370.178Z" fill="#8697FF"/>
<path d="M383.834 368.087V418.954H373.732V368.087H383.834Z" fill="#8697FF"/>
<path d="M408.318 398.668C407.983 397.116 407.294 395.87 406.252 394.93C405.211 393.99 403.946 393.52 402.457 393.52C400.895 393.52 399.611 393.97 398.606 394.869C397.639 395.767 397.025 397.034 396.765 398.668H408.318ZM396.486 405.103C396.486 409.884 398.532 412.274 402.625 412.274C404.82 412.274 406.476 411.293 407.592 409.332H417.359C415.387 416.523 410.457 420.118 402.569 420.118C400.15 420.118 397.937 419.73 395.927 418.954C393.918 418.137 392.188 416.993 390.737 415.522C389.323 414.051 388.225 412.294 387.444 410.251C386.663 408.209 386.272 405.921 386.272 403.387C386.272 400.773 386.644 398.423 387.388 396.339C388.132 394.215 389.193 392.417 390.57 390.946C391.946 389.475 393.602 388.352 395.537 387.576C397.509 386.758 399.723 386.35 402.178 386.35C404.597 386.35 406.773 386.758 408.708 387.576C410.643 388.352 412.28 389.496 413.62 391.008C414.959 392.519 415.982 394.378 416.689 396.585C417.396 398.75 417.75 401.202 417.75 403.939V405.103H396.486Z" fill="#8697FF"/>
<path d="M431.831 396.768V418.954H421.729V396.768H418.38V387.514H421.729V378.076H431.831V387.514H437.579V396.768H431.831Z" fill="#8697FF"/>
<defs>
<linearGradient id="paint0_linear_1758_623" x1="195.972" y1="199.97" x2="398.584" y2="257.233" gradientUnits="userSpaceOnUse">
<stop stop-color="#8697FF"/>
<stop offset="1" stop-color="#ABB7FF"/>
</linearGradient>
<linearGradient id="paint1_linear_1758_623" x1="364.383" y1="196.107" x2="217.769" y2="49.628" gradientUnits="userSpaceOnUse">
<stop stop-color="#8697FF"/>
<stop offset="1" stop-color="#5156D8" stop-opacity="0"/>
</linearGradient>
<linearGradient id="paint2_linear_1758_623" x1="288.926" y1="278.313" x2="148.327" y2="197.75" gradientUnits="userSpaceOnUse">
<stop stop-color="#465EED"/>
<stop offset="1" stop-color="#8697FF" stop-opacity="0"/>
</linearGradient>
<linearGradient id="paint3_linear_1758_623" x1="208.062" y1="198.453" x2="303.333" y2="319.098" gradientUnits="userSpaceOnUse">
<stop stop-color="#8898FF"/>
<stop offset="0.983895" stop-color="#6277F1"/>
</linearGradient>
</defs>
</svg>
