<svg width="512" height="512" viewBox="0 0 512 512" fill="none" xmlns="http://www.w3.org/2000/svg">
<path d="M438.47 279.1C452.951 246.64 381.361 155.953 312.967 118.171C269.856 88.9021 224.935 92.9232 215.837 105.775C195.871 133.978 281.951 157.877 339.52 185.764C327.145 191.157 315.483 200.835 308.626 213.212C287.163 189.702 240.057 169.456 184.782 185.764C147.534 196.754 116.578 222.662 104.613 261.794C101.706 260.498 98.4875 259.778 95.1011 259.778C82.1515 259.778 71.6538 270.311 71.6538 283.304C71.6538 296.297 82.1515 306.831 95.1011 306.831C97.5014 306.831 105.006 305.215 105.006 305.215L224.935 306.087C176.973 382.431 139.069 393.591 139.069 406.817C139.069 420.043 175.336 416.459 188.954 411.529C254.142 387.929 324.158 314.375 336.172 293.201C386.626 299.517 429.028 300.265 438.47 279.1Z" fill="url(#paint0_linear_1758_668)"/>
<path fill-rule="evenodd" clip-rule="evenodd" d="M339.515 185.768C339.518 185.77 339.521 185.771 339.524 185.772C342.192 184.718 341.761 180.763 341.028 177.658C339.344 170.521 310.287 141.731 283 128.836C245.821 111.265 218.443 112.17 214.396 120.267C221.969 135.843 257.081 150.466 293.752 165.739C309.398 172.255 325.327 178.889 339.522 185.765C339.52 185.766 339.517 185.767 339.515 185.768Z" fill="url(#paint1_linear_1758_668)"/>
<path fill-rule="evenodd" clip-rule="evenodd" d="M292.332 342.525C284.813 339.642 276.319 336.996 266.662 334.596C276.959 316.11 279.119 288.743 269.395 271.44C255.748 247.157 238.617 234.232 198.808 234.233C176.913 234.233 117.963 241.632 116.916 291.009C116.806 296.189 116.914 300.937 117.287 305.304L224.935 306.086C210.423 329.187 196.831 346.319 184.931 359.347C199.218 363.02 211.008 366.104 221.833 368.935C232.103 371.622 241.504 374.081 251.343 376.6C266.185 365.749 280.139 353.918 292.332 342.525Z" fill="url(#paint2_linear_1758_668)"/>
<path d="M103.177 300.23C107.574 337.739 128.82 352.439 172.233 356.789C215.646 361.14 240.548 358.221 273.702 361.248C301.391 363.775 326.115 377.933 335.287 373.041C343.541 368.638 338.923 352.729 327.878 342.523C313.561 329.293 293.745 320.095 258.879 316.831C265.828 297.742 263.881 270.977 253.089 256.414C237.486 235.359 208.684 225.84 172.233 229.999C134.149 234.344 97.6577 253.157 103.177 300.23Z" fill="url(#paint3_linear_1758_668)"/>
<defs>
<linearGradient id="paint0_linear_1758_668" x1="180.445" y1="250.355" x2="435.479" y2="322.435" gradientUnits="userSpaceOnUse">
<stop stop-color="white"/>
<stop offset="1" stop-color="white"/>
</linearGradient>
<linearGradient id="paint1_linear_1758_668" x1="392.428" y1="245.493" x2="207.881" y2="61.1171" gradientUnits="userSpaceOnUse">
<stop stop-color="#8697FF"/>
<stop offset="1" stop-color="#8697FF" stop-opacity="0"/>
</linearGradient>
<linearGradient id="paint2_linear_1758_668" x1="297.449" y1="348.969" x2="120.472" y2="247.562" gradientUnits="userSpaceOnUse">
<stop stop-color="#8697FF"/>
<stop offset="1" stop-color="#8697FF" stop-opacity="0"/>
</linearGradient>
<linearGradient id="paint3_linear_1758_668" x1="195.663" y1="248.447" x2="315.584" y2="400.306" gradientUnits="userSpaceOnUse">
<stop stop-color="white"/>
<stop offset="0.983895" stop-color="#D1D8FF"/>
</linearGradient>
</defs>
</svg>
