<svg width="32" height="32" viewBox="0 0 32 32" fill="none" xmlns="http://www.w3.org/2000/svg">
<rect width="32" height="32" rx="16" fill="white"/>
<path d="M15.9078 27.3198V27.1682C15.9078 24.8433 15.9078 22.5185 15.8826 20.1936C15.8826 19.9914 15.832 20.042 16.0342 19.9156C16.5649 19.6124 16.9692 19.3597 17.5251 19.0312L21.8211 16.5294C21.8716 16.5042 21.8969 16.4789 21.9727 16.4536V23.5545C21.9979 23.7062 21.8969 23.8578 21.7705 23.9336C19.8247 25.0455 18.0305 26.1068 16.0595 27.244C16.0089 27.2693 15.9584 27.2945 15.9078 27.3198Z" fill="#00E3CC"/>
<path d="M22.4784 23.5041V23.3272L22.4531 16.9591C22.4531 16.7317 22.4531 16.5043 22.4531 16.3021C22.4531 16.2263 22.4784 16.1505 22.5542 16.1C23.3123 15.6704 24.0704 15.2155 24.8285 14.7859L27.8609 13.017C28.0631 12.9159 28.24 12.8148 28.4422 12.7137C28.4927 12.6885 28.5432 12.6885 28.5938 12.6885C28.5938 12.7643 28.5938 12.7896 28.5938 12.8401V19.8147C28.5938 20.0168 28.619 19.9663 28.4422 20.0926L22.8827 23.3272C22.7816 23.3778 22.6806 23.4283 22.6047 23.5041C22.5795 23.4536 22.5542 23.4789 22.4784 23.5041Z" fill="#00E3CC"/>
<path d="M9.43887 16.0241V22.9734C9.46414 23.125 9.36306 23.2514 9.23671 23.3019C9.00928 23.403 8.75658 23.403 8.50388 23.3272C8.35225 23.2766 8.20063 23.2008 8.04901 23.125L6.93712 22.468C6.86131 22.4175 6.7855 22.3669 6.70969 22.3164L5.24402 21.4825C5.01659 21.3561 4.78916 21.2298 4.56172 21.0781C4.28375 20.9012 4.05632 20.6991 3.85416 20.4211C3.70254 20.219 3.57619 20.0168 3.4751 19.7894C3.42456 19.6883 3.37402 19.5114 3.37402 19.3092V13.3455C3.37402 13.2191 3.42456 13.1938 3.52564 13.2444C3.70254 13.3455 3.87943 13.4213 4.03105 13.5223L6.30537 14.8364L7.9732 15.7967C7.99847 15.7967 8.02374 15.8219 8.02374 15.8472C8.32698 16.0241 8.70604 16.1252 9.05982 16.0746C9.21144 16.0746 9.31252 16.0494 9.43887 16.0241Z" fill="#FBE204"/>
<path d="M15.3773 27.3198C15.2257 27.244 15.0488 27.1681 14.9477 27.1176C14.2907 26.7386 13.7853 26.4353 13.1283 26.0563L11.4857 25.096C11.2077 24.9444 10.9297 24.7422 10.677 24.54C10.3738 24.2873 10.1716 23.9336 10.0453 23.5545C10.0453 23.504 10.02 23.4534 10.02 23.4029V16.8579L10.2475 17.0348C10.5254 17.237 10.8034 17.4139 11.0814 17.5655C12.4965 18.3994 13.8358 19.1322 15.251 19.9409C15.3268 19.9661 15.352 20.042 15.352 20.1178V20.2694V27.1176L15.3773 27.3198Z" fill="#FBE204"/>
<path d="M9.36328 8.21562L9.64125 8.064L11.1069 7.20482C11.1575 7.17955 11.2333 7.17955 11.3091 7.23009L13.8361 8.67049C14.0383 8.79684 14.2657 8.92319 14.4679 9.02427C14.5184 9.04954 14.5942 9.07481 14.6448 9.07481C14.6953 9.07481 14.7458 9.04954 14.7711 8.97373C14.7964 8.92319 14.7711 8.87265 14.7458 8.84738C14.6953 8.82211 14.6448 8.77157 14.6195 8.7463L12.0167 7.23009L11.6376 7.02793C11.6123 7.00266 11.5871 6.97739 11.5365 6.95212C11.5618 6.92685 11.6123 6.90157 11.6376 6.8763L13.4571 5.81496C13.5329 5.76442 13.6339 5.76442 13.7098 5.81496C14.6953 6.39617 15.6808 6.95212 16.6916 7.53333C16.7422 7.5586 16.818 7.60914 16.8685 7.63441C16.9443 7.65968 17.0454 7.63441 17.0707 7.5586C17.1212 7.48279 17.0707 7.38171 16.9949 7.35644L16.2115 6.90157L14.0383 5.66334C14.013 5.63807 13.9625 5.63807 13.9625 5.56225L14.2152 5.41063C14.6448 5.15793 15.0491 4.9305 15.4787 4.6778C15.5545 4.62726 15.6556 4.62726 15.7314 4.6778C16.1862 4.95577 16.6411 5.20847 17.096 5.46117L17.7783 5.84023L18.8143 6.44671L19.5724 6.8763L20.8359 7.60914C20.9623 7.68495 21.0886 7.76076 21.215 7.83657C21.2655 7.88711 21.3161 7.93765 21.3666 7.98819C21.5182 8.16508 21.493 8.41779 21.3161 8.54414C21.2908 8.56941 21.2655 8.56941 21.2403 8.59468C20.3558 9.10008 19.4714 9.63076 18.5616 10.1362C17.9804 10.4899 17.3739 10.8185 16.7927 11.1722C16.4642 11.3744 16.0599 11.4755 15.6556 11.4502C15.3776 11.4502 15.1249 11.4249 14.8469 11.3491C14.7711 11.3239 14.6953 11.2986 14.6448 11.2733L10.7531 9.02427C10.3488 8.79684 9.91922 8.54414 9.5149 8.29144C9.43909 8.26617 9.38855 8.2409 9.36328 8.21562Z" fill="#FF2199"/>
<path d="M6.9117 14.5584C6.93697 14.5332 6.98751 14.5079 7.01278 14.4826L9.48926 13.0675L9.61561 12.9917C9.71669 12.9412 9.71669 12.8906 9.66615 12.7895C9.64088 12.7137 9.56507 12.6632 9.48926 12.7137C9.46399 12.739 9.41345 12.739 9.38818 12.7643L7.1644 14.0278L6.55792 14.3816L5.9767 14.053L5.52184 13.7751L4.13198 12.9664L3.87928 12.8148C3.65184 12.6885 3.50022 12.461 3.44968 12.2336C3.37387 12.0062 3.44968 11.7535 3.62657 11.6018C3.72765 11.526 3.80347 11.4502 3.90455 11.3997C4.18252 11.2228 4.46049 11.0712 4.73846 10.9195C5.16806 10.6668 5.57238 10.4141 6.00197 10.1867C6.25467 10.0351 6.53265 9.88346 6.78535 9.73184L7.69507 9.20117C7.8467 9.12536 7.99832 9.04955 8.12467 8.94847C8.32683 8.82212 8.57953 8.77157 8.80696 8.79684C9.08494 8.82212 9.36291 8.89793 9.59034 9.04955C9.81777 9.20117 10.0705 9.32752 10.2979 9.45387L10.4243 9.52968L10.3232 9.60549L7.72035 11.1217L7.6698 11.1722C7.54345 11.2481 7.51818 11.3491 7.56872 11.4249C7.61926 11.5008 7.72035 11.526 7.8467 11.4502L8.32683 11.1722L10.7275 9.80765C10.8033 9.75711 10.9044 9.75711 10.9549 9.80765C11.9405 10.3889 12.9513 10.9448 13.9368 11.526C14.0379 11.5766 14.139 11.6524 14.2653 11.7029C14.518 11.8545 14.6191 12.1831 14.4675 12.461C14.4422 12.4863 14.4422 12.5116 14.4169 12.5368C14.3664 12.5874 14.3159 12.6379 14.2653 12.6632C13.1029 13.3455 11.9405 14.0025 10.778 14.6848C10.4243 14.887 10.0957 15.0891 9.74196 15.2913C9.56507 15.3924 9.36291 15.4682 9.13548 15.4934C8.70588 15.5693 8.27629 15.4682 7.92251 15.2155C7.61926 14.988 7.26548 14.7606 6.9117 14.5584Z" fill="#FF2199"/>
<path d="M25.4348 13.8002C25.359 13.8508 25.3337 13.8761 25.2832 13.9013L23.5901 14.8616C23.1605 15.1143 22.7562 15.3417 22.3266 15.5944C22.2508 15.645 22.175 15.645 22.0991 15.5944C21.6443 15.3165 21.1894 15.0638 20.7346 14.8111L20.0523 14.3815L18.7635 13.6234C18.5361 13.497 18.2834 13.3707 18.0559 13.219C17.8285 13.0674 17.5252 12.9411 17.2725 12.7642C16.9946 12.6126 16.8682 12.284 16.944 11.9808C16.9693 11.8292 17.0704 11.7028 17.1967 11.6017C18.157 11.0458 19.1173 10.4899 20.0523 9.95918L21.7454 8.97364C21.9223 8.87256 22.1244 8.82202 22.3266 8.82202H22.5287C22.5793 8.82202 22.6298 8.84729 22.6804 8.84729H22.7309C22.9078 8.87256 23.0847 8.9231 23.211 9.02418L24.6514 9.8581L25.1568 10.1613C25.3843 10.313 25.4348 10.6415 25.2832 10.8689C25.2579 10.9194 25.2074 10.97 25.1568 10.9953C24.4493 11.3996 23.767 11.8039 23.0847 12.2082C23.0341 12.2335 23.0089 12.2588 22.9583 12.284C22.9078 12.3346 22.8825 12.3851 22.9331 12.4609C22.9583 12.5115 23.0089 12.562 23.0847 12.562C23.1352 12.562 23.1858 12.5367 23.2363 12.5115L24.3987 11.8292C24.8031 11.5765 25.2074 11.349 25.637 11.1216C25.7886 11.0458 25.9655 10.9953 26.1171 10.9953C26.1929 10.9953 26.294 10.9953 26.3698 10.9953C26.4962 10.9953 26.5972 11.0205 26.6983 11.0711L27.8608 11.7281L28.3156 11.9808C28.4167 12.0313 28.4167 12.0566 28.3156 12.1324L27.0774 12.84C26.6731 13.0674 26.2687 13.3201 25.8644 13.5475C25.7886 13.5981 25.6875 13.5981 25.637 13.5475C25.4348 13.4212 25.2327 13.3201 25.0558 13.1938L24.98 13.1432C24.9041 13.118 24.8283 13.1432 24.7778 13.1938C24.7272 13.2696 24.7525 13.3454 24.8283 13.3959L24.9547 13.4717L25.4348 13.8002ZM22.2002 11.627C22.175 11.6017 22.175 11.5765 22.1497 11.5259C22.1244 11.5007 22.0992 11.4754 22.0739 11.4754L20.7598 10.7173C20.7346 10.692 20.7093 10.692 20.684 10.6667C20.6082 10.6415 20.5324 10.7173 20.5071 10.7931C20.5071 10.8436 20.5071 10.8942 20.5577 10.9194C20.5829 10.9447 20.6082 10.9447 20.6335 10.97L21.5937 11.5259C21.7201 11.6017 21.8717 11.6776 21.9981 11.7786C22.0739 11.8039 22.175 11.7786 22.2002 11.7028C22.2002 11.7028 22.2002 11.6776 22.2002 11.627Z" fill="#FF2199"/>
<path d="M19.8251 17.0602L19.6229 17.1866L17.854 18.1974C17.8035 18.2479 17.7277 18.2479 17.6518 18.1974C17.2728 17.9699 16.8685 17.7425 16.4894 17.5151L14.7205 16.5043C14.6952 16.479 14.6447 16.479 14.6194 16.4537C14.5436 16.4032 14.4425 16.4285 14.4173 16.5043C14.3667 16.5801 14.392 16.6812 14.4678 16.7064C14.771 16.8833 15.049 17.0349 15.3523 17.2118L17.2728 18.349C17.3233 18.3743 17.3486 18.3995 17.3991 18.4248C17.3739 18.4501 17.3233 18.4753 17.2728 18.5006L16.1356 19.1576C15.984 19.2587 15.8071 19.3345 15.6555 19.4356C15.605 19.4609 15.5291 19.4609 15.4786 19.4356C14.114 18.6522 12.7494 17.8689 11.3848 17.0855L10.5762 16.6053C10.4246 16.5295 10.2982 16.4285 10.1971 16.3021C10.1213 16.2263 10.0708 16.0999 10.0708 15.9989C10.0455 15.8472 10.1466 15.7209 10.273 15.6703C10.6267 15.4682 10.9805 15.266 11.3343 15.0386L14.7458 13.0928C14.9227 12.9917 15.1248 12.9412 15.327 12.9159C15.4028 12.8906 15.4786 12.8906 15.5544 12.8906C15.8324 12.8906 16.1104 12.9412 16.3631 12.9917C16.6916 13.0928 16.9695 13.2191 17.2728 13.396C17.6266 13.5982 17.9804 13.8004 18.3089 14.0025L20.6085 15.3418L21.5687 15.8978C21.594 15.9231 21.6445 15.9483 21.6951 15.9736L21.594 16.0494C21.1644 16.3021 20.7095 16.5548 20.2799 16.8075C20.2041 16.8581 20.103 16.8581 20.0272 16.8075C19.0417 16.2263 18.0309 15.6451 17.0201 15.0639L16.9443 15.0133C16.8685 14.9881 16.7927 15.0133 16.7421 15.0639C16.6916 15.1397 16.7421 15.2408 16.7927 15.266C16.8937 15.3418 16.9948 15.3924 17.1212 15.4682L19.6987 16.9591L19.8251 17.0602Z" fill="#FF2199"/>
<path d="M15.1753 11.8546C15.4027 11.8546 15.6302 11.8546 15.8323 11.8799C16.0345 11.9052 16.2619 11.8293 16.4641 11.8293C16.4388 12.0568 16.4388 12.2842 16.5146 12.4864H16.3377C16.1356 12.4611 15.9334 12.4611 15.706 12.4611C15.5796 12.4611 15.4785 12.4611 15.3522 12.4864H15.1753C15.1753 12.3853 15.1753 12.2842 15.1753 12.1831C15.2006 12.0568 15.1753 11.9557 15.1753 11.8546Z" fill="#FF2199"/>
</svg>
