<svg width="33" height="32" viewBox="0 0 33 32" fill="none" xmlns="http://www.w3.org/2000/svg">
<rect x="1" width="32" height="32" rx="16" fill="url(#paint0_linear_2228_1432)"/>
<g filter="url(#filter0_f_2228_1432)">
<circle cx="16.1998" cy="16.0001" r="13.92" fill="url(#paint1_linear_2228_1432)"/>
</g>
<path d="M15.0706 7.99668C16.0306 8.01428 16.9906 8.00628 17.9506 8.06068C18.5186 8.09268 18.7026 7.66708 18.8706 7.31988C19.245 6.54708 19.8306 6.33908 20.6306 6.41428C21.6386 6.50868 22.6498 6.55828 23.6594 6.62868C24.749 6.70548 25.1954 7.39668 24.8162 8.43988C24.5618 9.13908 24.3122 9.84148 24.0162 10.5199C23.8194 10.9615 23.885 11.3199 24.1234 11.7151C24.9666 13.1247 25.773 14.5583 26.621 15.9663C27.0482 16.6767 27.3378 17.3871 27.069 18.2271C27.0102 18.4317 26.969 18.641 26.9458 18.8527C26.5746 21.4703 26.0018 21.8927 23.6754 22.1391C23.0658 22.2031 22.7554 22.6047 22.3746 23.0319C20.909 24.6751 18.9714 25.5375 16.8978 26.1327C16.3394 26.2927 15.7778 26.4175 15.2066 26.5583C14.3778 26.7439 13.541 26.9007 12.7234 27.1215C11.0962 27.5615 10.3938 26.7327 10.0242 25.5135C9.49142 23.8079 8.92662 22.0975 8.67062 20.3263C8.39382 18.4399 8.19062 16.5311 9.00342 14.6991C9.04546 14.6061 9.06826 14.5056 9.07046 14.4036C9.07266 14.3016 9.05421 14.2002 9.01622 14.1055C8.88182 13.7311 8.80662 13.3439 8.67062 12.9711C8.05622 11.3871 8.33462 10.6319 9.66902 9.53908C9.70902 9.50548 9.77462 9.50068 9.80502 9.46228C10.9554 8.00628 12.5362 7.89428 14.2066 8.03188C14.4951 8.03905 14.7837 8.02729 15.0706 7.99668ZM14.4146 9.80468C13.4642 9.79028 12.5346 9.48468 11.597 10.1359C10.1986 11.0959 9.88982 12.2015 10.765 13.6463C10.7778 13.6687 10.781 13.6975 10.7922 13.7215C11.0802 14.2927 11.0722 14.8159 10.6594 15.3535C10.3858 15.7119 10.2946 16.1679 10.2434 16.6335C9.90902 19.6463 10.9794 22.3935 11.8002 25.1983C11.8738 25.4511 12.0146 25.5503 12.2706 25.4687C13.6034 25.0415 15.0146 24.9167 16.333 24.4319C17.957 24.1119 19.3506 23.3119 20.6626 22.3519C20.9929 22.1205 21.2465 21.7957 21.3906 21.4191C21.5506 20.9567 21.8706 20.7487 22.3186 20.6703C22.6834 20.6063 23.0466 20.5263 23.4114 20.4559C24.909 20.1631 24.8738 20.1551 25.2466 18.6431C25.4498 17.8175 25.373 17.1263 24.8786 16.4031C24.2082 15.4287 23.6674 14.3647 23.0242 13.3631C22.2802 12.2095 21.7938 11.0863 22.4514 9.67348C23.0802 8.32148 22.9986 8.32788 21.509 8.19988C20.7458 8.13428 20.189 8.23668 19.8354 8.99988C19.5314 9.64948 18.9474 9.83188 18.2354 9.81428C16.9666 9.77908 15.6898 9.80308 14.413 9.80468H14.4146Z" fill="#FDFDFE"/>
<defs>
<filter id="filter0_f_2228_1432" x="0.599785" y="0.400078" width="31.1998" height="31.2001" filterUnits="userSpaceOnUse" color-interpolation-filters="sRGB">
<feFlood flood-opacity="0" result="BackgroundImageFix"/>
<feBlend mode="normal" in="SourceGraphic" in2="BackgroundImageFix" result="shape"/>
<feGaussianBlur stdDeviation="0.84" result="effect1_foregroundBlur_2228_1432"/>
</filter>
<linearGradient id="paint0_linear_2228_1432" x1="1" y1="13.92" x2="33" y2="13.92" gradientUnits="userSpaceOnUse">
<stop stop-color="#B179FF"/>
<stop offset="1" stop-color="#6D4AB7"/>
</linearGradient>
<linearGradient id="paint1_linear_2228_1432" x1="30.1198" y1="16.0001" x2="3.06278" y2="16.0001" gradientUnits="userSpaceOnUse">
<stop stop-color="#36277A"/>
<stop offset="1" stop-color="#39297E" stop-opacity="0"/>
</linearGradient>
</defs>
</svg>
