<svg width="234" height="139" viewBox="0 0 234 139" fill="none" xmlns="http://www.w3.org/2000/svg">
<path d="M22.3556 0.34375H211.417C218.831 0.34375 222.538 3.92976 222.538 11.1018V118.682C222.538 125.854 218.831 129.44 211.417 129.44H22.3556C14.9415 129.44 11.2344 125.854 11.2344 118.682V11.1018C11.2344 3.92976 14.9415 0.34375 22.3556 0.34375V0.34375Z" fill="#707280"/>
<rect x="14" y="3" width="206" height="123" rx="6" fill="#F5F6FA"/>
<path d="M5.56627 133.945H228.217C231.928 133.945 233.783 134.689 233.783 136.176C233.783 137.662 231.928 138.406 228.217 138.406H5.56627C1.85542 138.406 0 137.662 0 136.176C0 134.689 1.85542 133.945 5.56627 133.945Z" fill="#707280"/>
<g clip-path="url(#clip0_32501_47122)">
<path d="M77.5535 63.0175C78.8266 60.1638 72.5327 52.1911 66.5198 48.8695C62.7297 46.2962 58.7805 46.6498 57.9806 47.7796C56.2253 50.2591 63.7931 52.3601 68.8542 54.8119C67.7663 55.286 66.741 56.1368 66.1381 57.2249C64.2513 55.1581 60.1099 53.3782 55.2504 54.8119C51.9757 55.7781 49.2542 58.0558 48.2023 61.4961C47.9468 61.3821 47.6638 61.3188 47.3661 61.3188C46.2276 61.3188 45.3047 62.2448 45.3047 63.3871C45.3047 64.5295 46.2276 65.4555 47.3661 65.4555C47.5771 65.4555 48.2369 65.3135 48.2369 65.3135L58.7805 65.3901C54.5639 72.1019 51.2315 73.083 51.2315 74.2458C51.2315 75.4086 54.42 75.0935 55.6172 74.6601C61.3482 72.5852 67.5036 66.1188 68.5599 64.2573C72.9956 64.8125 76.7233 64.8782 77.5535 63.0175Z" fill="url(#paint0_linear_32501_47122)"/>
<path fill-rule="evenodd" clip-rule="evenodd" d="M68.8527 54.8093C68.8534 54.8096 68.8542 54.81 68.8549 54.8103C69.0895 54.7175 69.0515 54.3699 68.9871 54.0969C68.8391 53.4694 66.2845 50.9383 63.8856 49.8046C60.6179 48.2604 58.2114 48.3394 57.8545 49.0507C58.5208 50.4199 61.6073 51.7053 64.8309 53.0478C66.2063 53.6207 67.6067 54.2039 68.8547 54.8084C68.854 54.8087 68.8534 54.809 68.8527 54.8093Z" fill="url(#paint1_linear_32501_47122)"/>
<path fill-rule="evenodd" clip-rule="evenodd" d="M64.7035 68.5967C64.0425 68.3432 63.2958 68.1107 62.4469 67.8997C63.3521 66.2745 63.542 63.8685 62.6871 62.3473C61.4873 60.2125 59.9812 59.0762 56.4815 59.0762C54.5566 59.0762 49.3739 59.7267 49.2819 64.0677C49.2723 64.5225 49.2816 64.9394 49.3144 65.3228L58.78 65.3916C57.5035 67.4235 56.3081 68.9301 55.2616 70.0757C56.5176 70.3986 57.5541 70.6697 58.5057 70.9186C59.4084 71.1547 60.2348 71.3709 61.0996 71.5923C62.4046 70.6385 63.6314 69.5984 64.7035 68.5967Z" fill="url(#paint2_linear_32501_47122)"/>
<path d="M48.0768 64.8745C48.4634 68.1721 50.3312 69.4644 54.1479 69.8469C57.9646 70.2293 60.1539 69.9728 63.0686 70.2388C65.5029 70.4611 67.6765 71.7058 68.4828 71.2756C69.2085 70.8885 68.8025 69.4899 67.8315 68.5926C66.5728 67.4296 64.8307 66.6209 61.7654 66.3339C62.3763 64.6557 62.2051 62.3026 61.2564 61.0224C59.8846 59.1713 57.3526 58.3344 54.1479 58.7001C50.7998 59.0821 47.5916 60.736 48.0768 64.8745Z" fill="url(#paint3_linear_32501_47122)"/>
<path d="M87.7518 61.3213H88.293C88.8586 61.3213 89.2926 61.1928 89.5949 60.9358C89.8972 60.6788 90.0483 60.3094 90.0483 59.8275C90.0483 59.3456 89.8972 58.9762 89.5949 58.7192C89.2926 58.4622 88.8586 58.3337 88.293 58.3337H87.7518V61.3213ZM94.0563 68.0194H90.4872L87.7518 63.3613V68.0194H84.8848V55.9083H89.3462C89.9606 55.9083 90.4969 56.01 90.9552 56.2134C91.4136 56.4062 91.789 56.6739 92.0816 57.0166C92.3839 57.3592 92.6082 57.7555 92.7544 58.2052C92.9105 58.655 92.9885 59.1368 92.9885 59.6508C92.9885 60.5718 92.7837 61.3213 92.3741 61.8996C91.9743 62.4671 91.3794 62.8526 90.5896 63.0561L94.0563 68.0194Z" fill="#8697FF"/>
<path d="M96.4152 63.8753C96.4152 64.143 96.4591 64.3947 96.5469 64.6302C96.6347 64.8551 96.7517 65.0532 96.898 65.2246C97.054 65.3959 97.2344 65.5297 97.4392 65.6261C97.6537 65.7225 97.8829 65.7707 98.1267 65.7707C98.3607 65.7707 98.5801 65.7225 98.7849 65.6261C98.9995 65.5297 99.1799 65.3959 99.3261 65.2246C99.4822 65.0532 99.6041 64.8551 99.6918 64.6302C99.7894 64.4054 99.8381 64.1644 99.8381 63.9074C99.8381 63.6504 99.7894 63.4095 99.6918 63.1846C99.6041 62.949 99.4822 62.7456 99.3261 62.5742C99.1799 62.4029 98.9995 62.269 98.7849 62.1727C98.5801 62.0763 98.3607 62.0281 98.1267 62.0281C97.8829 62.0281 97.6537 62.0763 97.4392 62.1727C97.2344 62.269 97.054 62.4029 96.898 62.5742C96.7517 62.7456 96.6347 62.9437 96.5469 63.1685C96.4591 63.3827 96.4152 63.6183 96.4152 63.8753ZM99.7504 59.7793H102.413V68.0194H99.7504V67.1039C99.1847 67.8856 98.4192 68.2764 97.4538 68.2764C96.9077 68.2764 96.4055 68.1694 95.9472 67.9552C95.4888 67.7303 95.089 67.4198 94.7477 67.0236C94.4064 66.6273 94.1382 66.1615 93.9432 65.6261C93.7579 65.0907 93.6652 64.5071 93.6652 63.8753C93.6652 63.2863 93.7579 62.7295 93.9432 62.2048C94.1285 61.6694 94.3869 61.2036 94.7184 60.8073C95.05 60.4111 95.4449 60.1006 95.9033 59.8757C96.3616 59.6401 96.8687 59.5223 97.4246 59.5223C98.3607 59.5223 99.136 59.8811 99.7504 60.5985V59.7793Z" fill="#8697FF"/>
<path d="M109.319 63.9235C109.319 63.6665 109.275 63.4255 109.188 63.2007C109.1 62.9651 108.978 62.7616 108.822 62.5903C108.666 62.419 108.486 62.2851 108.281 62.1887C108.076 62.0816 107.852 62.0281 107.608 62.0281C107.374 62.0281 107.154 62.0763 106.95 62.1727C106.745 62.269 106.564 62.4029 106.408 62.5742C106.262 62.7456 106.14 62.949 106.043 63.1846C105.955 63.4095 105.911 63.6504 105.911 63.9074C105.911 64.1644 105.955 64.4054 106.043 64.6302C106.131 64.8551 106.252 65.0532 106.408 65.2246C106.564 65.3852 106.745 65.519 106.95 65.6261C107.164 65.7225 107.389 65.7707 107.623 65.7707C107.857 65.7707 108.076 65.7225 108.281 65.6261C108.486 65.5297 108.661 65.3959 108.807 65.2246C108.963 65.0532 109.085 64.8551 109.173 64.6302C109.271 64.4054 109.319 64.1698 109.319 63.9235ZM105.984 54.6875V60.5985C106.608 59.8811 107.389 59.5223 108.325 59.5223C108.881 59.5223 109.388 59.6401 109.846 59.8757C110.314 60.1006 110.709 60.4111 111.031 60.8073C111.362 61.1928 111.621 61.6533 111.806 62.1887C111.991 62.7134 112.084 63.2756 112.084 63.8753C112.084 64.4857 111.986 65.0586 111.791 65.594C111.606 66.1294 111.343 66.5952 111.002 66.9914C110.66 67.3876 110.256 67.7035 109.787 67.9391C109.329 68.164 108.832 68.2764 108.295 68.2764C107.32 68.2764 106.55 67.8856 105.984 67.1039V68.0194H103.337V54.6875H105.984Z" fill="#8697FF"/>
<path d="M118.698 63.9235C118.698 63.6665 118.654 63.4255 118.567 63.2007C118.479 62.9651 118.357 62.7616 118.201 62.5903C118.045 62.419 117.864 62.2851 117.66 62.1887C117.455 62.0816 117.231 62.0281 116.987 62.0281C116.753 62.0281 116.533 62.0763 116.329 62.1727C116.124 62.269 115.943 62.4029 115.787 62.5742C115.641 62.7456 115.519 62.949 115.422 63.1846C115.334 63.4095 115.29 63.6504 115.29 63.9074C115.29 64.1644 115.334 64.4054 115.422 64.6302C115.509 64.8551 115.631 65.0532 115.787 65.2246C115.943 65.3852 116.124 65.519 116.329 65.6261C116.543 65.7225 116.767 65.7707 117.001 65.7707C117.235 65.7707 117.455 65.7225 117.66 65.6261C117.864 65.5297 118.04 65.3959 118.186 65.2246C118.342 65.0532 118.464 64.8551 118.552 64.6302C118.649 64.4054 118.698 64.1698 118.698 63.9235ZM115.363 54.6875V60.5985C115.987 59.8811 116.767 59.5223 117.704 59.5223C118.259 59.5223 118.766 59.6401 119.225 59.8757C119.693 60.1006 120.088 60.4111 120.41 60.8073C120.741 61.1928 121 61.6533 121.185 62.1887C121.37 62.7134 121.463 63.2756 121.463 63.8753C121.463 64.4857 121.365 65.0586 121.17 65.594C120.985 66.1294 120.722 66.5952 120.38 66.9914C120.039 67.3876 119.634 67.7035 119.166 67.9391C118.708 68.164 118.211 68.2764 117.674 68.2764C116.699 68.2764 115.929 67.8856 115.363 67.1039V68.0194H112.715V54.6875H115.363Z" fill="#8697FF"/>
<path d="M124.415 66.8951L120.787 59.7793H123.859L125.863 64.0038L127.809 59.7793H130.851L124.825 72.1315H121.855L124.415 66.8951Z" fill="#8697FF"/>
<path d="M137.779 68.2811H135.199L135.215 66.1237H137.779C138.312 66.1237 138.762 65.9959 139.13 65.7402C139.503 65.4845 139.785 65.1036 139.977 64.5976C140.174 64.0862 140.272 63.4576 140.272 62.7118V62.2085C140.272 61.6491 140.216 61.1591 140.105 60.7382C139.998 60.3121 139.838 59.9579 139.625 59.6755C139.412 59.3879 139.146 59.1721 138.826 59.0283C138.512 58.8845 138.15 58.8126 137.739 58.8126H135.151V56.6472H137.739C138.528 56.6472 139.25 56.783 139.905 57.0547C140.565 57.3211 141.135 57.7046 141.615 58.2053C142.099 58.7007 142.472 59.2893 142.733 59.9712C143 60.6477 143.133 61.3988 143.133 62.2244V62.7118C143.133 63.5322 143 64.2833 142.733 64.9651C142.472 65.647 142.102 66.2356 141.623 66.731C141.143 67.2264 140.576 67.6099 139.921 67.8816C139.271 68.1479 138.557 68.2811 137.779 68.2811ZM136.805 56.6472V68.2811H134V56.6472H136.805Z" fill="#8697FF"/>
<path d="M148.654 68.4409C147.951 68.4409 147.322 68.3317 146.768 68.1133C146.214 67.8896 145.746 67.5833 145.362 67.1944C144.984 66.8055 144.694 66.3581 144.491 65.852C144.294 65.346 144.196 64.8106 144.196 64.246V63.9424C144.196 63.3085 144.284 62.7225 144.459 62.1845C144.635 61.6411 144.896 61.1671 145.242 60.7622C145.589 60.3574 146.023 60.0431 146.545 59.8194C147.067 59.5903 147.674 59.4758 148.367 59.4758C148.979 59.4758 149.528 59.5743 150.013 59.7714C150.497 59.9685 150.907 60.2508 151.243 60.6184C151.584 60.9859 151.842 61.4307 152.018 61.9528C152.199 62.4748 152.29 63.0608 152.29 63.7106V64.8053H145.226V63.1194H149.661V62.9116C149.666 62.624 149.616 62.3789 149.509 62.1765C149.408 61.9741 149.259 61.8196 149.062 61.7131C148.865 61.6065 148.625 61.5533 148.343 61.5533C148.05 61.5533 147.807 61.6172 147.615 61.745C147.429 61.8729 147.283 62.0487 147.176 62.2724C147.075 62.4908 147.003 62.7438 146.96 63.0315C146.918 63.3191 146.896 63.6227 146.896 63.9424V64.246C146.896 64.5656 146.939 64.8559 147.024 65.1169C147.115 65.3779 147.243 65.6017 147.408 65.7881C147.578 65.9692 147.781 66.1104 148.015 66.2116C148.255 66.3128 148.526 66.3634 148.83 66.3634C149.198 66.3634 149.56 66.2942 149.917 66.1557C150.274 66.0172 150.58 65.7881 150.836 65.4685L152.058 66.9227C151.882 67.1731 151.632 67.4155 151.307 67.6499C150.987 67.8842 150.604 68.076 150.156 68.2252C149.709 68.369 149.208 68.4409 148.654 68.4409Z" fill="#8697FF"/>
<path d="M157.915 65.852C157.915 65.7029 157.864 65.575 157.763 65.4685C157.667 65.3566 157.497 65.2554 157.252 65.1649C157.007 65.069 156.663 64.9731 156.221 64.8772C155.8 64.7867 155.403 64.6668 155.03 64.5177C154.663 64.3685 154.341 64.1874 154.064 63.9743C153.787 63.7612 153.568 63.5082 153.408 63.2152C153.254 62.9223 153.177 62.5867 153.177 62.2085C153.177 61.8409 153.254 61.4947 153.408 61.1697C153.568 60.8395 153.8 60.5491 154.104 60.2988C154.413 60.0431 154.788 59.8433 155.23 59.6995C155.672 59.5504 156.176 59.4758 156.74 59.4758C157.518 59.4758 158.189 59.5956 158.754 59.8353C159.319 60.0697 159.753 60.4 160.056 60.8261C160.365 61.247 160.52 61.7344 160.52 62.2884H157.827C157.827 62.07 157.79 61.8835 157.715 61.729C157.646 61.5746 157.531 61.4574 157.372 61.3775C157.212 61.2922 156.999 61.2496 156.732 61.2496C156.546 61.2496 156.375 61.2842 156.221 61.3535C156.072 61.4227 155.952 61.5186 155.861 61.6411C155.771 61.7637 155.726 61.9075 155.726 62.0726C155.726 62.1898 155.752 62.2964 155.806 62.3922C155.864 62.4828 155.952 62.568 156.069 62.6479C156.186 62.7225 156.336 62.7918 156.517 62.8557C156.698 62.9143 156.916 62.9675 157.172 63.0155C157.752 63.122 158.296 63.2738 158.802 63.4709C159.308 63.668 159.718 63.9477 160.032 64.3099C160.352 64.6721 160.512 65.1595 160.512 65.7721C160.512 66.1557 160.424 66.5099 160.248 66.8348C160.072 67.1545 159.819 67.4368 159.489 67.6818C159.159 67.9215 158.762 68.108 158.298 68.2411C157.835 68.3743 157.313 68.4409 156.732 68.4409C155.907 68.4409 155.209 68.2944 154.639 68.0014C154.069 67.7031 153.637 67.3302 153.345 66.8828C153.057 66.43 152.913 65.9719 152.913 65.5085H155.422C155.433 65.7748 155.497 65.9932 155.614 66.1637C155.736 66.3341 155.899 66.4593 156.101 66.5392C156.304 66.6191 156.538 66.6591 156.804 66.6591C157.049 66.6591 157.252 66.6244 157.412 66.5552C157.577 66.4859 157.702 66.3927 157.787 66.2755C157.872 66.153 157.915 66.0118 157.915 65.852Z" fill="#8697FF"/>
<path d="M164.491 56V68.2811H161.798V56H164.491ZM170.02 59.6356L166.265 64.0382L164.299 66.0038L163.125 64.2939L164.763 62.1605L166.792 59.6356H170.02ZM167.136 68.2811L164.827 64.3419L166.816 62.9276L170.22 68.2811H167.136Z" fill="#8697FF"/>
<path d="M175.278 59.6356V61.5053H170.068V59.6356H175.278ZM171.163 57.4862H173.856V65.4605C173.856 65.6896 173.882 65.868 173.935 65.9959C173.989 66.1184 174.079 66.2063 174.207 66.2595C174.34 66.3075 174.516 66.3315 174.735 66.3315C174.889 66.3315 175.017 66.3288 175.118 66.3235C175.219 66.3128 175.315 66.2995 175.406 66.2835V68.2092C175.177 68.2837 174.937 68.3397 174.687 68.377C174.436 68.4196 174.17 68.4409 173.888 68.4409C173.312 68.4409 172.82 68.3503 172.409 68.1692C172.005 67.9881 171.696 67.7031 171.482 67.3143C171.269 66.9254 171.163 66.4193 171.163 65.7961V57.4862Z" fill="#8697FF"/>
<path d="M175.773 64.0462V63.8784C175.773 63.2445 175.864 62.6612 176.045 62.1286C176.226 61.5905 176.492 61.1244 176.844 60.7303C177.196 60.3361 177.63 60.0298 178.146 59.8114C178.663 59.5876 179.26 59.4758 179.936 59.4758C180.618 59.4758 181.217 59.5876 181.734 59.8114C182.256 60.0298 182.693 60.3361 183.044 60.7303C183.396 61.1244 183.662 61.5905 183.843 62.1286C184.025 62.6612 184.115 63.2445 184.115 63.8784V64.0462C184.115 64.6748 184.025 65.2581 183.843 65.7961C183.662 66.3288 183.396 66.7949 183.044 67.1944C182.693 67.5886 182.259 67.8949 181.742 68.1133C181.225 68.3317 180.629 68.4409 179.952 68.4409C179.276 68.4409 178.676 68.3317 178.154 68.1133C177.632 67.8949 177.196 67.5886 176.844 67.1944C176.492 66.7949 176.226 66.3288 176.045 65.7961C175.864 65.2581 175.773 64.6748 175.773 64.0462ZM178.466 63.8784V64.0462C178.466 64.3712 178.49 64.6748 178.538 64.9571C178.586 65.2394 178.666 65.4871 178.778 65.7002C178.889 65.908 179.041 66.0704 179.233 66.1876C179.425 66.3048 179.665 66.3634 179.952 66.3634C180.235 66.3634 180.469 66.3048 180.655 66.1876C180.847 66.0704 180.999 65.908 181.111 65.7002C181.223 65.4871 181.303 65.2394 181.35 64.9571C181.398 64.6748 181.422 64.3712 181.422 64.0462V63.8784C181.422 63.5641 181.398 63.2685 181.35 62.9915C181.303 62.7092 181.223 62.4615 181.111 62.2484C180.999 62.03 180.847 61.8595 180.655 61.737C180.464 61.6145 180.224 61.5533 179.936 61.5533C179.654 61.5533 179.417 61.6145 179.225 61.737C179.039 61.8595 178.889 62.03 178.778 62.2484C178.666 62.4615 178.586 62.7092 178.538 62.9915C178.49 63.2685 178.466 63.5641 178.466 63.8784Z" fill="#8697FF"/>
<path d="M188.03 61.2976V71.605H185.338V59.6356H187.847L188.03 61.2976ZM193.336 63.8545V64.0223C193.336 64.6508 193.264 65.2341 193.12 65.7721C192.976 66.3101 192.763 66.7789 192.481 67.1784C192.199 67.5779 191.847 67.8896 191.426 68.1133C191.011 68.3317 190.529 68.4409 189.98 68.4409C189.463 68.4409 189.019 68.3264 188.646 68.0973C188.273 67.8683 187.961 67.5513 187.711 67.1465C187.46 66.7416 187.258 66.2782 187.104 65.7562C186.949 65.2341 186.827 64.6828 186.736 64.1022V63.8864C186.827 63.2632 186.949 62.6852 187.104 62.1525C187.258 61.6145 187.46 61.1458 187.711 60.7462C187.961 60.3467 188.27 60.0351 188.638 59.8114C189.011 59.5876 189.455 59.4758 189.972 59.4758C190.521 59.4758 191.003 59.5797 191.418 59.7874C191.839 59.9951 192.191 60.2935 192.473 60.6823C192.761 61.0658 192.976 61.5266 193.12 62.0646C193.264 62.6026 193.336 63.1993 193.336 63.8545ZM190.643 64.0223V63.8545C190.643 63.5189 190.619 63.2126 190.571 62.9356C190.523 62.6533 190.446 62.4082 190.34 62.2005C190.238 61.9927 190.103 61.8329 189.932 61.7211C189.762 61.6092 189.551 61.5533 189.301 61.5533C189.013 61.5533 188.771 61.5985 188.574 61.6891C188.382 61.7743 188.227 61.9075 188.11 62.0886C187.998 62.2644 187.919 62.4855 187.871 62.7518C187.828 63.0128 187.809 63.3191 187.815 63.6707V64.3259C187.804 64.7307 187.844 65.0876 187.934 65.3966C188.025 65.7002 188.182 65.9373 188.406 66.1077C188.63 66.2782 188.933 66.3634 189.317 66.3634C189.573 66.3634 189.786 66.3048 189.956 66.1876C190.126 66.0651 190.262 65.8973 190.364 65.6842C190.465 65.4658 190.537 65.2155 190.579 64.9332C190.622 64.6508 190.643 64.3472 190.643 64.0223Z" fill="#8697FF"/>
</g>
<defs>
<linearGradient id="paint0_linear_32501_47122" x1="54.8691" y1="60.4904" x2="77.2905" y2="66.8274" gradientUnits="userSpaceOnUse">
<stop stop-color="#8697FF"/>
<stop offset="1" stop-color="#ABB7FF"/>
</linearGradient>
<linearGradient id="paint1_linear_32501_47122" x1="73.5057" y1="60.0606" x2="57.2812" y2="43.8517" gradientUnits="userSpaceOnUse">
<stop stop-color="#8697FF"/>
<stop offset="1" stop-color="#5156D8" stop-opacity="0"/>
</linearGradient>
<linearGradient id="paint2_linear_32501_47122" x1="65.1534" y1="69.1632" x2="49.5946" y2="60.248" gradientUnits="userSpaceOnUse">
<stop stop-color="#465EED"/>
<stop offset="1" stop-color="#8697FF" stop-opacity="0"/>
</linearGradient>
<linearGradient id="paint3_linear_32501_47122" x1="56.2078" y1="60.3219" x2="66.7506" y2="73.6727" gradientUnits="userSpaceOnUse">
<stop stop-color="#8898FF"/>
<stop offset="0.983895" stop-color="#6277F1"/>
</linearGradient>
<clipPath id="clip0_32501_47122">
<rect width="149" height="30" fill="white" transform="translate(45 46)"/>
</clipPath>
</defs>
</svg>
