<svg width="20" height="20" viewBox="0 0 20 20" fill="none" xmlns="http://www.w3.org/2000/svg">
<path d="M17.3265 13.7904C16.9266 14.6802 16.7354 15.0771 16.2196 15.8637C15.5009 16.9614 14.4867 18.3296 13.232 18.3412C12.1163 18.3514 11.8294 17.6128 10.3154 17.6215C8.80127 17.6302 8.48541 18.3543 7.36977 18.3441C6.11504 18.3325 5.15443 17.0981 4.43578 15.9989C2.42473 12.9282 2.21609 9.32392 3.45489 7.40909C4.33581 6.04676 5.72529 5.25 7.03218 5.25C8.36226 5.25 9.19971 5.98278 10.2994 5.98278C11.3672 5.98278 12.0178 5.25 13.5551 5.25C14.7185 5.25 15.9501 5.88537 16.8281 6.98454C13.9521 8.56497 14.42 12.6883 17.3265 13.7904Z" fill="#13141A"/>
<path d="M12.3847 4.02556C12.944 3.30586 13.3685 2.28811 13.2135 1.25C12.3007 1.31252 11.2328 1.89555 10.6084 2.65595C10.0419 3.34657 9.57532 4.36868 9.75643 5.36317C10.7547 5.39371 11.7863 4.79614 12.3847 4.02556Z" fill="#13141A"/>
</svg>
