<svg xmlns="http://www.w3.org/2000/svg" width="40" height="40" viewBox="0 0 40 40" fill="none">
    <path d="M9.16296 26.6517C17.4963 30.8184 22.4963 30.8184 30.8296 26.6517" stroke="#6A7587" stroke-width="3"
        stroke-linecap="round" stroke-linejoin="round" />
    <path
        d="M25.8333 29.1517L27.5 32.4851C27.5 32.4851 34.4522 30.2712 36.6667 26.6517C36.6667 24.9851 37.5502 13.0741 31.6667 9.15173C29.1667 7.48507 25 6.65173 25 6.65173L23.3333 9.98507H20"
        stroke="#6A7587" stroke-width="3" stroke-linecap="round" stroke-linejoin="round" />
    <path
        d="M14.2175 29.1517L12.5508 32.4851C12.5508 32.4851 5.59861 30.2712 3.38416 26.6517C3.38416 24.9851 2.50068 13.0741 8.38416 9.15173C10.8842 7.48507 15.0508 6.65173 15.0508 6.65173L16.7175 9.98507H20.0508"
        stroke="#6A7587" stroke-width="3" stroke-linecap="round" stroke-linejoin="round" />
    <path
        d="M14.163 23.3184C12.7822 23.3184 11.663 21.8261 11.663 19.9851C11.663 18.1441 12.7822 16.6517 14.163 16.6517C15.5437 16.6517 16.663 18.1441 16.663 19.9851C16.663 21.8261 15.5437 23.3184 14.163 23.3184Z"
        stroke="#6A7587" stroke-width="3" stroke-linecap="round" stroke-linejoin="round" />
    <path
        d="M25.837 23.3184C24.4564 23.3184 23.337 21.8261 23.337 19.9851C23.337 18.1441 24.4564 16.6517 25.837 16.6517C27.2177 16.6517 28.337 18.1441 28.337 19.9851C28.337 21.8261 27.2177 23.3184 25.837 23.3184Z"
        stroke="#6A7587" stroke-width="3" stroke-linecap="round" stroke-linejoin="round" />
</svg>