<svg xmlns="http://www.w3.org/2000/svg" width="40" height="40" viewBox="0 0 40 40" fill="none">
    <g clip-path="url(#clip0_112131_41218)">
        <path
            d="M31.6666 6.66296H8.33325C7.00717 6.66296 5.7354 7.18975 4.79772 8.12743C3.86004 9.06511 3.33325 10.3369 3.33325 11.663V28.3296C3.33325 29.6557 3.86004 30.9275 4.79772 31.8652C5.7354 32.8028 7.00717 33.3296 8.33325 33.3296H31.6666C32.9927 33.3296 34.2644 32.8028 35.2021 31.8652C36.1398 30.9275 36.6666 29.6557 36.6666 28.3296V11.663C36.6666 10.3369 36.1398 9.06511 35.2021 8.12743C34.2644 7.18975 32.9927 6.66296 31.6666 6.66296ZM30.5499 9.9963L19.9999 17.913L9.44992 9.9963H30.5499ZM31.6666 29.9963H8.33325C7.89122 29.9963 7.4673 29.8207 7.15474 29.5081C6.84218 29.1956 6.66659 28.7717 6.66659 28.3296V12.0796L18.9999 21.3296C19.2884 21.546 19.6393 21.663 19.9999 21.663C20.3605 21.663 20.7114 21.546 20.9999 21.3296L33.3333 12.0796V28.3296C33.3333 28.7717 33.1577 29.1956 32.8451 29.5081C32.5325 29.8207 32.1086 29.9963 31.6666 29.9963Z"
            fill="#6A7587" />
    </g>
    <defs>
        <clipPath id="clip0_112131_41218">
            <rect width="40" height="40" fill="white" />
        </clipPath>
    </defs>
</svg>