<svg width="60" height="60" viewBox="0 0 60 60" fill="none" xmlns="http://www.w3.org/2000/svg">
    <rect width="60" height="60" rx="30" fill="#7084FF" />
    <path
        d="M49.569 32.4832C51.1213 29.0036 43.4469 19.2821 36.1153 15.2319C31.4939 12.0943 26.6784 12.5254 25.7031 13.903C23.5627 16.9264 32.7904 19.4883 38.9617 22.4778C37.6351 23.0559 36.385 24.0933 35.6499 25.4201C33.3491 22.8999 28.2994 20.7296 22.3741 22.4778C18.3811 23.6558 15.0627 26.4332 13.7801 30.6281C13.4685 30.4891 13.1234 30.4119 12.7604 30.4119C11.3722 30.4119 10.2469 31.541 10.2469 32.9339C10.2469 34.3267 11.3722 35.4559 12.7604 35.4559C13.0177 35.4559 13.8222 35.2827 13.8222 35.2827L26.6784 35.3762C21.5369 43.5601 17.4737 44.7564 17.4737 46.1742C17.4737 47.5921 21.3615 47.2079 22.8213 46.6794C29.8093 44.1494 37.3149 36.2646 38.6028 33.9948C44.0114 34.6719 48.5568 34.752 49.569 32.4832Z"
        fill="url(#paint0_linear_112131_41147)" />
    <path fill-rule="evenodd" clip-rule="evenodd"
        d="M38.961 22.478C38.9614 22.4781 38.9618 22.4783 38.9622 22.4785C39.2482 22.3654 39.2019 21.9415 39.1234 21.6086C38.9429 20.8435 35.828 17.7573 32.9029 16.3749C28.9175 14.4915 25.9826 14.5884 25.5486 15.4564C26.3605 17.126 30.1244 18.6936 34.0555 20.3308C35.7326 21.0293 37.4402 21.7404 38.9619 22.4776C38.9616 22.4777 38.9613 22.4779 38.961 22.478Z"
        fill="url(#paint1_linear_112131_41147)" />
    <path fill-rule="evenodd" clip-rule="evenodd"
        d="M33.9032 39.2821C33.0972 38.973 32.1867 38.6894 31.1515 38.4321C32.2553 36.4505 32.4869 33.5168 31.4445 31.6619C29.9815 29.0589 28.1451 27.6733 23.8777 27.6733C21.5306 27.6733 15.2112 28.4666 15.099 33.7596C15.0873 34.315 15.0987 34.8239 15.1388 35.2919L26.6785 35.3758C25.1227 37.8522 23.6657 39.6888 22.3901 41.0854C23.9216 41.4791 25.1855 41.8097 26.3459 42.1132C27.4468 42.4012 28.4545 42.6648 29.5092 42.9348C31.1003 41.7717 32.5961 40.5034 33.9032 39.2821Z"
        fill="url(#paint2_linear_112131_41147)" />
    <path
        d="M13.6261 34.7482C14.0975 38.7691 16.375 40.3448 21.0288 40.8112C25.6826 41.2775 28.3521 40.9647 31.9061 41.2891C34.8744 41.5601 37.5247 43.0778 38.5079 42.5533C39.3928 42.0813 38.8977 40.376 37.7137 39.2819C36.1789 37.8637 34.0547 36.8776 30.3171 36.5277C31.062 34.4814 30.8532 31.6122 29.6964 30.0512C28.0237 27.7941 24.9363 26.7736 21.0288 27.2195C16.9463 27.6853 13.0344 29.702 13.6261 34.7482Z"
        fill="url(#paint3_linear_112131_41147)" />
    <defs>
        <linearGradient id="paint0_linear_112131_41147" x1="21.9091" y1="29.4018" x2="49.2484" y2="37.1286"
            gradientUnits="userSpaceOnUse">
            <stop stop-color="white" />
            <stop offset="1" stop-color="white" />
        </linearGradient>
        <linearGradient id="paint1_linear_112131_41147" x1="44.6334" y1="28.8804" x2="24.8502" y2="9.11568"
            gradientUnits="userSpaceOnUse">
            <stop stop-color="#8697FF" />
            <stop offset="1" stop-color="#8697FF" stop-opacity="0" />
        </linearGradient>
        <linearGradient id="paint2_linear_112131_41147" x1="34.4518" y1="39.9729" x2="15.4802" y2="29.1023"
            gradientUnits="userSpaceOnUse">
            <stop stop-color="#8697FF" />
            <stop offset="1" stop-color="#8697FF" stop-opacity="0" />
        </linearGradient>
        <linearGradient id="paint3_linear_112131_41147" x1="23.5405" y1="29.197" x2="36.3958" y2="45.4761"
            gradientUnits="userSpaceOnUse">
            <stop stop-color="white" />
            <stop offset="0.983895" stop-color="#D1D8FF" />
        </linearGradient>
    </defs>
</svg>