<svg width="60" height="60" viewBox="0 0 60 60" fill="none" xmlns="http://www.w3.org/2000/svg">
    <rect width="60" height="60" rx="30" fill="#4C65FF" />
    <path
        d="M49.5682 32.4834C51.1205 29.0038 43.4461 19.2823 36.1145 15.2322C31.4931 12.0946 26.6776 12.5256 25.7023 13.9033C23.562 16.9267 32.7896 19.4885 38.9609 22.478C37.6343 23.0561 36.3842 24.0936 35.6491 25.4203C33.3484 22.9001 28.2986 20.7298 22.3733 22.478C18.3803 23.6561 15.0619 26.4334 13.7793 30.6283C13.4677 30.4894 13.1226 30.4121 12.7596 30.4121C11.3714 30.4121 10.2461 31.5413 10.2461 32.9341C10.2461 34.327 11.3714 35.4561 12.7596 35.4561C13.0169 35.4561 13.8214 35.2829 13.8214 35.2829L26.6776 35.3764C21.5361 43.5603 17.4729 44.7567 17.4729 46.1745C17.4729 47.5923 21.3607 47.2081 22.8205 46.6796C29.8085 44.1497 37.3141 36.2649 38.602 33.9951C44.0106 34.6722 48.556 34.7522 49.5682 32.4834Z"
        fill="url(#paint0_linear_112718_39454)" />
    <path
        d="M25.5469 15.4553C25.9841 14.5891 28.9178 14.4941 32.9004 16.3762C35.8254 17.7586 38.9406 20.8445 39.1211 21.6096C39.1996 21.9423 39.2455 22.3655 38.96 22.4788C33.8691 20.0129 26.6999 17.8384 25.5469 15.4553Z"
        fill="url(#paint1_linear_112718_39454)" />
    <path
        d="M23.8726 27.6738C28.14 27.6738 29.9761 29.0591 31.439 31.6621C32.4815 33.517 32.2498 36.4509 31.1461 38.4326C32.1818 38.6901 33.0926 38.9749 33.899 39.2842C32.5921 40.5051 31.0961 41.772 29.5054 42.9346C27.3387 42.3798 25.3697 41.8545 22.3844 41.0869C23.6609 39.6899 25.121 37.8538 26.6783 35.375L15.1334 35.29C15.0935 34.8226 15.0826 34.3143 15.0943 33.7598C15.2065 28.4667 21.5255 27.6738 23.8726 27.6738Z"
        fill="url(#paint2_linear_112718_39454)" />
    <path
        d="M13.6244 34.7477C14.0958 38.7686 16.3732 40.3444 21.0271 40.8107C25.6809 41.277 28.3504 40.9642 31.9044 41.2886C34.8726 41.5596 37.523 43.0773 38.5062 42.5528C39.391 42.0808 38.896 40.3755 37.712 39.2814C36.1772 37.8632 34.053 36.8771 30.3154 36.5272C31.0603 34.4809 30.8515 31.6117 29.6947 30.0507C28.022 27.7936 24.9346 26.7731 21.0271 27.219C16.9446 27.6848 13.0327 29.7015 13.6244 34.7477Z"
        fill="url(#paint3_linear_112718_39454)" />
    <defs>
        <linearGradient id="paint0_linear_112718_39454" x1="21.9083" y1="29.4021" x2="49.2476"
            y2="37.1289" gradientUnits="userSpaceOnUse">
            <stop stop-color="white" />
            <stop offset="1" stop-color="white" />
        </linearGradient>
        <linearGradient id="paint1_linear_112718_39454" x1="44.6306" y1="28.8801" x2="24.8493"
            y2="9.11638" gradientUnits="userSpaceOnUse">
            <stop stop-color="#8697FF" />
            <stop offset="1" stop-color="#8697FF" stop-opacity="0" />
        </linearGradient>
        <linearGradient id="paint2_linear_112718_39454" x1="34.4476" y1="39.9728" x2="15.4762"
            y2="29.1014" gradientUnits="userSpaceOnUse">
            <stop stop-color="#8697FF" />
            <stop offset="1" stop-color="#8697FF" stop-opacity="0" />
        </linearGradient>
        <linearGradient id="paint3_linear_112718_39454" x1="23.5387" y1="29.1965" x2="36.394"
            y2="45.4756" gradientUnits="userSpaceOnUse">
            <stop stop-color="white" />
            <stop offset="0.983895" stop-color="#D1D8FF" />
        </linearGradient>
    </defs>
</svg>